<?xml version="1.0" encoding="UTF-8"?>
<svg enable-background="new 0 0 64 64" viewBox="0 0 64 64" xmlns="http://www.w3.org/2000/svg" xmlns:xlink="http://www.w3.org/1999/xlink">
 <defs>
  <linearGradient id="a" x1="-47.006" x2="-39.621" gradientTransform="matrix(1.2374 .212 -.1689 .9856 78.3 32.544)" gradientUnits="userSpaceOnUse">
   <stop stop-color="#b4b4b4" offset="0"/>
   <stop stop-color="#a9a9a9" offset=".4354"/>
   <stop stop-color="#a0a0a0" offset="1"/>
  </linearGradient>
  <linearGradient id="b" x2="0" y1="24.75" y2="46" gradientUnits="userSpaceOnUse">
   <stop stop-color="#fff" offset="0"/>
   <stop stop-color="#b4b4b4" offset="1"/>
  </linearGradient>
  <linearGradient id="d" x1="18" x2="58" gradientUnits="userSpaceOnUse" xlink:href="#a"/>
  <linearGradient id="c" x1="19.71" x2="11.144" y1="25.855" y2="34.421" gradientUnits="userSpaceOnUse">
   <stop stop-color="#fff" offset="0"/>
   <stop stop-color="#c8c8c8" offset="1"/>
  </linearGradient>
 </defs>
 <path d="m58.5 25.5h5v24h-5z" fill="#845340"/>
 <path d="m63 26v23h-4v-23h4m1-1h-6v25h6v-25z" fill="#663629"/>
 <path d="m20.75 36.92c-.5 0-.98-.11-1.43-.33l-11.38-5.62c-.78-.38-1.36-1.05-1.64-1.87-.28-.82-.22-1.71.16-2.48l.71-1.45c.54-1.1 1.69-1.81 2.92-1.81.5 0 .98.11 1.43.33l11.38 5.61c1.61.79 2.27 2.74 1.48 4.35l-.71 1.45c-.53 1.1-1.68 1.82-2.92 1.82" fill="url(#c)"/>
 <path d="m10.1 23.61c.46 0 .9.1 1.32.31l11.39 5.61c.72.35 1.25.97 1.51 1.73s.21 1.57-.15 2.29l-.71 1.45c-.5 1.02-1.56 1.67-2.7 1.67-.46 0-.9-.1-1.32-.31l-11.39-5.61c-1.48-.73-2.1-2.53-1.37-4.02l.71-1.45c.51-1.01 1.57-1.67 2.71-1.67m0-.5c-1.29 0-2.54.72-3.15 1.95l-.71 1.45c-.85 1.73-.13 3.84 1.59 4.69l11.39 5.61c.49.24 1.02.36 1.54.36 1.29 0 2.54-.72 3.15-1.95l.71-1.45c.85-1.73.13-3.84-1.59-4.69l-11.39-5.61c-.5-.24-1.02-.36-1.54-.36z" fill="#bebebe"/>
 <path d="m5.5 32.5h53v10h-53z" fill="#845340"/>
 <path d="m58 33v9h-52v-9h52m1-1h-54v11h54v-11z" fill="#663629"/>
 <path d="m54.25 31h-13.75s-7.6-0.1-12.5-2.5-10-3.75-10-3.75v17.5c0 2.07 1.68 3.75 3.75 3.75h31.25c2.76 0 5-2.24 5-5v-6.25c0-2.07-1.68-3.75-3.75-3.75z" fill="url(#b)" stroke="#bebebe" stroke-miterlimit="10" stroke-width=".5"/>
 <path d="m19 26.08c1.79 0.55 5.24 1.69 8.56 3.32 5.04 2.46 12.61 2.6 12.94 2.6h13.75c1.52 0 2.75 1.23 2.75 2.75v6.25c0 2.21-1.79 4-4 4h-31.25c-1.52 0-2.75-1.23-2.75-2.75v-16.17m-1-1.33v17.5c0 2.07 1.68 3.75 3.75 3.75h31.25c2.76 0 5-2.24 5-5v-6.25c0-2.07-1.68-3.75-3.75-3.75h-13.75s-7.6-0.1-12.5-2.5-10-3.75-10-3.75z" fill="url(#d)"/>
 <path d="m27.79 32.78l-9.14-1.57.21-1.21 9.14 1.57z" fill="url(#a)"/>
 <path d="m.5 14.5h5v35h-5z" fill="#845340"/>
 <path d="m5 15v34h-4v-34h4m1-1h-6v36h6v-36z" fill="#663629"/>
</svg>
