<?xml version="1.0" encoding="UTF-8"?>
<svg enable-background="new 0 0 64 64" viewBox="0 0 64 64" xmlns="http://www.w3.org/2000/svg">
 <path d="m47.5 58.5v-51h-31v51h-4v-55h39v55z" fill="#ececed"/>
 <path d="m51 4v54h-3v-51h-32v51h-3v-54h38m1-1h-40v56h5v-51h30v51h5v-56z" fill="#9b9c9e"/>
 <path d="m17.5 58.61v-50.22l15-3.75v57.72z" fill="#f0f0f0"/>
 <g fill="#646464">
  <path d="m32 5.28v56.44l-14-3.5v-49.44l14-3.5m1-1.28-16 4v51l16 4v-59z"/>
  <circle cx="29" cy="37" r="1"/>
  <path d="m26.05 31.84l3.99.33c.27.02.48.27.46.54-.02.27-.27.48-.54.46l-3.99-.33c-.27-.02-.48-.27-.46-.54.02-.28.26-.49.54-.46"/>
 </g>
</svg>
