<?xml version="1.0" encoding="UTF-8"?>
<svg viewBox="0 0 64 64" xmlns="http://www.w3.org/2000/svg" xmlns:xlink="http://www.w3.org/1999/xlink">
 <defs>
  <linearGradient id="g" x2="0" y1="73.362" y2="70.362" gradientTransform="matrix(1.9999 0 0 1.2424 -47.993 955.22)" gradientUnits="userSpaceOnUse">
   <stop stop-color="#fff" offset="0"/>
   <stop stop-color="#ccc" offset="1"/>
  </linearGradient>
  <linearGradient id="f" x2="0" y1="73.362" y2="70.362" gradientTransform="matrix(1.9999 0 0 2.0001 -47.871 861.63)" gradientUnits="userSpaceOnUse">
   <stop stop-color="#fff" offset="0"/>
   <stop stop-color="#cdcdcd" offset="1"/>
  </linearGradient>
  <radialGradient id="e" cx="41.416" cy="62.398" r="7" gradientTransform="matrix(1.2082 0 0 2.031 -9.4646 896.95)" gradientUnits="userSpaceOnUse">
   <stop stop-color="#919191" offset="0"/>
   <stop stop-color="#fff" offset="1"/>
  </radialGradient>
  <radialGradient id="d" cx="39" cy="62.362" r="7" gradientTransform="matrix(2.0624 0 0 2.0626 -48.537 894.98)" gradientUnits="userSpaceOnUse">
   <stop stop-color="#919191" offset="0"/>
   <stop stop-color="#e4e4e4" offset="1"/>
  </radialGradient>
 </defs>
 <g transform="translate(0 -988.36)">
  <path d="m12.253 994.45h39.685v51.689h-39.685z" fill="#fff"/>
  <g fill="#d3d3d3">
   <path id="c" d="m34 996.36h4v4h-4z"/>
   <path id="b" d="m40 996.36h4v4h-4z"/>
   <path id="a" d="m46 996.36h4v4h-4z"/>
  </g>
  <path d="m12 1002.4h40v6h-40z" fill="url(#f)"/>
  <path d="m12 1042.4h40v4h-40z" fill="url(#g)"/>
  <path d="m10 992.36v56h44l1e-6 -56zm2 2h40v52h-40z" fill="#969696"/>
  <path d="m47.38 1023.6c0 8.5523-6.9324 15.485-15.484 15.485s-15.484-6.9331-15.484-15.485c0-8.5524 6.9324-15.485 15.484-15.485s15.484 6.933 15.484 15.485z" fill="none" stroke="#4c4c4c" stroke-width="2.2121"/>
  <path d="m15 1020.4h6v6h-6z" fill="#939393"/>
  <path transform="translate(0 988.36)" d="m17 10l2.672-2.3594.89 2.3594z" fill="#4f4f4f"/>
  <path d="m15 1020.4h7v6h-7z" fill="#fff"/>
  <g fill="#b8b8b8">
   <use xlink:href="#b"/>
   <use xlink:href="#a"/>
   <use xlink:href="#c"/>
  </g>
  <path d="m46.333 1023.6c0 7.9739-6.4635 14.438-14.437 14.438-7.9732 0-14.437-6.4639-14.437-14.438 0-7.9736 6.4635-14.438 14.437-14.438 7.9732 0 14.437 6.4646 14.437 14.438" fill="url(#d)"/>
  <path d="m47.38 1023.6c0 8.5523-6.9324 15.485-15.484 15.485s-15.484-6.9331-15.484-15.485c0-8.5524 6.9324-15.485 15.484-15.485s15.484 6.933 15.484 15.485z" fill="none" stroke="#9f9f9f" stroke-width="2.2121"/>
  <path d="m46.112 1023.6c0 7.8521-3.7865 14.217-8.4574 14.217s-8.4574-6.365-8.4574-14.217c0-7.8519 3.7865-14.217 8.4574-14.217s8.4574 6.3653 8.4574 14.217" fill="url(#e)"/>
  <path transform="matrix(1.2882 0 0 2.0262 -11.99 897.25)" d="m46 62.362c0 3.866-3.134 7-7 7s-7-3.134-7-7 3.134-7 7-7 7 3.134 7 7z" fill="none" stroke="#4b4b4b" stroke-width="1.3827"/>
  <path d="m29 1020.4h3v6h-3z" fill="#939393"/>
 </g>
</svg>
