<?xml version="1.0" encoding="UTF-8"?>
<svg enable-background="new 0 0 64 64" viewBox="0 0 64 64" xmlns="http://www.w3.org/2000/svg">
 <path d="m30.59 20.69l2.12 2.12c.39.39.39 1.02 0 1.41l-8.49 8.49c-.39.39-1.02.39-1.41 0l-2.12-2.12-16.97 16.97 12.73 12.73 43.84-43.84-12.73-12.73-16.97 16.97m-11.36 29.65c-1.56 1.56-4.09 1.56-5.66 0-1.56-1.56-1.56-4.09 0-5.66s4.09-1.56 5.66 0c1.56 1.57 1.56 4.1 0 5.66" fill="#fcd703"/>
 <path d="m60.28 16.44c.78-.78.78-2.05 0-2.83l-9.9-9.9c-.78-.78-2.05-.78-2.83 0l12.73 12.73"/>
 <path d="m16.44 60.28c-.78.78-2.05.78-2.83 0l-9.9-9.9c-.78-.78-.78-2.05 0-2.83l12.73 12.73"/>
 <circle cx="16.4" cy="47.51" r="4" fill="#fff"/>
 <path d="m16.44 43.56c1.02 0 2.05.39 2.83 1.17 1.56 1.56 1.56 4.09 0 5.66-.78.78-1.8 1.17-2.83 1.17-1.02 0-2.05-.39-2.83-1.17-1.56-1.56-1.56-4.09 0-5.66.79-.78 1.81-1.17 2.83-1.17m0-1c-1.34 0-2.59.52-3.54 1.46s-1.46 2.2-1.46 3.54c0 1.34.52 2.59 1.46 3.54.94.94 2.2 1.46 3.54 1.46 1.34 0 2.59-.52 3.54-1.46.94-.94 1.46-2.2 1.46-3.54 0-1.34-.52-2.59-1.46-3.54s-2.2-1.46-3.54-1.46z"/>
 <g stroke-width=".99999">
  <path d="m12.908 45.44h4.5323v8h-2z" fill="#c4e500"/>
  <path d="m14.321 45.438h1.5591v2h-1z" fill="#f1ff33"/>
 </g>
 <path d="m12.59 46.53c-0.35 1.33-0.02 2.81 1.02 3.85s2.52 1.37 3.85 1.02l-4.87-4.87"/>
 <path d="m15.42 43.71l4.87 4.87c.35-1.33.02-2.81-1.02-3.85-1.04-1.05-2.52-1.38-3.85-1.02"/>
 <path d="m30.59 20.69l2.12 2.12c.39.39.39 1.02 0 1.41l-8.49 8.49c-.39.39-1.02.39-1.41 0l-2.12-2.12-.71.71 2.12 2.12c.78.78 2.05.78 2.83 0l8.49-8.49c.78-.78.78-2.05 0-2.83l-2.12-2.12-.71.71"/>
 <g stroke-width=".99999">
  <path d="m22.808 32.703h5.3924v14h-3z" fill="#c4e500"/>
  <path d="m25.636 28.469h1.704v4h-2z" fill="#f1ff33"/>
  <path d="m14.322 48.267h1.558v2h-1z" opacity=".2"/>
  <path d="m24.929 26.343h2.0608v1h-2z" opacity=".2"/>
  <path d="m21.398 29.88h1.9123v3h-1z" opacity=".2"/>
  <path d="m29.176 22.099h1.9142v3h-1z" opacity=".2"/>
  <path d="m12.197 47.555h2.0626v1h-2z" opacity=".2"/>
  <path d="m15.739 51.091h2.0607v1h-2z" opacity=".2"/>
 </g>
</svg>
