<?xml version="1.0" encoding="UTF-8"?>
<!DOCTYPE svg  PUBLIC '-//W3C//DTD SVG 1.1//EN'  'http://www.w3.org/Graphics/SVG/1.1/DTD/svg11.dtd'>
<svg clip-rule="evenodd" fill-rule="evenodd" stroke-linejoin="round" stroke-miterlimit="2" version="1.1" viewBox="0 0 64 64" xml:space="preserve" xmlns="http://www.w3.org/2000/svg">
    <path d="m32 61.5c-16.27 0-29.5-13.23-29.5-29.5s13.23-29.5 29.5-29.5 29.5 13.23 29.5 29.5-13.23 29.5-29.5 29.5z" fill="#00c864" fill-rule="nonzero"/>
    <path d="m32 3c15.99 0 29 13.01 29 29s-13.01 29-29 29-29-13.01-29-29 13.01-29 29-29m0-1c-16.57 0-30 13.43-30 30s13.43 30 30 30 30-13.43 30-30-13.43-30-30-30z" fill="#009949" fill-rule="nonzero"/>
    <path d="m32 54.5c-12.41 0-22.5-10.09-22.5-22.5s10.09-22.5 22.5-22.5 22.5 10.09 22.5 22.5-10.09 22.5-22.5 22.5z" fill="#fff" fill-rule="nonzero"/>
    <path d="m32 10c12.15 0 22 9.85 22 22s-9.85 22-22 22-22-9.85-22-22 9.85-22 22-22m0-1c-12.68 0-23 10.32-23 23s10.32 23 23 23 23-10.32 23-23-10.32-23-23-23z" fill="#009949" fill-rule="nonzero"/>
    <g fill="#1a171b" fill-rule="nonzero">
        <rect x="31" y="13" width="2" height="24"/>
        <rect x="27" y="31" width="20" height="2"/>
    </g>
    <path d="m23.89 15.95-1.52-2.63-1.73 1 1.52 2.63c0.55-0.37 1.13-0.7 1.73-1" fill-opacity=".15" fill-rule="nonzero"/>
    <path d="m14.91 26.38-2.93-0.79-0.52 1.93 2.92 0.78c0.14-0.64 0.32-1.29 0.53-1.92" fill-opacity=".15" fill-rule="nonzero"/>
    <path d="m28.31 14.38-0.78-2.92-1.93 0.52 0.79 2.93c0.62-0.21 1.27-0.39 1.92-0.53" fill-opacity=".15" fill-rule="nonzero"/>
    <path d="m20.01 18.6-2.16-2.16-1.41 1.41 2.16 2.16c0.44-0.49 0.92-0.97 1.41-1.41" fill-opacity=".15" fill-rule="nonzero"/>
    <path d="m16.94 22.15-2.63-1.52-1 1.73 2.63 1.52c0.31-0.59 0.64-1.17 1-1.73" fill-opacity=".15" fill-rule="nonzero"/>
    <path d="m49.62 28.31 2.92-0.78-0.52-1.93-2.93 0.79c0.21 0.62 0.39 1.27 0.53 1.92" fill-opacity=".15" fill-rule="nonzero"/>
    <path d="m48.05 23.89 2.63-1.52-1-1.73-2.63 1.52c0.37 0.55 0.7 1.13 1 1.73" fill-opacity=".15" fill-rule="nonzero"/>
    <path d="m45.4 20.01 2.16-2.16-1.41-1.41-2.16 2.16c0.49 0.44 0.97 0.92 1.41 1.41" fill-opacity=".15" fill-rule="nonzero"/>
    <path d="m32 14c0.34 0 0.67 0.03 1 0.05v-3.05h-2v3.05c0.33-0.02 0.66-0.05 1-0.05" fill-rule="nonzero"/>
    <path d="m14 32c0-0.34 0.03-0.67 0.05-1h-3.05v2h3.05c-0.02-0.33-0.05-0.66-0.05-1" fill-rule="nonzero"/>
    <path d="m37.62 14.91 0.79-2.93-1.93-0.52-0.78 2.92c0.64 0.14 1.29 0.32 1.92 0.53" fill-opacity=".15" fill-rule="nonzero"/>
    <path d="m41.85 16.94 1.52-2.63-1.73-1-1.52 2.63c0.59 0.31 1.17 0.64 1.73 1" fill-opacity=".15" fill-rule="nonzero"/>
    <path d="m32 50c-0.34 0-0.67-0.03-1-0.05v3.05h2v-3.05c-0.33 0.02-0.66 0.05-1 0.05" fill-rule="nonzero"/>
    <path d="m47.06 41.85 2.63 1.52 1-1.73-2.63-1.52c-0.31 0.59-0.64 1.17-1 1.73" fill-opacity=".15" fill-rule="nonzero"/>
    <path d="m43.99 45.4 2.16 2.16 1.41-1.41-2.16-2.16c-0.44 0.49-0.92 0.97-1.41 1.41" fill-opacity=".15" fill-rule="nonzero"/>
    <path d="m49.09 37.62 2.93 0.79 0.52-1.93-2.92-0.78c-0.14 0.64-0.32 1.29-0.53 1.92" fill-opacity=".15" fill-rule="nonzero"/>
    <path d="m49.95 31c0.02 0.33 0.05 0.66 0.05 1s-0.03 0.67-0.05 1h3.05v-2h-3.05" fill-rule="nonzero"/>
    <path d="m40.11 48.05 1.52 2.63 1.73-1-1.52-2.63c-0.55 0.37-1.13 0.7-1.73 1" fill-opacity=".15" fill-rule="nonzero"/>
    <path d="m26.38 49.09-0.79 2.93 1.93 0.52 0.78-2.92c-0.64-0.14-1.29-0.32-1.92-0.53" fill-opacity=".15" fill-rule="nonzero"/>
    <path d="m15.95 40.11-2.63 1.52 1 1.73 2.63-1.52c-0.37-0.55-0.7-1.13-1-1.73" fill-opacity=".15" fill-rule="nonzero"/>
    <path d="m18.6 43.99-2.16 2.16 1.41 1.41 2.16-2.16c-0.49-0.44-0.97-0.92-1.41-1.41" fill-opacity=".15" fill-rule="nonzero"/>
    <path d="m35.69 49.62 0.78 2.92 1.93-0.52-0.79-2.93c-0.62 0.21-1.27 0.39-1.92 0.53" fill-opacity=".15" fill-rule="nonzero"/>
    <path d="m14.38 35.69-2.92 0.78 0.52 1.93 2.93-0.79c-0.21-0.62-0.39-1.27-0.53-1.92" fill-opacity=".15" fill-rule="nonzero"/>
    <path d="m22.15 47.06-1.52 2.63 1.73 1 1.52-2.63c-0.59-0.31-1.17-0.64-1.73-1" fill-opacity=".15" fill-rule="nonzero"/>
    <g transform="matrix(.70711 .70711 -.70711 .70711 31.596 -8.8313)">
        <path d="m28.857 28.149h20.773v1h-24.75l3.977-1z" fill="#c80000" fill-rule="nonzero"/>
    </g>
    <circle cx="32" cy="32" r="1.5" fill="#ececed"/>
    <path d="m32 31c0.55 0 1 0.45 1 1s-0.45 1-1 1-1-0.45-1-1 0.45-1 1-1m0-1c-1.1 0-2 0.9-2 2s0.9 2 2 2 2-0.9 2-2-0.9-2-2-2z" fill="#c80000" fill-rule="nonzero"/>
</svg>
