<?xml version="1.0" encoding="UTF-8"?>
<svg viewBox="0 0 64 64" xmlns="http://www.w3.org/2000/svg" xmlns:xlink="http://www.w3.org/1999/xlink">
 <defs>
  <path id="c" d="m45.896 1023.6c0 7.7323-6.2677 14-13.999 14-7.7316 0-13.999-6.268-13.999-14s6.2677-14.001 13.999-14.001c7.7316 0 13.999 6.2687 13.999 14.001"/>
  <path id="a" d="m46 62.362c0 3.866-3.134 7-7 7s-7-3.134-7-7 3.134-7 7-7 7 3.134 7 7" fill="none"/>
  <linearGradient id="i" x2="0" y1="73.362" y2="70.362" gradientTransform="matrix(1.9999 0 0 2.0001 -47.871 861.63)" gradientUnits="userSpaceOnUse">
   <stop stop-color="#fff" offset="0"/>
   <stop stop-color="#cdcdcd" offset="1"/>
  </linearGradient>
  <linearGradient id="h" x2="0" y1="48.362" y2="51.362" gradientTransform="matrix(1.9999 0 0 1.3169 -47.993 934.7)" gradientUnits="userSpaceOnUse">
   <stop stop-color="#a6a6a6" offset="0"/>
   <stop stop-color="#828282" stop-opacity="0" offset="1"/>
  </linearGradient>
  <linearGradient id="j" x2="0" y1="73.362" y2="70.362" gradientTransform="matrix(1.9999 0 0 1.2424 -47.993 955.22)" gradientUnits="userSpaceOnUse">
   <stop stop-color="#fff" offset="0"/>
   <stop stop-color="#ccc" offset="1"/>
  </linearGradient>
  <radialGradient id="b" cx="39" cy="62.362" r="7" gradientTransform="matrix(1.9999 0 0 2.0001 -46.099 898.88)" gradientUnits="userSpaceOnUse">
   <stop stop-color="#919191" offset="0"/>
   <stop stop-color="#e4e4e4" offset="1"/>
  </radialGradient>
  <radialGradient id="g" cx="41.416" cy="62.398" r="7" gradientTransform="matrix(1.2082 0 0 2.031 -9.4646 896.95)" gradientUnits="userSpaceOnUse">
   <stop stop-color="#919191" offset="0"/>
   <stop stop-color="#fff" offset="1"/>
  </radialGradient>
 </defs>
 <g transform="translate(0 -988.36)">
  <path d="m12.253 994.45h39.685v51.689h-39.685z" fill="#fff"/>
  <use fill="url(#b)" xlink:href="#c"/>
  <g fill="#d3d3d3">
   <path id="f" d="m34 996.36h4v4h-4z"/>
   <path id="e" d="m40 996.36h4v4h-4z"/>
   <path id="d" d="m46 996.36h4v4h-4z"/>
  </g>
  <use fill="url(#b)" xlink:href="#c"/>
  <path d="m22 994.36h2v8h-2z" fill="#c4c4c4"/>
  <path d="m12 1002.4h40v6h-40z" fill="url(#i)"/>
  <path d="m12 1042.4h40v4h-40z" fill="url(#j)"/>
  <use transform="matrix(1.9999 0 0 2.0001 -46.099 898.88)" stroke="#c0c0c0" xlink:href="#a"/>
  <path d="m14 998.36h6v4h-6z" fill="url(#h)"/>
  <path d="m10 992.36v56h44l1e-6 -56zm2 2h40v52h-40z" fill="#969696"/>
  <g transform="matrix(1.9999 0 0 2.0001 -46.099 898.88)">
   <use stroke="#c0c0c0" xlink:href="#a"/>
   <use stroke="#4c4c4c" xlink:href="#a"/>
  </g>
  <path d="m17 1020.4h5v6h-5z" fill="#939393"/>
  <path d="m16.602 1020.3h5.4005v6.04h-5.4005z" fill="#fff"/>
  <use transform="matrix(1.9999 0 0 2.0001 -46.099 898.88)" stroke="#9b9b9b" xlink:href="#a"/>
  <g fill="#b8b8b8">
   <use xlink:href="#e"/>
   <use xlink:href="#d"/>
   <use xlink:href="#f"/>
  </g>
  <use fill="url(#b)" xlink:href="#c"/>
  <path d="m46.112 1023.6c0 7.8521-3.7865 14.217-8.4574 14.217s-8.4574-6.365-8.4574-14.217c0-7.8519 3.7865-14.217 8.4574-14.217s8.4574 6.3653 8.4574 14.217" fill="url(#g)"/>
  <use transform="matrix(1.2082 0 0 2.031 -9.4646 896.95)" stroke="#4b4b4b" stroke-width="1.3827" xlink:href="#a"/>
  <path d="m29 1020.4h3v6h-3z" fill="#939393"/>
 </g>
</svg>
