<?xml version="1.0" encoding="UTF-8" standalone="no"?><!DOCTYPE svg PUBLIC "-//W3C//DTD SVG 1.1//EN" "http://www.w3.org/Graphics/SVG/1.1/DTD/svg11.dtd"><svg width="100%" height="100%" viewBox="0 0 180 271" version="1.1" xmlns="http://www.w3.org/2000/svg" xmlns:xlink="http://www.w3.org/1999/xlink" xml:space="preserve" xmlns:serif="http://www.serif.com/" style="fill-rule:evenodd;clip-rule:evenodd;stroke-linejoin:round;"><g><g id="openhab"><g id="back-grey"><g><path d="M8.38,71.752c-0,38.815 31.466,70.281 70.281,70.281c38.815,0 70.281,-31.466 70.281,-70.281c0,-38.816 -31.466,-70.282 -70.281,-70.282c-38.815,0 -70.281,31.466 -70.281,70.282c-0,-0 -0,-38.816 -0,-0Z" style="fill:#e2e2e2;"/></g></g><g id="back-grey-gradient"><g><path d="M8.38,71.752c-0,38.815 31.466,70.281 70.281,70.281c38.815,0 70.281,-31.466 70.281,-70.281c0,-38.816 -31.466,-70.282 -70.281,-70.282c-38.815,0 -70.281,31.466 -70.281,70.282c-0,-0 -0,-38.816 -0,-0Z" style="fill:url(#_Linear1);"/></g></g><g id="logo-dark_1_"><g><path d="M22.675,98.553l48.889,-48.924l7.119,-7.119l7.12,7.119l36.088,36.088l-0.053,0.182l-0.712,2.097l-0.808,2.046l-0.908,1.998l-1,1.95l-0.909,1.577l-38.818,-38.818c-16.938,16.951 -33.876,33.901 -50.813,50.851c-1.956,-2.88 -3.773,-5.848 -5.195,-9.047Z" style="fill:#e64a19;"/></g><g><path d="M78.684,9.357c34.41,-0 62.472,28.063 62.472,62.474c-0,34.408 -28.062,62.472 -62.472,62.472c-18.796,-0 -35.694,-8.381 -47.162,-21.589l2.208,-2.215l1.602,-1.603l1.605,-1.608l1.607,-1.606l0.065,-0.065c9.635,11.408 24.03,18.677 40.075,18.677c28.897,0 52.465,-23.566 52.465,-52.463c-0,-28.9 -23.568,-52.467 -52.465,-52.467c-28.898,0 -52.466,23.567 -52.466,52.467c-0,3.891 0.433,7.683 1.244,11.339l-3.481,3.488l-4.646,4.65c-2.024,-6.136 -3.124,-12.68 -3.124,-19.477c0,-34.411 28.062,-62.474 62.473,-62.474Z" style="fill:#474747;"/></g></g></g><path d="M155.714,231.084c0.021,0 0.043,0 0.064,0c9.874,0 17.999,-8.124 18,-17.998c0.002,-18.273 0.002,-46.51 0.002,-64.833c0,-9.875 -8.125,-18 -18,-18l-14.838,0c-2.194,0 -4,-1.806 -4,-4l0,-9.43l-117.03,0l0.295,138.213c0.003,1.362 0.701,2.633 1.85,3.365c5.212,3.018 21.921,8.75 57.004,8.75c35.825,0 51.839,-7.674 56.424,-11.139c0.91,-0.755 1.438,-1.879 1.438,-3.062c0.019,-3.825 0.019,-12.688 0.019,-17.924c-0,-0 -0,-0.001 -0,-0.001c-0,-2.194 1.805,-3.999 3.999,-3.999c0.028,0 0.056,0 0.084,0.001c4.401,0.062 9.674,0.071 14.689,0.057Zm-18.772,-79.806c0,-1.326 0.527,-2.598 1.464,-3.536c0.938,-0.937 2.21,-1.464 3.536,-1.464l12.738,0c1.326,0 2.598,0.527 3.536,1.464c0.937,0.938 1.464,2.21 1.464,3.536l0,58.185c-0,1.326 -0.527,2.598 -1.464,3.536c-0.938,0.937 -2.21,1.464 -3.536,1.464l-12.738,0c-1.326,-0 -2.598,-0.527 -3.536,-1.464c-0.937,-0.938 -1.464,-2.21 -1.464,-3.536l0,-58.185Z" style="fill:#fff;fill-rule:nonzero;stroke:#000;stroke-width:4.79px;"/></g><path d="M31.449,115.663l0,123.986c0,1.431 0.764,2.753 2.003,3.467c5.061,2.412 19.743,8.169 45.484,8.169c25.912,0 40.158,-6.995 44.928,-9.878c1.138,-0.733 1.827,-1.998 1.827,-3.351c0.011,-16.441 0.011,-122.393 0.011,-122.393l-94.253,-0Z" style="fill:#fbb040;"/><path d="M45.303,136.663l-0,95.816" style="fill:none;stroke:#ffdb96;stroke-width:11.1px;stroke-linecap:round;stroke-linejoin:miter;"/><path d="M98.555,141.106c0,-2 -1.177,-4.388 -3.11,-5.587c-3.169,-1.921 -5.611,-4.842 -6.942,-8.3c-25.591,0.861 -48.949,-3.633 -60.716,-6.806c-3.021,-0.856 -6.082,-1.567 -9.171,-2.13c-7.043,-1.397 -12.396,-7.582 -12.396,-15.018c0,-8.185 6.494,-14.836 14.608,-15.127c1.565,-8.657 9.121,-15.229 18.229,-15.229c10.242,0 18.544,8.304 18.544,18.545c0,2.155 -0.389,4.218 -1.064,6.144l0.055,0.009c2.287,-7.153 8.983,-12.336 16.896,-12.336c7.862,0 14.522,5.122 16.848,12.208c-0.068,-0.647 -0.101,-1.297 -0.101,-1.947c0,-10.652 8.634,-19.286 19.284,-19.286c8.622,0 15.919,5.659 18.388,13.462l1.681,-0.438c2.267,-1.282 4.828,-1.956 7.432,-1.955c8.369,0 15.154,6.785 15.151,15.152c0,7.666 -5.691,14.001 -13.079,15.012c-1.673,0.237 -3.314,0.663 -4.891,1.27c-4.391,1.655 -8.881,3.027 -13.417,4.159c-0.22,2.182 -0.869,4.3 -1.909,6.231c-1.84,3.452 -2.665,7.356 -2.38,11.257c-0.002,0.236 0.007,1.472 0.007,1.71c0,4.956 -4.016,7.972 -8.976,7.972c-4.921,0 -8.971,-4.05 -8.971,-8.971c-0,-0 -0,-0.001 -0,-0.001Z" style="fill:#fff;stroke:#000;stroke-width:4.79px;stroke-linecap:round;"/><defs><linearGradient id="_Linear1" x1="0" y1="0" x2="1" y2="0" gradientUnits="userSpaceOnUse" gradientTransform="matrix(70.2935,121.751,-121.751,70.2935,43.5145,10.8761)"><stop offset="0" style="stop-color:#d7d7d7;stop-opacity:0.2"/><stop offset="1" style="stop-color:#d7d7d7;stop-opacity:1"/></linearGradient></defs></svg>