<svg version="1.1" xmlns="http://www.w3.org/2000/svg" xmlns:xlink="http://www.w3.org/1999/xlink" width="800" height="800"><defs/><g transform="scale(2,2)"><g id="background-f4dca501"><rect fill="white" stroke="none" x="0" y="0" width="400" height="400" class="dcg-svg-background"/></g><g id="graphpaper-f4dca501"><g id="grid-f4dca501"><g><path fill="none" stroke="rgb(0,0,0)" class="dcg-svg-minor-gridline" paint-order="fill stroke markers" d=" M 94.5 0 L 94.5 400" stroke-opacity="0.2" stroke-miterlimit="10" stroke-dasharray=""/><path fill="none" stroke="rgb(0,0,0)" class="dcg-svg-minor-gridline" paint-order="fill stroke markers" d=" M 141.5 0 L 141.5 400" stroke-opacity="0.2" stroke-miterlimit="10" stroke-dasharray=""/><path fill="none" stroke="rgb(0,0,0)" class="dcg-svg-minor-gridline" paint-order="fill stroke markers" d=" M 188.5 0 L 188.5 400" stroke-opacity="0.2" stroke-miterlimit="10" stroke-dasharray=""/><path fill="none" stroke="rgb(0,0,0)" class="dcg-svg-minor-gridline" paint-order="fill stroke markers" d=" M 235.5 0 L 235.5 400" stroke-opacity="0.2" stroke-miterlimit="10" stroke-dasharray=""/><path fill="none" stroke="rgb(0,0,0)" class="dcg-svg-minor-gridline" paint-order="fill stroke markers" d=" M 282.5 0 L 282.5 400" stroke-opacity="0.2" stroke-miterlimit="10" stroke-dasharray=""/><path fill="none" stroke="rgb(0,0,0)" class="dcg-svg-minor-gridline" paint-order="fill stroke markers" d=" M 329.5 0 L 329.5 400" stroke-opacity="0.2" stroke-miterlimit="10" stroke-dasharray=""/><path fill="none" stroke="rgb(0,0,0)" class="dcg-svg-minor-gridline" paint-order="fill stroke markers" d=" M 376.5 0 L 376.5 400" stroke-opacity="0.2" stroke-miterlimit="10" stroke-dasharray=""/><path fill="none" stroke="rgb(0,0,0)" class="dcg-svg-minor-gridline" paint-order="fill stroke markers" d=" M 0 308.5 L 400 308.5" stroke-opacity="0.2" stroke-miterlimit="10" stroke-dasharray=""/><path fill="none" stroke="rgb(0,0,0)" class="dcg-svg-minor-gridline" paint-order="fill stroke markers" d=" M 0 262.5 L 400 262.5" stroke-opacity="0.2" stroke-miterlimit="10" stroke-dasharray=""/><path fill="none" stroke="rgb(0,0,0)" class="dcg-svg-minor-gridline" paint-order="fill stroke markers" d=" M 0 217.5 L 400 217.5" stroke-opacity="0.2" stroke-miterlimit="10" stroke-dasharray=""/><path fill="none" stroke="rgb(0,0,0)" class="dcg-svg-minor-gridline" paint-order="fill stroke markers" d=" M 0 171.5 L 400 171.5" stroke-opacity="0.2" stroke-miterlimit="10" stroke-dasharray=""/><path fill="none" stroke="rgb(0,0,0)" class="dcg-svg-minor-gridline" paint-order="fill stroke markers" d=" M 0 125.5 L 400 125.5" stroke-opacity="0.2" stroke-miterlimit="10" stroke-dasharray=""/><path fill="none" stroke="rgb(0,0,0)" class="dcg-svg-minor-gridline" paint-order="fill stroke markers" d=" M 0 80.5 L 400 80.5" stroke-opacity="0.2" stroke-miterlimit="10" stroke-dasharray=""/><path fill="none" stroke="rgb(0,0,0)" class="dcg-svg-minor-gridline" paint-order="fill stroke markers" d=" M 0 34.5 L 400 34.5" stroke-opacity="0.2" stroke-miterlimit="10" stroke-dasharray=""/><path fill="none" stroke="rgb(0,0,0)" class="dcg-svg-major-gridline" paint-order="fill stroke markers" d=" M 94.5 0 L 94.5 400" stroke-opacity="0.2500000000000001" stroke-miterlimit="10" stroke-dasharray=""/><path fill="none" stroke="rgb(0,0,0)" class="dcg-svg-major-gridline" paint-order="fill stroke markers" d=" M 141.5 0 L 141.5 400" stroke-opacity="0.2500000000000001" stroke-miterlimit="10" stroke-dasharray=""/><path fill="none" stroke="rgb(0,0,0)" class="dcg-svg-major-gridline" paint-order="fill stroke markers" d=" M 188.5 0 L 188.5 400" stroke-opacity="0.2500000000000001" stroke-miterlimit="10" stroke-dasharray=""/><path fill="none" stroke="rgb(0,0,0)" class="dcg-svg-major-gridline" paint-order="fill stroke markers" d=" M 235.5 0 L 235.5 400" stroke-opacity="0.2500000000000001" stroke-miterlimit="10" stroke-dasharray=""/><path fill="none" stroke="rgb(0,0,0)" class="dcg-svg-major-gridline" paint-order="fill stroke markers" d=" M 282.5 0 L 282.5 400" stroke-opacity="0.2500000000000001" stroke-miterlimit="10" stroke-dasharray=""/><path fill="none" stroke="rgb(0,0,0)" class="dcg-svg-major-gridline" paint-order="fill stroke markers" d=" M 329.5 0 L 329.5 400" stroke-opacity="0.2500000000000001" stroke-miterlimit="10" stroke-dasharray=""/><path fill="none" stroke="rgb(0,0,0)" class="dcg-svg-major-gridline" paint-order="fill stroke markers" d=" M 376.5 0 L 376.5 400" stroke-opacity="0.2500000000000001" stroke-miterlimit="10" stroke-dasharray=""/><path fill="none" stroke="rgb(0,0,0)" class="dcg-svg-major-gridline" paint-order="fill stroke markers" d=" M 0 308.5 L 400 308.5" stroke-opacity="0.2500000000000001" stroke-miterlimit="10" stroke-dasharray=""/><path fill="none" stroke="rgb(0,0,0)" class="dcg-svg-major-gridline" paint-order="fill stroke markers" d=" M 0 262.5 L 400 262.5" stroke-opacity="0.2500000000000001" stroke-miterlimit="10" stroke-dasharray=""/><path fill="none" stroke="rgb(0,0,0)" class="dcg-svg-major-gridline" paint-order="fill stroke markers" d=" M 0 217.5 L 400 217.5" stroke-opacity="0.2500000000000001" stroke-miterlimit="10" stroke-dasharray=""/><path fill="none" stroke="rgb(0,0,0)" class="dcg-svg-major-gridline" paint-order="fill stroke markers" d=" M 0 171.5 L 400 171.5" stroke-opacity="0.2500000000000001" stroke-miterlimit="10" stroke-dasharray=""/><path fill="none" stroke="rgb(0,0,0)" class="dcg-svg-major-gridline" paint-order="fill stroke markers" d=" M 0 125.5 L 400 125.5" stroke-opacity="0.2500000000000001" stroke-miterlimit="10" stroke-dasharray=""/><path fill="none" stroke="rgb(0,0,0)" class="dcg-svg-major-gridline" paint-order="fill stroke markers" d=" M 0 80.5 L 400 80.5" stroke-opacity="0.2500000000000001" stroke-miterlimit="10" stroke-dasharray=""/><path fill="none" stroke="rgb(0,0,0)" class="dcg-svg-major-gridline" paint-order="fill stroke markers" d=" M 0 34.5 L 400 34.5" stroke-opacity="0.2500000000000001" stroke-miterlimit="10" stroke-dasharray=""/></g></g><g id="axis-f4dca501"><g id="yaxis-f4dca501"><title>V</title><g><path fill="none" stroke="rgb(0,0,0)" class="dcg-svg-axis-line" paint-order="fill stroke markers" d=" M 47 3 L 47 400" stroke-opacity="0.9" stroke-miterlimit="10" stroke-width="1.5" stroke-dasharray=""/><g class="dcg-svg-axis-line"><path fill="rgb(0,0,0)" stroke="rgb(0,0,0)" class="dcg-svg-axis-line" paint-order="stroke fill markers" d=" M 47 1.5 L 50.10582854123025 13.09110991546882 L 43.894171458769755 13.09110991546882 L 47 1.5 L 50.10582854123025 13.09110991546882" stroke-opacity="0.9" stroke-linejoin="round" stroke-miterlimit="10" stroke-width="1.5" stroke-dasharray="" fill-opacity="0.9"/></g></g></g><g id="xaxis-f4dca501"><title>T</title><g><path fill="none" stroke="rgb(0,0,0)" class="dcg-svg-axis-line" paint-order="fill stroke markers" d=" M 0 354 L 397 354" stroke-opacity="0.9" stroke-miterlimit="10" stroke-width="1.5" stroke-dasharray=""/><g class="dcg-svg-axis-line"><path fill="rgb(0,0,0)" stroke="rgb(0,0,0)" class="dcg-svg-axis-line" paint-order="stroke fill markers" d=" M 398.5 354 L 386.9088900845312 357.10582854123027 L 386.9088900845312 350.89417145876973 L 398.5 354 L 386.9088900845312 357.10582854123027" stroke-opacity="0.9" stroke-linejoin="round" stroke-miterlimit="10" stroke-width="1.5" stroke-dasharray="" fill-opacity="0.9"/></g></g></g><g/><g class="dcg-svg-axis-label"><text fill="none" stroke="#ffffff" font-family="Times" font-size="20px" font-style="italic" font-weight="normal" text-decoration="normal" x="373.876953125" y="369.2857142857143" text-anchor="start" stroke-miterlimit="2" stroke-width="3" stroke-dasharray="">T</text><text fill="#000000" stroke="none" font-family="Times" font-size="20px" font-style="italic" font-weight="normal" text-decoration="normal" x="373.876953125" y="369.2857142857143" text-anchor="start">T</text></g><g class="dcg-svg-axis-label" transform="translate(28.842026654411768,29)"><text fill="none" stroke="#ffffff" font-family="Times" font-size="20px" font-style="italic" font-weight="normal" text-decoration="normal" x="0" y="0" text-anchor="start" stroke-miterlimit="2" stroke-width="3" stroke-dasharray="">V</text><text fill="#000000" stroke="none" font-family="Times" font-size="20px" font-style="italic" font-weight="normal" text-decoration="normal" x="0" y="0" text-anchor="start">V</text></g></g></g><g id="expressions-f4dca501"><g id="sketch-f4dca501"><title>Uitdrukking 1</title><path fill="#2d70b3" stroke="none" paint-order="stroke fill markers" d="" fill-opacity="0.4"/><g><path fill="none" stroke="#2d70b3" class="dcg-svg-curve" paint-order="fill stroke markers" d=" M 188.2196932384311 45.725662062338074 L 188.2196932384311 45.725662062338074 L 192.90008544921875 42.54024918665107 L 196.89226427909435 40.180585632448185 L 200 38.571428571428555 L 207.09991455078125 35.64318933732079 L 207.89180015883167 35.38109867860368 L 214.1998291015625 33.75553148432766 L 218.27596338936513 33.14200900544557 L 222.34441755837526 32.87163907538883 L 224.5957680191811 32.86888726101989 L 228.399658203125 33.101959921685705 L 233.14262840304872 33.81099461425299 L 236.95333585451078 34.71708747395235 L 242.5994873046875 36.61071388350268 L 247.22867192305597 38.65423199966153 L 249.69940185546875 39.92596293608324 L 256.79931640625 44.2817933697786 L 260.30900517484145 46.81934288948071 L 266.0012842368701 51.47555744061032 L 272.43545064548715 57.54394531250006 L 278.09906005859375 63.59277295755288 L 282.28115672402527 68.48432252123428" stroke-linecap="round" stroke-linejoin="round" stroke-miterlimit="10" stroke-width="5" stroke-dasharray=""/></g><g><path fill="none" stroke="#2d70b3" class="dcg-svg-curve" paint-order="fill stroke markers" d=" M 47.12886646502024 354.0306091308594 L 47.12886646502024 354.0306091308594 L 52.91218944892509 333.31637597385 L 58.7054206285364 313.2588635318729 L 65.10162353515625 291.91843643127606 L 71.71537372434659 270.7402957211611 L 76.17080446079835 256.982421875 L 82.32642033522458 238.64873303929932 L 88.38479786367395 221.36840820312503 L 93.64536997426916 206.97824999730398 L 100.6011962890625 188.8278228659848 L 105.56425915187808 176.48785148322284 L 110.64327963657826 164.38598632812503 L 116.93165786111004 150.14038085937506 L 123.05516965957676 137.05272602987284 L 127.75862659003569 127.52574015093205 L 132.6205673212424 118.15774898118764 L 138.5441746603097 107.40356445312506 L 143.20068359375 99.45827216442143 L 150.30059814453125 88.20538188139574 L 154.0536328223685 82.67748695128898 L 160.050504110176 74.44808504400163 L 164.50042724609375 68.8213454586886 L 168.01456004890662 64.66674804687506 L 174.62337777344453 57.54394531250006 L 180.3631153627169 52.089362196071136 L 182.27772542360208 50.42114257812506 L 188.2196932384311 45.725662062338074" stroke-linecap="round" stroke-linejoin="round" stroke-miterlimit="10" stroke-width="5" stroke-dasharray=""/></g><path fill="#2d70b3" stroke="none" class="dcg-svg-region" paint-order="stroke fill markers" d=" M 188.2196932384311 45.725662062338074 L 192.90008544921875 42.54024918665107 L 196.89226427909435 40.180585632448185 L 200 38.571428571428555 L 207.09991455078125 35.64318933732079 L 207.89180015883167 35.38109867860368 L 214.1998291015625 33.75553148432766 L 218.27596338936513 33.14200900544557 L 222.34441755837526 32.87163907538883 L 224.5957680191811 32.86888726101989 L 228.399658203125 33.101959921685705 L 233.14262840304872 33.81099461425299 L 236.95333585451078 34.71708747395235 L 242.5994873046875 36.61071388350268 L 247.22867192305597 38.65423199966153 L 249.69940185546875 39.92596293608324 L 256.79931640625 44.2817933697786 L 260.30900517484145 46.81934288948071 L 266.0012842368701 51.47555744061032 L 272.43545064548715 57.54394531250006 L 278.09906005859375 63.59277295755288 L 282.28115672402527 68.48432252123428 L 282.3146343231201 69.11849975585943 L 282.3146343231201 354.0306091308594 L 282.20369815826416 354.2531967163086 L 47.12996482849121 354.2531967163086 L 47.177033199529674 353.8552416520097 L 52.91218944892509 333.31637597385 L 58.7054206285364 313.2588635318729 L 65.10162353515625 291.91843643127606 L 71.71537372434659 270.7402957211611 L 76.17080446079835 256.982421875 L 82.32642033522458 238.64873303929932 L 88.38479786367395 221.36840820312503 L 93.64536997426916 206.97824999730398 L 100.6011962890625 188.8278228659848 L 105.56425915187808 176.48785148322284 L 110.64327963657826 164.38598632812503 L 116.93165786111004 150.14038085937506 L 123.05516965957676 137.05272602987284 L 127.75862659003569 127.52574015093205 L 132.6205673212424 118.15774898118764 L 138.5441746603097 107.40356445312506 L 143.20068359375 99.45827216442143 L 150.30059814453125 88.20538188139574 L 154.0536328223685 82.67748695128898 L 160.050504110176 74.44808504400163 L 164.50042724609375 68.8213454586886 L 168.01456004890662 64.66674804687506 L 174.62337777344453 57.54394531250006 L 180.3631153627169 52.089362196071136 L 182.27772542360208 50.42114257812506 L 188.2196932384311 45.725662062338074 L 188.2196932384311 45.725662062338074" fill-opacity="0.1"/></g><g id="sketch-f4dca501"><title/><path fill="#2d70b3" stroke="none" class="dcg-svg-point" paint-order="stroke fill markers" d=" M 51.74632352941177 354.2857142857143 A 4.6875 4.6875 0 1 1 51.74632118566196 354.28102678649554 Z"/><path fill="#2d70b3" stroke="none" class="dcg-svg-point" paint-order="stroke fill markers" d=" M 98.80514705882354 205.71428571428572 A 4.6875 4.6875 0 1 1 98.80514471507374 205.70959821506696 Z"/><path fill="#2d70b3" stroke="none" class="dcg-svg-point" paint-order="stroke fill markers" d=" M 145.8639705882353 102.85714285714286 A 4.6875 4.6875 0 1 1 145.8639682444855 102.85245535792411 Z"/><path fill="#2d70b3" stroke="none" class="dcg-svg-point" paint-order="stroke fill markers" d=" M 192.92279411764707 45.71428571428572 A 4.6875 4.6875 0 1 1 192.92279177389727 45.70959821506697 Z"/><path fill="#2d70b3" stroke="none" class="dcg-svg-point" paint-order="stroke fill markers" d=" M 239.98161764705884 34.28571428571428 A 4.6875 4.6875 0 1 1 239.98161530330904 34.281026786495524 Z"/><path fill="#2d70b3" stroke="none" class="dcg-svg-point" paint-order="stroke fill markers" d=" M 287.0404411764706 68.57142857142856 A 4.6875 4.6875 0 1 1 287.0404388327208 68.56674107220981 Z"/></g><g id="sketch-f4dca501"><title>Uitdrukking 3</title><path fill="#348543" stroke="none" paint-order="stroke fill markers" d="" fill-opacity="0.4"/><path fill="#348543" stroke="none" paint-order="stroke fill markers" d="" fill-opacity="0.4"/></g><g id="sketch-f4dca501"><title>Uitdrukking 4</title><path fill="#348543" stroke="none" paint-order="stroke fill markers" d="" fill-opacity="0.4"/><g><path fill="none" stroke="#348543" class="dcg-svg-curve" paint-order="fill stroke markers" d=" M 71.23883928571429 205.71428571428572 L 71.23883928571429 205.71428571428572 L 117.3828125 205.71428571428572" stroke-linecap="round" stroke-linejoin="round" stroke-miterlimit="10" stroke-width="2.5" stroke-dasharray=""/></g><g><path fill="none" stroke="#348543" class="dcg-svg-curve" paint-order="fill stroke markers" d=" M 70.80078125 205.71428571428572 L 70.80078125 205.71428571428572 L 71.23883928571429 205.71428571428572" stroke-linecap="round" stroke-linejoin="round" stroke-miterlimit="10" stroke-width="2.5" stroke-dasharray=""/></g><path fill="#348543" stroke="none" class="dcg-svg-region" paint-order="stroke fill markers" d=" M 71.23883928571429 205.71428571428572 L 117.3828125 205.71428571428572 L 117.6025390625 205.9326171875 L 117.6025390625 354.248046875 L 70.635986328125 354.248046875 L 70.635986328125 205.987548828125 L 70.80078125 205.71428571428572 L 71.23883928571429 205.71428571428572 L 71.23883928571429 205.71428571428572" fill-opacity="0.4"/></g><g id="sketch-f4dca501"><title>Uitdrukking 5</title><path fill="#348543" stroke="none" paint-order="stroke fill markers" d="" fill-opacity="0.4"/><g><path fill="none" stroke="#348543" class="dcg-svg-curve" paint-order="fill stroke markers" d=" M 118.67745535714286 102.85714285714286 L 118.67745535714286 102.85714285714286 L 164.67895507812503 102.85714285714283" stroke-linecap="round" stroke-linejoin="round" stroke-miterlimit="10" stroke-width="2.5" stroke-dasharray=""/></g><g><path fill="none" stroke="#348543" class="dcg-svg-curve" paint-order="fill stroke markers" d=" M 117.657470703125 102.85714285714286 L 117.657470703125 102.85714285714286 L 118.67745535714286 102.85714285714286" stroke-linecap="round" stroke-linejoin="round" stroke-miterlimit="10" stroke-width="2.5" stroke-dasharray=""/></g><path fill="#348543" stroke="none" class="dcg-svg-region" paint-order="stroke fill markers" d=" M 118.67745535714286 102.85714285714286 L 164.67895507812503 102.85714285714283 L 164.678955078125 103.759765625 L 164.678955078125 354.248046875 L 117.657470703125 354.248046875 L 117.657470703125 102.85714285714286 L 118.67745535714286 102.85714285714286 L 118.67745535714286 102.85714285714286" fill-opacity="0.4"/></g><g id="sketch-f4dca501"><title>Uitdrukking 6</title><path fill="#348543" stroke="none" paint-order="stroke fill markers" d="" fill-opacity="0.4"/><g><path fill="none" stroke="#348543" class="dcg-svg-curve" paint-order="fill stroke markers" d=" M 164.84375 45.71428571428572 L 164.84375 45.71428571428572 L 211.42578125 45.71428571428572" stroke-linecap="round" stroke-linejoin="round" stroke-miterlimit="10" stroke-width="2.5" stroke-dasharray=""/></g><path fill="#348543" stroke="none" class="dcg-svg-region" paint-order="stroke fill markers" d=" M 164.73388671875 46.19140625 L 164.73388671875 45.751953125 L 165.24553571428572 45.71428571428572 L 211.75537109375 45.751953125 L 211.75537109375 354.248046875 L 164.73388671875 354.248046875 L 164.73388671875 46.19140625 L 164.73388671875 46.19140625" fill-opacity="0.4"/></g><g id="sketch-f4dca501"><title>Uitdrukking 7</title><path fill="#348543" stroke="none" paint-order="stroke fill markers" d="" fill-opacity="0.4"/><g><path fill="none" stroke="#348543" class="dcg-svg-curve" paint-order="fill stroke markers" d=" M 211.810302734375 34.28571428571428 L 211.810302734375 34.28571428571428 L 258.77685546875 34.28571428571428" stroke-linecap="round" stroke-linejoin="round" stroke-miterlimit="10" stroke-width="2.5" stroke-dasharray=""/></g><path fill="#348543" stroke="none" class="dcg-svg-region" paint-order="stroke fill markers" d=" M 258.77685546875 34.65576171875 L 258.77685546875 354.248046875 L 211.810302734375 354.193115234375 L 211.90569196428572 34.28571428571428 L 258.81805419921875 34.36737060546875 L 258.77685546875 34.65576171875 L 258.77685546875 34.65576171875" fill-opacity="0.4"/></g><g id="sketch-f4dca501"><title>Uitdrukking 8</title><path fill="#348543" stroke="none" paint-order="stroke fill markers" d="" fill-opacity="0.4"/><g><path fill="none" stroke="#348543" class="dcg-svg-curve" paint-order="fill stroke markers" d=" M 259.2940848214286 68.57142857142856 L 259.2940848214286 68.57142857142856 L 282.342529296875 68.57142857142856" stroke-linecap="round" stroke-linejoin="round" stroke-miterlimit="10" stroke-width="2.5" stroke-dasharray=""/></g><g><path fill="none" stroke="#348543" class="dcg-svg-curve" paint-order="fill stroke markers" d=" M 258.88671875 68.57142857142856 L 258.88671875 68.57142857142856 L 259.2940848214286 68.57142857142856" stroke-linecap="round" stroke-linejoin="round" stroke-miterlimit="10" stroke-width="2.5" stroke-dasharray=""/></g><path fill="#348543" stroke="none" class="dcg-svg-region" paint-order="stroke fill markers" d=" M 259.2940848214286 68.57142857142856 L 282.342529296875 68.57142857142856 L 282.342529296875 354.248046875 L 258.831787109375 354.248046875 L 258.88671875 68.57142857142856 L 259.2940848214286 68.57142857142856 L 259.2940848214286 68.57142857142856" fill-opacity="0.4"/></g></g><g id="labels-f4dca501"/><g id="labels-f4dca501"/></g></svg>