<?xml version="1.0" encoding="UTF-8"?>
<svg enable-background="new 0 0 64 64" viewBox="0 0 64 64" xmlns="http://www.w3.org/2000/svg">
 <defs>
  <linearGradient id="a" x1="3" x2="61" gradientUnits="userSpaceOnUse">
   <stop stop-color="#fff" stop-opacity="0" offset="0"/>
   <stop offset=".2"/>
   <stop offset=".8"/>
   <stop stop-color="#fff" stop-opacity="0" offset="1"/>
  </linearGradient>
 </defs>
 <path d="m3 46h58v1h-58z" fill="url(#a)"/>
 <path d="m12.5 59.5v-45.19l19.5-9.75 19.5 9.75v45.19z" fill="#f0f0f0"/>
 <path d="M32,5.12l19,9.5V59H13V14.62L32,5.12 M32,4L12,14v46h40V14L32,4L32,4z" fill="#c8c8c8"/>
 <path d="m12.5 33.5h39v13h-39z" fill="#f0f0f0"/>
 <path d="m51 34v12h-38v-12h38m1-1h-40v14h40v-14z" fill="#c8c8c8"/>
 <path d="m12.5 20.5h39v13h-39z" fill="#f0f0f0"/>
 <path d="m51 21v12h-38v-12h38m1-1h-40v14h40v-14z" fill="#c8c8c8"/>
 <path d="m17.43 23.43h5.13v6.13h-5.13z" fill="#f0f0f0"/>
 <path d="m22.13 23.87v5.27h-4.27v-5.27h4.27m.87-.87h-6v7h6v-7z" fill="#c8c8c8"/>
 <path d="m22.43 23.43h5.13v6.13h-5.13z" fill="#f0f0f0"/>
 <path d="m27.13 23.87v5.27h-4.27v-5.27h4.27m.87-.87h-6v7h6v-7z" fill="#c8c8c8"/>
 <path d="m40.5 36.5h6v10h-6z" fill="#f0f0f0"/>
 <path d="m46 37v9h-5v-9h5m1-1h-7v11h7v-11z" fill="#c8c8c8"/>
 <path d="m31.43 23.43h5.13v6.13h-5.13z" fill="#f0f0f0"/>
 <path d="m36.13 23.87v5.27h-4.27v-5.27h4.27m.87-.87h-6v7h6v-7z" fill="#c8c8c8"/>
 <path d="m17.43 36.43h5.13v6.13h-5.13z" fill="#f0f0f0"/>
 <path d="m22.13 36.87v5.27h-4.27v-5.27h4.27m.87-.87h-6v7h6v-7z" fill="#c8c8c8"/>
 <path d="m22.43 36.43h5.13v6.13h-5.13z" fill="#f0f0f0"/>
 <path d="m27.13 36.87v5.27h-4.27v-5.27h4.27m.87-.87h-6v7h6v-7z" fill="#c8c8c8"/>
 <path d="m31.43 36.43h5.13v6.13h-5.13z" fill="#f0f0f0"/>
 <path d="m36.13 36.87v5.27h-4.27v-5.27h4.27m.87-.87h-6v7h6v-7z" fill="#c8c8c8"/>
 <path d="m40.47 23.47h6.06v6.06h-6.06z" fill="#f0f0f0"/>
 <g fill="#c8c8c8">
  <path d="m46.06 23.94v5.13h-5.13v-5.13h5.13m.94-.94h-7v7h7v-7z"/>
  <path d="m44 41h1v1h-1z"/>
 </g>
 <path d="m12.5 20.5v-6.19l19.5-9.75 19.5 9.75v6.19z" fill="#ffccd3"/>
 <path d="m32 5.12 19 9.5v5.38h-38v-5.38l19-9.5m0-1.12-20 10v7h40v-7l-20-10z" fill="#f66"/>
 <path d="m58 17.5-26-13-26 13" fill="none" stroke="#2e7de5" stroke-miterlimit="10" stroke-width="1.5"/>
 <path d="m25.5 12.5h5v5h-5z" fill="#ffccd3"/>
 <path d="m30 13v4h-4v-4h4m1-1h-6v6h6v-6z" fill="#f66"/>
 <path d="m33.5 12.5h5v5h-5z" fill="#ffccd3"/>
 <path d="m38 13v4h-4v-4h4m1-1h-6v6h6v-6z" fill="#f66"/>
</svg>
