<?xml version="1.0" encoding="UTF-8"?>
<svg enable-background="new 0 0 64 64" viewBox="0 0 64 64" xmlns="http://www.w3.org/2000/svg">
 <path d="m1.14 40.27c1.52 5.68 4.11 10.17 8.27 14.32l11.28-11.28c-1.96-1.96-3.39-4.42-4.13-7.18l-15.42 4.14" fill="#3d01a4"/>
 <path d="m62.86 23.73l-15.42 4.13c.35 1.32.56 2.71.56 4.14s-.21 2.82-.56 4.14l15.42 4.13c1.52-5.68 1.52-10.86 0-16.54" fill="#fefe33"/>
 <path d="m20.69 20.69-11.28-11.28c-4.16 4.16-6.75 8.64-8.27 14.32l15.42 4.13c0.74-2.75 2.17-5.22 4.13-7.17" fill="#a7194b"/>
 <path d="m16 32c0-1.43.21-2.82.56-4.14l-15.42-4.13c-1.52 5.68-1.52 10.86 0 16.54l15.42-4.13c-.35-1.32-.56-2.71-.56-4.14" fill="#8601af"/>
 <path d="m32 48c-1.43 0-2.82-.21-4.14-.56l-4.13 15.42c5.68 1.52 10.86 1.52 16.54 0l-4.13-15.42c-1.32.35-2.71.56-4.14.56" fill="#0391ce"/>
 <path d="m47.44 36.14c-.74 2.75-2.17 5.22-4.13 7.18l11.28 11.28c4.16-4.16 6.75-8.64 8.27-14.32l-15.42-4.14" fill="#d0ea2b"/>
 <path d="m43.31 43.31c-1.96 1.96-4.42 3.39-7.18 4.13l4.13 15.42c5.68-1.52 10.17-4.11 14.32-8.27l-11.27-11.28" fill="#66b032"/>
 <path d="m20.69 43.31-11.28 11.28c4.16 4.16 8.64 6.75 14.32 8.27l4.13-15.42c-2.75-0.74-5.22-2.17-7.17-4.13" fill="#0247fe"/>
 <path d="m32 16c1.43 0 2.82.21 4.14.56l4.13-15.42c-5.68-1.52-10.86-1.52-16.54 0l4.13 15.42c1.32-.35 2.71-.56 4.14-.56" fill="#fd5308"/>
 <path d="m27.86 16.56-4.13-15.42c-5.68 1.52-10.16 4.11-14.32 8.27l11.28 11.28c1.95-1.96 4.42-3.39 7.17-4.13" fill="#fe2712"/>
 <path d="m43.31 20.69l11.28-11.28c-4.16-4.16-8.64-6.75-14.32-8.27l-4.13 15.42c2.75.74 5.22 2.17 7.17 4.13" fill="#fb9902"/>
 <path d="m62.86 23.73c-1.52-5.68-4.11-10.17-8.27-14.32l-11.28 11.28c1.96 1.96 3.39 4.42 4.13 7.18l15.42-4.14" fill="#fabc02"/>
</svg>
