<?xml version="1.0" encoding="UTF-8"?>
<svg enable-background="new 0 0 64 64" viewBox="0 0 64 64" xmlns="http://www.w3.org/2000/svg">
 <path d="m47.5 58.5v-51h-31v51h-4v-55h39v55z" fill="#ececed"/>
 <path d="m51 4v54h-3v-51h-32v51h-3v-54h38m1-1h-40v56h5v-51h30v51h5v-56z" fill="#9b9c9e"/>
 <path d="m17.5 8.5h29v50h-29z" fill="#646464"/>
 <path d="m46 9v49h-28v-49h28m1-1h-30v51h30v-51z" fill="#282828"/>
 <ellipse cx="43.5" cy="34" rx=".5" ry="1" fill="#dcdcf0"/>
 <path d="m36 13v41h-8v-41h8m1-1h-10v43h10v-43z" fill="#282828"/>
 <path d="m28.5 13.5h7v40h-7z" fill="#d9f1ff"/>
 <path d="m35 14v39h-6v-39h6m1-1h-8v41h8v-41z" fill="#7aadcc"/>
 <path d="m40.5 15.5h2v36h-2z" fill="#dcdcf0"/>
 <path d="m42 16v35h-1v-35h1m1-1h-3v37h3v-37z" fill="#595959"/>
</svg>
