<?xml version="1.0" encoding="UTF-8"?>
<svg enable-background="new 0 0 64 64" viewBox="0 0 64 64" xmlns="http://www.w3.org/2000/svg">
 <path d="m9.5 14.5h15v4h-15z" fill="#282828"/>
 <path d="m24 15v3h-14v-3h14m1-1h-16v5h16v-5z" fill="#3c3c3c"/>
 <path d="m24.5 14.5h15v4h-15z" fill="#282828"/>
 <path d="m39 15v3h-14v-3h14m1-1h-16v5h16v-5z" fill="#3c3c3c"/>
 <path d="m39.5 14.5h15v4h-15z" fill="#282828"/>
 <path d="m54 15v3h-14v-3h14m1-1h-16v5h16v-5z" fill="#3c3c3c"/>
 <path d="m9.5 18.5h15v11h-15z" fill="#282828"/>
 <path d="m24 19v10h-14v-10h14m1-1h-16v12h16v-12z" fill="#3c3c3c"/>
 <path d="m24.5 18.5h15v11h-15z" fill="#282828"/>
 <path d="m39 19v10h-14v-10h14m1-1h-16v12h16v-12z" fill="#3c3c3c"/>
 <path d="m39.5 18.5h15v11h-15z" fill="#282828"/>
 <path d="m54 19v10h-14v-10h14m1-1h-16v12h16v-12z" fill="#3c3c3c"/>
 <path d="m9.5 29.5h15v11h-15z" fill="#282828"/>
 <path d="m24 30v10h-14v-10h14m1-1h-16v12h16v-12z" fill="#3c3c3c"/>
 <path d="m24.5 29.5h15v11h-15z" fill="#282828"/>
 <path d="m39 30v10h-14v-10h14m1-1h-16v12h16v-12z" fill="#3c3c3c"/>
 <path d="m39.5 29.5h15v11h-15z" fill="#282828"/>
 <path d="m54 30v10h-14v-10h14m1-1h-16v12h16v-12z" fill="#3c3c3c"/>
 <path d="m55.5 53.5v-35h-47v35h-5v-40h57v40z" fill="#f0f0f0"/>
 <path d="m60 14v39h-4v-35h-48v35h-4v-39h56m1-1h-58v41h6v-35h46v35h6v-41z" fill="#c8c8c8"/>
</svg>
