<?xml version="1.0" encoding="UTF-8"?>
<svg enable-background="new 0 0 64 64" viewBox="0 0 64 64" xmlns="http://www.w3.org/2000/svg" xmlns:xlink="http://www.w3.org/1999/xlink">
 <defs>
  <path id="b" d="m38.7 24.9s3.3 9.8 3.3 13.1c0-3.4 3.3-13.1 3.3-13.1h-6.6"/>
  <clipPath id="a">
   <use xlink:href="#b"/>
  </clipPath>
 </defs>
 <path d="m28.5 53.5c-1.1 0-2-.9-2-2v-4.5h4v4.5c0 1.1-.9 2-2 2" fill="#d29e7c"/>
 <path d="m30 47.5v4c0 0.9-0.7 1.5-1.5 1.5s-1.5-0.7-1.5-1.5v-4h3m1-1h-5v5c0 1.4 1.1 2.5 2.5 2.5s2.5-1.1 2.5-2.5v-5z" fill="#c18a6b"/>
 <path d="m55.5 53.5c-1.1 0-2-.9-2-2v-4.5h4v4.5c0 1.1-.9 2-2 2" fill="#d29e7c"/>
 <path d="m57 47.5v4c0 0.9-0.7 1.5-1.5 1.5s-1.5-0.7-1.5-1.5v-4h3m1-1h-5v5c0 1.4 1.1 2.5 2.5 2.5s2.5-1.1 2.5-2.5v-5z" fill="#c18a6b"/>
 <path d="m46.7 24h-9.3c-6.3 0-11.3 5.2-11.3 11.5v0.8c0 0.2-0.1 0.4-0.1 0.6v12.1h4.9v-11.5c0-1.5 0.5-2.8 1.3-3.9v15.4h19.7v-15.5c0.6 0.9 1.1 2 1.2 3.2v0.2 12.1h4.9v-13.4c0-6.4-5.1-11.6-11.3-11.6" fill="#00783c"/>
 <ellipse cx="42" cy="24.4" rx="4.3" ry="2.5" fill="#fff"/>
 <path d="m41 30h1v19h-1z" opacity=".2"/>
 <path d="m42.5 39c-.3 0-.5.2-.5.5 0 .3.2.5.5.5.3 0 .5-.2.5-.5 0-.3-.2-.5-.5-.5" opacity=".2"/>
 <path d="m42.5 42c-.3 0-.5.2-.5.5 0 .3.2.5.5.5.3 0 .5-.2.5-.5 0-.3-.2-.5-.5-.5" opacity=".2"/>
 <path d="m42.5 45c-.3 0-.5.2-.5.5 0 .3.2.5.5.5.3 0 .5-.2.5-.5 0-.3-.2-.5-.5-.5" opacity=".2"/>
 <path d="m38.7 24.9s3.3 9.8 3.3 13.1c0-3.4 3.3-13.1 3.3-13.1h-6.6" clip-path="url(#a)" fill="#fff"/>
 <path d="m39.5 24.4 1.9 2.5-1.9 3.7 2.5 7.4 2.4-7.4-1.8-3.7 1.8-2.5z" clip-path="url(#a)" fill="#e70003"/>
 <g fill="#fff">
  <path d="m42.803 24.564h4.2971v1.8h-4.1z"/>
  <path d="m37.343 23.171h3.657v1.8h-4.1z"/>
 </g>
 <path d="m42 23.5c-5.2 0-9.5-4.3-9.5-9.5s4.3-9.5 9.5-9.5 9.5 4.3 9.5 9.5-4.3 9.5-9.5 9.5" fill="#d29e7c"/>
 <path d="m42 5c5 0 9 4 9 9s-4 9-9 9-9-4-9-9 4-9 9-9m0-1c-5.5 0-10 4.5-10 10s4.5 10 10 10 10-4.5 10-10-4.5-10-10-10z" fill="#c18a6b"/>
 <path d="m32.5 14c0-5.2 4.3-9.5 9.5-9.5s9.5 4.3 9.5 9.5c0 0 0 0 0 0-1.4-1.3-2.4-2.8-3-4.6l-.1-.4h-.4c-.7.1-1.4.1-2 .1-1 0-1.9-.1-2.8-.2l-2.7-.4 2.4 1.3c.6.3 1.1.6 1.6.8-.8.1-1.5.1-2.3.1-2.5 0-4.7-.4-6.6-1.1l-.5-.2-.2.5c-.6 1.7-1.4 3-2.4 4 0 .2 0 .1 0 .1" fill="#61452d"/>
 <path d="m42 5c4.5 0 8.3 3.3 8.9 7.7-.9-1-1.5-2.2-1.9-3.4l-.3-.7-.8.1c-.7.1-1.4.1-2 .1-.9 0-1.9-.1-2.7-.2l-5.4-.8 4.7 2.6c-.1 0-.2 0-.4 0-2.4 0-4.6-.4-6.4-1l-.9-.4-.3.9c-.4 1-.8 1.9-1.3 2.6.6-4.2 4.3-7.5 8.8-7.5m0-1c-5.5 0-10 4.5-10 10 0 .4 0 .8.1 1.2 1.1-.9 2.4-2.4 3.3-4.9 1.8.7 4 1.1 6.8 1.1 1.3 0 2.7-.1 4.2-.3 0 0-1.6-.6-3.3-1.5.9.1 1.8.2 2.9.2.7 0 1.4 0 2.1-.1.7 1.9 1.9 3.8 3.9 5.5 0-.4.1-.7.1-1.1-.1-5.6-4.6-10.1-10.1-10.1z" fill="#513624"/>
 <path d="m31 22.7h-17.8c0 2.3-2 4.3-4.8 5.2 3.3 3.4 8.2 5.5 13.7 5.5s10.4-2.1 13.7-5.5c-2.9-0.9-4.8-2.9-4.8-5.2"/>
 <path d="m35.5 59.5c-1.1 0-2-.9-2-2v-14.7c-.2-1.3-.6-2.4-1.2-3.3l-.3-.5-10 8-9.9-8-.3.4c-.8 1.2-1.3 2.6-1.3 4.2v13.9c0 1.1-.9 2-2 2-1.1 0-2-.9-2-2v-15.3c4.4-.2 5.6-3.6 6.6-6.6.9-2.5 1.7-4.7 4.2-4.7h9.3c2.6 0 3.3 2.2 4.2 4.7 1.1 3 2.2 6.3 6.6 6.6v15.3c.1 1.1-.8 2-1.9 2" fill="#3c201d"/>
 <path d="m26.7 31.4c2.1 0 2.8 1.6 3.8 4.4.3.9.7 1.9 1.2 2.9l-.4.3-9.3 7.4-9.2-7.4-.4-.3c.5-.9.8-1.9 1.2-2.9 1-2.8 1.7-4.4 3.8-4.4h9.3m-16.4 10c-.2.7-.3 1.4-.3 2.2v13.9c0 .8-.7 1.5-1.5 1.5-.8 0-1.5-.7-1.5-1.5v-14.8c1.4-.2 2.4-.6 3.3-1.3m23.5 0c.8.6 1.9 1.1 3.2 1.2v14.9c0 .8-.7 1.5-1.5 1.5-.8 0-1.5-.7-1.5-1.5v-14.5-.3-.1-.1c-.1-.3-.1-.7-.2-1.1m-7.1-11h-9.3c-6.3 0-3.1 11.3-11.4 11.3v15.8c0 1.4 1.1 2.5 2.5 2.5 1.4 0 2.5-1.1 2.5-2.5v-13.9c0-1.4.4-2.8 1.2-3.9l9.8 7.9 9.9-7.9c.6.9 1 1.9 1.1 3v.3 14.5c0 1.4 1.2 2.5 2.5 2.5 1.4 0 2.5-1.1 2.5-2.5v-15.8c-8.2 0-5.1-11.3-11.3-11.3z" fill="#1e0e0e"/>
 <g fill="#bd0926">
  <path d="m33.1 56h-11.1v-14.5c3.9-3.9 5.3-7.2 5.9-9.4.1-.3.1-.6.2-.8 0-.3.1-.5.1-.8 6.1 0 9.8 9.3 9.8 11.2l-4.9 1.9c0-1.4-.5-2.8-1.2-3.9l-2.4 7.9 2.5 3.7 1.1 4.7"/>
  <path d="m10.9 56h11.1v-14.5c-3.9-3.9-5.3-7.2-5.9-9.4-.1-.3-.1-.6-.2-.8 0-.3-.1-.5-.1-.8-6.1 0-9.8 9.3-9.8 11.2l4.9 1.9c0-1.4.5-2.8 1.2-3.9l2.4 7.9-2.5 3.7-1.1 4.7"/>
 </g>
 <path d="m22 29.5c-5.2 0-9.5-4.3-9.5-9.5s4.3-9.5 9.5-9.5 9.5 4.3 9.5 9.5-4.3 9.5-9.5 9.5" fill="#3c201d"/>
 <path d="m22 11c5 0 9 4 9 9s-4 9-9 9-9-4-9-9 4-9 9-9m0-1c-5.5 0-10 4.5-10 10s4.5 10 10 10 10-4.5 10-10-4.5-10-10-10z" fill="#1e0e0e"/>
 <path d="m22 10c-5.5 0-10 4.5-10 10 0 1.1.2 2.2.5 3.3.1-.2.2-.3.3-.5 1.2-2.1 2-4.3 2.7-6.4 2.8 1.3 6.4 2.1 10.9 1 0 0-3 .1-6.2-2.2 2.4.8 5.3 1.3 7.7.6.8 1.9 1.8 3.6 3 5 .2.8.3 1.5.5 2.2.4-1 .6-2 .6-3 0-5.5-4.5-10-10-10"/>
 <path d="m18.3 30.4s0 6.2 3.7 6.2 3.7-6.2 3.7-6.2" fill="none" stroke="#e5ae00" stroke-miterlimit="10"/>
 <path d="m30.6 50.1h-17.2l1.2-2.4h14.8z" fill="#660619"/>
</svg>
