<?xml version="1.0" encoding="UTF-8"?>
<svg enable-background="new 0 0 64 64" version="1.1" viewBox="0 0 64 64" xml:space="preserve" xmlns="http://www.w3.org/2000/svg">
  <path d="m32 59.5c-14.061 0-25.5-11.439-25.5-25.5 0-10.074 5.862-19.115 15-23.242v8.013c-5.014 3.463-8 9.136-8 15.229 0 10.201 8.299 18.5 18.5 18.5s18.5-8.299 18.5-18.5c0-6.094-2.986-11.767-8-15.229v-8.013c9.138 4.127 15 13.168 15 23.242 0 14.061-11.439 25.5-25.5 25.5z" fill="#F00014"/>
  <path d="m43 11.546c8.553 4.185 14 12.84 14 22.454 0 13.785-11.215 25-25 25s-25-11.215-25-25c0-9.614 5.447-18.269 14-22.454v6.965c-5.019 3.568-8 9.319-8 15.49 0 10.477 8.523 19 19 19s19-8.523 19-19c0-6.171-2.981-11.921-8-15.49v-6.965m-1-1.55v9.039c4.823 3.229 8 8.725 8 14.965 0 9.941-8.059 18-18 18s-18-8.059-18-18c0-6.24 3.177-11.736 8-14.965v-9.039c-9.395 3.918-16 13.189-16 24.004 0 14.359 11.641 26 26 26s26-11.641 26-26c0-10.815-6.605-20.086-16-24.004z" fill="#D6001A"/>
  <rect x="28.5" y="4.5" width="7" height="23" fill="#F00014"/>
  <path d="m35 5v22h-6v-22h6m1-1h-8v24h8v-24z" fill="#D6001A"/>
</svg>
