<?xml version="1.0" encoding="UTF-8"?>
<svg enable-background="new 0 0 64 64" viewBox="0 0 64 64" xmlns="http://www.w3.org/2000/svg">
 <path d="m32 25s-0.37-2.34 1.8-4.19c2.05-1.74 1.15-4 0-5.15s-4.1-0.99-4.76 1.92" fill="none" stroke="#b4b4b4" stroke-linecap="round" stroke-linejoin="round" stroke-miterlimit="10" stroke-width="1.5"/>
 <path d="m23.57 31.64s-1.56 1.78-11.78 5.77-9.74 7.2-9.74 7.2-0.53 3.5 2.24 1.48 24.53-15.08 27.71-15.08v-5.99h-2.47s-1.8-0.38-2.78 2.63-3.18 3.99-3.18 3.99"/>
 <path d="m40.43 31.64s1.56 1.78 11.78 5.77 9.74 7.2 9.74 7.2 0.53 3.5-2.24 1.48-24.53-15.08-27.71-15.08v-5.99h2.47s1.8-0.38 2.78 2.63 3.18 3.99 3.18 3.99"/>
</svg>
