<?xml version="1.0" encoding="UTF-8"?>
<svg enable-background="new 0 0 64 64" viewBox="0 0 64 64" xmlns="http://www.w3.org/2000/svg">
 <path d="m32 17.5c-4.7 0-8.5-3.8-8.5-8.5s3.8-8.5 8.5-8.5 8.5 3.8 8.5 8.5-3.8 8.5-8.5 8.5" fill="#3c201d"/>
 <path d="m32 1c4.4 0 8 3.6 8 8s-3.6 8-8 8-8-3.6-8-8 3.6-8 8-8m0-1c-5 0-9 4-9 9s4 9 9 9 9-4 9-9-4-9-9-9z" fill="#1e0e0e"/>
 <path d="m27.6 63.5c-.7 0-1.3-.3-1.8-.7l-8.5-8.5c-2.1-2.1-2.1-5.6 0-7.8l5.3-5.3 5.7 5.7-5.3 5.3 6.7 6.7c1 1 1 2.6 0 3.5l-.4.4c-.4.4-1 .7-1.7.7" fill="#3c201d"/>
 <path d="m22.7 41.9l4.9 4.9-4.6 4.7-.7.7.7.7 6.4 6.4c.8.8.8 2 0 2.8l-.4.3c-.4.4-.9.6-1.4.6s-1-.2-1.4-.6l-6.4-6.4-2.1-2.1c-1.9-1.9-1.9-5.1 0-7.1l5-4.9m0-1.4l-5.7 5.7c-2.3 2.3-2.3 6.1 0 8.5l2.1 2.1 6.4 6.4c.6.6 1.4.9 2.1.9s1.5-.3 2.1-.9l.4-.4c1.2-1.2 1.2-3.1 0-4.2l-6.4-6.4 5.3-5.3-6.3-6.4z" fill="#1e0e0e"/>
 <path d="m36.4 63.5c-.7 0-1.3-.3-1.8-.7l-.4-.4c-1-1-1-2.6 0-3.5l6.7-6.7-5.3-5.3 5.7-5.7 5.3 5.3c2.1 2.1 2.1 5.6 0 7.8l-8.5 8.5c-.4.4-1.1.7-1.7.7" fill="#3c201d"/>
 <path d="m41.3 41.9 4.9 4.9c1.9 1.9 1.9 5.1 0 7.1l-8.5 8.5c-0.4 0.4-0.9 0.6-1.4 0.6s-1-0.2-1.4-0.6l-0.4-0.4c-0.8-0.8-0.8-2 0-2.8l7.1-7.1-5.2-5.2 4.9-5m0-1.4-6.3 6.4 5.3 5.3-6.4 6.4c-1.2 1.2-1.2 3.1 0 4.2l0.4 0.4c0.6 0.6 1.4 0.9 2.1 0.9s1.5-0.3 2.1-0.9l8.5-8.5c2.3-2.3 2.3-6.1 0-8.5l-5.7-5.7z" fill="#1e0e0e"/>
 <path d="m51.2 38c-.7 0-1.3-.3-1.8-.7l-9-9v8h-17v-8l-9 9c-.5.5-1.1.7-1.8.7-.7 0-1.3-.3-1.8-.7-1-1-1-2.6 0-3.5l12.9-12.8c.5-.5 1.1-.7 1.8-.7h.1.1 12.6c0 0 .1 0 .1 0 .7 0 1.4.3 1.8.7l12.8 12.7c1 1 1 2.6 0 3.5-.5.5-1.1.8-1.8.8" fill="#3c201d"/>
 <path d="m38.3 20.8h.1.1c.5 0 1 .2 1.4.6l12.7 12.7c.8.8.8 2 0 2.8-.4.4-.9.6-1.4.6s-1-.2-1.4-.6l-8.1-8.1-1.7-1.7v2.4 6.3h-16v-6.3-2.4l-1.7 1.7-8.1 8.1c-.4.4-.9.6-1.4.6-.5 0-1-.2-1.4-.6-.8-.8-.8-2 0-2.8l12.7-12.7c.4-.4.9-.6 1.4-.6h.1c0 0 .1 0 .1 0h12.6m0-1h-12.6c0 0-.1 0-.1 0 0 0-.1 0-.1 0-.8 0-1.5.3-2.1.9l-12.8 12.7c-1.2 1.2-1.2 3.1 0 4.2.6.6 1.4.9 2.1.9.8 0 1.5-.3 2.1-.9l8.1-8.1v7.3h18v-7.3l8.1 8.1c.6.6 1.4.9 2.1.9s1.5-.3 2.1-.9c1.2-1.2 1.2-3.1 0-4.2l-12.6-12.8c-.6-.6-1.4-.9-2.1-.9 0 .1-.1.1-.2.1z" fill="#1e0e0e"/>
 <path d="m23 36.8l-.3 3.7 6.3 6.4h6l6.3-6.4-.3-3.7z" fill="#fff" stroke="#e8e8e8" stroke-linecap="round" stroke-linejoin="round" stroke-miterlimit="10"/>
</svg>
