<?xml version="1.0" encoding="UTF-8"?>
<svg enable-background="new 0 0 64 64" viewBox="0 0 64 64" xmlns="http://www.w3.org/2000/svg">
 <ellipse cx="32" cy="32" rx="21.5" ry="30" fill="#fff"/>
 <path d="m32 64c14.21 0 24-6.64 24-32s-9.79-32-24-32c-14.2 0-24 6.64-24 32s9.79 32 24 32" fill="#0064c8"/>
 <path d="m46.6 42.94-10.94-10.94 10.94-10.94-16.57-16.58v21.85l-9.11-9.12-3.32 3.31 11.44 11.48-11.44 11.47 3.32 3.32 9.11-9.12v21.85l16.57-16.58m-6.62-21.85-5.29 5.29v-10.58l5.29 5.29m-5.29 16.53 5.29 5.29-5.29 5.29v-10.58" fill="#fff"/>
</svg>
