<?xml version="1.0" encoding="UTF-8"?>
<svg enable-background="new 0 0 64 64" viewBox="0 0 64 64" xmlns="http://www.w3.org/2000/svg">
 <path d="m47.5 58.5v-51h-31v51h-4v-55h39v55z" fill="#ececed"/>
 <path d="m51 4v54h-3v-51h-32v51h-3v-54h38m1-1h-40v56h5v-51h30v51h5v-56z" fill="#9b9c9e"/>
 <path d="m17.5 8.5h29v50h-29z" fill="#f0f0f0"/>
 <g fill="#646464">
  <path d="m46 9v49h-28v-49h28m1-1h-30v51h30v-51z"/>
  <circle cx="43" cy="37" r="1"/>
  <path d="m39.5 32h4c.28 0 .5.22.5.5 0 .28-.22.5-.5.5h-4c-.28 0-.5-.22-.5-.5 0-.28.22-.5.5-.5"/>
 </g>
</svg>
