<?xml version="1.0" encoding="UTF-8"?>
<svg viewBox="0 0 64 64" xmlns="http://www.w3.org/2000/svg" xmlns:xlink="http://www.w3.org/1999/xlink">
 <defs>
  <linearGradient id="d" x2="0" y1="73.362" y2="70.362" gradientTransform="matrix(1.9999 0 0 1.2424 -47.993 955.22)" gradientUnits="userSpaceOnUse">
   <stop stop-color="#fff" offset="0"/>
   <stop stop-color="#ccc" offset="1"/>
  </linearGradient>
  <linearGradient id="c" x2="0" y1="73.362" y2="70.362" gradientTransform="matrix(1.9999 0 0 2.0001 -47.871 861.63)" gradientUnits="userSpaceOnUse">
   <stop stop-color="#fff" offset="0"/>
   <stop stop-color="#cdcdcd" offset="1"/>
  </linearGradient>
 </defs>
 <g transform="translate(0 -988.36)">
  <path d="m12.253 994.45h39.685v51.689h-39.685z" fill="#fff"/>
  <g fill="#d3d3d3">
   <path id="b" d="m34 996.36h4v4h-4z"/>
   <path id="a" d="m40 996.36h4v4h-4z"/>
   <path d="m46 996.36h4v4h-4z"/>
  </g>
  <path d="m12 1002.4h40v6h-40z" fill="url(#c)"/>
  <path d="m12 1042.4h40v4h-40z" fill="url(#d)"/>
  <path d="m10 992.36v56h44l1e-6 -56zm2 2h40v52h-40z" fill="#969696"/>
  <path d="m47.38 1023.6c0 8.5523-6.9324 15.485-15.484 15.485s-15.484-6.9331-15.484-15.485c0-8.5524 6.9324-15.485 15.484-15.485s15.484 6.933 15.484 15.485z" fill="none" stroke="#4c4c4c" stroke-width="2.2121"/>
  <path d="m15 1020.4h6v6h-6z" fill="#939393"/>
  <path transform="translate(0 988.36)" d="m17 10l2.672-2.3594.89 2.3594z" fill="#4f4f4f"/>
  <path d="m44 994.36h8v8h-8z" fill="#ffeca5"/>
  <path d="m46 996.36h4v4h-4z" fill="#fc0"/>
  <g fill="#b8b8b8">
   <use xlink:href="#b"/>
   <use xlink:href="#a"/>
  </g>
 </g>
</svg>
