<?xml version="1.0" encoding="UTF-8"?>
<svg viewBox="0 0 64 64" xmlns="http://www.w3.org/2000/svg" xmlns:xlink="http://www.w3.org/1999/xlink">
 <defs>
  <path id="a" d="m26.549 1024.8c-.68936-.1242-1.2755-.4302-1.7681-.9228-.62207-.622-.96657-1.4419-.96657-2.3003 0-.8444.49988-2.2195 1.7941-4.9351.4064-.8527.73294-1.502 1.0975-2.1824.39998-.7465.39098-.7324.43573-.6854.09635.1011.94304 1.7424 1.4794 2.8678 1.2942 2.7156 1.7941 4.0907 1.7941 4.9351 0 1.2592-.75536 2.4277-1.9199 2.9698-.57265.2667-1.3278.3649-1.9463.2533z" fill="#018aca"/>
  <linearGradient id="g" x2="0" y1="73.362" y2="70.362" gradientTransform="matrix(1.9999 0 0 1.2424 -47.993 955.22)" gradientUnits="userSpaceOnUse">
   <stop stop-color="#fff" offset="0"/>
   <stop stop-color="#ccc" offset="1"/>
  </linearGradient>
  <linearGradient id="f" x2="0" y1="73.362" y2="70.362" gradientTransform="matrix(1.9999 0 0 2.0001 -47.871 861.63)" gradientUnits="userSpaceOnUse">
   <stop stop-color="#fff" offset="0"/>
   <stop stop-color="#cdcdcd" offset="1"/>
  </linearGradient>
 </defs>
 <g transform="translate(0 -988.36)">
  <path d="m12.253 994.45h39.685v51.689h-39.685z" fill="#fff"/>
  <g fill="#d3d3d3">
   <path d="m34 996.36h4v4h-4z"/>
   <path id="e" d="m40 996.36h4v4h-4z"/>
   <path id="d" d="m46 996.36h4v4h-4z"/>
  </g>
  <path d="m32 994.36h8l-3e-6 8h-8z" fill="#a5ffa8"/>
  <path d="m34 996.36h4v4h-4z" fill="#00c808"/>
  <g fill="#a1a1a1">
   <use xlink:href="#e"/>
   <use xlink:href="#d"/>
  </g>
  <g transform="translate(-.21875)">
   <use xlink:href="#a"/>
   <path id="c" d="m27.59 1023.1c.5933-.1531 1.1042-.6213 1.3007-1.192.08037-.2334.11866-.4834.10519-.6869-.03916-.5912-.54406-1.8555-1.492-3.7359-.26906-.5336-.36194-.7016-.38801-.7016s-.11896.168-.38801.7016c-.79115 1.5694-1.2641 2.6878-1.4458 3.419-.06261.2519-.05851.5951.01012.848.13267.4887.46321.9183.8978 1.1669.41085.2351.92985.3021 1.4.1809z" fill="#006694"/>
  </g>
  <g transform="translate(4.9375 9.3125)">
   <use xlink:href="#a"/>
   <use id="b" xlink:href="#c"/>
  </g>
  <g transform="translate(10.094)">
   <use xlink:href="#a"/>
   <use xlink:href="#b"/>
  </g>
  <path d="m12 1002.4h40v6h-40z" fill="url(#f)"/>
  <path d="m12 1042.4h40v4h-40z" fill="url(#g)"/>
  <path d="m10 992.36v56h44l1e-6 -56zm2 2h40v52h-40z" fill="#969696"/>
  <path d="m47.38 1023.6c0 8.5523-6.9324 15.485-15.484 15.485s-15.484-6.9331-15.484-15.485c0-8.5524 6.9324-15.485 15.484-15.485s15.484 6.933 15.484 15.485z" fill="none" stroke="#4c4c4c" stroke-width="2.2121"/>
  <path d="m15 1020.4h6v6h-6z" fill="#939393"/>
  <path transform="translate(0 988.36)" d="m17 10l2.672-2.3594.89 2.3594z" fill="#4f4f4f"/>
 </g>
</svg>
