<?xml version="1.0" encoding="UTF-8"?>
<svg enable-background="new 0 0 64 64" viewBox="0 0 64 64" xmlns="http://www.w3.org/2000/svg">
 <path d="m54.13 40.06c-3.39-30.48-21.05-38.16-25.76-39.67-.56-.18-1.1.27-1.06.85.77 12.02-5.18 18.82-5.18 18.82s-7.83 9.75-10 13-5.42 15.67 3 26c7.2 8.84 15.26 2.55 17.43.55.33-.3.82-.27 1.14.04 3.61 3.56 7.79 4.48 11.43 1.41 11.41-9.61 9-21 9-21" fill="#b2b2b2"/>
 <path d="m32.74 59.06s-5.88 5.33-10 0-2-14-2-14 3.21-7.46 10-15c0 0 2.67-2.92 3-5 0 0 9.08 4.83 10 17s-9 19-9 19l-2-2" fill="#d8d8d8"/>
 <path d="m32.48 59.06s6.79-1.96 8-14c0 0 0.88-3.88-6-10l-8 9s-3 3.04-3 8 3 7 3 7 2.67 3.34 6 0" fill="#f2f2f2"/>
</svg>
