<?xml version="1.0" encoding="UTF-8"?>
<svg enable-background="new 0 0 64 64" viewBox="0 0 64 64" xmlns="http://www.w3.org/2000/svg" xmlns:xlink="http://www.w3.org/1999/xlink">
 <defs>
  <linearGradient id="b" x1="30" x2="34" gradientUnits="userSpaceOnUse">
   <stop stop-color="#c7a23d" offset="0"/>
   <stop stop-color="#e6cead" offset=".5"/>
   <stop stop-color="#c7a23d" offset="1"/>
  </linearGradient>
  <linearGradient id="c" x1="16.5" x2="47.5" gradientUnits="userSpaceOnUse">
   <stop stop-color="#dd2a42" offset="0"/>
   <stop stop-color="#dc6478" offset=".5"/>
   <stop stop-color="#dd2a42" offset="1"/>
  </linearGradient>
  <linearGradient id="a" x1="23.5" x2="40.5" gradientUnits="userSpaceOnUse">
   <stop stop-color="#82828c" offset="0"/>
   <stop stop-color="#ccd3e7" offset=".5"/>
   <stop stop-color="#82828c" offset="1"/>
  </linearGradient>
  <linearGradient id="d" x1="16.5" x2="47.5" gradientUnits="userSpaceOnUse" xlink:href="#a"/>
 </defs>
 <path d="M16.5,54.5V25c0-4.1,3.4-7.5,7.5-7.5h16c4.1,0,7.5,3.4,7.5,7.5v29.5H16.5z" fill="url(#c)"/>
 <path d="m40 18c3.9 0 7 3.1 7 7v29h-30v-29c0-3.9 3.1-7 7-7h16m0-1h-16c-4.4 0-8 3.6-8 8v30h32v-30c0-4.4-3.6-8-8-8z" fill="#b2243b"/>
 <path d="m23.5 16.5v-6c1.1-.2 2-1.2 2-2.5s-.9-2.2-2-2.5v-1h17v1c-1.1.2-2 1.2-2 2.5s.9 2.2 2 2.5v6h-17m4-2h9v-8h-9v8" fill="url(#a)"/>
 <path d="m40 5v0.2c-1.2 0.4-2 1.5-2 2.8s0.8 2.4 2 2.8v5.2h-16v-5.2c1.2-0.4 2-1.5 2-2.8s-0.8-2.4-2-2.8v-0.2h16m-13 10h10v-9h-10v9m14-11h-18v2c1.1 0 2 0.9 2 2s-0.9 2-2 2v7h18v-7c-1.1 0-2-0.9-2-2s0.9-2 2-2v-2zm-13 10v-7h8v7h-8" fill="#6a6a72"/>
 <path d="m30 9v1h1v4h2v-4h1v-1z" fill="url(#b)"/>
 <path d="m16.5 60.5v-4h4v-1h4v1h15v-1h4v1h4v4z" fill="url(#d)"/>
 <path d="m43 56v1h4v3h-30v-3h4v-1h3v1h16v-1h3m1-1h-5v1h-14v-1h-5v1h-4v5h32v-5h-4v-1z" fill="#6a6a72"/>
 <path d="m47 35v2h-30v-2h30m1-1h-32v4h32v-4z" fill="#b2243b"/>
</svg>
