<?xml version="1.0" encoding="UTF-8"?>
<svg enable-background="new 0 0 64 64" viewBox="0 0 64 64" xmlns="http://www.w3.org/2000/svg" xmlns:xlink="http://www.w3.org/1999/xlink">
 <defs>
  <ellipse id="e" cx="25" cy="40" rx="8" ry="2"/>
  <clipPath id="a">
   <use xlink:href="#e"/>
  </clipPath>
  <radialGradient id="c" cx="35" cy="33" r="5.831" gradientTransform="matrix(1 0 0 .25 0 24.75)" gradientUnits="userSpaceOnUse" xlink:href="#b"/>
  <radialGradient id="d" cx="25" cy="40.08" r="5.831" gradientTransform="matrix(1 0 0 .25 0 30.06)" gradientUnits="userSpaceOnUse" xlink:href="#b"/>
  <radialGradient id="b" cx="19" cy="28" r="5.831" gradientTransform="matrix(1 0 0 .25 0 21)" gradientUnits="userSpaceOnUse">
   <stop stop-color="#f0f0f0" offset="0"/>
   <stop stop-color="#a0a0a0" offset="1"/>
  </radialGradient>
 </defs>
 <path d="m7 20.5c-.2 0-.38-.12-.46-.31s-.03-.4.11-.54l4-4c.09-.09.22-.15.35-.15h26c.2 0 .38.12.46.31s.03.4-.11.54l-4 4c-.09.09-.22.15-.35.15h-26" fill="#315c99"/>
 <path d="m37 16l-4 4h-26l4-4h26m0-1h-26c-.27 0-.52.11-.71.29l-4 4c-.29.29-.37.72-.22 1.09.16.38.53.62.93.62h26c.27 0 .52-.11.71-.29l4-4c.29-.29.37-.72.22-1.09-.16-.38-.53-.62-.93-.62z" fill="#172982"/>
 <path d="m27 7.5c-.2 0-.38-.12-.46-.31s-.03-.4.11-.54l4-4c.09-.1.22-.15.35-.15h26c.2 0 .38.12.46.31s.03.4-.11.54l-4 4c-.09.1-.22.15-.35.15h-26" fill="#ffd773"/>
 <path d="m57 3l-4 4h-26l4-4h26m0-1h-26c-.27 0-.52.11-.71.29l-4 4c-.29.29-.37.72-.22 1.09.16.38.53.62.93.62h26c.27 0 .52-.11.71-.29l4-4c.29-.29.37-.72.22-1.09-.16-.38-.53-.62-.93-.62z" fill="#e5b12e"/>
 <path d="m53 45.5c-.08 0-.15-.02-.22-.05-.17-.08-.28-.26-.28-.45v-38c0-.13.05-.26.15-.35l4-4c.1-.1.22-.15.35-.15.06 0 .13.01.19.04.19.08.31.26.31.46v39c0 .16-.07.31-.2.4l-4 3c-.09.07-.19.1-.3.1" fill="#efbd50"/>
 <path d="m57 3v39l-4 3v-38l4-4m0-1c-.26 0-.52.1-.71.29l-4 4c-.18.19-.29.44-.29.71v38c0 .38.21.73.55.89.14.08.3.11.45.11.21 0 .42-.07.6-.2l4-3c.25-.19.4-.49.4-.8v-39c0-.4-.24-.77-.62-.92-.12-.06-.25-.08-.38-.08z" fill="#e5b12e"/>
 <path d="m6.5 19.5h23v21h-23z" fill="#294a84"/>
 <path d="m29 20v20h-22v-20h22m1-1h-24v22h24v-22z" fill="#172982"/>
 <path d="m8 21h20v18h-20z" fill="#6690cc"/>
 <path d="m26.5 6.5h27v39h-27z" fill="#ffd45c"/>
 <path d="m53 7v38h-26v-38h26m1-1h-28v40h28v-40z" fill="#e5b12e"/>
 <path d="m29 9h22v34h-22z" fill="#ffe3a6"/>
 <path d="m27 28v19h-0.01c0 0.02 0.01 0.03 0.01 0.05 0 1.1-3.58 2-8 2s-8-0.9-8-2c0-0.02 0.01-0.03 0.01-0.05h-0.01v-19h16m0-1h-16c-0.55 0-1 0.45-1 1v19 0.02 0.02c0 2.86 7.5 3 9 3s9-0.14 9-3v-0.02-0.02-19c0-0.55-0.45-1-1-1z" fill="#666"/>
 <g fill="#66ccca">
  <ellipse cx="19" cy="47" rx="8" ry="2"/>
  <path d="m11 28h16v19h-16z"/>
 </g>
 <g fill="#fcb11a">
  <ellipse cx="19" cy="37" rx="8" ry="2"/>
  <path d="m11 28h16v9h-16z"/>
 </g>
 <path d="m19.5 42h-1c-1.38 0-2.5-1.12-2.5-2.5v-1c0-1.37 1.12-2.5 2.5-2.5h1c1.38 0 2.5 1.12 2.5 2.5v1c0 1.38-1.12 2.5-2.5 2.5" fill="#e54545"/>
 <ellipse cx="19" cy="28" rx="8" ry="2" fill="url(#b)"/>
 <g fill="#666">
  <path d="m19 26c4.42 0 8 .9 8 2s-3.58 2-8 2-8-.9-8-2 3.58-2 8-2m0-1c-1.5 0-9 .14-9 3s7.5 3 9 3 9-.14 9-3-7.5-3-9-3z"/>
  <path d="m43 32.95v19h-0.01c0 0.02 0.01 0.03 0.01 0.05 0 1.1-3.58 2-8 2s-8-0.9-8-2c0-0.02 0.01-0.03 0.01-0.05h-0.01v-19h16m0-1h-16c-0.55 0-1 0.45-1 1v19 0.02 0.02c0 2.86 7.5 3 9 3s9-0.14 9-3v-0.02-0.02-19c0-0.55-0.45-1-1-1z"/>
 </g>
 <g fill="#0056bc">
  <ellipse cx="35" cy="52" rx="8" ry="2"/>
  <path d="m27 33h16v19h-16z"/>
 </g>
 <g fill="#2fa528">
  <ellipse cx="35" cy="42.08" rx="8" ry="2"/>
  <path d="m27 33h16v9h-16z"/>
 </g>
 <path d="m35.5 47h-1c-1.37 0-2.5-1.12-2.5-2.5v-1c0-1.37 1.12-2.5 2.5-2.5h1c1.37 0 2.5 1.12 2.5 2.5v1c0 1.38-1.12 2.5-2.5 2.5" fill="#ff80e7"/>
 <ellipse cx="35" cy="33" rx="8" ry="2" fill="url(#c)"/>
 <g fill="#666">
  <path d="m35 31c4.42 0 8 .9 8 2s-3.58 2-8 2-8-.9-8-2 3.58-2 8-2m0-1c-1.5 0-9 .14-9 3s7.5 3 9 3 9-.14 9-3-7.5-3-9-3z"/>
  <path d="m33 39.95v19h-0.01c0 0.02 0.01 0.03 0.01 0.05 0 1.1-3.58 2-8 2s-8-0.9-8-2c0-0.02 0.01-0.03 0.01-0.05h-0.01v-19h16m0-1h-16c-0.55 0-1 0.45-1 1v19 0.02 0.02c0 2.86 7.5 3 9 3s9-0.14 9-3v-0.02-0.02-19c0-0.55-0.45-1-1-1z"/>
 </g>
 <g fill="#f5f5f5">
  <ellipse cx="25" cy="59" rx="8" ry="2"/>
  <path d="m17 40h16v19h-16z"/>
 </g>
 <g fill="#c80028">
  <ellipse cx="25" cy="49" rx="8" ry="2"/>
  <path d="m17 40h16v9h-16z"/>
 </g>
 <path d="m25.5 54h-1c-1.38 0-2.5-1.12-2.5-2.5v-1c0-1.37 1.12-2.5 2.5-2.5h1c1.38 0 2.5 1.12 2.5 2.5v1c0 1.38-1.12 2.5-2.5 2.5" fill="#ffd35c"/>
 <ellipse cx="25" cy="40.08" rx="8" ry="2" fill="url(#d)"/>
 <path d="m25 38c4.42 0 8 .9 8 2s-3.58 2-8 2-8-.9-8-2 3.58-2 8-2m0-1c-1.5 0-9 .14-9 3s7.5 3 9 3 9-.14 9-3-7.5-3-9-3z" fill="#666"/>
 <g fill="#a0a0a0">
  <path d="m17 38h16v4h-16z" clip-path="url(#a)"/>
  <ellipse cx="25" cy="40" rx="5.83" ry="1.46" clip-path="url(#a)"/>
 </g>
 <ellipse cx="25" cy="40" rx="5.76" ry="1.44" clip-path="url(#a)" fill="#a1a1a1"/>
 <ellipse cx="25" cy="40" rx="5.69" ry="1.42" clip-path="url(#a)" fill="#a2a2a2"/>
 <ellipse cx="25" cy="40" rx="5.61" ry="1.4" clip-path="url(#a)" fill="#a3a3a3"/>
 <ellipse cx="25" cy="40" rx="5.54" ry="1.38" clip-path="url(#a)" fill="#a4a4a4"/>
 <ellipse cx="25" cy="40" rx="5.47" ry="1.37" clip-path="url(#a)" fill="#a5a5a5"/>
 <ellipse cx="25" cy="40" rx="5.39" ry="1.35" clip-path="url(#a)" fill="#a6a6a6"/>
 <ellipse cx="25" cy="40" rx="5.32" ry="1.33" clip-path="url(#a)" fill="#a7a7a7"/>
 <ellipse cx="25" cy="40" rx="5.25" ry="1.31" clip-path="url(#a)" fill="#a8a8a8"/>
 <ellipse cx="25" cy="40" rx="5.17" ry="1.29" clip-path="url(#a)" fill="#a9a9a9"/>
 <ellipse cx="25" cy="40" rx="5.1" ry="1.28" clip-path="url(#a)" fill="#aaa"/>
 <ellipse cx="25" cy="40" rx="5.03" ry="1.26" clip-path="url(#a)" fill="#ababab"/>
 <ellipse cx="25" cy="40" rx="4.96" ry="1.24" clip-path="url(#a)" fill="#acacac"/>
 <ellipse cx="25" cy="40" rx="4.88" ry="1.22" clip-path="url(#a)" fill="#adadad"/>
 <ellipse cx="25" cy="40" rx="4.81" ry="1.2" clip-path="url(#a)" fill="#aeaeae"/>
 <ellipse cx="25" cy="40" rx="4.74" ry="1.18" clip-path="url(#a)" fill="#afafaf"/>
 <ellipse cx="25" cy="40" rx="4.66" ry="1.17" clip-path="url(#a)" fill="#b0b0b0"/>
 <ellipse cx="25" cy="40" rx="4.59" ry="1.15" clip-path="url(#a)" fill="#b1b1b1"/>
 <ellipse cx="25" cy="40" rx="4.52" ry="1.13" clip-path="url(#a)" fill="#b2b2b2"/>
 <ellipse cx="25" cy="40" rx="4.45" ry="1.11" clip-path="url(#a)" fill="#b3b3b3"/>
 <ellipse cx="25" cy="40" rx="4.37" ry="1.09" clip-path="url(#a)" fill="#b4b4b4"/>
 <ellipse cx="25" cy="40" rx="4.3" ry="1.08" clip-path="url(#a)" fill="#b5b5b5"/>
 <ellipse cx="25" cy="40" rx="4.23" ry="1.06" clip-path="url(#a)" fill="#b6b6b6"/>
 <ellipse cx="25" cy="40" rx="4.15" ry="1.04" clip-path="url(#a)" fill="#b7b7b7"/>
 <ellipse cx="25" cy="40" rx="4.08" ry="1.02" clip-path="url(#a)" fill="#b8b8b8"/>
 <ellipse cx="25" cy="40" rx="4.01" ry="1" clip-path="url(#a)" fill="#b9b9b9"/>
 <ellipse cx="25" cy="40" rx="3.94" ry=".98" clip-path="url(#a)" fill="#bababa"/>
 <ellipse cx="25" cy="40" rx="3.86" ry=".97" clip-path="url(#a)" fill="#bbb"/>
 <ellipse cx="25" cy="40" rx="3.79" ry=".95" clip-path="url(#a)" fill="#bcbcbc"/>
 <ellipse cx="25" cy="40" rx="3.72" ry=".93" clip-path="url(#a)" fill="#bdbdbd"/>
 <ellipse cx="25" cy="40" rx="3.64" ry=".91" clip-path="url(#a)" fill="#bebebe"/>
 <ellipse cx="25" cy="40" rx="3.57" ry=".89" clip-path="url(#a)" fill="#bfbfbf"/>
 <ellipse cx="25" cy="40" rx="3.5" ry=".87" clip-path="url(#a)" fill="#c0c0c0"/>
 <ellipse cx="25" cy="40" rx="3.43" ry=".86" clip-path="url(#a)" fill="#c1c1c1"/>
 <ellipse cx="25" cy="40" rx="3.35" ry=".84" clip-path="url(#a)" fill="#c2c2c2"/>
 <ellipse cx="25" cy="40" rx="3.28" ry=".82" clip-path="url(#a)" fill="#c3c3c3"/>
 <ellipse cx="25" cy="40" rx="3.21" ry=".8" clip-path="url(#a)" fill="#c4c4c4"/>
 <ellipse cx="25" cy="40" rx="3.13" ry=".78" clip-path="url(#a)" fill="#c5c5c5"/>
 <ellipse cx="25" cy="40" rx="3.06" ry=".77" clip-path="url(#a)" fill="#c6c6c6"/>
 <ellipse cx="25" cy="40" rx="2.99" ry=".75" clip-path="url(#a)" fill="#c7c7c7"/>
 <ellipse cx="25" cy="40" rx="2.92" ry=".73" clip-path="url(#a)" fill="#c8c8c8"/>
 <ellipse cx="25" cy="40" rx="2.84" ry=".71" clip-path="url(#a)" fill="#c9c9c9"/>
 <ellipse cx="25" cy="40" rx="2.77" ry=".69" clip-path="url(#a)" fill="#cacaca"/>
 <ellipse cx="25" cy="40" rx="2.7" ry=".67" clip-path="url(#a)" fill="#cbcbcb"/>
 <ellipse cx="25" cy="40" rx="2.62" ry=".66" clip-path="url(#a)" fill="#ccc"/>
 <ellipse cx="25" cy="40" rx="2.55" ry=".64" clip-path="url(#a)" fill="#cdcdcd"/>
 <ellipse cx="25" cy="40" rx="2.48" ry=".62" clip-path="url(#a)" fill="#cecece"/>
 <ellipse cx="25" cy="40" rx="2.41" ry=".6" clip-path="url(#a)" fill="#cfcfcf"/>
 <ellipse cx="25" cy="40" rx="2.33" ry=".58" clip-path="url(#a)" fill="#d0d0d0"/>
 <ellipse cx="25" cy="40" rx="2.26" ry=".56" clip-path="url(#a)" fill="#d2d2d2"/>
 <ellipse cx="25" cy="40" rx="2.19" ry=".55" clip-path="url(#a)" fill="#d3d3d3"/>
 <ellipse cx="25" cy="40" rx="2.11" ry=".53" clip-path="url(#a)" fill="#d4d4d4"/>
 <ellipse cx="25" cy="40" rx="2.04" ry=".51" clip-path="url(#a)" fill="#d5d5d5"/>
 <ellipse cx="25" cy="40" rx="1.97" ry=".49" clip-path="url(#a)" fill="#d6d6d6"/>
 <ellipse cx="25" cy="40" rx="1.9" ry=".47" clip-path="url(#a)" fill="#d7d7d7"/>
 <ellipse cx="25" cy="40" rx="1.82" ry=".46" clip-path="url(#a)" fill="#d8d8d8"/>
 <ellipse cx="25" cy="40" rx="1.75" ry=".44" clip-path="url(#a)" fill="#d9d9d9"/>
 <ellipse cx="25" cy="40" rx="1.68" ry=".42" clip-path="url(#a)" fill="#dadada"/>
 <ellipse cx="25" cy="40" rx="1.6" ry=".4" clip-path="url(#a)" fill="#dbdbdb"/>
 <ellipse cx="25" cy="40" rx="1.53" ry=".38" clip-path="url(#a)" fill="#dcdcdc"/>
 <ellipse cx="25" cy="40" rx="1.46" ry=".36" clip-path="url(#a)" fill="#ddd"/>
 <ellipse cx="25" cy="40" rx="1.38" ry=".35" clip-path="url(#a)" fill="#dedede"/>
 <ellipse cx="25" cy="40" rx="1.31" ry=".33" clip-path="url(#a)" fill="#dfdfdf"/>
 <ellipse cx="25" cy="40" rx="1.24" ry=".31" clip-path="url(#a)" fill="#e0e0e0"/>
 <ellipse cx="25" cy="40" rx="1.17" ry=".29" clip-path="url(#a)" fill="#e1e1e1"/>
 <ellipse cx="25" cy="40" rx="1.09" ry=".27" clip-path="url(#a)" fill="#e2e2e2"/>
 <ellipse cx="25" cy="40" rx="1.02" ry=".26" clip-path="url(#a)" fill="#e3e3e3"/>
 <ellipse cx="25" cy="40" rx=".95" ry=".24" clip-path="url(#a)" fill="#e4e4e4"/>
 <ellipse cx="25" cy="40" rx=".87" ry=".22" clip-path="url(#a)" fill="#e5e5e5"/>
 <ellipse cx="25" cy="40" rx=".8" ry=".2" clip-path="url(#a)" fill="#e6e6e6"/>
 <ellipse cx="25" cy="40" rx=".73" ry=".18" clip-path="url(#a)" fill="#e7e7e7"/>
 <ellipse cx="25" cy="40" rx=".66" ry=".16" clip-path="url(#a)" fill="#e8e8e8"/>
 <ellipse cx="25" cy="40" rx=".58" ry=".15" clip-path="url(#a)" fill="#e9e9e9"/>
 <ellipse cx="25" cy="40" rx=".51" ry=".13" clip-path="url(#a)" fill="#eaeaea"/>
 <ellipse cx="25" cy="40" rx=".44" ry=".11" clip-path="url(#a)" fill="#ebebeb"/>
 <ellipse cx="25" cy="40" rx=".36" ry=".09" clip-path="url(#a)" fill="#ececec"/>
 <ellipse cx="25" cy="40" rx=".29" ry=".07" clip-path="url(#a)" fill="#ededed"/>
 <ellipse cx="25" cy="40" rx=".22" ry=".05" clip-path="url(#a)" fill="#eee"/>
 <ellipse cx="25" cy="40" rx=".15" ry=".04" clip-path="url(#a)" fill="#efefef"/>
 <ellipse cx="25" cy="40" rx=".07" ry=".02" clip-path="url(#a)" fill="#f0f0f0"/>
</svg>
