<?xml version="1.0" encoding="UTF-8"?>
<svg enable-background="new 0 0 64 64" viewBox="0 0 64 64" xmlns="http://www.w3.org/2000/svg">
 <path d="M53.5,10.21l0.02-0.02C50.32,8.32,42.34,7,33,7s-17.32,1.32-20.51,3.19l0.02,0.02h-0.03   L33,33.5l20.53-23.29H53.5z" fill="#e5395e" opacity=".9"/>
 <g fill="none" stroke="#cec6c6" stroke-miterlimit="10">
  <ellipse cx="33" cy="8.5" rx="22" ry="5" opacity=".9"/>
  <path d="m11 8.5 22 25 22-25" opacity=".9"/>
  <path d="m35 31v29h-4v-29" opacity=".8"/>
 </g>
 <path d="m19 8.5c0-4.69-3.81-8.5-8.5-8.5s-8.5 3.81-8.5 8.5 3.81 8.5 8.5 8.5c2.35 0 4.47-0.95 6.01-2.49l-6.01-6.01h8.5z" fill="#f7ad39"/>
 <path d="m10.5 16.5c-4.41 0-8-3.59-8-8s3.59-8 8-8 8 3.59 8 8v.5h-6.79l4.8 4.8-.35.35c-1.51 1.52-3.52 2.35-5.66 2.35" fill="#f7ce52"/>
 <path d="m10.5 1c4.14 0 7.5 3.36 7.5 7.5h-7.5l5.3 5.3c-1.36 1.36-3.23 2.2-5.3 2.2-4.14 0-7.5-3.36-7.5-7.5s3.36-7.5 7.5-7.5m0-1c-4.69 0-8.5 3.81-8.5 8.5s3.81 8.5 8.5 8.5c2.27 0 4.4-0.88 6.01-2.49l0.71-0.71-4.31-4.31h6.09v-1c0-4.68-3.81-8.49-8.5-8.49z" fill="#f7ad39"/>
 <g fill="none" stroke="#fff" stroke-miterlimit="10" stroke-width=".5">
  <path d="m8 2 2 5" opacity=".6"/>
  <path d="m15 4-3 3" opacity=".6"/>
  <path d="m4 8l5 .5" opacity=".6"/>
  <path d="m10 10-4 4" opacity=".6"/>
  <path d="m11 10 2 5" opacity=".6"/>
 </g>
 <g opacity=".8">
  <path d="m35 57.25c7.13 0.31 10.31 2.16 10.31 2.85 0 0.87-4.19 2.9-12.31 2.9s-12.31-2.03-12.31-2.9c0-0.69 3.18-2.54 10.31-2.85v2.75h4v-2.75m-1-1.03v2.78h-2v-2.78c-6.88 0.15-12.31 1.83-12.31 3.88 0 2.15 5.96 3.9 13.31 3.9s13.31-1.75 13.31-3.9c0-2.05-5.43-3.73-12.31-3.88z" fill="#cec6c6"/>
 </g>
 <g opacity=".8">
  <path d="m35 57.24c6.18.21 9.61 1.34 10.25 1.99-.74.77-5.15 2.02-12.25 2.02s-11.51-1.25-12.25-2.02c.63-.65 4.07-1.78 10.25-1.99v1.76 1h1 2 1v-1-1.76m-1-1.03v2.79h-2v-2.79c-6.88.12-12.31 1.42-12.31 3.01 0 1.67 5.96 3.02 13.31 3.02s13.31-1.35 13.31-3.02c0-1.59-5.43-2.89-12.31-3.01z" fill="#cec6c6"/>
 </g>
</svg>
