<?xml version="1.0" encoding="UTF-8"?>
<svg enable-background="new 0 0 64 64" viewBox="0 0 64 64" xmlns="http://www.w3.org/2000/svg">
 <path d="m15.9 53.5l-.1-.1c-7.1-5-11.3-13-11.3-21.4s4.2-16.4 11.3-21.4l.1-.1h32.1l.1.1c7.1 5 11.3 13 11.3 21.4s-4.2 16.4-11.3 21.4l-.1.1h-32.1" fill="#f5f5f5"/>
 <path d="m47.9 11c6.7 4.7 11.1 12.4 11.1 21s-4.4 16.3-11.1 21h-31.8c-6.7-4.7-11.1-12.4-11.1-21s4.4-16.3 11.1-21h31.8m0.3-1h-32.4l-0.3 0.2c-7.2 5.1-11.5 13.2-11.5 21.8s4.3 16.7 11.5 21.8l0.3 0.2h32.4l0.3-0.2c7.2-5.1 11.5-13.2 11.5-21.8s-4.3-16.7-11.5-21.8l-0.3-0.2z" fill="#c8c8c8"/>
 <path d="m19.5 19.5h4v14h-4z" fill="#212121"/>
 <path d="m23 20v13h-3v-13h3m1-1h-5v15h5v-15z" fill="#dcdcdc"/>
 <path d="m39.5 21.5h4v11h-4z" fill="#212121"/>
 <path d="m43 22v10h-3v-10h3m1-1h-5v12h5v-12z" fill="#dcdcdc"/>
 <path d="m26.5 49.5v-5c0-2.8 2.2-5 5-5s5 2.2 5 5v5h-10" fill="#212121"/>
 <path d="m31.5 40c2.5 0 4.5 2 4.5 4.5v4.5h-9v-4.5c0-2.5 2-4.5 4.5-4.5m0-1c-3 0-5.5 2.5-5.5 5.5v5.5h11v-5.5c0-3-2.5-5.5-5.5-5.5z" fill="#dcdcdc"/>
</svg>
