<?xml version="1.0" encoding="UTF-8"?>
<svg enable-background="new 0 0 64 64" viewBox="0 0 64 64" xmlns="http://www.w3.org/2000/svg" xmlns:xlink="http://www.w3.org/1999/xlink">
 <defs>
  <linearGradient id="d" x2="0" y1="57" y2="12" gradientUnits="userSpaceOnUse">
   <stop stop-color="#a35c48" offset="0"/>
   <stop stop-color="#cd814c" offset="1"/>
  </linearGradient>
  <linearGradient id="c" x1="56.586" x2="61.328" y1="17.414" y2="12.672" gradientUnits="userSpaceOnUse" xlink:href="#a"/>
  <linearGradient id="a" x2="0" y1="18" y2="11.5" gradientUnits="userSpaceOnUse">
   <stop stop-color="#4d2c19" offset="0"/>
   <stop stop-color="#793b20" offset="1"/>
  </linearGradient>
  <linearGradient id="b" x2="0" y1="57.5" y2="11.5" gradientUnits="userSpaceOnUse" xlink:href="#a"/>
  <linearGradient id="f" x1="3.6716" x2="8.4142" y1="56.328" y2="51.586" gradientUnits="userSpaceOnUse" xlink:href="#a"/>
  <linearGradient id="e" x1="55.792" x2="62.43" y1="55.5" y2="52.405" gradientUnits="userSpaceOnUse" xlink:href="#a"/>
 </defs>
 <path d="m39 18h-14c-1.1 0-2-.9-2-2v-6c0-1.66 1.34-3 3-3h12c1.66 0 3 1.34 3 3v6c0 1.1-.9 2-2 2" fill="#4b2b1e"/>
 <path d="m37 20h-10c-.55 0-1-.45-1-1v-8c0-1.1.9-2 2-2h8c1.1 0 2 .9 2 2v8c0 .55-.45 1-1 1" fill="#f3f3f3"/>
 <path d="m56 57h-47c-3.31 0-6-2.69-6-6v-33c0-3.31 2.69-6 6-6h47c3.31 0 6 2.69 6 6v33c0 3.31-2.69 6-6 6" fill="url(#d)"/>
 <path d="m7 18h-2.5c-1.1 0-2-.9-2-2v-.5c0-2.21 1.79-4 4-4h.5c1.1 0 2 .9 2 2v2.5c0 1.1-.9 2-2 2" fill="url(#a)"/>
 <path d="m60.5 18h-2.5c-1.1 0-2-.9-2-2v-2.5c0-1.1.9-2 2-2h.5c2.21 0 4 1.79 4 4v.5c0 1.1-.9 2-2 2" fill="url(#c)"/>
 <path d="m58.5 57.5h-.5c-1.1 0-2-.9-2-2v-2.5c0-1.1.9-2 2-2h2.5c1.1 0 2 .9 2 2v.5c0 2.21-1.79 4-4 4" fill="url(#e)"/>
 <path d="m7 57.5h-.5c-2.21 0-4-1.79-4-4v-.5c0-1.1.9-2 2-2h2.5c1.1 0 2 .9 2 2v2.5c0 1.1-.9 2-2 2" fill="url(#f)"/>
 <path d="m14 11.5h4v46h-4z" fill="url(#b)"/>
 <g fill="#4d2c19">
  <path d="m10 27h12v2h-12z"/>
  <path d="m42 27h12v2h-12z"/>
 </g>
 <path d="m46 11.5h4v46h-4z" fill="url(#b)"/>
</svg>
