<?xml version="1.0" encoding="UTF-8"?>
<svg width="56" height="56" version="1.1" viewBox="0 0 56 56" xmlns="http://www.w3.org/2000/svg">
  <path d="m53.949 26.303h-3.0871c-1.2396-11.47-11.11-20.597-22.873-20.597-6.8506 0-13.07 3.1098-17.307 8-0.8564 0.969-0.7212 2.1633 0.1577 2.7943 0.9014 0.631 1.9605 0.4282 2.7042-0.4056 3.4929-4.0112 8.676-6.5577 14.445-6.5577 9.8254 0 17.825 7.2788 18.997 16.766h-3.3576c-1.6 0-2.0281 1.0817-1.1493 2.3211l5.0252 7.1887c0.7213 1.0367 1.8031 1.0592 2.5467 0l5.0476-7.1662c0.9018-1.2619 0.4735-2.3436-1.1492-2.3436zm-51.898 4.8h3.0873c1.2394 11.47 11.11 20.575 22.851 20.575 6.8958 0 13.116-3.1324 17.352-8 0.8114-0.969 0.6988-2.1859-0.1578-2.8169-0.9013-0.631-1.9605-0.4056-2.7042 0.4282-3.4704 4.0338-8.6535 6.5577-14.49 6.5577-9.8027 0-17.803-7.2563-18.975-16.744h3.3578c1.6 0 2.0281-1.1042 1.1493-2.3211l-5.0479-7.1888c-0.7211-1.0366-1.7803-1.0591-2.5239 0l-5.0479 7.1662c-0.9014 1.2395-0.4732 2.3437 1.1493 2.3437z" style="fill:#673ab7"/>
</svg>
