<?xml version="1.0" encoding="utf-8"?>
<svg xmlns="http://www.w3.org/2000/svg" viewBox="0 0 170 37">
	<g fill="#fff">
		<path d="M2.335 26.413L16.81 11.926l2.108-2.108 2.108 2.108 10.686 10.686-.016.054-.21.62-.24.607-.269.591-.296.577-.27.468L18.92 14.034 3.873 29.092c-.58-.853-1.117-1.732-1.538-2.68z"/>
		<path fill-rule="evenodd" d="M18.919.002c10.189 0 18.498 8.31 18.498 18.498s-8.31 18.498-18.498 18.498c-5.565 0-10.569-2.481-13.965-6.392l.654-.656.475-.475.475-.476.476-.475.019-.02c2.853 3.378 7.115 5.53 11.866 5.53 8.556 0 15.535-6.977 15.535-15.534S27.475 2.965 18.919 2.965c-8.557 0-15.535 6.978-15.535 15.535 0 1.152.128 2.275.368 3.358l-1.03 1.033-1.376 1.376A18.378 18.378 0 01.42 18.5C.42 8.311 8.73.002 18.919.002zm138.196 16.156v6.789h4.443l.264-.002.255-.005.243-.009.235-.012.225-.014.215-.019.206-.02.195-.025.186-.028.175-.03.166-.033.154-.036.145-.038.134-.04.125-.044.11-.043.223-.104.21-.116.197-.127.186-.14.173-.152.164-.166.152-.18.142-.193.129-.203.11-.206.094-.21.076-.212.059-.218.043-.222.024-.229.01-.232-.013-.288-.036-.276-.059-.266-.082-.255-.106-.247-.13-.24-.156-.232-.18-.225-.2-.212-.22-.194-.24-.178-.258-.161-.28-.145-.3-.129-.323-.111-.346-.095-.117-.026-.133-.025-.146-.023-.16-.022-.174-.021-.185-.02-.198-.017-.21-.015-.225-.013-.235-.012-.247-.01-.26-.008-.272-.007-.283-.004-.295-.004h-3.399zm0-8.45v5.518h3.103l.252-.001.241-.005.233-.008.223-.01.213-.013.206-.016.196-.02.186-.021.178-.025.168-.027.158-.03.147-.032.139-.036.129-.036.118-.039.107-.04.213-.093.198-.104.184-.114.174-.126.161-.138.151-.15.14-.162.131-.174.117-.183.1-.186.085-.192.07-.196.054-.201.04-.208.023-.215.008-.219-.014-.295-.038-.272-.064-.25-.086-.23-.111-.214-.135-.198-.16-.185-.19-.175-.096-.073-.11-.073-.12-.07-.129-.064-.139-.061-.148-.057-.157-.052-.169-.047-.179-.042-.188-.036-.197-.031-.209-.026-.217-.021-.227-.014-.238-.01-.25-.002h-4.275zm5.377-2.74l.26.026.253.03.245.035.235.04.23.044.22.049.213.055.205.06.198.065.19.07.185.078.339.164.326.187.307.21.289.23.27.252.25.273.231.292.209.309.1.164.09.164.086.166.08.169.072.17.067.173.06.175.054.177.047.18.041.18.035.183.028.185.022.186.016.188.009.19.004.195-.012.358-.033.353-.057.346-.079.34-.102.33-.124.322-.146.314-.168.308-.194.296-.212.28-.234.265-.255.251-.275.235-.143.107.265.117.333.163.31.17.289.176.266.185.246.192.224.201.21.21.196.22.186.23.172.241.16.25.148.26.137.273.12.279.105.286.087.292.074.297.055.302.04.309.024.313.008.318-.008.322-.021.316-.038.31-.053.306-.067.3-.083.293-.098.288-.112.283-.128.275-.143.269-.158.26-.172.257-.186.247-.2.242-.216.234-.23.229-.245.218-.254.204-.265.19-.275.176-.284.162-.294.147-.304.133-.313.12-.322.104-.33.09-.34.076-.348.062-.357.048-.366.034-.373.02-.379.008h-8.379V4.912h6.834l.298.002.293.007.284.01.277.017.268.02zm-47.326-.054h2.927v8.423h9.307V4.914h2.918v20.987H127.4v-9.678h-9.307V25.9h-2.927zm23.607 13.237h7.124l-3.55-7.539zm8.435 2.859h-9.753l-2.316 4.884h-3.24l9.917-20.982h1.07l9.776 20.982h-3.143l-.837-1.755zM50.967 9.668l.437.01.43.03.42.05.413.071.404.09.395.112.387.132.377.153.367.172.358.193.348.212.338.233.328.252.318.272.308.291.299.312.257.3.24.304.224.312.208.32.191.326.175.334.158.34.142.348.125.354.108.36.091.367.075.374.058.379.041.385.025.391.008.398-.009.397-.026.394-.044.386-.062.383-.08.375-.096.37-.115.364-.132.357-.15.351-.168.344-.185.337-.202.33-.22.324-.236.317-.254.31-.27.302-.288.292-.297.275-.309.256-.319.238-.33.218-.339.2-.35.181-.36.163-.37.142-.378.124-.388.105-.398.085-.406.066-.415.047-.425.029-.432.01-.436-.01-.426-.028-.417-.048-.408-.066-.4-.085-.389-.105-.379-.124-.37-.142-.36-.163-.35-.18-.34-.2-.329-.22-.318-.237-.308-.256-.298-.275-.285-.292-.271-.303-.254-.309-.237-.317-.219-.323-.202-.33-.184-.338-.168-.345-.149-.35-.132-.358-.114-.364-.097-.37-.079-.375-.061-.382-.044-.387-.026-.393-.008-.397.008-.396.024-.39.042-.383.058-.378.074-.372.092-.366.108-.36.125-.353.14-.347.16-.34.174-.333.192-.325.207-.32.224-.311.24-.305.258-.298.297-.313.308-.294.318-.273.328-.253.338-.235.349-.214.358-.194.368-.173.376-.153.388-.132.395-.113.405-.09.413-.072.422-.05.43-.03.439-.01zm0 2.737l-.269.006-.262.018-.256.031-.251.044-.246.056-.24.068-.237.08-.23.093-.228.105-.222.117-.218.13-.214.144-.21.156-.206.17-.202.181-.197.197-.19.204-.177.21-.164.213-.151.218-.14.223-.126.228-.115.233-.102.238-.09.243-.08.248-.066.254-.054.26-.043.266-.03.271-.018.278-.006.286.002.181.009.182.013.18.02.178.025.177.03.175.036.174.042.172.046.171.052.17.058.167.064.166.07.165.074.164.08.162.085.158.186.313.2.29.214.27.23.252.245.232.26.215.276.198.296.181.147.08.153.077.154.072.157.066.157.06.16.056.16.05.164.046.164.039.167.034.17.03.17.024.172.018.176.014.177.008.179.003.18-.003.18-.008.177-.014.175-.018.172-.024.17-.03.17-.034.165-.04.163-.044.163-.051.16-.056.158-.06.156-.066.155-.072.154-.077.146-.08.291-.18.274-.197.258-.215.243-.233.228-.252.214-.27.2-.291.186-.312.082-.157.08-.163.075-.164.068-.165.063-.166.058-.168.053-.17.046-.17.041-.173.036-.173.03-.176.026-.177.019-.178.014-.18.008-.182.003-.182-.006-.284-.019-.278-.03-.272-.043-.265-.055-.26-.067-.254-.079-.249-.09-.242-.104-.238-.114-.233-.128-.228-.14-.224-.15-.218-.165-.214-.177-.21-.19-.203-.198-.197-.202-.182-.206-.17-.21-.155-.214-.143-.218-.131-.222-.118-.226-.104-.232-.093-.235-.08-.24-.068-.246-.056-.25-.044-.256-.03-.262-.02-.266-.005zm43.86 9.28l-.213.371-.22.353-.23.333-.241.316-.25.297-.26.279-.27.259-.276.24-.285.226-.293.21-.302.197-.311.18-.32.167-.328.151-.333.136-.174.063-.174.059-.177.054-.18.05-.181.046-.184.043-.187.038-.19.035-.192.03-.194.025-.197.023-.199.018-.202.014-.203.01-.207.006-.21.002-.458-.01-.448-.028-.437-.048-.426-.067-.414-.087-.403-.106-.39-.127-.379-.146-.367-.166-.353-.185-.342-.206-.328-.225-.315-.245-.302-.263-.287-.283-.273-.3-.257-.31-.24-.314-.222-.32-.207-.326-.19-.33-.175-.337-.157-.342-.141-.347-.125-.352-.108-.358-.092-.362-.074-.367-.058-.372-.042-.376-.025-.381-.008-.384.007-.364.021-.359.035-.354.05-.35.062-.345.078-.34.092-.336.106-.33.12-.326.134-.32.148-.316.162-.31.176-.304.19-.3.203-.293.218-.29.288-.352.304-.331.316-.31.33-.288.343-.265.356-.243.368-.22.381-.195.393-.174.405-.15.416-.127.428-.103.439-.08.45-.057.46-.034.47-.012.481.012.47.035.46.058.449.083.438.105.426.13.415.153.404.177.39.201.378.225.366.247.353.272.34.293.327.317.314.34.3.36.203.27.191.279.178.286.165.295.152.302.138.31.126.32.112.326.1.333.085.341.073.348.06.356.046.363.035.37.02.377.019.838H82.456l.01.131.034.283.045.276.055.267.067.26.077.252.088.245.099.237.11.23.12.224.132.218.142.21.154.204.165.198.177.192.184.182.189.17.193.158.198.147.203.133.208.122.212.11.219.1.222.087.229.075.234.064.24.053.246.04.252.03.258.018.264.006.26-.006.258-.017.255-.029.253-.04.25-.05.25-.063.247-.074.244-.084.24-.096.232-.103.222-.11.212-.116.202-.123.192-.13.182-.135.171-.141.168-.155.174-.18.181-.206.187-.233.194-.26.199-.287.204-.313.434-.701 2.338 1.25-.405.776zm-2.914-7.046l-.147-.23-.155-.209-.169-.196-.183-.188-.196-.18-.21-.17-.225-.161-.239-.152-.254-.143-.27-.135-.137-.06-.139-.06-.14-.053-.14-.05-.14-.046-.142-.042-.142-.038-.144-.034-.144-.03-.145-.027-.146-.021-.147-.018-.147-.015-.148-.01-.15-.005-.148-.002-.25.005-.241.015-.237.025-.231.035-.227.044-.222.055-.217.064-.213.075-.21.084-.203.094-.2.104-.195.114-.192.124-.188.134-.184.145-.18.154-.124.117-.12.124-.117.132-.113.14-.11.146-.107.155-.104.164-.1.171-.097.18-.093.187-.089.195-.085.204-.083.212-.04.114h9.663l-.038-.121-.113-.31-.122-.288-.132-.269-.139-.25zm-22.555-4.97l.437.01.43.03.42.05.413.07.404.09.395.112.387.132.377.153.367.172.358.193.348.212.339.233.327.252.318.272.308.291.299.312.257.3.24.304.224.312.208.32.191.326.175.334.158.34.142.348.125.354.108.36.091.367.075.374.058.379.041.385.025.391.008.398-.009.397-.026.394-.044.386-.061.383-.08.375-.097.37-.115.364-.132.357-.15.351-.168.344-.184.337-.203.33-.22.324-.236.317-.254.31-.27.302-.287.292-.298.275-.309.256-.319.238-.33.218-.339.2-.35.181-.36.163-.37.142-.378.124-.388.105-.397.085-.407.066-.415.047-.425.029-.432.01-.436-.01-.426-.028-.417-.048-.408-.066-.399-.085-.39-.105-.379-.124-.37-.142-.36-.163-.35-.18-.34-.2-.328-.22-.32-.237-.307-.256-.007-.007V31.5H61.3V17.924l-.001-.079.002-.083v-.042l.006-.27.025-.39.04-.384.059-.378.074-.372.092-.366.108-.36.125-.353.141-.347.159-.34.174-.333.192-.325.208-.32.224-.311.24-.305.257-.298.298-.313.307-.294.318-.273.328-.253.338-.235.349-.214.358-.194.368-.173.377-.153.387-.132.395-.113.405-.09.413-.072.422-.05.43-.03.439-.01zm-5.238 8.388v-.305l.004-.164.018-.278.03-.271.043-.266.055-.26.066-.254.078-.248.091-.243.102-.238.115-.233.127-.228.139-.223.151-.218.164-.214.177-.209.19-.205.197-.196.202-.182.206-.17.21-.155.214-.143.218-.131.222-.117.228-.105.23-.093.236-.08.24-.068.247-.056.25-.044.257-.03.262-.02.269-.005.267.006.261.018.256.031.25.044.245.056.241.068.236.08.23.093.227.104.222.118.218.13.214.144.21.156.206.17.202.181.199.196.19.205.176.21.164.213.152.218.14.224.127.228.114.233.104.238.09.242.079.25.067.253.055.26.042.265.031.272.019.278.006.284-.003.182-.008.182-.014.18-.02.178-.025.177-.03.176-.036.173-.04.173-.047.17-.053.17-.058.168-.062.166-.07.165-.073.164-.08.163-.083.157-.186.311-.2.291-.214.27-.228.253-.243.233-.258.215-.274.197-.291.18-.146.08-.154.077-.155.072-.156.066-.158.06-.16.056-.162.05-.163.046-.167.039-.168.034-.17.03-.173.024-.174.018-.178.014-.18.008-.18.003-.18-.003-.176-.008-.176-.014-.172-.018-.17-.024-.17-.03-.167-.034-.164-.04-.163-.044-.162-.051-.159-.055-.157-.061-.157-.066-.154-.072-.153-.077-.147-.08-.296-.181-.276-.198-.26-.215-.245-.232-.23-.252-.214-.27-.2-.29-.186-.313-.085-.158-.08-.162-.075-.164-.069-.165-.063-.166-.058-.168-.053-.169-.046-.17-.042-.173-.036-.174-.03-.175-.025-.177-.02-.178-.013-.18-.008-.18zm40.82-8.366c-1.222 0-2.852.295-3.9.9-1.06.612-1.827 1.449-2.282 2.487-.448 1.024-.665 2.558-.665 4.69v8.129h2.765V18.33c0-1.699.072-2.84.213-3.393.214-.908.612-1.522 1.217-1.885.629-.377 1.372-.688 2.652-.688s2.008.314 2.637.69c.605.363 1.003.977 1.217 1.885.141.553.213 1.695.213 3.393V25.9h2.765v-8.13c0-2.13-.217-3.664-.665-4.689-.455-1.038-1.222-1.875-2.282-2.487-1.048-.605-2.662-.902-3.884-.902z"/>
	</g>
</svg>
