<svg version="1.1" xmlns="http://www.w3.org/2000/svg" xmlns:xlink="http://www.w3.org/1999/xlink" width="800" height="800"><defs/><g transform="scale(2,2)"><g id="background-ec81359b"><rect fill="white" stroke="none" x="0" y="0" width="400" height="400" class="dcg-svg-background"/></g><g id="graphpaper-ec81359b"><g id="grid-ec81359b"><g><path fill="none" stroke="rgb(0,0,0)" class="dcg-svg-minor-gridline" paint-order="fill stroke markers" d=" M 94.5 0 L 94.5 400" stroke-opacity="0.2" stroke-miterlimit="10" stroke-dasharray=""/><path fill="none" stroke="rgb(0,0,0)" class="dcg-svg-minor-gridline" paint-order="fill stroke markers" d=" M 141.5 0 L 141.5 400" stroke-opacity="0.2" stroke-miterlimit="10" stroke-dasharray=""/><path fill="none" stroke="rgb(0,0,0)" class="dcg-svg-minor-gridline" paint-order="fill stroke markers" d=" M 188.5 0 L 188.5 400" stroke-opacity="0.2" stroke-miterlimit="10" stroke-dasharray=""/><path fill="none" stroke="rgb(0,0,0)" class="dcg-svg-minor-gridline" paint-order="fill stroke markers" d=" M 235.5 0 L 235.5 400" stroke-opacity="0.2" stroke-miterlimit="10" stroke-dasharray=""/><path fill="none" stroke="rgb(0,0,0)" class="dcg-svg-minor-gridline" paint-order="fill stroke markers" d=" M 282.5 0 L 282.5 400" stroke-opacity="0.2" stroke-miterlimit="10" stroke-dasharray=""/><path fill="none" stroke="rgb(0,0,0)" class="dcg-svg-minor-gridline" paint-order="fill stroke markers" d=" M 329.5 0 L 329.5 400" stroke-opacity="0.2" stroke-miterlimit="10" stroke-dasharray=""/><path fill="none" stroke="rgb(0,0,0)" class="dcg-svg-minor-gridline" paint-order="fill stroke markers" d=" M 376.5 0 L 376.5 400" stroke-opacity="0.2" stroke-miterlimit="10" stroke-dasharray=""/><path fill="none" stroke="rgb(0,0,0)" class="dcg-svg-minor-gridline" paint-order="fill stroke markers" d=" M 0 308.5 L 400 308.5" stroke-opacity="0.2" stroke-miterlimit="10" stroke-dasharray=""/><path fill="none" stroke="rgb(0,0,0)" class="dcg-svg-minor-gridline" paint-order="fill stroke markers" d=" M 0 262.5 L 400 262.5" stroke-opacity="0.2" stroke-miterlimit="10" stroke-dasharray=""/><path fill="none" stroke="rgb(0,0,0)" class="dcg-svg-minor-gridline" paint-order="fill stroke markers" d=" M 0 217.5 L 400 217.5" stroke-opacity="0.2" stroke-miterlimit="10" stroke-dasharray=""/><path fill="none" stroke="rgb(0,0,0)" class="dcg-svg-minor-gridline" paint-order="fill stroke markers" d=" M 0 171.5 L 400 171.5" stroke-opacity="0.2" stroke-miterlimit="10" stroke-dasharray=""/><path fill="none" stroke="rgb(0,0,0)" class="dcg-svg-minor-gridline" paint-order="fill stroke markers" d=" M 0 125.5 L 400 125.5" stroke-opacity="0.2" stroke-miterlimit="10" stroke-dasharray=""/><path fill="none" stroke="rgb(0,0,0)" class="dcg-svg-minor-gridline" paint-order="fill stroke markers" d=" M 0 80.5 L 400 80.5" stroke-opacity="0.2" stroke-miterlimit="10" stroke-dasharray=""/><path fill="none" stroke="rgb(0,0,0)" class="dcg-svg-minor-gridline" paint-order="fill stroke markers" d=" M 0 34.5 L 400 34.5" stroke-opacity="0.2" stroke-miterlimit="10" stroke-dasharray=""/><path fill="none" stroke="rgb(0,0,0)" class="dcg-svg-major-gridline" paint-order="fill stroke markers" d=" M 94.5 0 L 94.5 400" stroke-opacity="0.2500000000000001" stroke-miterlimit="10" stroke-dasharray=""/><path fill="none" stroke="rgb(0,0,0)" class="dcg-svg-major-gridline" paint-order="fill stroke markers" d=" M 141.5 0 L 141.5 400" stroke-opacity="0.2500000000000001" stroke-miterlimit="10" stroke-dasharray=""/><path fill="none" stroke="rgb(0,0,0)" class="dcg-svg-major-gridline" paint-order="fill stroke markers" d=" M 188.5 0 L 188.5 400" stroke-opacity="0.2500000000000001" stroke-miterlimit="10" stroke-dasharray=""/><path fill="none" stroke="rgb(0,0,0)" class="dcg-svg-major-gridline" paint-order="fill stroke markers" d=" M 235.5 0 L 235.5 400" stroke-opacity="0.2500000000000001" stroke-miterlimit="10" stroke-dasharray=""/><path fill="none" stroke="rgb(0,0,0)" class="dcg-svg-major-gridline" paint-order="fill stroke markers" d=" M 282.5 0 L 282.5 400" stroke-opacity="0.2500000000000001" stroke-miterlimit="10" stroke-dasharray=""/><path fill="none" stroke="rgb(0,0,0)" class="dcg-svg-major-gridline" paint-order="fill stroke markers" d=" M 329.5 0 L 329.5 400" stroke-opacity="0.2500000000000001" stroke-miterlimit="10" stroke-dasharray=""/><path fill="none" stroke="rgb(0,0,0)" class="dcg-svg-major-gridline" paint-order="fill stroke markers" d=" M 376.5 0 L 376.5 400" stroke-opacity="0.2500000000000001" stroke-miterlimit="10" stroke-dasharray=""/><path fill="none" stroke="rgb(0,0,0)" class="dcg-svg-major-gridline" paint-order="fill stroke markers" d=" M 0 308.5 L 400 308.5" stroke-opacity="0.2500000000000001" stroke-miterlimit="10" stroke-dasharray=""/><path fill="none" stroke="rgb(0,0,0)" class="dcg-svg-major-gridline" paint-order="fill stroke markers" d=" M 0 262.5 L 400 262.5" stroke-opacity="0.2500000000000001" stroke-miterlimit="10" stroke-dasharray=""/><path fill="none" stroke="rgb(0,0,0)" class="dcg-svg-major-gridline" paint-order="fill stroke markers" d=" M 0 217.5 L 400 217.5" stroke-opacity="0.2500000000000001" stroke-miterlimit="10" stroke-dasharray=""/><path fill="none" stroke="rgb(0,0,0)" class="dcg-svg-major-gridline" paint-order="fill stroke markers" d=" M 0 171.5 L 400 171.5" stroke-opacity="0.2500000000000001" stroke-miterlimit="10" stroke-dasharray=""/><path fill="none" stroke="rgb(0,0,0)" class="dcg-svg-major-gridline" paint-order="fill stroke markers" d=" M 0 125.5 L 400 125.5" stroke-opacity="0.2500000000000001" stroke-miterlimit="10" stroke-dasharray=""/><path fill="none" stroke="rgb(0,0,0)" class="dcg-svg-major-gridline" paint-order="fill stroke markers" d=" M 0 80.5 L 400 80.5" stroke-opacity="0.2500000000000001" stroke-miterlimit="10" stroke-dasharray=""/><path fill="none" stroke="rgb(0,0,0)" class="dcg-svg-major-gridline" paint-order="fill stroke markers" d=" M 0 34.5 L 400 34.5" stroke-opacity="0.2500000000000001" stroke-miterlimit="10" stroke-dasharray=""/></g></g><g id="axis-ec81359b"><g id="yaxis-ec81359b"><title>V</title><g><path fill="none" stroke="rgb(0,0,0)" class="dcg-svg-axis-line" paint-order="fill stroke markers" d=" M 47 3 L 47 400" stroke-opacity="0.9" stroke-miterlimit="10" stroke-width="1.5" stroke-dasharray=""/><g class="dcg-svg-axis-line"><path fill="rgb(0,0,0)" stroke="rgb(0,0,0)" class="dcg-svg-axis-line" paint-order="stroke fill markers" d=" M 47 1.5 L 50.10582854123025 13.09110991546882 L 43.894171458769755 13.09110991546882 L 47 1.5 L 50.10582854123025 13.09110991546882" stroke-opacity="0.9" stroke-linejoin="round" stroke-miterlimit="10" stroke-width="1.5" stroke-dasharray="" fill-opacity="0.9"/></g></g></g><g id="xaxis-ec81359b"><title>T</title><g><path fill="none" stroke="rgb(0,0,0)" class="dcg-svg-axis-line" paint-order="fill stroke markers" d=" M 0 354 L 397 354" stroke-opacity="0.9" stroke-miterlimit="10" stroke-width="1.5" stroke-dasharray=""/><g class="dcg-svg-axis-line"><path fill="rgb(0,0,0)" stroke="rgb(0,0,0)" class="dcg-svg-axis-line" paint-order="stroke fill markers" d=" M 398.5 354 L 386.9088900845312 357.10582854123027 L 386.9088900845312 350.89417145876973 L 398.5 354 L 386.9088900845312 357.10582854123027" stroke-opacity="0.9" stroke-linejoin="round" stroke-miterlimit="10" stroke-width="1.5" stroke-dasharray="" fill-opacity="0.9"/></g></g></g><g/><g class="dcg-svg-axis-label"><text fill="none" stroke="#ffffff" font-family="Times" font-size="20px" font-style="italic" font-weight="normal" text-decoration="normal" x="373.876953125" y="369.2857142857143" text-anchor="start" stroke-miterlimit="2" stroke-width="3" stroke-dasharray="">T</text><text fill="#000000" stroke="none" font-family="Times" font-size="20px" font-style="italic" font-weight="normal" text-decoration="normal" x="373.876953125" y="369.2857142857143" text-anchor="start">T</text></g><g class="dcg-svg-axis-label" transform="translate(28.842026654411768,29)"><text fill="none" stroke="#ffffff" font-family="Times" font-size="20px" font-style="italic" font-weight="normal" text-decoration="normal" x="0" y="0" text-anchor="start" stroke-miterlimit="2" stroke-width="3" stroke-dasharray="">V</text><text fill="#000000" stroke="none" font-family="Times" font-size="20px" font-style="italic" font-weight="normal" text-decoration="normal" x="0" y="0" text-anchor="start">V</text></g></g></g><g id="expressions-ec81359b"><g id="sketch-ec81359b"><title/><path fill="#2d70b3" stroke="none" class="dcg-svg-point" paint-order="stroke fill markers" d=" M 51.74632352941177 354.2857142857143 A 4.6875 4.6875 0 1 1 51.74632118566196 354.28102678649554 Z"/><path fill="#2d70b3" stroke="none" class="dcg-svg-point" paint-order="stroke fill markers" d=" M 98.80514705882354 205.71428571428572 A 4.6875 4.6875 0 1 1 98.80514471507374 205.70959821506696 Z"/><path fill="#2d70b3" stroke="none" class="dcg-svg-point" paint-order="stroke fill markers" d=" M 145.8639705882353 102.85714285714286 A 4.6875 4.6875 0 1 1 145.8639682444855 102.85245535792411 Z"/><path fill="#2d70b3" stroke="none" class="dcg-svg-point" paint-order="stroke fill markers" d=" M 192.92279411764707 45.71428571428572 A 4.6875 4.6875 0 1 1 192.92279177389727 45.70959821506697 Z"/><path fill="#2d70b3" stroke="none" class="dcg-svg-point" paint-order="stroke fill markers" d=" M 239.98161764705884 34.28571428571428 A 4.6875 4.6875 0 1 1 239.98161530330904 34.281026786495524 Z"/><path fill="#2d70b3" stroke="none" class="dcg-svg-point" paint-order="stroke fill markers" d=" M 287.0404411764706 68.57142857142856 A 4.6875 4.6875 0 1 1 287.0404388327208 68.56674107220981 Z"/></g><g id="sketch-ec81359b"><title>Uitdrukking 2</title><path fill="#2d70b3" stroke="none" paint-order="stroke fill markers" d="" fill-opacity="0.4"/><g><path fill="none" stroke="#2d70b3" class="dcg-svg-curve" paint-order="fill stroke markers" d=" M 188.2196932384311 45.725662062338074 L 188.2196932384311 45.725662062338074 L 192.90008544921875 42.54024918665107 L 196.89226427909435 40.180585632448185 L 200 38.571428571428555 L 207.09991455078125 35.64318933732079 L 207.89180015883167 35.38109867860368 L 214.1998291015625 33.75553148432766 L 218.27596338936513 33.14200900544557 L 222.34441755837526 32.87163907538883 L 224.5957680191811 32.86888726101989 L 228.399658203125 33.101959921685705 L 233.14262840304872 33.81099461425299 L 236.95333585451078 34.71708747395235 L 242.5994873046875 36.61071388350268 L 247.22867192305597 38.65423199966153 L 249.69940185546875 39.92596293608324 L 256.79931640625 44.2817933697786 L 260.30900517484145 46.81934288948071 L 266.0012842368701 51.47555744061032 L 272.43545064548715 57.54394531250006 L 278.09906005859375 63.59277295755288 L 282.28115672402527 68.48432252123428" stroke-linecap="round" stroke-linejoin="round" stroke-miterlimit="10" stroke-width="5" stroke-dasharray=""/></g><g><path fill="none" stroke="#2d70b3" class="dcg-svg-curve" paint-order="fill stroke markers" d=" M 47.12886646502024 354.0306091308594 L 47.12886646502024 354.0306091308594 L 52.91218944892509 333.31637597385 L 58.7054206285364 313.2588635318729 L 65.10162353515625 291.91843643127606 L 71.71537372434659 270.7402957211611 L 76.17080446079835 256.982421875 L 82.32642033522458 238.64873303929932 L 88.38479786367395 221.36840820312503 L 93.64536997426916 206.97824999730398 L 100.6011962890625 188.8278228659848 L 105.56425915187808 176.48785148322284 L 110.64327963657826 164.38598632812503 L 116.93165786111004 150.14038085937506 L 123.05516965957676 137.05272602987284 L 127.75862659003569 127.52574015093205 L 132.6205673212424 118.15774898118764 L 138.5441746603097 107.40356445312506 L 143.20068359375 99.45827216442143 L 150.30059814453125 88.20538188139574 L 154.0536328223685 82.67748695128898 L 160.050504110176 74.44808504400163 L 164.50042724609375 68.8213454586886 L 168.01456004890662 64.66674804687506 L 174.62337777344453 57.54394531250006 L 180.3631153627169 52.089362196071136 L 182.27772542360208 50.42114257812506 L 188.2196932384311 45.725662062338074" stroke-linecap="round" stroke-linejoin="round" stroke-miterlimit="10" stroke-width="5" stroke-dasharray=""/></g><path fill="#2d70b3" stroke="none" class="dcg-svg-region" paint-order="stroke fill markers" d=" M 188.2196932384311 45.725662062338074 L 192.90008544921875 42.54024918665107 L 196.89226427909435 40.180585632448185 L 200 38.571428571428555 L 207.09991455078125 35.64318933732079 L 207.89180015883167 35.38109867860368 L 214.1998291015625 33.75553148432766 L 218.27596338936513 33.14200900544557 L 222.34441755837526 32.87163907538883 L 224.5957680191811 32.86888726101989 L 228.399658203125 33.101959921685705 L 233.14262840304872 33.81099461425299 L 236.95333585451078 34.71708747395235 L 242.5994873046875 36.61071388350268 L 247.22867192305597 38.65423199966153 L 249.69940185546875 39.92596293608324 L 256.79931640625 44.2817933697786 L 260.30900517484145 46.81934288948071 L 266.0012842368701 51.47555744061032 L 272.43545064548715 57.54394531250006 L 278.09906005859375 63.59277295755288 L 282.28115672402527 68.48432252123428 L 282.3146343231201 69.11849975585943 L 282.3146343231201 354.0306091308594 L 282.20369815826416 354.2531967163086 L 47.12996482849121 354.2531967163086 L 47.177033199529674 353.8552416520097 L 52.91218944892509 333.31637597385 L 58.7054206285364 313.2588635318729 L 65.10162353515625 291.91843643127606 L 71.71537372434659 270.7402957211611 L 76.17080446079835 256.982421875 L 82.32642033522458 238.64873303929932 L 88.38479786367395 221.36840820312503 L 93.64536997426916 206.97824999730398 L 100.6011962890625 188.8278228659848 L 105.56425915187808 176.48785148322284 L 110.64327963657826 164.38598632812503 L 116.93165786111004 150.14038085937506 L 123.05516965957676 137.05272602987284 L 127.75862659003569 127.52574015093205 L 132.6205673212424 118.15774898118764 L 138.5441746603097 107.40356445312506 L 143.20068359375 99.45827216442143 L 150.30059814453125 88.20538188139574 L 154.0536328223685 82.67748695128898 L 160.050504110176 74.44808504400163 L 164.50042724609375 68.8213454586886 L 168.01456004890662 64.66674804687506 L 174.62337777344453 57.54394531250006 L 180.3631153627169 52.089362196071136 L 182.27772542360208 50.42114257812506 L 188.2196932384311 45.725662062338074 L 188.2196932384311 45.725662062338074" fill-opacity="0.1"/></g><g id="sketch-ec81359b"><title>Uitdrukking 3</title><path fill="#348543" stroke="none" paint-order="stroke fill markers" d="" fill-opacity="0.4"/><g><path fill="none" stroke="#348543" class="dcg-svg-curve" paint-order="fill stroke markers" d=" M 47.0703125 205.71428571428572 L 47.0703125 205.71428571428572 L 94.091796875 205.71428571428572" stroke-linecap="round" stroke-linejoin="round" stroke-miterlimit="10" stroke-width="2.5" stroke-dasharray=""/></g><path fill="#348543" stroke="none" class="dcg-svg-region" paint-order="stroke fill markers" d=" M 47.0703125 206.15234375 L 47.07310267857143 205.71428571428572 L 94.091796875 205.71428571428572 L 94.091796875 354.248046875 L 47.0703125 354.248046875 L 47.0703125 206.15234375 L 47.0703125 206.15234375" fill-opacity="0.4"/></g><g id="sketch-ec81359b"><title>Uitdrukking 4</title><path fill="#348543" stroke="none" paint-order="stroke fill markers" d="" fill-opacity="0.4"/><g><path fill="none" stroke="#348543" class="dcg-svg-curve" paint-order="fill stroke markers" d=" M 94.53125 102.85714285714286 L 94.53125 102.85714285714286 L 141.11328125 102.85714285714286" stroke-linecap="round" stroke-linejoin="round" stroke-miterlimit="10" stroke-width="2.5" stroke-dasharray=""/></g><path fill="#348543" stroke="none" class="dcg-svg-region" paint-order="stroke fill markers" d=" M 94.1192626953125 104.4189453125 L 94.146728515625 103.704833984375 L 94.1192626953125 103.1005859375 L 94.146728515625 102.880859375 L 95.82589285714286 102.85714285714286 L 141.168212890625 102.880859375 L 141.11328125 354.248046875 L 94.146728515625 354.193115234375 L 94.1192626953125 353.5888671875 L 94.146728515625 352.9296875 L 94.1192626953125 352.2705078125 L 94.146728515625 351.556396484375 L 94.1192626953125 350.9521484375 L 94.146728515625 350.29296875 L 94.1192626953125 349.6337890625 L 94.146728515625 348.919677734375 L 94.1192626953125 348.3154296875 L 94.146728515625 347.65625 L 94.1192626953125 346.9970703125 L 94.146728515625 346.282958984375 L 94.1192626953125 345.6787109375 L 94.146728515625 345.01953125 L 94.1192626953125 344.3603515625 L 94.146728515625 343.646240234375 L 94.1192626953125 343.0419921875 L 94.146728515625 342.3828125 L 94.1192626953125 341.7236328125 L 94.146728515625 341.009521484375 L 94.1192626953125 340.4052734375 L 94.146728515625 339.74609375 L 94.1192626953125 339.0869140625 L 94.146728515625 338.372802734375 L 94.1192626953125 337.7685546875 L 94.146728515625 337.109375 L 94.1192626953125 336.4501953125 L 94.146728515625 335.736083984375 L 94.1192626953125 335.1318359375 L 94.146728515625 334.47265625 L 94.1192626953125 333.8134765625 L 94.146728515625 333.099365234375 L 94.1192626953125 332.4951171875 L 94.146728515625 331.8359375 L 94.1192626953125 331.1767578125 L 94.146728515625 330.462646484375 L 94.1192626953125 329.8583984375 L 94.146728515625 329.19921875 L 94.1192626953125 328.5400390625 L 94.146728515625 327.825927734375 L 94.1192626953125 327.2216796875 L 94.146728515625 326.5625 L 94.1192626953125 325.9033203125 L 94.146728515625 325.189208984375 L 94.1192626953125 324.5849609375 L 94.146728515625 323.92578125 L 94.1192626953125 323.2666015625 L 94.146728515625 322.552490234375 L 94.1192626953125 321.9482421875 L 94.146728515625 321.2890625 L 94.1192626953125 320.6298828125 L 94.146728515625 319.915771484375 L 94.1192626953125 319.3115234375 L 94.146728515625 318.65234375 L 94.1192626953125 317.9931640625 L 94.146728515625 317.279052734375 L 94.1192626953125 316.6748046875 L 94.146728515625 316.015625 L 94.1192626953125 315.3564453125 L 94.146728515625 314.642333984375 L 94.1192626953125 314.0380859375 L 94.146728515625 313.37890625 L 94.1192626953125 312.7197265625 L 94.146728515625 312.005615234375 L 94.1192626953125 311.4013671875 L 94.146728515625 310.7421875 L 94.1192626953125 310.0830078125 L 94.146728515625 309.368896484375 L 94.1192626953125 308.7646484375 L 94.146728515625 308.10546875 L 94.1192626953125 307.4462890625 L 94.146728515625 306.732177734375 L 94.1192626953125 306.1279296875 L 94.146728515625 305.46875 L 94.1192626953125 304.8095703125 L 94.146728515625 304.095458984375 L 94.1192626953125 303.4912109375 L 94.146728515625 302.83203125 L 94.1192626953125 302.1728515625 L 94.146728515625 301.458740234375 L 94.1192626953125 300.8544921875 L 94.146728515625 300.1953125 L 94.1192626953125 299.5361328125 L 94.146728515625 298.822021484375 L 94.1192626953125 298.2177734375 L 94.146728515625 297.55859375 L 94.1192626953125 296.8994140625 L 94.146728515625 296.185302734375 L 94.1192626953125 295.5810546875 L 94.146728515625 294.921875 L 94.1192626953125 294.2626953125 L 94.146728515625 293.548583984375 L 94.1192626953125 292.9443359375 L 94.146728515625 292.28515625 L 94.1192626953125 291.6259765625 L 94.146728515625 290.911865234375 L 94.1192626953125 290.3076171875 L 94.146728515625 289.6484375 L 94.1192626953125 288.9892578125 L 94.146728515625 288.275146484375 L 94.1192626953125 287.6708984375 L 94.146728515625 287.01171875 L 94.1192626953125 286.3525390625 L 94.146728515625 285.638427734375 L 94.1192626953125 285.0341796875 L 94.146728515625 284.375 L 94.1192626953125 283.7158203125 L 94.146728515625 283.001708984375 L 94.1192626953125 282.3974609375 L 94.146728515625 281.73828125 L 94.1192626953125 281.0791015625 L 94.146728515625 280.364990234375 L 94.1192626953125 279.7607421875 L 94.146728515625 279.1015625 L 94.1192626953125 278.4423828125 L 94.146728515625 277.728271484375 L 94.1192626953125 277.1240234375 L 94.146728515625 276.46484375 L 94.1192626953125 275.8056640625 L 94.146728515625 275.091552734375 L 94.1192626953125 274.4873046875 L 94.146728515625 273.828125 L 94.1192626953125 273.1689453125 L 94.146728515625 272.454833984375 L 94.1192626953125 271.8505859375 L 94.146728515625 271.19140625 L 94.1192626953125 270.5322265625 L 94.146728515625 269.818115234375 L 94.1192626953125 269.2138671875 L 94.146728515625 268.5546875 L 94.1192626953125 267.8955078125 L 94.146728515625 267.181396484375 L 94.1192626953125 266.5771484375 L 94.146728515625 265.91796875 L 94.1192626953125 265.2587890625 L 94.146728515625 264.544677734375 L 94.1192626953125 263.9404296875 L 94.146728515625 263.28125 L 94.1192626953125 262.6220703125 L 94.146728515625 261.907958984375 L 94.1192626953125 261.3037109375 L 94.146728515625 260.64453125 L 94.1192626953125 259.9853515625 L 94.146728515625 259.271240234375 L 94.1192626953125 258.6669921875 L 94.146728515625 258.0078125 L 94.1192626953125 257.3486328125 L 94.146728515625 256.634521484375 L 94.1192626953125 256.0302734375 L 94.146728515625 255.37109375 L 94.1192626953125 254.7119140625 L 94.146728515625 253.997802734375 L 94.1192626953125 253.3935546875 L 94.146728515625 252.734375 L 94.1192626953125 252.0751953125 L 94.146728515625 251.361083984375 L 94.1192626953125 250.7568359375 L 94.146728515625 250.09765625 L 94.1192626953125 249.4384765625 L 94.146728515625 248.724365234375 L 94.1192626953125 248.1201171875 L 94.146728515625 247.4609375 L 94.1192626953125 246.8017578125 L 94.146728515625 246.087646484375 L 94.1192626953125 245.4833984375 L 94.146728515625 244.82421875 L 94.1192626953125 244.1650390625 L 94.146728515625 243.450927734375 L 94.1192626953125 242.8466796875 L 94.146728515625 242.1875 L 94.1192626953125 241.5283203125 L 94.146728515625 240.814208984375 L 94.1192626953125 240.2099609375 L 94.146728515625 239.55078125 L 94.1192626953125 238.8916015625 L 94.146728515625 238.177490234375 L 94.1192626953125 237.5732421875 L 94.146728515625 236.9140625 L 94.1192626953125 236.2548828125 L 94.146728515625 235.540771484375 L 94.1192626953125 234.9365234375 L 94.146728515625 234.27734375 L 94.1192626953125 233.6181640625 L 94.146728515625 232.904052734375 L 94.1192626953125 232.2998046875 L 94.146728515625 231.640625 L 94.1192626953125 230.9814453125 L 94.146728515625 230.267333984375 L 94.1192626953125 229.6630859375 L 94.146728515625 229.00390625 L 94.1192626953125 228.3447265625 L 94.146728515625 227.630615234375 L 94.1192626953125 227.0263671875 L 94.146728515625 226.3671875 L 94.1192626953125 225.7080078125 L 94.146728515625 224.993896484375 L 94.1192626953125 224.3896484375 L 94.146728515625 223.73046875 L 94.1192626953125 223.0712890625 L 94.146728515625 222.357177734375 L 94.1192626953125 221.7529296875 L 94.146728515625 221.09375 L 94.1192626953125 220.4345703125 L 94.146728515625 219.720458984375 L 94.1192626953125 219.1162109375 L 94.146728515625 218.45703125 L 94.1192626953125 217.7978515625 L 94.146728515625 217.083740234375 L 94.1192626953125 216.4794921875 L 94.146728515625 215.8203125 L 94.1192626953125 215.1611328125 L 94.146728515625 214.447021484375 L 94.1192626953125 213.8427734375 L 94.146728515625 213.18359375 L 94.1192626953125 212.5244140625 L 94.146728515625 211.810302734375 L 94.1192626953125 211.2060546875 L 94.146728515625 210.546875 L 94.1192626953125 209.8876953125 L 94.146728515625 209.173583984375 L 94.1192626953125 208.5693359375 L 94.146728515625 207.91015625 L 94.1192626953125 207.2509765625 L 94.146728515625 206.536865234375 L 94.1192626953125 205.9326171875 L 94.146728515625 205.2734375 L 94.1192626953125 204.6142578125 L 94.146728515625 203.900146484375 L 94.1192626953125 203.2958984375 L 94.146728515625 202.63671875 L 94.1192626953125 201.9775390625 L 94.146728515625 201.263427734375 L 94.1192626953125 200.6591796875 L 94.146728515625 200 L 94.1192626953125 199.3408203125 L 94.146728515625 198.626708984375 L 94.1192626953125 198.0224609375 L 94.146728515625 197.36328125 L 94.1192626953125 196.7041015625 L 94.146728515625 195.989990234375 L 94.1192626953125 195.3857421875 L 94.146728515625 194.7265625 L 94.1192626953125 194.0673828125 L 94.146728515625 193.353271484375 L 94.1192626953125 192.7490234375 L 94.146728515625 192.08984375 L 94.1192626953125 191.4306640625 L 94.146728515625 190.716552734375 L 94.1192626953125 190.1123046875 L 94.146728515625 189.453125 L 94.1192626953125 188.7939453125 L 94.146728515625 188.079833984375 L 94.1192626953125 187.4755859375 L 94.146728515625 186.81640625 L 94.1192626953125 186.1572265625 L 94.146728515625 185.443115234375 L 94.1192626953125 184.8388671875 L 94.146728515625 184.1796875 L 94.1192626953125 183.5205078125 L 94.146728515625 182.806396484375 L 94.1192626953125 182.2021484375 L 94.146728515625 181.54296875 L 94.1192626953125 180.8837890625 L 94.146728515625 180.169677734375 L 94.1192626953125 179.5654296875 L 94.146728515625 178.90625 L 94.1192626953125 178.2470703125 L 94.146728515625 177.532958984375 L 94.1192626953125 176.9287109375 L 94.146728515625 176.26953125 L 94.1192626953125 175.6103515625 L 94.146728515625 174.896240234375 L 94.1192626953125 174.2919921875 L 94.146728515625 173.6328125 L 94.1192626953125 172.9736328125 L 94.146728515625 172.259521484375 L 94.1192626953125 171.6552734375 L 94.146728515625 170.99609375 L 94.1192626953125 170.3369140625 L 94.146728515625 169.622802734375 L 94.1192626953125 169.0185546875 L 94.146728515625 168.359375 L 94.1192626953125 167.7001953125 L 94.146728515625 166.986083984375 L 94.1192626953125 166.3818359375 L 94.146728515625 165.72265625 L 94.1192626953125 165.0634765625 L 94.146728515625 164.349365234375 L 94.1192626953125 163.7451171875 L 94.146728515625 163.0859375 L 94.1192626953125 162.4267578125 L 94.146728515625 161.712646484375 L 94.1192626953125 161.1083984375 L 94.146728515625 160.44921875 L 94.1192626953125 159.7900390625 L 94.146728515625 159.075927734375 L 94.1192626953125 158.4716796875 L 94.146728515625 157.8125 L 94.1192626953125 157.1533203125 L 94.146728515625 156.439208984375 L 94.1192626953125 155.8349609375 L 94.146728515625 155.17578125 L 94.1192626953125 154.5166015625 L 94.146728515625 153.802490234375 L 94.1192626953125 153.1982421875 L 94.146728515625 152.5390625 L 94.1192626953125 151.8798828125 L 94.146728515625 151.165771484375 L 94.1192626953125 150.5615234375 L 94.146728515625 149.90234375 L 94.1192626953125 149.2431640625 L 94.146728515625 148.529052734375 L 94.1192626953125 147.9248046875 L 94.146728515625 147.265625 L 94.1192626953125 146.6064453125 L 94.146728515625 145.892333984375 L 94.1192626953125 145.2880859375 L 94.146728515625 144.62890625 L 94.1192626953125 143.9697265625 L 94.146728515625 143.255615234375 L 94.1192626953125 142.6513671875 L 94.146728515625 141.9921875 L 94.1192626953125 141.3330078125 L 94.146728515625 140.618896484375 L 94.1192626953125 140.0146484375 L 94.146728515625 139.35546875 L 94.1192626953125 138.6962890625 L 94.146728515625 137.982177734375 L 94.1192626953125 137.3779296875 L 94.146728515625 136.71875 L 94.1192626953125 136.0595703125 L 94.146728515625 135.345458984375 L 94.1192626953125 134.7412109375 L 94.146728515625 134.08203125 L 94.1192626953125 133.4228515625 L 94.146728515625 132.708740234375 L 94.1192626953125 132.1044921875 L 94.146728515625 131.4453125 L 94.1192626953125 130.7861328125 L 94.146728515625 130.072021484375 L 94.1192626953125 129.4677734375 L 94.146728515625 128.80859375 L 94.1192626953125 128.1494140625 L 94.146728515625 127.435302734375 L 94.1192626953125 126.8310546875 L 94.146728515625 126.171875 L 94.1192626953125 125.5126953125 L 94.146728515625 124.798583984375 L 94.1192626953125 124.1943359375 L 94.146728515625 123.53515625 L 94.1192626953125 122.8759765625 L 94.146728515625 122.161865234375 L 94.1192626953125 121.5576171875 L 94.146728515625 120.8984375 L 94.1192626953125 120.2392578125 L 94.146728515625 119.525146484375 L 94.1192626953125 118.9208984375 L 94.146728515625 118.26171875 L 94.1192626953125 117.6025390625 L 94.146728515625 116.888427734375 L 94.1192626953125 116.2841796875 L 94.146728515625 115.625 L 94.1192626953125 114.9658203125 L 94.146728515625 114.251708984375 L 94.1192626953125 113.6474609375 L 94.146728515625 112.98828125 L 94.1192626953125 112.3291015625 L 94.146728515625 111.614990234375 L 94.1192626953125 111.0107421875 L 94.146728515625 110.3515625 L 94.1192626953125 109.6923828125 L 94.146728515625 108.978271484375 L 94.1192626953125 108.3740234375 L 94.146728515625 107.71484375 L 94.1192626953125 107.0556640625 L 94.146728515625 106.341552734375 L 94.1192626953125 105.7373046875 L 94.146728515625 105.078125 L 94.1192626953125 104.4189453125 L 94.1192626953125 104.4189453125" fill-opacity="0.4"/></g><g id="sketch-ec81359b"><title>Uitdrukking 5</title><path fill="#348543" stroke="none" paint-order="stroke fill markers" d="" fill-opacity="0.4"/><g><path fill="none" stroke="#348543" class="dcg-svg-curve" paint-order="fill stroke markers" d=" M 158.21428571428572 45.71428571428572 L 158.21428571428572 45.71428571428572 L 188.189697265625 45.71428571428572" stroke-linecap="round" stroke-linejoin="round" stroke-miterlimit="10" stroke-width="2.5" stroke-dasharray=""/></g><g><path fill="none" stroke="#348543" class="dcg-svg-curve" paint-order="fill stroke markers" d=" M 141.22314453125 45.71428571428572 L 141.22314453125 45.71428571428572 L 158.21428571428572 45.71428571428572" stroke-linecap="round" stroke-linejoin="round" stroke-miterlimit="10" stroke-width="2.5" stroke-dasharray=""/></g><path fill="#348543" stroke="none" class="dcg-svg-region" paint-order="stroke fill markers" d=" M 158.21428571428572 45.71428571428572 L 188.189697265625 45.806884765625 L 188.134765625 354.248046875 L 141.22314453125 354.248046875 L 141.22314453125 45.71428571428572 L 158.21428571428572 45.71428571428572 L 158.21428571428572 45.71428571428572" fill-opacity="0.4"/></g><g id="sketch-ec81359b"><title>Uitdrukking 6</title><path fill="#348543" stroke="none" paint-order="stroke fill markers" d="" fill-opacity="0.4"/><g><path fill="none" stroke="#348543" class="dcg-svg-curve" paint-order="fill stroke markers" d=" M 188.97321428571428 34.28571428571428 L 188.97321428571428 34.28571428571428 L 235.15625 34.28571428571428" stroke-linecap="round" stroke-linejoin="round" stroke-miterlimit="10" stroke-width="2.5" stroke-dasharray=""/></g><g><path fill="none" stroke="#348543" class="dcg-svg-curve" paint-order="fill stroke markers" d=" M 188.57421875 34.28571428571428 L 188.57421875 34.28571428571428 L 188.97321428571428 34.28571428571428" stroke-linecap="round" stroke-linejoin="round" stroke-miterlimit="10" stroke-width="2.5" stroke-dasharray=""/></g><path fill="#348543" stroke="none" class="dcg-svg-region" paint-order="stroke fill markers" d=" M 188.97321428571428 34.28571428571428 L 235.26611328125 34.326171875 L 235.26611328125 354.248046875 L 188.24462890625 354.13818359375 L 188.24462890625 34.326171875 L 188.97321428571428 34.28571428571428 L 188.97321428571428 34.28571428571428" fill-opacity="0.4"/></g><g id="sketch-ec81359b"><title>Uitdrukking 7</title><path fill="#348543" stroke="none" paint-order="stroke fill markers" d="" fill-opacity="0.4"/><g><path fill="none" stroke="#348543" class="dcg-svg-curve" paint-order="fill stroke markers" d=" M 282.14564732142856 68.57142857142856 L 282.14564732142856 68.57142857142856 L 282.342529296875 68.57142857142856" stroke-linecap="round" stroke-linejoin="round" stroke-miterlimit="10" stroke-width="2.5" stroke-dasharray=""/></g><g><path fill="none" stroke="#348543" class="dcg-svg-curve" paint-order="fill stroke markers" d=" M 235.321044921875 68.57142857142861 L 235.321044921875 68.57142857142861 L 282.14564732142856 68.57142857142856" stroke-linecap="round" stroke-linejoin="round" stroke-miterlimit="10" stroke-width="2.5" stroke-dasharray=""/></g><path fill="#348543" stroke="none" class="dcg-svg-region" paint-order="stroke fill markers" d=" M 282.14564732142856 68.57142857142856 L 282.342529296875 68.57142857142856 L 282.342529296875 354.248046875 L 235.321044921875 354.248046875 L 235.321044921875 68.57142857142861 L 282.14564732142856 68.57142857142856 L 282.14564732142856 68.57142857142856" fill-opacity="0.4"/></g></g><g id="labels-ec81359b"/><g id="labels-ec81359b"/></g></svg>