<?xml version="1.0" encoding="utf-8"?>
<!-- Generator: Adobe Illustrator 21.0.2, SVG Export Plug-In . SVG Version: 6.00 Build 0)  -->
<svg version="1.1" id="Layer_1" xmlns="http://www.w3.org/2000/svg" xmlns:xlink="http://www.w3.org/1999/xlink" x="0px" y="0px"
	 viewBox="0 0 566.9 283.5" style="enable-background:new 0 0 566.9 283.5;" xml:space="preserve">
<style type="text/css">
	.st0{fill:#1B75BC;}
	.st1{fill:#D1D3D4;}
	.st2{clip-path:url(#SVGID_2_);}
	.st3{fill:#FFFFFF;}
</style>
<g>
	<g>
		<path class="st0" d="M192.2,266.9c-19.1,5-38.2,6.1-57.6,2.1c-24.2-5-47.1-17-64.6-34.6c-32.9-33-43.3-82.9-30.3-127.2
			c13.8-47,56-84.1,105.6-87c44.3-2.6,86.3,26.6,95.3,70.6c-7.6-19-20.3-34.5-38.3-44.6c-21.5-12.1-46.7-14.4-70.2-7.1
			c-50.3,15.6-79.9,66.6-76.7,117.8c2.2,35.3,20.3,67.1,49.2,87.4C130.6,262.5,160.9,269.3,192.2,266.9z"/>
		<g>
			<path class="st0" d="M335.3,97.6c-1.4-10.7-4-21.3-7.9-31.4c-7.7-20.2-19.8-37-35.5-51.6c18.3,24.5,29.3,52.6,30.3,83.1H335.3z"
				/>
			<path class="st0" d="M302.7,169.8c-8.3,13.1-19,24.8-31.9,34.2c-45.1,32.8-109,35.4-152.7-1.6c-20.4-17.3-33-41.7-34.4-68.5
				c-1.2-22.4,5.5-43.1,18.5-61.1c-35.1,34-37.4,89.4-9.2,128.6c31.6,43.8,90.2,60.9,141.3,46.1c40-11.5,74.1-40.1,90.9-77.7H302.7z
				"/>
		</g>
	</g>
	<g>
		<g>
			<g>
				<path class="st0" d="M154.7,147.6c0,4.9,0.2,9.6,0.7,12.4h-14.3l-0.9-5.1h-0.3c-3.3,4.1-8.5,6.3-14.6,6.3
					c-10.3,0-16.5-7.5-16.5-15.6c0-13.2,11.9-19.6,29.9-19.5v-0.7c0-2.7-1.5-6.6-9.3-6.6c-5.2,0-10.7,1.8-14.1,3.9l-2.9-10.2
					c3.5-2,10.5-4.5,19.8-4.5c17,0,22.4,10,22.4,22V147.6z M139.3,136c-8.3-0.1-14.8,1.9-14.8,8c0,4.1,2.7,6,6.3,6
					c4,0,7.2-2.6,8.2-5.8c0.2-0.8,0.3-1.8,0.3-2.7V136z"/>
				<path class="st0" d="M178.4,94.9c0,4.4-3.3,7.9-8.6,7.9c-5,0-8.3-3.5-8.2-7.9c-0.1-4.6,3.2-8,8.3-8
					C175.1,86.9,178.3,90.3,178.4,94.9z M162.1,160v-51h15.8v51H162.1z"/>
				<path class="st0" d="M185.4,125.8c0-7.5-0.2-12.4-0.4-16.8h13.7l0.5,9.4h0.4c2.6-7.4,8.9-10.5,13.8-10.5c1.5,0,2.2,0,3.3,0.2v15
					c-1.1-0.3-2.5-0.5-4.3-0.5c-5.8,0-9.8,3.1-10.8,8c-0.2,1-0.3,2.3-0.3,3.5V160h-15.8V125.8z"/>
				<path class="st0" d="M264.1,152.7c0,11.6-2.3,18.7-7.2,23c-4.9,4.6-12,6-18.4,6c-6,0-12.7-1.5-16.8-4.2l2.3-7
					c3.3,2.1,8.6,4,14.8,4c9.4,0,16.3-4.9,16.3-17.6v-5.6H255c-2.8,4.7-8.2,8.4-16.1,8.4c-12.5,0-21.5-10.6-21.5-24.6
					c0-17.1,11.2-26.8,22.7-26.8c8.8,0,13.6,4.6,15.7,8.8h0.2l0.4-7.6h8c-0.2,3.6-0.4,7.7-0.4,13.9V152.7z M255.1,129.5
					c0-1.6-0.1-2.9-0.5-4.2c-1.7-5.3-6.2-9.7-12.8-9.7c-8.8,0-15,7.4-15,19.1c0,9.9,5,18.1,14.9,18.1c5.6,0,10.7-3.5,12.7-9.4
					c0.5-1.6,0.7-3.3,0.7-4.9V129.5z"/>
				<path class="st0" d="M273.5,125.3c0-5.9-0.1-11.1-0.4-15.7h8l0.3,9.9h0.4c2.3-6.8,7.8-11.1,14-11.1c1,0,1.8,0.1,2.6,0.3v8.7
					c-0.9-0.2-1.9-0.3-3.1-0.3c-6.5,0-11.1,4.9-12.3,11.8c-0.2,1.3-0.4,2.7-0.4,4.3V160h-9.1V125.3z"/>
				<path class="st0" d="M337.3,147.9c0,4.4,0.2,8.7,0.8,12.1h-8.3l-0.7-6.4h-0.3c-2.8,4-8.2,7.5-15.4,7.5
					c-10.2,0-15.4-7.2-15.4-14.5c0-12.2,10.8-18.9,30.3-18.8v-1c0-4.2-1.1-11.7-11.5-11.7c-4.7,0-9.6,1.5-13.1,3.8l-2.1-6
					c4.2-2.7,10.2-4.5,16.6-4.5c15.4,0,19.2,10.5,19.2,20.6V147.9z M328.5,134.3c-10-0.2-21.4,1.6-21.4,11.4c0,5.9,4,8.8,8.7,8.8
					c6.6,0,10.7-4.2,12.2-8.4c0.3-0.9,0.5-2,0.5-2.9V134.3z"/>
				<path class="st0" d="M390.5,86v61c0,4.5,0.1,9.6,0.4,13h-8.2l-0.4-8.8h-0.2c-2.8,5.6-9,9.9-17.2,9.9
					c-12.2,0-21.6-10.3-21.6-25.6c-0.1-16.8,10.3-27.1,22.6-27.1c7.7,0,12.9,3.6,15.2,7.7h0.2V86H390.5z M381.3,130.1
					c0-1.1-0.1-2.7-0.4-3.9c-1.4-5.8-6.4-10.6-13.2-10.6c-9.5,0-15.1,8.3-15.1,19.5c0,10.2,5,18.7,14.9,18.7
					c6.2,0,11.8-4.1,13.4-10.9c0.3-1.3,0.4-2.5,0.4-4V130.1z"/>
				<path class="st0" d="M410.7,95.4c0.1,3.1-2.2,5.6-5.8,5.6c-3.2,0-5.5-2.5-5.5-5.6c0-3.2,2.4-5.7,5.7-5.7
					C408.5,89.7,410.7,92.2,410.7,95.4z M400.5,160v-50.5h9.2V160H400.5z"/>
				<path class="st0" d="M424.8,136.5c0.2,12.4,8.1,17.5,17.3,17.5c6.6,0,10.5-1.1,14-2.6l1.6,6.6c-3.2,1.5-8.8,3.2-16.8,3.2
					c-15.5,0-24.8-10.3-24.8-25.5c0-15.2,9-27.2,23.7-27.2c16.5,0,20.9,14.5,20.9,23.8c0,1.9-0.2,3.3-0.3,4.3H424.8z M451.7,129.9
					c0.1-5.8-2.4-14.9-12.7-14.9c-9.3,0-13.3,8.6-14.1,14.9H451.7z"/>
				<path class="st0" d="M466.7,123.2c0-5.2-0.1-9.5-0.4-13.7h8.1l0.5,8.3h0.2c2.5-4.8,8.3-9.5,16.7-9.5c7,0,17.8,4.2,17.8,21.5V160
					h-9.2V131c0-8.1-3-14.9-11.7-14.9c-6,0-10.7,4.3-12.3,9.4c-0.4,1.1-0.6,2.7-0.6,4.3V160h-9.2V123.2z"/>
				<path class="st0" d="M530,97.5v12.1h13.1v7H530v27.2c0,6.3,1.8,9.8,6.9,9.8c2.5,0,4-0.2,5.3-0.6l0.4,6.9
					c-1.8,0.7-4.6,1.4-8.1,1.4c-4.3,0-7.7-1.5-9.9-4c-2.6-2.7-3.5-7.2-3.5-13.1v-27.5h-7.8v-7h7.8v-9.3L530,97.5z"/>
			</g>
		</g>
	</g>
</g>
</svg>
