<svg
    xmlns="http://www.w3.org/2000/svg"
    width="168"
    height="48"
    fill="none"
    viewBox="0 0 112 32"
>
    <path
    fill="#00FFA8"
    fillRule="evenodd"
    d="M16 32c8.836 0 16-7.163 16-16-.002-8.837-7.164-16-16-16C7.162 0 0 7.163 0 16s7.162 16 16 16zm-.03-21.257c-2.893 0-5.238 2.354-5.238 5.256s2.346 5.256 5.238 5.256c2.893 0 5.298-2.354 5.298-5.256s-2.405-5.256-5.298-5.256zm0-2.743C20.373 8 24 11.58 24 15.999v7.785h-2.737v-1.89C19.863 23.122 17.976 24 15.97 24 11.568 24 8 20.42 8 16.001 8 11.581 11.568 8 15.97 8zm72.284 8.706a3.994 3.994 0 01-3.992 3.997 3.993 3.993 0 01-3.99-3.997 3.995 3.995 0 013.99-3.999 3.996 3.996 0 013.992 3.999zm-10.064 0a6.077 6.077 0 006.073 6.082 6.077 6.077 0 006.072-6.082 6.077 6.077 0 00-6.072-6.083 6.045 6.045 0 00-3.992 1.498V8.666H78.19v8.04zm15.989-.974a4.007 4.007 0 013.89-3.05 4 4 0 013.888 3.05h-7.778zm9.984.858a6.094 6.094 0 00-12.187.101 6.095 6.095 0 0010.386 4.329l-1.472-1.484a4.007 4.007 0 01-6.664-1.713h9.937V16.59zM112 12.683v-2.091a6.097 6.097 0 00-6.095 6.097v5.934h2.089v-6a4.008 4.008 0 014.006-3.94zm-65.484 0a4 4 0 00-3.993 4.006 4 4 0 003.993 4.006c2.206 0 4.038-1.794 4.038-4.006s-1.833-4.006-4.038-4.006zm0-2.091c3.357 0 6.121 2.73 6.121 6.097v5.934h-2.086v-1.44c-1.068.935-2.506 1.605-4.035 1.605-3.356 0-6.075-2.73-6.075-6.097 0-3.37 2.72-6.1 6.075-6.1zm23.957 0c3.323 0 6.022 2.695 6.076 5.998v6.033h-2.083V16.67c0-2.2-1.788-3.998-3.993-3.998a3.988 3.988 0 00-3.993 3.984v5.968h-2.083v-5.956c0-2.2-1.788-3.998-3.993-3.998a3.988 3.988 0 00-3.993 3.984v5.97h-2.083v-5.97c0-3.348 2.722-6.061 6.076-6.061a6.066 6.066 0 015.026 2.68 6.072 6.072 0 015.043-2.68z"
    clipRule="evenodd"
    ></path>
</svg>
