<svg xmlns="http://www.w3.org/2000/svg" viewBox="0 0 128 18" fill="#113565"><path class="st0" d="M49.6 9.1v5.2l-4.9-5.2H41v8.5h2.4v-5.1l5 5.1H52V9.1zm-31.5 1.7H20c1.1 0 1.7.5 1.7 1.4 0 1.2-.5 1.6-2.2 1.6l2.4 3.8h4L23.4 14c.4 0 2-.3 2-2.5 0-2.4-2.4-2.4-4-2.4h-7v8.5H18v-6.8zm16.8-1.7v4.8c0 .8-.2 1.4-.5 1.7-.3.3-.8.5-1.4.5-.6 0-1.1-.1-1.4-.5-.3-.4-.5-.9-.5-1.7V9.1h-3.6v5c0 1.4.3 1.9.9 2.5.9.9 2.6 1.3 4.7 1.3s3.7-.4 4.7-1.3c.6-.6.9-1.1.9-2.5v-5h-3.8zm25.6 0h-5.8v8.5h5.8c4.2 0 6.2-.9 6.2-4.3s-1.9-4.2-6.2-4.2zm-.4 6.8h-1.9v-5.1h1.9c1.9 0 2.8.8 2.8 2.5.1 1.7-.9 2.6-2.8 2.6zm26-7.1c-4.7 0-6.7 1.7-6.7 4.5 0 3.1 2 4.6 6.7 4.6 4.6 0 6.7-1.5 6.7-4.6-.1-2.7-2.1-4.5-6.7-4.5zm-.1 7.3c-1.9 0-2.8-.9-2.8-2.8s.9-2.8 2.8-2.8 2.8.9 2.8 2.8c0 2-.8 2.8-2.8 2.8zm-13.4-5.2h5l1.1-1.8h-9.8v8.5h3.7v-2.8h4.1l1.1-1.8h-5.2zM8.5 13.5V16s-1 .1-1.5.1c-2.8 0-3.2-1.5-3.2-2.7 0-1.8 1.1-2.7 3.4-2.7 1.5 0 2.3.1 3.4.3l.5.1 1.1-1.9c-2.5-.3-4.1-.3-5.5-.3-4.6 0-6.7 1.5-6.7 4.6s2.1 4.4 6.7 4.4c2 0 3.9-.1 5.4-.5v-3.8l-3.6-.1zm93-1.2c-1.7-.3-2.7-.3-2.7-1s1.7-.8 2.8-.8c.6 0 1.9.1 2.8.3l1-1.7c-.7-.1-2.7-.3-4.8-.3-3.8 0-6.3.7-6.3 2.5 0 2 2.1 2.3 4.2 2.7 1.6.3 2.7.3 2.7 1.1 0 .9-1.4 1-2.8 1-.4 0-1.6-.1-3.1-.4l-1.3 2c1.6.2 2.3.3 5.3.3 4.3 0 6.3-.8 6.3-2.9 0-2-2.1-2.5-4.1-2.8zm14 5.3h-4.6l6.4-6.4s.4.2 1.2 1c.9.8 1.1 1.2 1.1 1.2l-4.1 4.2z"/><path class="st0" d="M113.4 12.7c-2.4-2.9-3.1-4.2-3.7-5.8-.4-1-.9-2.9.1-3.9.9-.9 2.6-.6 4.4.2 2 .9 4.3 2.6 6.5 4.6l7.2-7.2v4.6l-6.6 6.6s-.7-.8-1.1-1.1c-3.9-3.8-7.5-5.7-8.4-4.8-1.2 1.2 2.5 5.5 2.6 5.7l-1 1.1zm14.6 4.9h-2.6s-.3-.9-1.2-2.3c-.9-1.4-1.7-2.2-1.7-2.2l1.7-1.7c.7.9 1.4 1.8 2.1 2.9.7 1.1 1.3 2.2 1.7 3.3z"/></svg>