<?xml version="1.0" encoding="utf-8"?>
<!-- Generator: Adobe Illustrator 25.0.1, SVG Export Plug-In . SVG Version: 6.00 Build 0)  -->
<svg version="1.0" id="katman_1" xmlns="http://www.w3.org/2000/svg" xmlns:xlink="http://www.w3.org/1999/xlink" x="0px" y="0px"
	 viewBox="0 0 800 600" style="enable-background:new 0 0 800 600;" xml:space="preserve">
<style type="text/css">
	.st0{fill:#003469;}
</style>
<path class="st0" d="M399.7,459.4c171.7,0,311.6-71.1,311.6-159.5c-0.8-88.3-139.8-159.5-311.6-159.5
	c-172.5,0-311.6,71.1-311.6,159.5S227.2,459.4,399.7,459.4z M457.8,380.9c-4.9,12.3-13.9,37.6-34.3,48.2c-6.5,3.3-13.9,4.9-20.4,4.9
	h-3.3c-57.2,0-111.2-8.2-155.4-21.3l-1.6-0.8c-4.1-1.6-6.5-3.3-6.5-5.7c0-2.5,0.8-3.3,2.5-4.9l2.5-2.5c10.6-9,41.7-31.9,100.6-54
	c20.4-8.2,46.6-18,73.6-23.7C430,318,488.9,309,457.8,380.9z M615.6,220.7c0.8-1.6,2.5-3.3,4.9-4.1c1.6,0,3.3,0,6.5,2.5
	c36.8,22.9,58.1,50.7,58.1,81c0,54.8-70.3,102.2-171.7,122.7c-6.5,1.6-10.6,1.6-12.3,0c-0.8-0.8-1.6-2.5,0-4.9
	c0.8-0.8,1.6-2.5,2.5-4.1c54.8-64.6,97.3-160.3,108.8-188.1C614,223.9,614.8,221.5,615.6,220.7z M341.7,218.2
	c4.9-12.3,13.9-37.6,34.3-48.2c6.5-2.5,14.7-4.1,21.3-4.1h3.3c57.2,0,111.2,8.2,155.4,21.3l1.6,0.8c4.1,1.6,6.5,3.3,6.5,5.7
	s-0.8,3.3-2.5,4.9l-2.5,2.5c-10.6,9-41.7,31.1-99.8,54c-20.4,8.2-46.6,18-73.6,23.7C369.5,281.2,310.6,290.2,341.7,218.2z
	 M285.2,177.3c6.5-1.6,10.6-1.6,12.3,0c0.8,0.8,0.8,2.5,0,4.9c-0.8,0.8-1.6,2.5-2.5,4.1c-54.8,64.6-97.3,160.3-108.8,188.1
	c-0.8,1.6-1.6,4.1-2.5,4.9c-0.8,1.6-2.5,3.3-4.9,4.1c-1.6,0-3.3,0-6.5-2.5c-36.8-22.9-58.1-50.7-58.1-81
	C113.5,245.2,184.7,197.8,285.2,177.3z"/>
</svg>
