<?xml version="1.0" encoding="UTF-8"?><svg id="a" xmlns="http://www.w3.org/2000/svg" width="459.56" height="180.92" viewBox="0 0 459.56 180.92"><path d="M448.67,6.77l.81-.17,.56-.44c.15-.2,.22-.48,.22-.82l-.16-.72-.45-.44-.64-.22-.73-.06h-1.88v2.88h1.35l.92-.02Zm-3.3,4.6V3.05h3.19c.95,0,1.63,.2,2.07,.58,.43,.4,.64,.97,.64,1.72,0,.36-.04,.68-.16,.95l-.46,.69-.66,.44-.8,.24,2.48,3.7h-1.2l-2.35-3.7h-1.73v3.7h-1.02Zm.18-9.85c-.73,.32-1.38,.76-1.92,1.32-.54,.55-.97,1.21-1.27,1.95-.3,.76-.45,1.56-.45,2.43s.15,1.66,.45,2.42c.31,.76,.73,1.4,1.27,1.96,.54,.56,1.19,.99,1.92,1.31,.76,.32,1.56,.48,2.44,.48s1.67-.16,2.42-.48c.73-.32,1.39-.75,1.93-1.31,.54-.56,.97-1.2,1.29-1.96,.31-.75,.47-1.55,.47-2.42s-.16-1.68-.47-2.43c-.31-.74-.75-1.4-1.29-1.95-.54-.56-1.19-1-1.93-1.32-.74-.33-1.55-.49-2.42-.49-.88,0-1.68,.16-2.44,.49m5.29-.96c.88,.37,1.64,.88,2.29,1.53,.65,.65,1.15,1.41,1.53,2.29,.36,.88,.56,1.82,.56,2.83s-.19,1.96-.56,2.83c-.38,.88-.88,1.63-1.53,2.28-.65,.65-1.41,1.15-2.29,1.52-.87,.37-1.83,.55-2.85,.55s-1.97-.18-2.85-.55c-.88-.37-1.64-.88-2.29-1.52-.65-.65-1.16-1.4-1.52-2.28-.37-.87-.56-1.82-.56-2.83s.19-1.95,.56-2.83c.35-.88,.87-1.64,1.52-2.29,.65-.65,1.41-1.16,2.29-1.53,.88-.37,1.83-.56,2.85-.56,1.03,0,1.98,.19,2.85,.56" fill="#d9d9d9"/><path d="M437.17,54.2V18.18c0-.05,0-.48,0-.66C436.9-.11,419.18,0,419.18,0h-54.02c-18.24,0-18.15,14.84-18.15,18.19,0,1.86,0,35.47,.01,36.01,0,.38,.03,.75,.05,1.12,.63,13.95,12.76,16.38,16.79,16.8h.03s.08,.01,.12,.02c.64,.07,1.02,.08,1.02,.08h54.1c18.24,0,18.02-18.02,18.02-18.02Zm-9.02,0c0,9.11-9.02,9.01-9.02,9.01h-54.1c-9.02,0-9.02-9.01-9.02-9.01V18.19c0-9.11,9.02-9,9.02-9h54.1s.07,0,.1,0c.78,.06,5.67,.59,7.85,4.56,.64,1.31,.9,2.6,.99,3.46,.03,.32,.07,.63,.07,.98V54.2h0Z" fill="#d9d9d9"/><path d="M31.41,18.19V54.08c0,8.98,9.02,8.98,9.02,8.98H112.55v9.15H40.49c-18.1,0-18.1-14.49-18.1-17.9V17.96C22.39,14.54,22.39,0,40.49,0H112.55V9.19H40.43s-9.02,0-9.02,9" fill="#d9d9d9"/><path d="M321.3,50.16v-.54c0-8.98-9.02-8.92-9.02-8.92h-19.83s-19.9-.01-36.52-.01-17.8-11.28-18.01-16.28l-.03-.73v-5.5C237.89,14.76,237.82,0,255.93,0h70.78V9.19h-70.78s-9.02,0-9.02,9v4.38c0,8.98,9.02,9.14,9.02,9.14h56.35c18.11,0,18.03,14.31,18.03,17.73v5c0,3.42,0,17.78-18.11,17.78h-72.96v-9h73.04s9.02,0,9.02-9v-4.05h0Z" fill="#d9d9d9"/><path d="M229.78,113.86c126.9,0,229.78-.81,229.78-1.81s-102.88-1.8-229.78-1.8c-126.91,0-229.78,.81-229.78,1.8s102.88,1.81,229.78,1.81" fill="#d9d9d9"/><path d="M211.75,36.66c0,11.04-13.11,26.55-28.41,26.55h-34.71c-9.02,0-9.02-9.01-9.02-9.01V18.19c0-9.31,9.02-9,9.02-9h54.1c9.09,0,9.02,9,9.02,9v18.47h0Zm9.01,35.55V18.19C220.76,.14,202.57,0,202.57,0h-53.94c-18.2,0-18.03,14.77-18.03,18.19,0,2.06,.03,29.46,.02,35.67-.02,19.1,18.02,18.36,18.02,18.36h38.27s17.14,1.4,24.44-17.31c.36-.83,.42-.98,.42-.98v18.28h9Z" fill="#d9d9d9"/><path d="M33.96,145.91c5.12,.13,8.98,1.6,11.56,4.39,2.59,2.81,3.89,7.06,3.89,12.77s-1.29,9.96-3.89,12.77c-2.59,2.8-6.44,4.27-11.56,4.4h-11.64v-34.32h11.64Zm-1.6,31.53c2.42,0,4.5-.27,6.24-.8,1.74-.53,3.18-1.37,4.31-2.52,1.13-1.16,1.96-2.65,2.5-4.48,.53-1.82,.8-4.02,.8-6.58s-.27-4.76-.8-6.58c-.53-1.83-1.37-3.32-2.5-4.47-1.13-1.15-2.57-2-4.31-2.52-1.74-.53-3.83-.8-6.24-.8h-6.83v28.75h6.83Zm96.1-31.53v2.78h-20.03v12.41h18.75v2.79h-18.75v13.56h20.26v2.78h-23.46v-34.32h23.23Zm57.65,27.44c.56,1.19,1.34,2.14,2.33,2.84,.99,.7,2.16,1.21,3.51,1.51,1.35,.3,2.79,.46,4.33,.46,.88,0,1.84-.13,2.88-.38,1.04-.26,2-.66,2.9-1.23,.9-.56,1.64-1.28,2.24-2.16,.59-.88,.9-1.94,.9-3.19,0-.96-.21-1.81-.64-2.51-.42-.71-.98-1.3-1.65-1.77-.68-.48-1.42-.88-2.24-1.19-.82-.3-1.62-.55-2.4-.74l-7.49-1.87c-.97-.26-1.92-.58-2.85-.96-.93-.39-1.74-.9-2.43-1.54-.69-.65-1.25-1.42-1.67-2.36-.43-.93-.64-2.06-.64-3.41,0-.83,.15-1.81,.47-2.94,.31-1.12,.9-2.18,1.77-3.17,.86-.99,2.05-1.84,3.56-2.52,1.51-.69,3.44-1.04,5.79-1.04,1.66,0,3.25,.23,4.76,.68,1.51,.44,2.82,1.12,3.96,2.02,1.13,.9,2.03,2.02,2.71,3.34,.68,1.33,1.01,2.88,1.01,4.64h-3.2c-.06-1.31-.35-2.46-.87-3.44-.52-.98-1.19-1.8-2.02-2.45-.83-.65-1.79-1.15-2.87-1.48-1.09-.34-2.23-.51-3.42-.51-1.1,0-2.16,.12-3.18,.36-1.02,.24-1.92,.62-2.69,1.15-.77,.53-1.39,1.22-1.86,2.09-.47,.87-.71,1.95-.71,3.22,0,.81,.13,1.5,.4,2.1,.27,.59,.63,1.1,1.11,1.51,.47,.43,1.01,.76,1.63,1.02,.61,.25,1.26,.47,1.96,.62l8.19,2.07c1.19,.32,2.31,.72,3.37,1.18,1.05,.47,1.98,1.04,2.78,1.73,.8,.69,1.43,1.53,1.89,2.52,.45,.99,.68,2.19,.68,3.6,0,.39-.04,.9-.12,1.53-.08,.64-.27,1.32-.56,2.04-.3,.73-.72,1.45-1.27,2.19-.55,.73-1.31,1.4-2.26,1.99-.96,.6-2.14,1.07-3.55,1.44-1.42,.36-3.11,.56-5.09,.56s-3.81-.24-5.51-.7c-1.69-.47-3.14-1.18-4.33-2.14-1.2-.96-2.11-2.19-2.76-3.7-.65-1.51-.92-3.32-.82-5.44h3.2c-.03,1.75,.23,3.23,.8,4.41m81.45,6.88h-3.2v-34.32h3.2v34.32Zm84.09,0l-.43-6.25h-.09c-.56,1.23-1.27,2.27-2.1,3.15-.83,.87-1.75,1.6-2.75,2.16-1.01,.56-2.08,.97-3.23,1.22-1.15,.27-2.33,.39-3.56,.39-2.64,0-4.95-.49-6.95-1.47-2-.98-3.65-2.28-4.98-3.91-1.32-1.63-2.31-3.52-2.97-5.68-.65-2.15-.98-4.41-.98-6.78s.33-4.63,.98-6.78c.66-2.15,1.65-4.04,2.97-5.7,1.32-1.65,2.98-2.96,4.98-3.94,1.99-.98,4.31-1.46,6.95-1.46,1.76,0,3.43,.24,5,.73,1.56,.48,2.96,1.19,4.19,2.15,1.23,.96,2.26,2.15,3.11,3.56,.85,1.41,1.43,3.06,1.74,4.95h-3.21c-.1-.99-.42-2-.97-3.01-.54-1.01-1.29-1.93-2.21-2.77-.93-.84-2.03-1.51-3.32-2.04-1.28-.53-2.74-.79-4.34-.79-2.23,0-4.15,.44-5.75,1.3s-2.91,2.01-3.93,3.43c-1.02,1.43-1.78,3.04-2.27,4.84s-.73,3.64-.73,5.52,.24,3.7,.73,5.51c.48,1.81,1.24,3.43,2.27,4.85,1.02,1.43,2.33,2.57,3.93,3.44,1.6,.86,3.52,1.3,5.75,1.3,1.85,0,3.51-.31,4.98-.94,1.45-.63,2.69-1.5,3.69-2.62,1.01-1.12,1.76-2.44,2.26-3.99,.5-1.54,.74-3.23,.71-5.05h-11.45v-2.79h14.27v17.45h-2.3Zm62.64-34.32l19.6,29.03h.09v-29.03h3.21v34.32h-3.58l-19.6-29.03h-.1v29.03h-3.2v-34.32h3.58Z" fill="#d9d9d9"/></svg>