<?xml version="1.0" encoding="utf-8"?>
<svg version="1.1" id="Layer_1" xmlns="http://www.w3.org/2000/svg" xmlns:xlink="http://www.w3.org/1999/xlink" x="0px" y="0px"
	 width="300px" height="65px" viewBox="0 0 300 65" enable-background="new 0 0 300 65" xml:space="preserve">
<g>
	<path d="M295.713,50.051c0,1.973-1.451,3.395-3.297,3.395c-1.871,0-3.319-1.422-3.319-3.395c0-1.925,1.448-3.37,3.319-3.37
		C294.262,46.681,295.713,48.126,295.713,50.051 M288.316,50.051c0,2.346,1.884,4.046,4.1,4.046c2.2,0,4.078-1.7,4.078-4.046
		c0-2.317-1.878-4.021-4.078-4.021C290.2,46.03,288.316,47.733,288.316,50.051 M291.56,48.325h0.961
		c0.821,0,1.037,0.246,1.037,0.691c0,0.51-0.282,0.762-1.154,0.762h-0.844V48.325z M291.56,50.37h0.806l1.236,2.026h0.784
		l-1.328-2.055c0.695-0.083,1.217-0.443,1.217-1.277c0-0.917-0.54-1.331-1.649-1.331h-1.78v4.663h0.715V50.37z"/>
	<path d="M287.254,11.467l-10.636,19.268l-10.276-19.268h-9.632c1.786,3.259,14.398,26.971,14.398,26.971s0,13.497,0,15.634h10.339
		c0.007-2.124,0.004-15.567,0.004-15.567s13.096-23.756,14.951-27.037H287.254z"/>
	<path d="M244.367,31.531c7.561-0.695,9.201-4.393,9.201-9.724c0-4.69-1.991-7.079-4.166-8.422c-1.824-1.146-3.982-1.919-8.51-1.919
		h-19.926v42.604h20.186c6.205,0,8.787-1.214,9.985-2.039c2.052-1.371,4.716-4.415,4.716-9.258
		C255.854,37.047,253.865,31.311,244.367,31.531 M239.266,47.882h-8.687v-0.041V17.604v-0.029h9.464c3.205,0,5.203,2.544,5.203,6.02
		c0,5.348-2.589,5.484-9.957,5.75v4.934c6.584-0.025,11.866-0.417,11.866,6.404C247.155,44.108,244.964,47.882,239.266,47.882"/>
	<polygon points="197.933,11.467 188.317,11.467 188.317,54.071 215.685,54.071 215.685,46.984 197.933,46.984 	"/>
	<path d="M171.612,39.158c0,7.561-2.643,9.287-10.052,9.287c-7.419,0-10.052-1.727-10.052-9.287V26.395
		c0-7.37,2.633-8.963,10.052-8.963c7.409,0,10.052,1.593,10.052,8.963V39.158z M175.86,13.842c-2.931-2.045-7.877-3.119-14.3-3.119
		c-6.278,0-10.836,0.874-14.335,3.135c-3.647,2.36-5.373,6.307-5.373,12.479v13.42c0,6.191,1.792,10.374,5.332,12.457
		c2.873,1.994,7.548,2.942,14.376,2.942c6.727,0,11.537-0.974,14.284-2.892c3.559-2.213,5.414-6.519,5.414-12.508v-13.42
		C181.259,20.458,179.444,16.254,175.86,13.842"/>
	<path d="M126.177,38.153c0,7.459-3.982,9.344-7.323,9.344H107.06V17.725h11.794c3.341,0,7.323,1.882,7.323,8.818V38.153z
		 M118.78,11.467H97.441v42.604h22.831c11.256,0,15.441-4.587,15.441-16.942v-9.363C135.714,16.036,130.969,11.467,118.78,11.467"/>
	<path d="M3.006,60.141h78.757V5.498H3.006V60.141z M21.275,53.06h-8.979V12.573h8.979c9.318,0,17.11,9.251,17.11,20.162
		C38.386,43.981,30.594,53.06,21.275,53.06 M72.492,53.06h-9.006c-9.327,0-17.104-9.078-17.104-20.324
		c0-10.911,7.776-20.162,17.104-20.162h9.006V53.06z"/>
</g>
</svg>
