<?xml version="1.0" encoding="UTF-8" standalone="no"?><!DOCTYPE svg PUBLIC "-//W3C//DTD SVG 1.1//EN" "http://www.w3.org/Graphics/SVG/1.1/DTD/svg11.dtd"><svg width="709px" height="872px" version="1.1" xmlns="http://www.w3.org/2000/svg" xmlns:xlink="http://www.w3.org/1999/xlink" xml:space="preserve" xmlns:serif="http://www.serif.com/" style="fill-rule:evenodd;clip-rule:evenodd;stroke-linejoin:round;stroke-miterlimit:2;"><g id="layer1"><g id="g6014"><path id="path4928" d="M582.708,296.251l-2.448,0l-4.897,-7.345c-7.345,-2.449 -14.69,0 -17.138,-7.345c-4.897,-2.449 -17.139,0 -19.587,-4.897c-4.897,-4.897 -12.242,-2.448 -14.69,-4.897c-9.794,-2.448 -14.691,-9.793 -22.036,-9.793c-4.896,-4.897 -12.241,-2.449 -17.138,-7.345l-2.448,2.448c-19.587,-4.897 -39.174,-4.897 -61.209,-4.897l-9.794,0c-19.586,2.449 -39.173,7.345 -58.76,9.794c-2.448,0 -4.897,0 -7.345,2.448c-22.035,12.242 -41.622,22.035 -61.209,34.277c-9.793,4.897 -17.138,9.793 -26.932,14.69l0,-306.044l2.449,-7.345l323.182,0l0,296.251Z" style="fill:#2056ad;fill-rule:nonzero;"/><path id="path4930" d="M323.183,7.345c17.138,4.897 22.035,17.139 26.932,31.829c-0,4.896 -0,12.242 2.448,19.587c-0,19.586 -0,41.622 -7.345,61.208c0,2.449 0,4.897 -2.448,7.346c-0,2.448 -4.897,4.896 -4.897,7.344c-4.897,9.794 -14.69,17.139 -26.932,17.139l-44.07,0l-0,-144.453l56.312,0Z" style="fill:#fff;"/><path id="path4932" d="M377.047,7.345c4.896,31.829 9.793,61.209 14.69,90.589c0,-4.896 0,-12.241 2.448,-19.587l9.793,-71.002l29.381,0c2.448,31.829 7.345,58.761 9.793,88.141l-0,2.448c4.897,-29.38 9.793,-58.76 14.69,-90.589l24.484,0c-7.345,48.967 -14.69,97.934 -24.484,144.453l-26.932,0l-12.242,-90.589l-2.448,0c-4.897,26.932 -7.345,61.209 -12.242,90.589c-7.345,2.448 -17.138,0 -26.931,0l-24.484,-142.004l-0,-2.449l24.484,0Z" style="fill:#fff;fill-rule:nonzero;"/><path id="path4934" d="M548.431,7.345c22.035,4.897 26.932,26.932 29.38,44.071c-2.448,2.448 -2.448,4.896 -0,7.345c-0,22.035 -0,48.967 -9.793,68.554c0,2.448 -2.448,2.448 -2.448,4.896c-7.345,9.794 -17.139,19.587 -34.277,19.587l-39.174,0l-0,-144.453l56.312,0Z" style="fill:#fff;fill-rule:nonzero;"/><path id="path4936" d="M323.183,48.967c7.345,22.035 9.793,56.312 -9.794,71.002c-7.345,2.449 -14.69,0 -22.035,2.449l0,-83.244c12.242,0 26.932,-2.448 31.829,9.793Z" style="fill:#2056ad;fill-rule:nonzero;"/><path id="path4938" d="M548.431,48.967c4.897,22.035 7.345,48.967 -4.897,66.106c-4.896,9.793 -17.138,4.896 -26.932,7.345l-0,-83.244c12.242,0 26.932,-2.448 31.829,9.793Z" style="fill:#2056ad;fill-rule:nonzero;"/><path id="path4940" d="M418.668,301.147c22.036,9.794 48.968,12.242 73.451,22.036c14.69,7.345 26.932,14.69 39.174,26.931c4.896,0 9.793,2.449 12.241,4.897c12.242,9.794 26.932,14.69 39.174,24.484c0,-24.484 0,-51.416 2.448,-78.348c0,-2.448 2.449,0 7.345,0c2.449,0 -2.448,9.794 4.897,7.345c2.448,4.897 9.793,4.897 14.69,7.345c19.587,19.587 34.277,41.623 51.416,61.209c2.448,4.897 7.346,4.897 4.896,12.242c-0,4.897 7.34,4.897 7.34,9.793l2.45,4.897l14.69,22.035c-2.44,2.449 -4.89,4.897 -2.44,9.794c2.44,0 2.44,0 4.89,-2.449c-0,4.897 -0,9.794 4.9,12.242c-0,4.897 -2.45,12.242 2.45,12.242c2.45,2.448 -2.45,2.448 -0,4.897c-0,2.448 2.45,4.896 4.89,7.345c-0,2.448 2.45,4.896 -0,7.345c-0,-0 -4.89,2.448 -0,4.896c2.45,2.449 -2.44,7.345 -0,12.242c-2.44,9.794 2.45,19.587 -2.44,26.932c-2.45,9.793 -4.9,19.587 -9.8,31.829c2.45,-0 -0,2.448 -0,2.448l-0,24.483c-4.89,14.691 -14.69,26.932 -12.24,44.071c-2.45,9.793 -7.35,17.138 -9.79,26.932c-7.348,7.345 -12.245,14.69 -14.693,24.483c-7.345,12.242 -14.69,22.035 -14.69,36.725c-9.794,17.139 -19.587,36.726 -34.277,51.416c-9.794,4.896 -17.139,12.242 -24.484,17.138c-0,2.449 -0,2.449 -2.448,2.449l0,-12.242c-2.448,-0 -2.448,-2.449 0,-2.449c-2.448,-2.448 0,-7.345 0,-9.793l0,-17.138c-2.448,-0 0,-4.897 -2.448,-4.897c-9.794,7.345 -14.69,22.035 -26.932,26.932c-34.277,14.69 -66.106,31.828 -107.728,31.828c-4.896,4.897 -12.241,9.794 -22.035,9.794c-7.345,0 -17.138,0 -22.035,4.897c-17.138,2.448 -34.277,7.344 -53.864,9.793c-2.448,0 -4.896,0 -4.896,2.448c-0,-0 -0,2.449 2.448,4.897c0,2.448 -2.448,2.448 -4.897,4.897c-14.69,-4.897 -19.587,-22.035 -36.725,-17.139c-9.793,2.448 -2.448,-9.793 -9.793,-7.345l-39.174,-0l-0,-132.211c-0,-0 -0,-2.448 2.448,-2.448c4.897,7.345 17.139,7.345 26.932,12.242c14.69,2.448 29.38,9.793 48.967,7.345c2.448,-0 7.345,7.345 12.242,2.448c2.448,2.448 7.345,-2.448 9.793,2.448c0,2.449 4.897,-0 7.345,2.449c14.691,-4.897 31.829,-9.794 48.967,-9.794c7.345,-4.896 14.69,-9.793 24.484,-12.242c17.138,-4.896 34.277,-12.241 44.07,-26.931c14.69,-17.139 34.277,-31.829 46.519,-53.864c9.793,-17.139 17.138,-39.174 17.138,-61.209l-0,-9.793c-0,-29.381 -14.69,-53.864 -29.38,-75.899c-19.587,-22.035 -41.622,-44.071 -73.45,-46.519l-29.381,-0c-2.448,-0 -0,7.345 -4.896,4.897c-7.345,-2.449 -12.242,4.897 -19.587,2.448c-12.242,4.897 -24.484,12.242 -36.725,17.139c-4.897,14.69 -24.484,17.138 -26.932,34.277c-7.345,9.793 -12.242,19.586 -14.69,31.828c0,14.69 -2.449,29.38 4.896,39.174c7.345,12.242 17.139,24.483 31.829,29.38c14.69,0 31.829,2.448 41.622,-4.897c12.242,-4.896 24.483,-12.241 31.828,-22.035c2.449,-9.793 -2.448,-17.138 -7.345,-24.483c0,-2.449 0,-4.897 -2.448,-4.897c-7.345,0 -14.69,0 -19.587,-7.345c0,-7.345 2.449,-14.69 7.345,-17.139c7.345,-4.896 12.242,-9.793 22.035,-7.345c2.449,-2.448 4.897,2.449 9.794,0c24.483,0 36.725,24.484 44.07,44.071c4.897,14.69 12.242,31.828 7.345,48.967c-7.345,19.586 -12.241,39.173 -26.932,53.863c-24.483,17.139 -51.415,26.932 -78.347,34.277c-24.483,2.449 -48.967,2.449 -68.554,-4.896c-17.138,-7.345 -34.277,-14.69 -48.967,-26.932l-2.448,0l-0,41.622c-19.587,-7.345 -41.622,-22.035 -44.07,-46.519c-2.449,-2.448 -7.345,0 -7.345,-2.448c0,0 0,-4.897 -2.449,-4.897c-4.896,-2.448 -4.896,-9.793 -12.242,-9.793c-2.448,-2.449 -0,-4.897 -0,-7.345c-9.793,-19.587 -22.035,-39.174 -31.828,-58.761l0,-9.793c0,-4.897 -2.449,-19.587 4.897,-24.484c4.896,0 4.896,4.897 7.345,7.345c4.896,2.449 12.241,4.897 17.138,2.449c0,-4.897 -4.897,-7.345 -7.345,-9.794c-2.448,-2.448 -4.897,-9.793 -9.793,-7.345c-7.345,2.448 -7.345,-7.345 -14.691,-2.448c-2.448,-29.38 9.794,-51.416 17.139,-73.451c12.242,-31.828 31.829,-58.76 53.864,-80.795c7.345,-2.449 12.242,-7.345 14.69,-12.242c4.896,-4.897 9.793,-7.345 14.69,-7.345l2.448,0l-0,41.622c2.449,2.448 7.345,0 9.794,-2.448c12.241,-7.346 24.483,-14.691 36.725,-22.036c4.897,-4.896 9.793,-7.345 14.69,-9.793c14.69,-9.794 36.725,-12.242 53.864,-19.587c9.793,-2.448 22.035,-4.897 29.38,-7.345c7.345,-2.448 9.793,4.897 17.138,2.448Zm171.385,88.141c-2.448,-2.448 -4.897,-4.897 -7.345,-4.897l2.448,345.218c2.449,-4.897 4.897,-9.793 9.794,-12.242c22.035,-36.725 39.173,-73.45 48.967,-117.521c2.448,-22.035 0,-51.415 0,-80.795c-2.449,-9.794 -4.897,-24.484 -2.449,-34.277c-9.793,-36.725 -26.931,-68.554 -51.415,-95.486Zm-335.424,232.593l0,-252.18c-17.138,17.139 -31.829,36.725 -44.07,58.761c-4.897,-0 -2.449,2.448 -2.449,4.896c-7.345,19.587 -17.138,36.726 -19.587,58.761c0,12.242 -2.448,29.38 4.897,39.173c9.794,31.829 26.932,63.658 56.312,88.141c0,-0 2.449,2.448 4.897,2.448Z" style="fill:#2056ad;"/><path id="path4946" d="M78.348,435.807c-2.449,7.345 4.896,9.793 2.448,14.69c-4.897,2.448 -9.793,2.448 -12.242,7.345c2.449,4.897 -9.793,9.793 -0,12.242c-0,2.448 -2.448,4.896 -2.448,7.345c-2.449,-0 -4.897,-2.449 -4.897,-0c-7.345,4.896 -4.896,17.138 -7.345,24.483c2.449,4.897 7.345,-2.448 7.345,4.897c2.448,4.897 0,12.242 -2.448,17.138c-2.448,9.794 -2.448,24.484 -0,36.726c-0,-0 2.448,-0 2.448,2.448c4.897,31.829 14.69,61.209 24.484,93.037c2.448,7.345 7.345,14.69 14.69,17.139c-0,17.138 9.793,31.828 22.035,39.173c4.897,7.346 2.448,17.139 7.345,22.036c7.345,12.241 19.587,24.483 31.829,31.828c7.345,4.897 2.448,12.242 2.448,19.587c-0,4.897 -7.345,2.448 -9.794,7.345c-17.138,0 -29.38,-4.897 -36.725,-12.242c-9.793,-9.793 -24.483,-14.69 -31.828,-26.932c-14.69,-24.483 -39.174,-41.622 -51.416,-68.553c-9.793,-12.242 -17.138,-26.932 -22.035,-41.622c-4.897,-14.69 -9.793,-29.381 -12.242,-46.519l-0,-39.174c-0,-12.241 4.897,-19.586 9.794,-29.38c4.897,-2.448 2.448,-9.793 7.345,-12.242c4.897,-9.793 14.69,-12.241 17.138,-22.035c2.449,-2.448 -0,-9.793 4.897,-9.793c7.345,-0 4.897,-9.794 7.345,-12.242c7.345,-14.69 19.587,-22.035 26.932,-36.725c-0,-0 4.897,-2.449 4.897,-0Z" style="fill:#2056ad;fill-rule:nonzero;"/><path id="path4948" d="M582.708,871.613l-328.079,0c-2.448,-14.69 -2.448,-24.483 0,-39.173c2.448,-2.449 7.345,0 12.242,2.448c2.448,2.448 9.793,2.448 12.241,4.897c9.794,0 14.691,7.345 24.484,4.896c12.242,-2.448 22.035,-9.793 36.725,-12.241c2.449,0 4.897,0 7.345,2.448c0,9.793 9.794,7.345 17.139,9.793c14.69,7.345 36.725,4.897 53.863,4.897c17.139,-2.448 31.829,-7.345 46.519,-12.242c22.035,-7.345 41.622,-12.241 63.657,-19.587c7.345,-7.344 19.587,-9.793 26.932,-14.69c4.897,-7.345 9.794,-12.241 17.139,-14.69c2.448,0 7.345,-7.345 9.793,-7.345l0,90.589Z" style="fill:#2056ad;fill-rule:nonzero;"/><path id="path4950" d="M183.627,788.369c2.448,2.449 4.896,0 7.345,2.449c12.242,-2.449 29.38,-2.449 34.277,12.241c2.448,2.449 -0,9.794 4.896,12.242c7.346,0 14.69,-7.345 24.484,-4.896c-0,7.344 -0,14.69 -2.448,19.586c-4.897,-2.448 -9.794,-2.448 -14.69,-7.345c-4.897,0 -7.346,4.897 -12.242,4.897c-9.794,0 -24.484,2.448 -34.277,-2.448c-9.794,-7.346 -19.587,-12.242 -26.932,-19.587c-0,-7.345 4.897,-9.794 7.345,-14.69c4.897,-2.449 7.345,-2.449 12.242,-2.449Z" style="fill:#2056ad;fill-rule:nonzero;"/></g></g></svg>