<?xml version="1.0" encoding="UTF-8" standalone="no"?>
<!-- Generator: Adobe Illustrator 19.2.1, SVG Export Plug-In . SVG Version: 6.00 Build 0)  -->

<svg
   version="1.1"
   id="layer"
   x="0px"
   y="0px"
   viewBox="0 0 512 84"
   xml:space="preserve"
   sodipodi:docname="ecoflow.svg"
   width="512"
   height="84"
   inkscape:version="1.4.2 (ebf0e940d0, 2025-05-08)"
   xmlns:inkscape="http://www.inkscape.org/namespaces/inkscape"
   xmlns:sodipodi="http://sodipodi.sourceforge.net/DTD/sodipodi-0.dtd"
   xmlns="http://www.w3.org/2000/svg"
   xmlns:svg="http://www.w3.org/2000/svg"><defs
   id="defs1" /><sodipodi:namedview
   id="namedview1"
   pagecolor="#ffffff"
   bordercolor="#666666"
   borderopacity="1.0"
   inkscape:showpageshadow="2"
   inkscape:pageopacity="0.0"
   inkscape:pagecheckerboard="0"
   inkscape:deskcolor="#d1d1d1"
   inkscape:zoom="2.1671779"
   inkscape:cx="325.76929"
   inkscape:cy="104.5138"
   inkscape:window-width="3072"
   inkscape:window-height="1664"
   inkscape:window-x="0"
   inkscape:window-y="0"
   inkscape:window-maximized="1"
   inkscape:current-layer="layer" />
<style
   type="text/css"
   id="style1">
	.st0{fill:#212121;}
</style>
<path
   class="st0"
   d="M 73.679999,24.92 H 16 v -8.56 h 57.679999 z m -0.07999,21.35998 H 16 V 37.72 h 57.6 z m 0,12.80001 V 67.64 H 16 V 59.07999 Z M 135.76,25 115.19999,25.0799 c -13.75999,3e-5 -20.239986,5.60003 -20.239986,16.96002 0,11.35999 6.479996,17.04 20.159996,17.04 h 28.8 v 8.47999 l -28.8,0.0799 c -19.200001,0 -28.799994,-8.48 -28.799994,-25.44 0,-17.03999 9.519997,-25.52 28.559994,-25.6 h 29.11999 v 8.56001 c 0,-0.15997 -8.23999,-0.15997 -8.23999,-0.15997 z m 49.60001,-8.47999 c 19.35998,0 28.96,8.47999 28.96,25.51998 0,17.04 -9.60002,25.51999 -28.80001,25.51999 -19.2,0 -28.79999,-8.47999 -28.79999,-25.43999 C 156.79991,25.08 166.32,16.6 185.36001,16.52001 Z m 20.31998,25.51998 C 205.67999,30.68 199.28,25.08 185.52,25.08 c -13.76,0 -20.08,5.6 -20.08,16.95999 0,11.35999 6.32,17.04 20.08,17.04 13.76,0 20.15999,-5.68001 20.15999,-17.04 z M 487.76,16.52001 v 42.47998 h -16.48 v -42.56 h -8.23999 v 42.56 H 446.56 V 16.36 h -8.24 v 51.19998 h 49.44 c 6.16,0 8.24,-3.27999 8.24,-8.47999 v -42.64 z M 355.19999,59.07999 H 311.92 c -3.36,0 -6.16001,-2.72 -6.16001,-6.15999 V 16.43999 h -8.16 v 38.72 c 0,6.88 5.52002,12.39999 12.40001,12.39999 h 45.19999 z m 41.28,-42.55998 c 19.36001,0 28.96,8.47999 28.96,25.51998 0,17.04 -9.59999,25.51999 -28.79999,25.51999 -19.20001,0 -28.8,-8.47999 -28.8,-25.43999 C 367.9199,25.08 377.43999,16.6 396.47999,16.52001 Z m 20.4,25.51998 C 416.87999,30.68 410.48,25.08 396.72,25.08 c -13.76,0 -20.07999,5.6 -20.07999,16.95999 0,11.35999 6.31999,17.04 20.07999,17.04 13.68,0 20.15999,-5.68001 20.15999,-17.04 z M 229.04001,16.36 H 285.68 v 8.08 H 229.04001 Z M 285.68,46.43998 h -48.56001 v 21.12 h -8.07998 V 37.88001 H 285.68 Z"
   id="path1"
   sodipodi:insensitive="true"
   style="stroke-width:0.8" />
</svg>
