<?xml version="1.0" standalone="no"?>
<!DOCTYPE svg PUBLIC "-//W3C//DTD SVG 20010904//EN"
 "http://www.w3.org/TR/2001/REC-SVG-20010904/DTD/svg10.dtd">
<svg version="1.0" xmlns="http://www.w3.org/2000/svg"
 width="1822.000000pt" height="258.000000pt" viewBox="0 0 1822.000000 258.000000"
 preserveAspectRatio="xMidYMid meet">
<metadata>
Created by potrace 1.16, written by Peter Selinger 2001-2019
</metadata>
<g transform="translate(0.000000,258.000000) scale(0.100000,-0.100000)"
fill="#000000" stroke="none">
<path d="M2139 2556 c-3 -3 -50 -10 -105 -16 -197 -21 -260 -29 -309 -39 -27
-6 -63 -14 -80 -17 -16 -3 -48 -9 -70 -14 -22 -4 -67 -14 -100 -21 -48 -10
-262 -70 -385 -109 -119 -37 -411 -171 -480 -220 -14 -10 -49 -32 -79 -50
-122 -71 -309 -247 -385 -361 -111 -166 -153 -307 -142 -479 9 -140 63 -277
161 -415 79 -110 273 -282 413 -366 82 -49 248 -135 287 -149 11 -4 40 -17 65
-28 89 -40 347 -127 425 -143 22 -4 63 -13 90 -19 178 -42 264 -58 365 -70 52
-6 123 -15 156 -21 34 -5 166 -12 293 -16 l232 -6 -3 59 -3 59 -40 7 c-22 4
-112 10 -200 13 -185 7 -387 34 -623 81 -18 3 -35 10 -38 15 -3 5 -18 9 -34 9
-16 0 -31 4 -34 9 -3 5 -18 11 -33 14 -44 8 -223 57 -241 66 -17 9 -53 24 -94
40 -26 9 -214 104 -268 134 -142 79 -347 260 -432 382 -145 209 -168 466 -61
678 94 189 295 381 528 507 44 24 94 51 110 60 17 9 62 29 100 44 39 15 84 34
100 41 102 47 319 106 575 156 133 27 441 58 572 59 121 0 123 1 116 86 l-3
39 -171 3 c-93 1 -172 0 -175 -2z"/>
<path d="M16550 2509 c-192 -25 -386 -78 -530 -147 -165 -78 -339 -242 -398
-374 -54 -122 -53 -107 -50 -798 l3 -645 70 -3 c38 -2 80 0 92 3 l23 5 0 580
0 580 995 0 995 0 2 -582 3 -583 96 -3 c72 -2 98 1 100 10 2 7 2 314 -1 683
-6 656 -6 671 -27 723 -35 86 -71 141 -142 212 -172 173 -435 288 -761 330
-110 15 -384 20 -470 9z m392 -110 c103 -15 174 -33 309 -76 81 -25 186 -76
259 -126 49 -33 180 -163 180 -178 0 -5 8 -22 17 -36 23 -34 43 -91 43 -120
l0 -23 -980 0 c-977 0 -980 0 -980 20 0 39 38 128 78 182 105 142 291 253 532
317 25 7 59 17 76 22 17 5 46 9 65 10 19 1 45 5 59 9 38 12 260 11 342 -1z"/>
<path d="M7645 2499 c-164 -12 -323 -40 -475 -86 -47 -14 -95 -27 -108 -30
-12 -3 -25 -9 -28 -14 -3 -5 -12 -9 -20 -9 -36 0 -241 -105 -356 -182 -213
-142 -375 -354 -403 -523 -3 -22 -11 -61 -17 -87 -16 -78 13 -236 65 -342 41
-86 79 -138 161 -220 90 -92 176 -160 251 -202 44 -23 70 -39 75 -44 13 -15
185 -89 270 -116 25 -8 54 -19 65 -23 19 -8 58 -19 145 -41 22 -5 57 -14 78
-20 74 -19 256 -38 432 -46 176 -7 475 19 625 55 22 6 54 13 70 16 17 4 39 10
50 14 11 5 52 18 90 30 385 121 683 341 806 597 46 95 59 156 59 281 0 125
-14 195 -60 289 -69 144 -243 321 -412 421 -214 125 -404 194 -698 252 -179
35 -438 47 -665 30z m500 -127 c137 -18 274 -48 380 -84 259 -85 501 -241 622
-400 89 -117 143 -261 143 -379 0 -118 -55 -263 -140 -374 -64 -83 -238 -235
-270 -235 -5 0 -10 -4 -10 -9 0 -5 -8 -11 -17 -14 -10 -4 -36 -17 -58 -30 -22
-13 -76 -38 -120 -56 -113 -47 -115 -48 -160 -62 -22 -6 -48 -15 -57 -20 -10
-5 -28 -9 -41 -9 -13 0 -27 -4 -32 -9 -6 -5 -73 -19 -150 -32 -119 -20 -175
-23 -380 -23 -148 0 -269 5 -315 12 -114 20 -182 33 -210 42 -14 4 -45 13 -70
20 -42 11 -54 16 -112 39 -13 5 -39 15 -58 22 -62 22 -164 72 -207 101 -23 15
-44 28 -48 28 -14 0 -145 108 -198 164 -74 76 -108 126 -145 207 -46 102 -52
129 -52 240 0 143 37 247 134 376 104 138 284 263 541 374 90 38 328 94 500
117 83 11 430 7 530 -6z"/>
<path d="M12570 2464 c0 -6 94 -137 250 -349 36 -49 88 -121 115 -159 28 -37
82 -112 120 -165 39 -53 100 -136 135 -186 36 -49 67 -92 71 -95 3 -3 20 -27
39 -54 18 -27 61 -86 94 -132 34 -45 83 -113 110 -151 27 -37 66 -92 88 -120
21 -29 55 -77 76 -105 21 -29 56 -78 78 -108 23 -30 63 -86 90 -124 27 -37 76
-104 108 -149 l59 -80 19 24 c10 13 21 29 26 34 4 6 19 26 32 45 14 19 30 42
37 50 11 14 137 184 293 395 98 133 213 288 227 305 6 8 46 62 89 120 42 58
98 133 123 166 25 34 54 72 63 85 9 13 67 92 128 174 62 83 155 209 207 280
53 72 122 165 155 207 32 42 58 79 58 82 0 3 -51 6 -114 6 l-114 0 -56 -75
c-31 -41 -82 -110 -113 -152 -31 -43 -87 -118 -123 -168 -37 -49 -88 -119
-114 -155 -26 -36 -53 -72 -59 -80 -7 -8 -23 -31 -37 -50 -13 -19 -67 -93
-120 -165 -53 -71 -118 -161 -145 -199 -28 -37 -90 -123 -139 -190 -49 -66
-113 -152 -141 -191 -28 -38 -73 -99 -99 -135 -27 -36 -51 -71 -53 -77 -3 -7
-10 -13 -17 -13 -10 0 -36 34 -225 293 -77 106 -99 136 -222 303 -41 56 -110
150 -153 210 -44 60 -109 150 -146 199 -36 50 -77 106 -90 125 -13 19 -27 37
-30 40 -3 3 -17 21 -30 40 -26 38 -104 145 -243 333 l-87 117 -110 0 c-61 0
-110 -3 -110 -6z"/>
<path d="M3016 2453 c-3 -4 -6 -138 -6 -297 l1 -291 -1063 -3 -1063 -2 -57
-57 c-32 -32 -58 -61 -58 -65 0 -4 504 -8 1120 -8 l1120 0 0 -585 c0 -679 -16
-607 133 -603 l92 3 3 593 2 592 186 0 185 0 -3 63 -3 62 -182 3 -183 2 0 205
c0 113 3 205 6 205 4 0 23 -9 43 -20 33 -18 239 -117 556 -270 276 -132 404
-194 513 -247 l113 -55 252 125 c595 295 986 487 991 487 3 0 6 -391 6 -869 0
-783 2 -869 16 -875 32 -12 171 -6 183 8 8 10 10 257 5 952 -3 517 -8 941 -11
944 -3 3 -47 5 -99 5 l-93 0 -613 -308 -613 -307 -90 44 c-80 40 -190 93 -600
291 -60 29 -200 97 -310 150 -290 141 -273 135 -379 135 -51 0 -96 -3 -100 -7z"/>
<path d="M9194 2446 c-3 -8 -4 -31 -2 -52 l3 -39 535 -5 535 -5 5 -905 5 -905
75 -1 c41 -1 83 2 93 7 16 9 17 63 17 909 l0 900 538 2 537 3 0 50 0 50 -1168
3 c-993 2 -1168 0 -1173 -12z"/>
<path d="M12100 1506 l0 -956 23 -5 c12 -3 56 -5 97 -3 l75 3 0 955 0 955 -97
3 -98 3 0 -955z"/>
<path d="M17995 2401 c-47 -28 -65 -63 -65 -123 0 -69 38 -119 103 -138 40
-11 50 -10 90 8 26 12 52 32 63 51 10 17 22 31 26 31 4 0 8 23 8 50 0 28 -4
50 -8 50 -5 0 -15 11 -22 25 -33 61 -133 84 -195 46z m141 -27 c29 -19 54 -63
54 -94 0 -27 -27 -80 -41 -80 -15 0 -48 42 -49 62 0 9 5 20 10 23 33 20 -8 75
-56 75 -43 0 -54 -21 -54 -99 0 -65 -10 -77 -28 -36 -25 53 -9 115 38 152 22
18 97 16 126 -3z m-57 -53 c18 -11 5 -31 -20 -31 -12 0 -19 7 -19 20 0 21 16
26 39 11z m10 -100 c44 -42 40 -51 -22 -51 -40 0 -66 14 -43 23 10 4 16 18 16
37 0 16 2 30 4 30 2 0 23 -18 45 -39z"/>
</g>
</svg>
