<svg xmlns="http://www.w3.org/2000/svg" width="512" height="512"><path fill="#FDFDFC" d="M0 0h512v512H0z"/><path fill="#FDFDFC" d="m109.69 47.823 2.692-.02q4.412-.028 8.825-.041l3.045-.013q7.976-.03 15.951-.044c5.492-.011 10.983-.046 16.474-.085 4.223-.026 8.446-.035 12.67-.038a899 899 0 0 0 6.072-.035c2.835-.025 5.668-.024 8.502-.017l2.527-.039c6.106.055 9.696 1.737 14.161 6.071 3.594 4.53 5.636 7.553 5.658 13.383l.026 3.016-.002 3.29.02 3.48c.019 3.803.023 7.606.025 11.41l.02 7.929q.018 8.318.015 16.635c-.002 6.396.02 12.792.051 19.188.03 6.164.037 12.33.035 18.494q.004 3.925.027 7.851c.02 3.665.014 7.329.002 10.993l.034 3.266c-.062 7.404-1.123 13.125-6.59 18.562l-2.055 1.378-2.07 1.434c-4.024 2.517-7.608 2.305-12.243 2.338l-2.646.03c-2.9.03-5.8.05-8.701.07l-3.003.02q-7.874.048-15.748.076-6.508.027-13.016.103c-5.24.06-10.482.09-15.723.1q-2.991.013-5.982.057c-18.844.263-18.844.263-25.258-5.063-4.339-4.681-6.597-8.944-6.639-15.427l-.026-3.011-.013-3.301-.025-3.48a4167 4167 0 0 1-.055-11.426l-.017-3.94c-.02-5.465-.04-10.93-.051-16.396q-.023-11.73-.107-23.46-.056-8.257-.063-16.515-.005-4.927-.048-9.854c-.032-3.67-.032-7.338-.024-11.008l-.05-3.27c.063-7.617 1.765-12.63 7.182-18.07 5.174-4.537 9.551-4.6 16.142-4.621"/><path fill="#FA9F13" d="M50 57c1.83.077 1.83.077 4 1 1.84 2.474 1.84 2.474 3.723 5.773l1.037 1.793a679 679 0 0 1 3.303 5.809q1.136 1.988 2.276 3.974 1.714 2.986 3.416 5.978a528 528 0 0 0 6.843 11.685l1.572 2.625q1.421 2.37 2.87 4.726c3.072 5.188 3.072 5.188 1.96 9.637l-19 1a14082 14082 0 0 0-1.093 56.119c-.152 8.685-.315 17.37-.505 26.056q-.25 11.353-.428 22.708c-.064 4.01-.138 8.017-.238 12.026a851 851 0 0 0-.202 11.317q-.03 2.077-.094 4.155c-.118 3.938-.176 7.74.56 11.619 3.376 3.413 5.16 3.878 9.875 4.563 4.251-.189 7.066-2.034 10.46-4.47C82 254 82 254 84 254v-2c1.496-1.437 1.496-1.437 3.438-3 2.714-2.145 2.714-2.145 4.562-5h2l.785-1.77c7.134-13.098 23.95-22.758 37.668-27.398 17.491-4.103 33.321 2.085 48.543 10.125 3.298 1.717 6.643 3.327 10.004 4.918l3.5 1.68c12.31 5.083 25.491 5.2 37.855.27 5.923-2.798 11.299-6.58 16.72-10.227 12.001-8.046 23.3-11.465 37.82-9.133 12.884 3.115 23.418 11.115 33.558 19.316C331.221 240.475 342.405 248.51 357 247c13.847-3.525 21.19-12.04 29.48-23.012 2.695-3.525 5.48-6.976 8.27-10.425l1.571-1.969c5.265-6.512 10.49-12.328 17.866-16.469l3.043-1.742c7.83-3.91 16.552-3.316 24.726-.69 3.946 1.358 7.845 2.796 11.685 4.432 5.93 2.2 11.55 1.842 17.28-.773 3.462-1.71 6.859-3.538 10.252-5.377 6.734-3.593 13.097-6.235 20.827-4.975 2.563 1.063 2.563 1.063 4 3 .747 5.976.747 5.976-1.2 8.645-2.316 1.743-4.2 2.025-7.05 2.542-6.832 1.548-12.366 4.557-18.402 7.973-9.612 5.283-18.807 5.834-29.336 2.875-3.153-1.084-6.154-2.368-9.2-3.722-5.099-2.176-9.308-3.67-14.812-2.313-11.905 5.218-18.946 15.311-26.65 25.262-21.005 27.063-21.005 27.063-37.8 30.43-21.293 1.85-36.065-6.74-52.175-19.817-9.558-7.755-20.178-15.905-33.203-15.143-7.89.974-14.364 4.22-20.922 8.518-5.523 3.49-11.038 6.87-16.875 9.813l-3.164 1.597c-13.175 5.498-29.411 5.27-42.734.305-7.041-2.932-13.768-6.64-20.435-10.331-11.506-6.287-23.67-10.198-36.839-6.943-13.14 4.877-23.704 15.027-32.766 25.434-8.047 9.137-17.985 17.925-30.374 19.938-7.64.395-14.475-2.445-20.376-7.188-7.742-7.655-10.805-16.47-13.25-26.875-3.97-16.78-3.97-16.78-15.437-29-3.097-1.668-5.679-2.08-9.125-2.375C10 208 10 208 7.938 206.313c-1.276-3.146-.85-5.085.062-8.313 2.701-2.701 4.716-2.701 8.434-3.023 11.034.1 18.198 6.618 25.566 14.023.135-32.683-.182-65.327-1-98l-19-1c-1.15-5.754.02-7.675 2.875-12.375l1.246-2.127A756 756 0 0 1 30 89l2.254-3.82c3.989-6.742 8.104-13.406 12.246-20.055l1.314-2.111C48.877 58.123 48.877 58.123 50 57"/><path fill="#324140" d="m109.69 47.823 2.692-.02q4.412-.028 8.825-.041l3.045-.013q7.976-.03 15.951-.044c5.492-.011 10.983-.046 16.474-.085 4.223-.026 8.446-.035 12.67-.038a899 899 0 0 0 6.072-.035c2.835-.025 5.668-.024 8.502-.017l2.527-.039c6.106.055 9.696 1.737 14.161 6.071 3.594 4.53 5.636 7.553 5.658 13.383l.026 3.016-.002 3.29.02 3.48c.019 3.803.023 7.606.025 11.41l.02 7.929q.018 8.318.015 16.635c-.002 6.396.02 12.792.051 19.188.03 6.164.037 12.33.035 18.494q.004 3.925.027 7.851c.02 3.665.014 7.329.002 10.993l.034 3.266c-.062 7.404-1.123 13.125-6.59 18.562l-2.055 1.378-2.07 1.434c-4.024 2.517-7.608 2.305-12.243 2.338l-2.646.03c-2.9.03-5.8.05-8.701.07l-3.003.02q-7.874.048-15.748.076-6.508.027-13.016.103c-5.24.06-10.482.09-15.723.1q-2.991.013-5.982.057c-18.844.263-18.844.263-25.258-5.063-4.339-4.681-6.597-8.944-6.639-15.427l-.026-3.011-.013-3.301-.025-3.48a4167 4167 0 0 1-.055-11.426l-.017-3.94c-.02-5.465-.04-10.93-.051-16.396q-.023-11.73-.107-23.46-.056-8.257-.063-16.515-.005-4.927-.048-9.854c-.032-3.67-.032-7.338-.024-11.008l-.05-3.27c.063-7.617 1.765-12.63 7.182-18.07 5.174-4.537 9.551-4.6 16.142-4.621M98.358 61.805c-1.597 2.583-1.736 4.03-1.745 7.046l-.03 2.953.014 3.22-.02 3.405c-.02 3.72-.015 7.44-.01 11.16q-.007 3.876-.015 7.75-.014 8.124.003 16.249c.011 6.256-.003 12.512-.03 18.769a3479 3479 0 0 0-.02 18.071q0 3.842-.019 7.683c-.014 3.58-.004 7.157.013 10.736l-.029 3.214c.045 4.423.088 7.173 2.331 11.055 7.034 6.024 19.243 4.175 28.02 4.15l4.889.005q5.1.005 10.202-.01c4.345-.012 8.69-.005 13.035.007q5.04.009 10.079 0 2.403-.003 4.805.005c2.242.005 4.483-.003 6.725-.014l3.854-.005c5.19-.367 9.259-1.27 13.466-4.379 4.263-5.768 3.274-14.076 3.27-21.02l.01-2.979q.013-4.845.013-9.689l.01-6.768q.009-7.081.007-14.162c0-6.04.014-12.078.031-18.117q.015-6.985.013-13.97 0-3.339.013-6.679c.01-3.115.007-6.23 0-9.346.007-.913.012-1.825.018-2.765.006-9.732.006-9.732-4.698-17.818-4.41-2.69-8.232-2.716-13.243-2.723l-2.366-.015q-3.878-.021-7.754-.027l-5.392-.017q-5.655-.015-11.31-.02c-4.826-.006-9.651-.03-14.476-.058-3.714-.019-7.428-.024-11.142-.026a937 937 0 0 1-5.335-.024 790 790 0 0 0-7.475-.008l-2.215-.028c-5.473.044-9.725 1.046-13.497 5.189"/><path fill="#5CAA6C" d="M50 57c1.83.077 1.83.077 4 1 1.84 2.474 1.84 2.474 3.723 5.773l1.037 1.793a679 679 0 0 1 3.303 5.809q1.136 1.988 2.276 3.974 1.714 2.986 3.416 5.978a528 528 0 0 0 6.843 11.685l1.572 2.625q1.421 2.37 2.87 4.726c3.072 5.188 3.072 5.188 1.96 9.637l-19 1-2 143h-2c-4.72-7.98-7.209-15.701-9.175-24.704l-.552-2.464-.455-2.165c-.748-2.438-1.692-4.414-2.83-6.685-2.31-5.18-2.6-9.753-2.626-15.367l-.06-3.019c-.062-3.262-.096-6.524-.13-9.787a3830.862 3830.862 0 0 1-.374-24.71c-.08-6.094-.182-12.187-.282-18.28A11360 11360 0 0 1 41 111l-19-1c-1.15-5.754.02-7.675 2.875-12.375l1.246-2.127A756 756 0 0 1 30 89l2.254-3.82c3.989-6.742 8.104-13.406 12.246-20.055l1.314-2.111C48.877 58.123 48.877 58.123 50 57"/><path fill="#313E3F" d="M370.313 299.875c2.368 1.218 3.784 2.222 5.687 4.125l2-5q3.468-.04 6.938-.062l3.902-.036C392 299 392 299 393 300c.104 1.665.139 3.335.145 5.004l.02 3.238.003 3.535.01 3.624q.007 3.81.007 7.624c.002 3.865.02 7.73.04 11.594q.005 3.705.005 7.408l.022 3.48c-.03 10.777-.81 20.211-8.252 28.493-8.94 7.591-18.558 8.84-29.996 8.204-7.016-.714-13.963-3.163-19.004-8.204 1.258-4.508 2.904-7.491 6-11l2.125.875c7.936 3.106 15.705 4.786 24.168 2.508 3.586-1.728 5.208-3.883 6.644-7.445C375.752 356.4 376 354.71 376 352l-3.375 1.938c-7.086 4.068-14.494 4.208-22.527 2.414-6.785-2.447-11.86-6.312-15.38-12.664-4.333-9.41-5.081-18.297-1.765-28.231 3.001-7.044 7.244-13.111 14.246-16.531 7.188-2.376 16.172-2.076 23.113.949"/><path fill="#2F3A3D" d="m97.055 277.87 3.266-.009 3.554.006 3.62-.003q3.8 0 7.597.006 5.836.005 11.674-.007 3.68 0 7.359.004l3.554-.006 3.266.01 2.891.002C146 278 146 278 147 279v15l-37 1v15c3.34.09 3.34.09 6.746.184q3.222.092 6.444.188 2.244.065 4.49.125 3.22.088 6.441.187l3.92.11C141 311 141 311 142 312c.073 2.353.084 4.708.063 7.062l-.028 3.91L142 326c-2.974 1.487-5.663 1.111-8.977 1.098l-2.076-.005c-2.19-.005-4.381-.018-6.572-.03q-2.226-.008-4.453-.014c-3.64-.01-7.281-.03-10.922-.049v16h38v16H91c-.04-19.925-.04-19.925-.049-28.389q-.008-8.677-.026-17.356-.016-6.993-.02-13.986-.003-2.673-.01-5.348-.01-3.732-.009-7.464l-.01-2.256c.012-5.982.278-6.325 6.179-6.33"/><path fill="#313E3F" d="M132 393c6.875 5.673 10.354 13.262 11.344 22.055.284 9.294-1.678 16.798-7.543 24.09-7.024 7.237-14.674 9.887-24.613 10.23-8.942-.152-16.082-2.508-22.657-8.68-6.943-7.687-9.017-15.762-8.777-25.96.79-8.787 4.766-15.393 11.027-21.462 12.435-10.345 28.29-8.842 41.219-.273"/><path fill="#313F3F" d="M369.277 391.543c4.625 4.273 7.265 9.496 7.993 15.787.09 2.54.094 5.063.058 7.604l-.006 2.783q-.01 2.887-.04 5.776c-.032 2.96-.042 5.92-.048 8.88l-.03 5.623-.014 2.692c-.073 6.195-.073 6.195-1.19 7.312-2.353.073-4.708.084-7.062.063l-3.91-.028L362 448l-2-5-2.625 1.875c-6.943 4.372-13.307 4.83-21.375 4.125-4.666-1.158-8.659-3.566-12-7-2.637-4.85-3.602-9.479-3-15 1.819-6.1 4.788-9.57 10-13 9.399-4.83 19.72-4.13 30-4-.54-3.475-.54-3.475-2-7-4.473-2.51-9.964-2.779-15-2-2.87 1.794-4.491 2.983-6 6-4.836-.99-9.476-1.957-14-4 .106-4.332 1.213-6.626 4.125-9.687 10.849-10.071 29.118-9.923 41.152-1.77"/><path fill="#303D3E" d="M266.625 300.063c8.478 5.147 13.09 11.448 15.969 20.882.484 2.45.538 4.746.531 7.243l.008 2.667C283 333 283 333 282 334c-1.35.093-2.707.117-4.06.114h-2.61l-2.834-.016-2.888-.005c-3.057-.005-6.114-.018-9.17-.03q-3.102-.008-6.202-.014-7.617-.017-15.236-.049l1.344 3.352.756 1.885c1.923 3.766 5.024 5.471 8.9 6.763 5.98.586 10.061-.79 15-4a64 64 0 0 0 3-3c4.98 1.51 8.243 4.557 12 8-3.198 6.988-8.665 9.555-15.535 12.203-9.646 3.119-18.896 2.004-27.961-2.422-6.88-4.177-10.725-9.657-13.879-16.969-1.787-10.902-1.526-20.777 4.918-30.027 9.336-11.472 25.25-16.243 39.082-9.723"/><path fill="#324140" d="M238.75 391.125c6.473 5.099 10.63 12.872 12.25 20.875.65 7.699.65 7.699-1 11h-43c3.06 7.589 3.06 7.589 6.625 10 5.194 1.539 10.379 2.152 15.54.168 2.568-1.411 4.5-2.497 5.835-5.168 4.172.519 6.254 1.712 9.313 4.563l2.113 1.94L248 436c-3.1 6.381-8.066 9.54-14.625 11.813-10.099 2.666-20.084 2.072-29.375-2.813-7.125-4.591-11.103-10.92-13.61-18.953-1.843-9.662-.367-19.147 5.153-27.336 10.857-13.267 28.367-17.054 43.207-7.586"/><path fill="#334341" d="m30.132 366.753 2.669.004 3.023-.01 3.274.023h3.347q3.507.006 7.013.024c3.593.018 7.186.02 10.778.02q3.4.008 6.8.018l3.279.003 3.013.02 2.667.011C78 367 78 367 79 368c.1 2.511.139 4.989.125 7.5l.012 2.129c-.01 5.244-.01 5.244-1.137 6.371a168 168 0 0 1-7.316.098l-2.216-.005c-2.343-.005-4.687-.018-7.03-.03q-2.379-.008-4.756-.014c-3.894-.01-7.788-.03-11.682-.049v17l6.09-.035 5.818-.02q2.026-.008 4.054-.02c1.938-.013 3.877-.018 5.815-.023l3.54-.016C73 401 73 401 74 402v14H45l.035 6.746q.011 3.222.02 6.444.008 2.244.02 4.49.017 3.22.023 6.441l.016 3.92C45 447 45 447 44 448c-2.863.073-5.7.092-8.563.063l-2.443-.014q-2.997-.02-5.994-.049c-1.486-2.973-1.147-6.004-1.145-9.264l-.01-2.267q-.013-3.718-.013-7.438l-.01-5.156q-.009-5.408-.007-10.814c0-4.627-.014-9.254-.031-13.882q-.015-5.325-.013-10.65 0-2.559-.013-5.119c-.01-2.382-.007-4.764 0-7.146-.007-.71-.012-1.42-.018-2.15.044-6.857.044-6.857 4.392-7.361"/><path fill="#313F3F" d="M202.5 299.5c5.437 3.314 8.767 8.035 10.562 14.072 1.105 4.586 1.21 8.972 1.168 13.67v2.575q-.006 2.67-.024 5.34c-.019 2.731-.02 5.463-.02 8.195l-.018 5.203-.003 2.477c-.049 5.736-.049 5.736-1.165 7.968h-17l-.148-8.39q-.082-4.027-.17-8.053-.057-2.796-.104-5.593c-.046-2.68-.104-5.361-.164-8.042l-.035-2.523c-.075-5.499-.075-5.499-2.379-10.399-3.437-2.546-6.85-2.364-11-2-2.712 1.205-4.4 2.148-6.113 4.581-1.308 3.567-1.226 7.115-1.266 10.868l-.051 2.465c-.053 2.59-.094 5.182-.132 7.774q-.066 3.903-.143 7.806a735 735 0 0 0-.08 4.854c-.103 5.54-.103 5.54-1.215 6.652-2.677.1-5.323.139-8 .125l-2.273.012c-5.6-.01-5.6-.01-6.727-1.137a100 100 0 0 1-.13-5.422l-.009-3.509.006-3.819-.003-3.89q-.001-4.08.006-8.16.006-5.242-.004-10.483-.004-4.983.001-9.967l-.006-3.82.01-3.508.002-3.107C156 300 156 300 157 299a185 185 0 0 1 7.563-.062l2.154.013q2.64.02 5.283.049l2 5 2.188-1.875c7.228-5.462 17.966-6.273 26.312-2.625"/><path fill="#5CAA6C" d="m119.396 149.823 1.952-.02c2.13-.02 4.26-.031 6.39-.041l2.21-.013q5.787-.03 11.574-.044c3.978-.011 7.956-.046 11.934-.085 3.065-.027 6.13-.035 9.195-.038q2.199-.008 4.398-.035c2.056-.025 4.11-.024 6.167-.017l3.54-.018c4.788.72 7.9 3.01 11.119 6.55 2.196 5.734 1.923 11.703-.125 17.438-1.824 2.605-3.024 3.892-5.75 5.5-3.143.388-3.143.388-6.892.404l-2.076.02c-2.26.02-4.519.015-6.778.01l-4.723.015q-4.946.013-9.893-.003c-4.221-.011-8.442.009-12.663.038-3.25.018-6.5.018-9.751.012q-2.335 0-4.669.019c-2.178.015-4.355.004-6.533-.013h-3.752c-3.866-.593-5.497-1.803-8.27-4.502-3.38-4.894-2.803-11.35-2-17 3.572-6.84 7.968-8.114 15.396-8.177M119.304 113.839l3.945-.03 4.27-.012 4.384-.017q4.596-.015 9.192-.02c3.917-.006 7.834-.03 11.752-.058 3.019-.019 6.038-.024 9.057-.026q2.165-.004 4.33-.024c2.025-.017 4.05-.013 6.074-.008l3.485-.011c4.36.5 7.647 2.076 11.02 4.867 3.37 4.257 2.707 10.39 2.187 15.5-1.156 3.383-2.686 6.11-5.722 8.165-3.063 1.123-5.71 1.105-8.97 1.126l-2.013.02c-2.19.019-4.379.023-6.568.025l-4.581.02q-4.8.017-9.598.015c-4.091 0-8.182.027-12.273.061-3.154.022-6.307.026-9.46.025q-2.263.004-4.524.027c-2.114.02-4.226.014-6.34.002l-3.637.008c-3.994-.595-6.166-2.016-9.314-4.494-3.456-4.772-2.792-11.43-2-17 3.55-6.798 7.913-8.117 15.304-8.161"/><path fill="#313F3F" d="M400 299c2.439-.108 4.873-.187 7.313-.25l2.091-.102c2.022-.039 2.022-.039 5.596.352 3.185 3.205 4.416 7.36 5.883 11.54l.787 2.187c.825 2.297 1.64 4.597 2.455 6.898q1.236 3.46 2.477 6.92.768 2.148 1.532 4.3c1.287 3.638 1.287 3.638 2.866 7.155l1.177-3.472q2.158-6.356 4.322-12.708l1.871-5.51q1.34-3.95 2.689-7.9l.846-2.503c1.981-5.793 1.981-5.793 3.095-6.907 2.697-.073 5.367-.092 8.063-.062l2.298.013q2.82.02 5.639.049c1.046 3.174.978 4.874-.24 7.97l-.907 2.349-1.017 2.536-1.042 2.675a1674 1674 0 0 1-3.419 8.658q-1.168 2.975-2.334 5.952a4320 4320 0 0 1-4.745 12.048 3648 3648 0 0 0-6.288 16.03l-3.508 8.97-.838 2.143a2563 2563 0 0 1-2.318 5.9l-1.307 3.324C432 380 432 380 431 381c-2.697.073-5.367.092-8.062.063l-2.3-.014q-2.818-.02-5.638-.049c.674-6.2 2.571-11.138 5.04-16.816 1.594-5.285-.032-9.613-2.097-14.575l-1.284-3.114-1.386-3.315-2.875-6.996a4924 4924 0 0 0-4.556-10.995c-1.47-3.54-2.926-7.087-4.381-10.634l-1.398-3.327-1.265-3.096-1.128-2.717c-.724-2.611-.587-3.901.33-6.415M432.313 390.813c3.155 2.568 5.377 4.826 7.687 8.187-.105 2.074-.105 2.074-1 4-3.63 2.077-7.652 3.03-11.812 2.938-2.708-1.16-4.187-2.803-6.188-4.938-2.797-.932-4.543-1.135-7.437-1.125l-2.31-.008c-2.206.13-4.133.524-6.253 1.133-.25 2.416-.25 2.416 0 5 2.875 1.917 4.145 2.375 7.422 2.93l2.61.472q2.693.47 5.39.922c8.663 1.586 14.35 4.448 19.578 11.676 1.71 5.13 1.646 10.061-.062 15.188-4.192 6.084-8.948 9.509-16.133 11.343-12.332 2.061-22.62.06-32.895-6.933-2.08-1.74-3.555-3.242-4.91-5.598-.02-2.102-.02-2.102 1-4 2.363-1.336 2.363-1.336 5.313-2.375l2.925-1.086c2.762-.539 2.762-.539 5.028.266C402 430 402 430 403.437 431.5c3.854 3.7 8.259 3.805 13.336 3.703 2.94-.268 5.504-1.086 8.227-2.203-.555-2.995-.555-2.995-2-6-2.653-1.277-2.653-1.277-5.875-1.687l-3.531-.676L410 424c-8.63-1.757-15.54-3.2-20.937-10.687-1.699-5.295-2.124-10.23-.29-15.56 3.458-6.485 9.372-9.231 16.184-11.366 9.596-1.817 18.86-.223 27.356 4.426M305.75 391.625c4.674 3.287 7.461 7.454 10.25 12.375-2.263 2.581-4.18 3.65-7.437 4.688l-2.31.761C304 410 304 410 300 410a112 112 0 0 1-5-6c-3.947-1.974-8.697-1.436-13-1-4.812 2.506-6.365 5.924-8 11-.585 5.457.369 9.191 3 14 3.178 3.45 6.156 4.784 10.875 5.168 4.92-.389 8.898-2.787 12.125-6.418l1-1.75c4.72 1.543 9.417 3.078 14 5-.376 5.27-2.162 8.485-6 12-8.597 6.542-17.346 7.982-28 7-7.645-1.66-13.956-4.95-19-11-5.756-9.316-7.875-18.925-5.352-29.793C259.626 400 265.198 393.051 273 389c11.79-4.133 21.91-3.944 32.75 2.625"/><path fill="#324140" d="m465.938 371.813 3.84-.043C473 372 473 372 475 374c.195 2.82.195 2.82.125 6.125l-.055 3.32L475 386l2.555.148 3.32.227c1.09.07 2.181.14 3.305.21C487 387 487 387 489 389c.266 2.531.266 2.531.25 5.5l.016 2.969C489 400 489 400 487 402c-2.82.414-2.82.414-6.125.625l-3.32.227L475 403c-.117 9.402.115 18.629 1 28l2.336.184 3.039.253 3.023.247C487 432 487 432 489 433q.039 3.468.063 6.938l.035 3.902C489 447 489 447 488 448c-2.91.181-5.775.278-8.687.313l-2.436.087c-6.338.068-9.889-1.497-14.522-5.998-4.031-5.056-4.498-8.64-4.453-14.914l.005-2.206c.005-2.324.018-4.646.03-6.97q.009-2.364.014-4.728.017-5.792.049-11.584h-10v-15h10l-.035-3.027c-.01-1.29-.018-2.581-.027-3.91l-.036-3.903c.176-5.678 2.985-4.322 8.036-4.348"/><path fill="#334441" d="M155.379 386.902q2.091.01 4.184.036l2.154.013q2.64.02 5.283.049l2 6 2.875-2.437c3.52-2.985 5.53-3.701 10.188-3.688l2.722-.008C187 387 187 387 188 388c.073 2.186.084 4.375.063 6.563l-.028 3.628L188 401l-2.773.914c-8 2.646-8 2.646-14.227 8.086-1.18 3.538-1.178 6.454-1.246 10.188l-.1 4.304q-.072 3.387-.13 6.775c-.04 2.182-.092 4.364-.145 6.546l-.076 3.957C169 445 169 445 167 448c-2.61.249-4.96.327-7.562.25l-2.116-.016c-5.168-.08-5.168-.08-6.322-1.234-.1-1.836-.128-3.675-.13-5.514l-.009-3.57.006-3.885-.003-3.957q-.001-4.151.006-8.302.006-5.333-.004-10.664-.004-5.07.001-10.14l-.006-3.885.01-3.57.002-3.16c.202-3.734.64-3.339 4.506-3.45"/><path fill="#303C3E" d="m322.625 297.875 2.414-.008C327 298 327 298 328 299c.125 2.143.176 4.29.188 6.438l.042 3.558C328 312 328 312 326 314c-1.988.492-1.988.492-4.312.875-4.92 1.013-8.088 2.724-10.938 7-1.722 4.878-1.908 9.925-2.066 15.055l-.127 3.906-.12 4.039-.13 4.11q-.159 5.007-.307 10.015-3.97.04-7.937.063l-2.288.025A183 183 0 0 1 292 359c-1-1-1-1-1.12-3.36l.006-3.17v-3.579l.016-3.895.005-3.964q.006-5.226.024-10.45.014-5.33.02-10.658c.01-6.975.029-13.95.049-20.924h16l2 5 2.813-2.437c3.452-2.993 6.28-3.703 10.812-3.688"/><path fill="#FDFDFC" d="M116 402c4.822 2.365 7.703 5.141 10 10 .777 5.247.8 10.218-1.687 15-3.234 4.194-5.601 5.556-10.688 6.875-4.45.153-6.77-.662-10.625-2.875-4.02-3.895-6.148-7.148-6.25-12.75.058-4.494.641-7.472 3.25-11.25 5.263-4.75 9.018-5.836 16-5M366 313c3.7 1.28 5.649 2.64 8.375 5.438 2.327 5.1 2.45 10.037 1.625 15.562-2.079 4.088-3.672 6.287-8 8-4.425.615-8.86 1.028-12.977-.95-3.22-2.514-5.126-5.101-6.023-9.05-.581-5.696-.376-10.162 3-15 4.502-3.979 8.208-4.938 14-4M259.813 312.563c3.798 2.402 4.82 5.253 6.187 9.437-1 1-1 1-3.5 1.114l-3.285-.016-3.545-.01-3.732-.026-3.745-.013q-4.596-.018-9.193-.049c.842-5.08 2.553-8.165 6.75-11.312 4.953-1.514 9.443-1.406 14.063.875M225 400c4.14 1.748 6.498 4.293 9 8v3h-27c3.974-9.272 8.087-12.505 18-11M353.375 422.75l2.23.055c1.8.046 3.597.118 5.395.195-.627 5.53-.627 5.53-2.305 7.645-4.393 3.267-7.33 4.503-12.757 4.543l-2.66.042C341 435 341 435 339 433c-.5-2.875-.5-2.875 0-6 4.772-4.147 8.373-4.532 14.375-4.25"/></svg>