<?xml version="1.0" encoding="UTF-8" standalone="no"?>
<svg
   xmlns:svg="http://www.w3.org/2000/svg"
   xmlns="http://www.w3.org/2000/svg"
   version="1.0"
   width="300"
   height="82">
  <path
     d="M 243.41987,20.828837 C 233.40876,26.153557 226.05394,35.029427 225.92668,43.404337 C 226.07818,53.348787 236.41855,63.996197 249.29806,68.571487 C 248.20524,60.636937 243.44208,28.632087 243.41987,20.828837"
     style="fill:#474794;fill-opacity:1;fill-rule:nonzero;stroke:none" />
  <path
     d="M 279.28493,28.254357 C 282.87649,29.440087 284.73893,32.126687 287.54874,34.938527 C 290.6757,38.067507 294.70964,41.602497 296.41047,46.242437 C 298.73347,41.877217 300.00001,36.441407 300.00001,30.098607 C 300.00001,12.526647 291.69984,-7.1218733 264.85811,2.5619967 C 251.50996,7.3817167 245.79539,14.690067 243.41987,20.828837 C 246.31856,19.285557 249.83134,19.210827 253.06334,18.362417 C 262.83205,15.740467 273.35826,19.162337 279.28493,28.254357"
     style="fill:#8c8acc;fill-opacity:1;fill-rule:nonzero;stroke:none" />
  <path
     d="M 279.63237,57.996797 C 272.29978,66.999937 262.81387,72.074167 252.84719,69.399687 C 251.70792,69.098707 250.40704,68.965397 249.29806,68.571487 C 250.04344,69.593607 250.87366,70.569267 251.79276,71.484327 C 261.64631,81.335857 282.36543,85.495037 292.77044,75.225367 C 299.77781,68.123047 300.06667,56.219207 296.41047,46.242437 C 292.9482,52.744807 286.1711,55.835407 279.63237,57.996797"
     style="fill:#4c57b0;fill-opacity:1;fill-rule:nonzero;stroke:none" />
  <path
     d="M 279.28493,28.254357 C 282.01395,32.437767 283.68651,37.574617 283.69661,43.404337 C 283.68651,48.977517 282.15131,53.914387 279.63237,57.996797 C 287.13464,56.857527 292.9482,52.744807 296.41047,46.242437 C 294.70964,41.602497 292.1604,37.374647 289.03142,34.247687 C 286.22362,31.435847 282.87649,29.440087 279.28493,28.254357"
     style="fill:#353885;fill-opacity:1;fill-rule:nonzero;stroke:none" />
  <path
     d="M 242.02607,32.033767 C 242.30685,36.106087 243.93699,40.012757 246.47208,43.515437 C 247.76892,40.327877 249.69398,37.324147 252.25938,34.714307 C 259.68287,27.424137 270.25554,25.270807 279.28493,28.254357 C 273.35826,19.162337 262.44017,14.568867 252.67146,17.186777 C 249.43946,18.039217 246.31856,19.285557 243.41987,20.828837 C 241.01607,27.032257 242.02607,32.033767 242.02607,32.033767"
     style="fill:#353885;fill-opacity:1;fill-rule:nonzero;stroke:none" />
  <path
     d="M 279.63237,57.996797 C 278.22241,58.208907 276.75792,58.322027 275.23483,58.322027 C 264.50259,58.322027 252.72398,52.156987 246.47208,43.515437 C 243.10475,51.813587 244.04606,61.364137 249.29806,68.571487 C 250.40704,68.965397 251.53016,69.318887 252.67146,69.619867 C 262.63813,72.290307 273.79256,67.452417 279.63237,57.996797"
     style="fill:#353885;fill-opacity:1;fill-rule:nonzero;stroke:none" />
  <path
     d="M 279.42633,28.108917 C 270.30806,25.097097 259.62833,27.270607 252.13414,34.635527 C 249.54046,37.273637 247.59318,40.303637 246.28826,43.523517 C 252.60076,52.249907 264.49653,58.481597 275.33584,58.481597 C 276.87305,58.481597 278.35573,58.366457 279.77781,58.148297 C 282.32301,54.027507 283.87235,49.040127 283.88043,43.412417 C 283.87033,37.524127 282.18161,32.334747 279.42633,28.108917 M 7.417433,39.649157 L 29.86365,39.649157 C 29.560649,36.269707 28.702154,33.734607 27.290174,32.041847 C 25.118676,29.419887 22.304816,28.106887 18.848602,28.106887 C 15.719625,28.106887 13.089587,29.153247 10.958489,31.245967 C 8.825371,33.342727 7.645692,36.142437 7.417433,39.649157 z M 29.786889,50.664207 L 36.826579,51.534827 C 35.715589,55.647547 33.661249,58.839147 30.65549,61.109617 C 27.653771,63.382117 23.817794,64.513317 19.151601,64.513317 C 13.271387,64.513317 8.613272,62.705417 5.167155,59.085577 C 1.721038,55.463727 0,50.387467 0,43.850757 C 0,37.089817 1.741238,31.839847 5.223715,28.106887 C 8.706192,24.371917 13.220887,22.505437 18.773862,22.505437 C 24.147055,22.505437 28.538532,24.333537 31.94425,27.991747 C 35.351989,31.649967 37.054839,36.798937 37.054839,43.434637 C 37.054839,43.838637 37.038679,44.444637 37.016459,45.250617 L 7.039693,45.250617 C 7.292193,49.666337 8.542571,53.047807 10.786789,55.393027 C 13.031007,57.742277 15.834765,58.913877 19.187961,58.913877 C 21.684676,58.913877 23.817794,58.257387 25.585293,56.946407 C 27.352792,55.633407 28.75265,53.540687 29.786889,50.664207 M 54.681349,63.606337 L 54.681349,23.412417 L 60.814059,23.412417 L 60.814059,29.129007 C 63.767299,24.713297 68.029499,22.505437 73.606709,22.505437 C 76.028689,22.505437 78.254719,22.939737 80.284819,23.810357 C 82.316939,24.680977 83.833959,25.820247 84.847999,27.238287 C 85.853959,28.648257 86.560949,30.328887 86.964959,32.270107 C 87.219469,33.528567 87.344719,35.738447 87.344719,38.893687 L 87.344719,63.606337 L 80.533289,63.606337 L 80.533289,39.158297 C 80.533289,36.382827 80.266639,34.308287 79.737399,32.930647 C 79.206139,31.557047 78.266839,30.458167 76.917489,29.638047 C 75.568129,28.819957 73.982429,28.409887 72.166449,28.409887 C 69.265729,28.409887 66.760929,29.331007 64.656099,31.171227 C 62.549239,33.015487 61.496819,36.510087 61.496819,41.655017 L 61.496819,63.606337 L 54.681349,63.606337 M 121.96749,57.514027 L 122.95324,63.531597 C 121.03425,63.935597 119.31927,64.137597 117.80427,64.137597 C 115.33179,64.137597 113.41279,63.745717 112.05131,62.965997 C 110.68782,62.184257 109.72832,61.156077 109.17686,59.877417 C 108.61732,58.608867 108.3426,55.924287 108.3426,51.835807 L 108.3426,28.712897 L 103.34512,28.712897 L 103.34512,23.412417 L 108.3426,23.412417 L 108.3426,13.461907 L 115.11767,9.3693867 L 115.11767,23.412417 L 121.96749,23.412417 L 121.96749,28.712897 L 115.11767,28.712897 L 115.11767,52.213547 C 115.11767,54.158807 115.23685,55.409187 115.47521,55.962667 C 115.71559,56.516147 116.10747,56.960547 116.65085,57.289797 C 117.19221,57.615027 117.96789,57.780657 118.97788,57.780657 C 119.73336,57.780657 120.73125,57.691787 121.96749,57.514027 M 135.20655,51.611587 L 141.94324,50.551087 C 142.32098,53.249807 143.37542,55.318287 145.1005,56.756517 C 146.83164,58.196777 149.24756,58.913877 152.35027,58.913877 C 155.47925,58.913877 157.80225,58.277577 159.31523,57.004977 C 160.83023,55.728347 161.58772,54.233547 161.58772,52.516547 C 161.58772,50.979327 160.91709,49.767327 159.57985,48.884597 C 158.64661,48.278587 156.32563,47.510997 152.61489,46.575727 C 147.61944,45.317277 144.15716,44.222437 142.22605,43.303337 C 140.29695,42.382217 138.83245,41.107597 137.83659,39.479477 C 136.83669,37.851357 136.34179,36.053567 136.34179,34.088107 C 136.34179,32.294347 136.75185,30.635927 137.56995,29.108807 C 138.39007,27.583707 139.50511,26.315157 140.9191,25.305157 C 141.98162,24.525437 143.4239,23.860857 145.25402,23.319497 C 147.08414,22.776117 149.04556,22.505437 151.13828,22.505437 C 154.29149,22.505437 157.06495,22.957917 159.44855,23.868937 C 161.83215,24.775917 163.59156,26.006097 164.72882,27.557447 C 165.86406,29.108807 166.6458,31.185367 167.07404,33.785107 L 160.41208,34.692087 C 160.10909,32.623607 159.23443,31.007607 157.78205,29.848127 C 156.32967,28.686627 154.28341,28.106887 151.63116,28.106887 C 148.50218,28.106887 146.26806,28.624007 144.93284,29.658247 C 143.59358,30.694507 142.92496,31.904487 142.92496,33.292227 C 142.92496,34.174967 143.20171,34.968827 143.75922,35.675827 C 144.3127,36.409087 145.18534,37.015077 146.36906,37.491807 C 147.05182,37.744307 149.05768,38.324037 152.38865,39.233037 C 157.20635,40.521797 160.56965,41.574217 162.47652,42.392317 C 164.37936,43.216477 165.87416,44.404237 166.96092,45.971757 C 168.04364,47.535227 168.58904,49.478467 168.58904,51.801467 C 168.58904,54.069927 167.92446,56.209107 166.60136,58.212937 C 165.27624,60.220817 163.36532,61.772177 160.86861,62.871057 C 158.36987,63.967917 155.54187,64.513317 152.38865,64.513317 C 147.16494,64.513317 143.18554,63.430597 140.44845,61.261117 C 137.70731,59.093667 135.96405,55.873787 135.20655,51.611587 M 190.45552,43.511397 C 190.45552,48.656327 191.57864,52.512507 193.82285,55.073867 C 196.06909,57.635217 198.89305,58.913877 202.30281,58.913877 C 205.68024,58.913877 208.49612,57.627147 210.74236,55.055687 C 212.98657,52.480187 214.1097,48.555327 214.1097,43.283137 C 214.1097,38.311927 212.98052,34.546647 210.72216,31.987307 C 208.4638,29.423937 205.656,28.143247 202.30281,28.143247 C 198.89305,28.143247 196.06909,29.419887 193.82285,31.967107 C 191.57864,34.514327 190.45552,38.362417 190.45552,43.511397 z M 183.45421,43.511397 C 183.45421,36.067707 185.52066,30.553107 189.65964,26.969627 C 193.11585,23.994177 197.33159,22.505437 202.30281,22.505437 C 207.8275,22.505437 212.34422,24.315357 215.85295,27.937217 C 219.35967,31.557047 221.11303,36.558567 221.11303,42.941757 C 221.11303,48.112947 220.33735,52.185267 218.78599,55.148607 C 217.23261,58.111947 214.97224,60.414737 212.0089,62.054977 C 209.04556,63.695217 205.8075,64.513317 202.30281,64.513317 C 196.67509,64.513317 192.12606,62.713497 188.65772,59.101737 C 185.18938,55.498067 183.45421,50.298587 183.45421,43.511397"
     style="fill:#282e70;fill-opacity:1;fill-rule:nonzero;stroke:none" />
  <path
     d="M 246.16707,39.649157 L 268.60924,39.649157 C 268.30624,36.269707 267.44977,33.734607 266.03576,32.041847 C 263.86427,29.419887 261.05243,28.106887 257.59419,28.106887 C 254.46724,28.106887 251.83518,29.153247 249.70408,31.245967 C 247.57096,33.342727 246.39128,36.142437 246.16707,39.649157 z M 268.5345,50.664207 L 275.57218,51.534827 C 274.46522,55.647547 272.40684,58.839147 269.40512,61.109617 C 266.39937,63.382117 262.56743,64.513317 257.89719,64.513317 C 252.019,64.513317 247.35886,62.705417 243.91275,59.085577 C 240.46865,55.463727 238.74761,50.387467 238.74761,43.850757 C 238.74761,37.089817 240.48885,31.839847 243.97132,28.106887 C 247.45178,24.371917 251.97052,22.505437 257.51945,22.505437 C 262.89467,22.505437 267.28614,24.333537 270.69186,27.991747 C 274.09556,31.649967 275.80043,36.798937 275.80043,43.434637 C 275.80043,43.838637 275.78832,44.444637 275.76205,45.250617 L 245.78933,45.250617 C 246.03779,49.666337 247.28816,53.047807 249.5344,55.393027 C 251.78064,57.742277 254.58036,58.913877 257.93557,58.913877 C 260.43633,58.913877 262.56743,58.257387 264.33291,56.946407 C 266.09838,55.633407 267.49825,53.540687 268.5345,50.664207"
     style="fill:#fabd17;fill-opacity:1;fill-rule:nonzero;stroke:none" />
</svg>
