<?xml version="1.0" encoding="UTF-8" standalone="no"?><!DOCTYPE svg PUBLIC "-//W3C//DTD SVG 1.1//EN" "http://www.w3.org/Graphics/SVG/1.1/DTD/svg11.dtd"><svg width="170px" height="76px" version="1.1" xmlns="http://www.w3.org/2000/svg" xmlns:xlink="http://www.w3.org/1999/xlink" xml:space="preserve" xmlns:serif="http://www.serif.com/" style="fill-rule:evenodd;clip-rule:evenodd;stroke-linejoin:round;stroke-miterlimit:2;"><g><path d="M20.789,55.832c-4.515,0.163 -8.909,-1.506 -12.176,-4.627c-3.248,-3.263 -4.986,-7.74 -4.789,-12.339l-0,-0.866c-0.054,-3.192 0.626,-6.354 1.988,-9.241c1.224,-2.6 3.186,-4.784 5.642,-6.277c2.515,-1.494 5.396,-2.258 8.321,-2.206c4.17,-0.245 8.242,1.372 11.107,4.411c2.706,2.968 4.059,7.166 4.059,12.596l0,3.734l-21.863,0c0.215,2.072 1.178,3.996 2.706,5.412c1.55,1.363 3.564,2.084 5.628,2.016c3.209,0.139 6.293,-1.297 8.253,-3.843l4.478,5.047c-1.412,2.007 -3.344,3.593 -5.588,4.586c-2.438,1.102 -5.091,1.648 -7.766,1.597Zm-1.041,-28.196c-1.67,-0.059 -3.285,0.619 -4.411,1.854c-1.238,1.504 -1.993,3.349 -2.165,5.29l12.704,0l0,-0.744c0.074,-1.727 -0.517,-3.417 -1.65,-4.722c-1.183,-1.175 -2.815,-1.786 -4.478,-1.678Z" style="fill:#1c2445;fill-rule:nonzero;"/><path d="M52.408,44.007l6.358,-23.122l9.471,0l-11.473,34.311l-8.713,-0l-11.527,-34.311l9.471,0l6.413,23.122Z" style="fill:#1c2445;fill-rule:nonzero;"/><path d="M118.824,48.445c1.472,0.061 2.917,-0.421 4.058,-1.353c1.061,-0.944 1.663,-2.301 1.651,-3.721l8.551,0c0.001,2.271 -0.657,4.495 -1.895,6.4c-1.258,1.937 -3.035,3.484 -5.127,4.464c-2.228,1.088 -4.679,1.639 -7.157,1.61c-4.351,0.223 -8.585,-1.493 -11.554,-4.681c-2.824,-3.112 -4.235,-7.419 -4.235,-12.92l-0,-0.609c-0,-5.277 1.398,-9.493 4.194,-12.65c2.945,-3.205 7.166,-4.941 11.514,-4.736c3.775,-0.182 7.474,1.137 10.282,3.667c2.62,2.554 4.046,6.098 3.923,9.755l-8.523,-0c0.033,-1.606 -0.548,-3.165 -1.624,-4.357c-1.079,-1.136 -2.601,-1.748 -4.167,-1.678c-1.9,-0.108 -3.727,0.78 -4.816,2.341c-1.083,1.556 -1.624,4.059 -1.624,7.577l0,0.947c0,3.531 0.528,6.074 1.61,7.617c1.121,1.588 3,2.473 4.939,2.327Z" style="fill:#1c2445;fill-rule:nonzero;"/><path d="M152.485,48.445c1.472,0.06 2.917,-0.422 4.059,-1.353c1.056,-0.945 1.654,-2.303 1.637,-3.721l8.564,0c0.001,2.271 -0.657,4.495 -1.894,6.4c-1.237,1.926 -2.984,3.471 -5.047,4.464c-2.229,1.081 -4.68,1.628 -7.157,1.597c-4.351,0.222 -8.585,-1.493 -11.554,-4.681c-2.823,-3.112 -4.235,-7.419 -4.235,-12.921l0,-0.609c0,-5.276 1.398,-9.493 4.194,-12.65c2.964,-3.225 7.221,-4.959 11.595,-4.722c3.776,-0.185 7.476,1.134 10.282,3.667c2.63,2.549 4.061,6.095 3.937,9.755l-8.564,-0c0.032,-1.608 -0.555,-3.168 -1.637,-4.357c-1.129,-1.077 -2.631,-1.678 -4.191,-1.678c-1.872,0 -3.642,0.865 -4.792,2.341c-1.083,1.556 -1.637,4.059 -1.637,7.577l-0,0.947c-0,3.526 0.541,6.065 1.623,7.617c1.098,1.55 2.92,2.43 4.817,2.327Z" style="fill:#1c2445;fill-rule:nonzero;"/></g><path d="M82.186,17.516l12.474,0l-8.307,16.642l8.321,-0l-15.6,29.101l3.112,-20.781l-10.391,0l10.391,-24.962Z" style="fill:#0fdd42;fill-rule:nonzero;"/><rect x="-30" y="-13.412" width="230" height="102.824" style="fill:none;fill-rule:nonzero;"/></svg>