<?xml version="1.0" encoding="utf-8"?>
<!-- Generator: Adobe Illustrator 19.2.1, SVG Export Plug-In . SVG Version: 6.00 Build 0)  -->
<svg version="1.1" id="layer" xmlns="http://www.w3.org/2000/svg" xmlns:xlink="http://www.w3.org/1999/xlink" x="0px" y="0px"
	 viewBox="0 0 652 652" style="enable-background:new 0 0 652 652;" xml:space="preserve">
<style type="text/css">
	.st0{fill:#4A796A;}
	.st1{fill:#5FD0DF;}
	.st2{fill:#FFFFFF;}
</style>
<rect x="26" y="194.2" class="st0" width="600" height="263.6"/>
<path class="st1" d="M109.2,369c0,2.4-0.4,4.8-1.2,7c-3.3,9.5-12.7,15.1-22.2,13.4c-9.6-1.7-16.6-10.3-16.6-20.4
	c0-2.8,0.5-5.5,1.6-8.1c7.1-17.9,25.9-24.7,50.7-19.6C112.5,345.1,109.6,353.9,109.2,369"/>
<path class="st2" d="M252.1,369.2h-11.6v-60.6h-7.7v-11.2h7.3v-2.2c0-7.3,1.8-12.9,5.5-16.6c3.7-3.7,12.7-5.6,21.2-4.5v10.9h-5.7
	c-3.4,0-5.9,0.9-7.4,2.6c-1.5,1.7-2.2,4.7-2.2,8.7v1h10.6v11.2h-10.1V369.2z M280.5,273.7h11.4v95.5h-11.4V273.7z M360.1,367.6
	h-11.7v-7.9c-2.2,3-5,5.5-8.2,7.2c-3.2,1.6-6.6,2.4-10.1,2.4c-8.5,0-15.1-2.8-19.8-8.3c-4.7-5.6-7-13.4-7-23.4v-40.9h12.2v37.3
	c0,7.7,1.3,13.4,3.9,17.2c2.6,3.8,6.5,5.7,11.6,5.8c3,0.1,6-0.8,8.6-2.4c2.6-1.6,4.6-4,6-6.8c1-2,1.6-4.2,1.9-6.5
	c0.5-4,0.7-8,0.6-12.1v-32.6h12.1V367.6z M416.5,333.1c0-8.7-1.2-15.1-3.6-19c-2.4-3.9-6.2-5.9-11.5-5.9c-5.4,0-9.4,2-11.9,6
	c-2.6,4-3.9,10.1-3.9,18.4v36.6h-11.9v-71.6h11.2v8.4c2.1-3,4.8-5.4,7.9-7.2c3.1-1.6,6.5-2.4,10-2.4c5.1,0,9.3,1,12.7,3
	c3.3,2,6.1,5.1,8.3,9.3c1.9-3.9,4.9-7.1,8.6-9.3c3.6-2,7.9-3.1,13-3.1c7.9,0,14.2,2.6,19,7.9s7.1,12.3,7.2,21.1v43.7h-12.7v-41.7
	c0-6.1-1.3-10.9-3.9-14.2c-2.6-3.4-6.3-5.1-10.9-5.1c-5.4,0-9.4,1.8-11.7,5.4c-2.4,3.6-3.6,9.7-3.6,18.2v37.4h-12.2L416.5,333.1z
	 M495.8,337.5c0.9,5.4,3.6,10.4,7.7,14c7.3,6.1,17.5,7.1,25.8,2.4c3.4-2,6.1-4.9,8-8.3h13.8c-3.1,7.6-7.5,13.5-13.2,17.5
	c-5.8,4.1-12.7,6.2-19.7,6.1c-4.8,0.1-9.5-0.9-13.9-2.7c-4.3-1.9-8.2-4.6-11.4-8.1c-3.2-3.4-5.7-7.4-7.5-11.8
	c-1.8-4.4-2.7-9-2.7-13.7c0-4.6,0.8-9.3,2.5-13.6c1.7-4.3,4.1-8.2,7.2-11.5c6.4-7.4,15.7-11.5,25.5-11.3c5.8,0,11.6,1.4,16.7,4.2
	c5.1,2.8,9.5,6.9,12.8,11.8c2,3.2,3.5,6.7,4.4,10.3c1,4.2,1.5,8.5,1.4,12.8v1.9L495.8,337.5z M539.8,326.4
	c-1.5-5.7-4.2-10.1-7.9-13.2c-3.8-3.1-8.6-4.8-13.5-4.7c-5.1-0.1-10,1.6-14,4.8c-4,3.4-6.9,7.9-8.2,13.1H539.8z M165.6,292.5
	c-21.4-1.2-55.4-9.6-73.7,4c0.9-3.5,8.3-35.2,46.4-33.7c33.1,1.3,53.6,8,71.8-0.4C207,284.1,188.4,293.7,165.6,292.5 M128.2,330.7
	c-18.8-3.3-37.6-4-47.7,6.6c1.8-19.9,11.6-40.2,45.7-37.8c22,1.6,44.9,9.3,63.4-0.9C183.7,328.7,165.2,337.2,128.2,330.7 M544.2,276
	v2h4.9v11.6h2.9V278h5v-2H544.2z M574.3,276l-4.5,10.6l-4.4-10.6h-4.2v13.6h2.6v-8.1l-0.1-2.4h0.2l4.5,10.6h2.3l4.7-10.5h0.2
	l-0.1,2.6v7.9h2.8V276H574.3z"/>
</svg>
