<svg width="512" height="512" xmlns="http://www.w3.org/2000/svg" preserveAspectRatio="xMidYMid meet" version="1.0">

 <g>
  <title>Layer 1</title>
  <path id="svg_2" d="m252.76276,23.78031c-1.89999,1 -18.29999,11.1 -36.39999,22.3c-18,11.3 -61.8,38.5 -97.3,60.5c-35.5,22 -65.50001,40.8 -66.70001,41.70001l-2.3,1.59999l0,147.79999c0,94.20001 0.65107,148.26242 1.03138,151.75653c2.06063,13.29999 12.76862,28.74347 24.76863,35.14346c12.3,6.60001 1,6.20001 180.7,6.20001c178.39999,0 168.5,0.29999 179.89999,-5.79999c8.20001,-4.30002 17,-13.80002 21.40002,-22.90002c1.23334,-2.60001 3.53381,-7.83609 3.76276,-11.31497l0.53723,-41.98502c0.89999,-59.79999 1.10001,-252.89999 0.29999,-256.79999c-0.5,-2.40001 -2.09998,-3.90001 -7.79999,-7.5c-23.39999,-14.60001 -194.5,-120.60001 -196.20001,-121.50001c-1.69998,-0.9 -2.90001,-0.7 -5.70001,0.8zm101.60004,73.9l95.69998,59.5l0,143.7c0,139.60001 -0.10001,143.89999 -1.89999,150c-3.79999,12.10001 -12.10001,20.79999 -24.60001,25.5c-4.79999,1.79999 -10.29999,1.89999 -167.5,1.89999l-162.50001,0l-5.8,-2.29999c-10.9,-4.40002 -17.43304,-12.62744 -22.9,-22.90002c-1.08049,-1.93332 -2.12963,-5.56094 -2.36278,-7.58838l-0.13723,-143.21161l-0.3,-144.99998l96.3,-59.70001c58.8,-36.6 97,-59.7 98.20001,-59.5c1.20001,0.1 45.20001,26.9 97.80002,59.6z"/>
  <path id="svg_3" d="m118,271.54892c-5.1,2.5 -7,7.10001 -7,16.39999l0,7.80002l-3.5,0c-3.1,0 -3.5,0.29999 -3.5,2.5c0,2.19998 0.4,2.5 3.5,2.5l3.5,0l0,23l0,23l2.5,0l2.5,0l0,-23l0,-23l8.5,0c8.40001,0 8.5,0 8.5,-2.5c0,-2.5 -0.09999,-2.5 -8.5,-2.5l-8.5,0l0,-5.80002c0,-7.29999 1.6,-12.89999 4,-14.19998c2.5,-1.30002 8.60001,-1.30002 11.2,0.10001c1.60001,0.89999 2.3,0.79999 2.90001,-0.20001c1.59999,-2.60001 0.89999,-3.79999 -2.8,-4.79999c-5.4,-1.5 -9.3,-1.30002 -13.3,0.69998z"/>
  <path id="svg_4" d="m324.20001,278.84894c-15.30002,2 -28.39999,12.79999 -33.70001,27.89999c-7.5,21.20001 0,41.60001 18.5,50.39999c6.10001,2.89999 7.20001,3.10001 17.5,3c9,0 12.10001,-0.39999 16.70001,-2.29999c6.29999,-2.5 7.5,-3.5 5.89999,-5.5c-0.89999,-1 -2.5,-0.80002 -8.20001,1.10001c-9,3.09998 -19.69998,3.29999 -27.09998,0.59998c-6.30002,-2.19998 -14.90002,-9.79999 -17.70001,-15.59998c-7.20001,-14.80002 -3.20001,-34.10001 9.39999,-45.60001c7.80002,-7.10001 14.5,-9.5 26.5,-9.5c8.30002,0 10.30002,0.29999 15.5,2.69998c7.30002,3.39999 11.80002,7.60001 15.30002,14.20001c2.39999,4.39999 2.69998,6.10001 2.69998,14.5c0,7.89999 -0.39999,10.20001 -2.19998,13.70001c-2.90002,5.39999 -6.70001,8.29999 -11,8.29999c-5.20001,0 -5.60001,-2.29999 -3.80002,-20.79999c0.80002,-8.70001 1.5,-16.30002 1.5,-17.00003c0,-0.69998 -1.29999,-1.19998 -3,-1.19998c-2.79999,0 -3,0.19998 -3,4c0,4.39999 -0.89999,5 -2.79999,2c-3.89999,-6.30002 -17.30002,-7.80002 -24.89999,-2.80002c-4.70001,3.10001 -9.20001,11.00003 -10,17.60001c-2.10001,17.70001 17,28.5 31.19998,17.60001c4.10001,-3.10001 4.5,-3.19998 4.5,-1.29999c0,3.69998 4.39999,6.89999 9.5,6.89999c7.70001,0 12.60001,-3.70001 16.70001,-12.5c1.79999,-4.10001 2.29999,-6.79999 2.29999,-14.5c0,-8.20001 -0.39999,-10.29999 -2.60001,-15.10001c-5.19998,-11 -15.19998,-18.5 -27.79999,-20.89999c-6,-1.10001 -6.79999,-1.10001 -15.89999,0.10001zm12.60001,26.5c1.29999,0.89999 3.29999,3.60001 4.39999,6.19998c1.79999,4 1.89999,5.10001 0.79999,9.90002c-3.39999,15.39999 -22,19 -28.89999,5.59998c-1.89999,-3.59998 -1.29999,-11.39999 1.20001,-15.79999c4.29999,-7.70001 15.29999,-10.60001 22.5,-5.89999z"/>
  <path id="svg_5" d="m188.40001,297.14893c-18.60001,8.60001 -19.20001,38.20001 -1.10001,47.89999c3.3,1.70001 5.89999,2.20001 11.7,2.20001c8.10001,0 12.10001,-1.5 17.2,-6.29999c2.5,-2.30002 2.60001,-2.70001 1.20001,-4.30002c-1.40001,-1.60001 -1.8,-1.5 -6.40001,1.60001c-8.3,5.60001 -17.3,5.5 -24.09999,-0.20001c-3.40001,-2.89999 -6.8,-9.39999 -6.90001,-13.09998l0,-2.20001l20.5,0l20.5,0l0,-3.29999c0,-18.00003 -16.89999,-29.60001 -32.59999,-22.30002zm14.59999,3.60001c5.90001,1.60001 12,9.29999 12,15.10001c0,1.79999 -0.89999,1.89999 -17.5,1.89999l-17.5,0l0.60001,-2.79999c1.59999,-6.40002 5.39999,-11.00003 11.39999,-13.60001c4.2,-1.80002 6.3,-1.90002 11,-0.60001z"/>
  <path id="svg_6" d="m245.40001,297.14893c-18.60001,8.60001 -19.20001,38.20001 -1.10001,47.89999c3.3,1.70001 5.89999,2.20001 11.7,2.20001c8.10001,0 12.10001,-1.5 17.20001,-6.29999c2.5,-2.30002 2.60001,-2.70001 1.19998,-4.30002c-1.39999,-1.60001 -1.79999,-1.5 -6.39999,1.60001c-8.29999,5.60001 -17.3,5.5 -24.09999,-0.20001c-3.40001,-2.89999 -6.8,-9.39999 -6.90001,-13.09998l0,-2.20001l20.5,0l20.5,0l0,-3.29999c0,-18.00003 -16.89999,-29.60001 -32.59999,-22.30002zm14.59999,3.60001c5.89999,1.60001 12,9.29999 12,15.10001c0,1.79999 -0.89999,1.89999 -17.5,1.89999l-17.5,0l0.60001,-2.79999c1.59999,-6.40002 5.39999,-11.00003 11.39999,-13.60001c4.2,-1.80002 6.3,-1.90002 11,-0.60001z"/>
  <path id="svg_7" d="m144,321.24893l0,25.5l2.5,0l2.5,0l0,-14.89999c0,-8.5 0.5,-16.20001 1.2,-18.20001c2.60001,-7.79999 7.70001,-12 14.90001,-12.10001c3.59999,0 3.89999,-0.19998 3.89999,-2.89999c0,-2.70001 -0.2,-2.89999 -4.2,-2.89999c-4.8,0 -10,2.69998 -13.5,6.89999l-2.2,2.60001l-0.10001,-4.80002c0,-4.29999 -0.2,-4.69998 -2.5,-4.69998l-2.5,0l0,25.5z"/>
  <path id="svg_8" d="m108,399.24893l0,38.5l3.9,0l3.8,0l0.5,-15.89999c0.39999,-13.20001 0.8,-16.39999 2.39999,-19.60001c3,-5.70001 6.4,-7.79999 13.2,-8.29999c5.39999,-0.40002 6.2,-0.20001 9.10001,2.39999c4,3.69998 5.09999,9.69998 5.09999,28.10001l0,13.29999l4,0l4,0l0,-17.79999c0,-9.80002 -0.5,-19.5 -1.09999,-21.70001c-1.70001,-6 -7.40001,-11.20001 -13.3,-12c-6.5,-1 -14.2,0.79999 -18.8,4.5c-2,1.70001 -3.9,3 -4.2,3c-0.3,0 -0.6,-7.39999 -0.6,-16.5l0,-16.5l-4,0l-4,0l0,38.5z"/>
  <path id="svg_9" d="m183.7,387.14893c-6.59999,2.39999 -11.09999,6.10001 -14.09999,11.5c-7.2,13.30002 -2.90001,29.70001 9.5,36.60001c4.7,2.60001 6.39999,3 13.39999,3c9.40001,0 14.3,-2.10001 19.7,-8.5c4.20001,-4.79999 5.8,-9.79999 5.8,-17.5c0,-8.39999 -1.8,-13.29999 -7,-18.60001c-6.8,-7.10001 -18.09999,-9.69998 -27.3,-6.5zm15,7.70001c9.3,3.5 13.8,15.79999 9.40001,25.39999c-2,4.5 -7,9.20001 -10.7,10.10001c-4.3,1.10001 -12,-0.20001 -15.3,-2.5c-7.2,-5.10001 -9.5,-17 -4.90001,-25.30002c4,-7.29999 13.5,-10.79999 21.5,-7.69998z"/>
  <path id="svg_10" d="m252.8,386.64893c-3.8,1.30002 -9.60001,4.89999 -10.60001,6.80002c-0.7,1.09998 -1.09999,0.39999 -1.59999,-2.60001c-0.60001,-4 -0.7,-4.10001 -4.60001,-4.10001l-4,0l0,25.5l0,25.5l3.90001,0l3.89999,0l0.39999,-15.79999c0.3,-15 0.5,-16 3.10001,-20.40002c2.10001,-3.59998 3.7,-5 7.3,-6.39999c4.2,-1.60001 5,-1.60001 8.70001,-0.29999c7,2.39999 7.89999,5.19998 8.5,25.5l0.5,17.39999l3.79999,0l3.89999,0l0,-15.29999c0,-12.60001 0.39999,-15.90002 1.89999,-19.30002c4.90002,-10.69998 17.90002,-12.5 22.20001,-3c1.60001,3.5 1.89999,6.60001 1.89999,20.80002l0,16.79999l4,0l4,0l0,-19.29999c0,-21.70001 -1.10001,-25.90002 -7,-29.60001c-7.5,-4.5 -19.10001,-3 -25.39999,3.39999l-3.39999,3.29999l-2.10001,-2.89999c-3.79999,-5.19998 -13,-8 -19.3,-6z"/>
  <path id="svg_11" d="m339.80002,387.14893c-8,2.89999 -13,8.20001 -15.40002,16.20001c-3.89999,13 0.70001,25.79999 11.40002,32.10001c4.09998,2.39999 5.69998,2.79999 12.69998,2.79999c8.60001,0 13.80002,-1.89999 18.30002,-6.70001l2.19998,-2.39999l-2.5,-2.39999c-2.10001,-2 -2.89999,-2.20001 -4.29999,-1.20001c-11.10001,7.80002 -21.5,6.80002 -27.89999,-2.69998c-1.30002,-1.89999 -2.30002,-4.5 -2.30002,-5.70001l0,-2.39999l19.5,0l19.5,0l0,-3.79999c0,-5.10001 -2.19998,-12.30002 -4.89999,-16.10001c-5.10001,-7.20001 -17.79999,-10.89999 -26.29999,-7.70001zm17.19998,10.20001c1.60001,1.60001 3.60001,4.60001 4.5,6.60001l1.5,3.79999l-15.5,0c-11.10001,0 -15.5,-0.29999 -15.5,-1.20001c0,-2.59998 5.10001,-9.59998 8.20001,-11.19998c5.19998,-2.60001 13.19998,-1.70001 16.79999,2z"/>
 </g>
</svg>