<?xml version="1.0" encoding="UTF-8" standalone="no"?><!DOCTYPE svg PUBLIC "-//W3C//DTD SVG 1.1//EN" "http://www.w3.org/Graphics/SVG/1.1/DTD/svg11.dtd"><svg width="185px" height="75px" version="1.1" xmlns="http://www.w3.org/2000/svg" xmlns:xlink="http://www.w3.org/1999/xlink" xml:space="preserve" xmlns:serif="http://www.serif.com/" style="fill-rule:evenodd;clip-rule:evenodd;stroke-linejoin:round;stroke-miterlimit:2;"><g><path d="M92.494,1.648c-50.256,-0 -91.027,11.343 -91.027,25.316c-0,13.915 40.771,25.257 91.027,25.257c50.265,-0 91.039,-11.343 91.039,-25.257c-0,-13.973 -40.773,-25.316 -91.039,-25.316" style="fill:#e2001a;fill-rule:nonzero;"/><path d="M78.516,36.017l-13.825,-0c-1.405,-0 -2.566,-1.167 -2.566,-2.581c-0,-0.395 0.047,-0.783 0.187,-1.074l4.168,-8.95l-0,-0.011c0.383,-0.968 0.963,-1.694 1.741,-2.231c0.824,-0.49 1.742,-0.737 2.902,-0.781l13.735,-0c1.45,-0 2.611,1.165 2.611,2.626c-0,0.386 -0.094,0.782 -0.292,1.121l0.048,-0l-4.108,8.905c-0.873,1.809 -2.615,2.92 -4.601,2.976" style="fill:#fff;fill-rule:nonzero;"/><path d="M80.792,24.476l-8.799,-0c-0.246,-0 -0.488,0.095 -0.628,0.198c-0.151,0.094 -0.29,0.247 -0.394,0.434l-2.752,5.991c-0.104,0.246 -0.104,0.434 0,0.585c0.094,0.14 0.291,0.187 0.536,0.245l8.844,-0c0.384,-0 0.732,-0.245 0.917,-0.644l2.811,-5.979c0.046,-0.048 0.046,-0.151 0.046,-0.247c-0,-0.291 -0.245,-0.583 -0.581,-0.583" style="fill:#e2001a;fill-rule:nonzero;"/><path d="M118.721,14.499l5.317,-0l-1.882,4.089l-5.375,-0l1.94,-4.089Z" style="fill:#fff;fill-rule:nonzero;"/><path d="M34.402,25.257l-5.026,10.76l-12.526,-0l9.472,-20.547c0.871,-1.847 2.716,-3.017 4.702,-3.017l21.327,-0l-1.94,4.09l-17.888,-0c-0.779,0.047 -1.556,0.49 -1.894,1.262l-6.524,14.124l1.881,-0l3.971,-8.578c0.871,-1.798 2.658,-2.964 4.69,-3.014l14.022,-0l-1.878,4.092l-11.122,-0c-0.534,0.001 -1.022,0.339 -1.267,0.828" style="fill:#fff;fill-rule:nonzero;"/><path d="M53.417,24.629c-0.197,0.139 -0.393,0.337 -0.486,0.582l-4.98,10.806l-5.375,-0l5.862,-12.664l0.046,-0c0.871,-1.845 2.706,-3.015 4.736,-3.015l13.503,-0l-1.939,4.092l-10.646,-0c-0.29,-0 -0.533,0.091 -0.721,0.199" style="fill:#fff;fill-rule:nonzero;"/><path d="M100.436,36.017l4.979,-10.665l0,-0.246c0,-0.34 -0.243,-0.585 -0.578,-0.585l-9.486,-0l-5.318,11.495l-5.317,-0l7.198,-15.584l16.939,-0c1.451,-0 2.657,1.167 2.657,2.582c0,0.386 -0.092,0.782 -0.243,1.121l-5.515,11.881l-5.316,-0l0,0.001Z" style="fill:#fff;fill-rule:nonzero;"/><path d="M108.747,36.017l7.255,-15.679l5.329,-0l-7.255,15.679l-5.329,-0Z" style="fill:#fff;fill-rule:nonzero;"/><path d="M139.804,32.992c-0.873,1.858 -2.612,2.968 -4.589,3.025l-13.988,0c-1.45,0 -2.611,-1.167 -2.611,-2.626c0,-0.398 0.058,-0.738 0.195,-1.076l4.215,-9.054l1.394,-3.013l5.281,0l-4.887,10.804c-0.093,0.233 -0.093,0.432 0,0.585c0.047,0.094 0.245,0.233 0.486,0.233l8.938,0c0.443,0 0.78,-0.233 0.977,-0.631l5.028,-10.992l5.375,0l-5.804,12.744l-0.01,0l0,0.001Z" style="fill:#fff;fill-rule:nonzero;"/><path d="M167.373,24.38l-15.094,-0c-0.288,-0 -0.476,0.049 -0.671,0.141c-0.2,0.107 -0.29,0.292 -0.384,0.492l-0.532,1.121l11.805,-0c1.451,-0 2.612,1.169 2.612,2.627c0,0.434 -0.06,0.727 -0.243,1.123l-0.291,0.631l-1.161,2.429c-0.825,1.846 -2.612,3.073 -4.644,3.073l-18.042,-0l1.931,-4.146l15.24,-0c0.384,-0 0.72,-0.234 0.917,-0.632l0.534,-1.12l-11.806,-0c-1.45,-0 -2.61,-1.17 -2.61,-2.619c0,-0.397 0.091,-0.784 0.29,-1.167l0,-0.013l1.448,-3.107c0.383,-0.98 0.966,-1.706 1.742,-2.195c0.827,-0.479 1.79,-0.725 2.993,-0.771l17.904,-0l-1.938,4.133Z" style="fill:#fff;fill-rule:nonzero;"/><path d="M23.297,72.911c-0.764,0.34 -1.841,0.439 -2.655,0.439c-2.605,0 -3.834,-1.741 -3.834,-4.31c-0,-2.529 1.629,-4.308 4.196,-4.308c0.94,0 1.529,0.163 2.067,0.351l-0.075,1.604c-0.539,-0.264 -0.99,-0.477 -1.841,-0.477c-1.528,0 -2.28,1.278 -2.28,2.83c-0,1.403 0.488,2.832 1.991,2.832c0.227,0 0.426,-0.039 0.602,-0.126l-0,-1.927l-0.964,0l-0,-1.403l2.793,0l-0,4.495Z" style="fill:#e2001a;fill-rule:nonzero;"/><path d="M26.341,73.214l-0,-8.356l3.067,-0c1.353,-0 2.58,0.688 2.58,2.142c-0,1.104 -0.576,1.844 -1.665,2.056c0.601,0.164 0.889,0.501 1.14,1.314l0.876,2.843l-2.117,-0l-0.665,-2.441c-0.188,-0.689 -0.438,-0.901 -0.851,-0.901l-0.401,-0l-0,3.343l-1.964,-0Zm1.953,-4.812l0.551,-0c0.713,-0 1.127,-0.399 1.127,-1.064c-0,-0.712 -0.438,-1.026 -1.14,-1.026l-0.538,-0l-0,2.09Z" style="fill:#e2001a;fill-rule:nonzero;"/><path d="M34.957,73.212l-0,-8.354l4.797,-0l-0,1.516l-2.83,-0l-0,1.789l2.63,-0l-0,1.506l-2.63,-0l-0,2.027l2.943,-0l-0,1.516l-4.91,-0Z" style="fill:#e2001a;fill-rule:nonzero;"/><path d="M42.797,73.212l-0,-8.354l2.555,-0l2.067,6.086l-0,-6.086l1.691,-0l-0,8.354l-2.567,-0l-2.055,-6.076l-0,6.076l-1.691,0Z" style="fill:#e2001a;fill-rule:nonzero;"/><path d="M52.002,73.212l-0,-1.539l3.22,-5.299l-3.119,0l-0,-1.516l5.285,0l-0,1.542l-3.168,5.296l3.207,0l-0,1.516l-5.425,-0Z" style="fill:#e2001a;fill-rule:nonzero;"/><path d="M60.206,73.212l-0,-8.354l4.798,-0l-0,1.516l-2.83,-0l-0,1.789l2.629,-0l-0,1.506l-2.629,-0l-0,2.027l2.943,-0l-0,1.516l-4.911,-0Z" style="fill:#e2001a;fill-rule:nonzero;"/><path d="M68.047,73.212l0,-8.354l2.554,-0l2.067,6.086l-0,-6.086l1.691,-0l-0,8.354l-2.567,-0l-2.055,-6.076l0,6.076l-1.69,0Z" style="fill:#e2001a;fill-rule:nonzero;"/><path d="M84.954,73.212l-2.367,-8.354l2.168,-0l1.377,6.137l1.328,-6.137l2.092,-0l-2.355,8.354l-2.243,-0Z" style="fill:#e2001a;fill-rule:nonzero;"/><path d="M91.72,73.212l0,-8.354l4.796,-0l-0,1.516l-2.832,-0l-0,1.789l2.631,-0l-0,1.506l-2.631,-0l-0,2.027l2.945,-0l-0,1.516l-4.909,-0Z" style="fill:#e2001a;fill-rule:nonzero;"/><path d="M99.307,73.214l-0,-8.356l3.069,-0c1.353,-0 2.58,0.688 2.58,2.142c-0,1.104 -0.576,1.844 -1.666,2.056c0.602,0.164 0.89,0.501 1.141,1.314l0.875,2.843l-2.116,-0l-0.663,-2.441c-0.188,-0.689 -0.438,-0.901 -0.852,-0.901l-0.402,-0l-0,3.343l-1.966,-0Zm1.955,-4.812l0.551,-0c0.715,-0 1.127,-0.399 1.127,-1.064c-0,-0.712 -0.437,-1.026 -1.138,-1.026l-0.54,-0l0,2.09Z" style="fill:#e2001a;fill-rule:nonzero;"/><path d="M107.273,71.408c0.639,0.352 1.304,0.514 1.804,0.514c0.915,0 1.228,-0.475 1.228,-1.014c0,-0.589 -0.538,-0.9 -1.064,-1.164l-0.526,-0.25c-1.064,-0.503 -1.565,-1.129 -1.565,-2.281c0,-1.603 1.391,-2.479 2.942,-2.479c0.738,0 1.43,0.1 1.942,0.288l-0.076,1.59c-0.488,-0.263 -1.113,-0.451 -1.652,-0.451c-0.589,0 -1.104,0.288 -1.104,0.876c0,0.503 0.354,0.767 0.89,1.003l0.514,0.227c1.052,0.475 1.755,1.074 1.755,2.479c0,1.555 -1.252,2.606 -3.058,2.606c-0.714,0 -1.464,-0.089 -2.104,-0.34l0.074,-1.604Z" style="fill:#e2001a;fill-rule:nonzero;"/><path d="M119.637,73.062c-0.452,0.188 -0.966,0.288 -1.668,0.288c-2.555,0 -4.107,-1.703 -4.107,-4.31c0,-2.968 2.094,-4.308 3.995,-4.308c0.803,0 1.378,0.139 1.729,0.325l-0.075,1.592c-0.338,-0.239 -0.814,-0.376 -1.402,-0.376c-1.253,0 -2.18,1.063 -2.18,2.767c0,1.691 0.89,2.77 2.229,2.77c0.538,0 1.015,-0.126 1.402,-0.34l0.077,1.592Z" style="fill:#e2001a;fill-rule:nonzero;"/><path d="M121.937,73.212l-0,-8.354l1.993,-0l0,3.282l1.891,0l0,-3.282l2.004,-0l-0,8.354l-2.004,-0l0,-3.507l-1.891,0l0,3.507l-1.993,-0Z" style="fill:#e2001a;fill-rule:nonzero;"/><rect x="130.846" y="64.857" width="1.99" height="8.354" style="fill:#e2001a;"/><path d="M135.854,73.212l-0,-8.354l4.798,-0l-0,1.516l-2.832,-0l-0,1.789l2.63,-0l-0,1.506l-2.63,-0l-0,2.027l2.944,-0l-0,1.516l-4.91,-0Z" style="fill:#e2001a;fill-rule:nonzero;"/><path d="M143.444,73.212l-0,-8.354l3.055,-0c1.254,-0 2.42,0.74 2.42,2.079c-0,1.054 -0.715,1.742 -1.503,1.942c0.824,0.162 1.664,0.763 1.664,1.967c0,1.464 -1.151,2.366 -2.556,2.366l-3.08,-0Zm1.941,-4.922l0.54,0c0.662,0 1.064,-0.401 1.064,-1.064c0,-0.666 -0.45,-0.965 -1.064,-0.965l-0.54,0l0,2.029Zm0,3.521l0.64,0c0.663,0 1.102,-0.34 1.102,-1.091c0,-0.702 -0.438,-1.089 -1.091,-1.089l-0.65,0l0,2.18l-0.001,-0Z" style="fill:#e2001a;fill-rule:nonzero;"/><path d="M151.722,73.212l-0,-8.354l4.797,-0l0,1.516l-2.83,-0l0,1.789l2.629,-0l0,1.506l-2.629,-0l0,2.027l2.943,-0l0,1.516l-4.91,-0Z" style="fill:#e2001a;fill-rule:nonzero;"/><path d="M159.311,73.212l0,-8.354l2.557,-0l2.066,6.086l0,-6.086l1.691,-0l0,8.354l-2.568,-0l-2.053,-6.076l0,6.076l-1.693,0Z" style="fill:#e2001a;fill-rule:nonzero;"/></g></svg>