<?xml version="1.0" encoding="utf-8"?>
<!-- Generator: Adobe Illustrator 21.0.0, SVG Export Plug-In . SVG Version: 6.00 Build 0)  -->
<svg version="1.1" id="图层_1" xmlns="http://www.w3.org/2000/svg" xmlns:xlink="http://www.w3.org/1999/xlink" x="0px" y="0px"
	 viewBox="0 0 3398 928.6" style="enable-background:new 0 0 3398 928.6;" xml:space="preserve">
<style type="text/css">
	.st0{fill:#00ACE7;}
</style>
<g>
	<path class="st0" d="M2163.4,418.3c20.2-44.9-12.5-95.5-61.7-95.7l0,0c-27.1-0.1-51.6,15.8-62.5,40.5
		c-37.6,85.5-123.1,279.9-153.3,348c-1.5,3.1-2.9,6.1-4.2,9c-1.9,4.4-5.8,6.9-9.9,7.4c-0.1,0-0.3,0-0.4,0c-0.4,0-0.9,0.1-1.3,0.1
		s-0.9,0-1.3-0.1c-0.1,0-0.3,0-0.4,0c-4.1-0.6-7.8-3-9.9-7.4c-1.3-2.9-2.7-5.9-4.2-9c-30.1-68.1-115.8-262.6-153.3-347.9
		c-10.9-24.8-35.5-40.7-62.5-40.5l0,0c-49.2,0.2-82,50.9-61.7,95.7c30.5,67.5,184.4,409.2,195.8,434.5
		c12.3,27.3,31.1,48.5,59.9,56.2c11.6,3.7,24.1,5.3,37.6,5c13.4,0.3,26-1.3,37.6-5c28.8-7.8,47.6-28.9,59.9-56.2
		C1977.5,831,2133,485.8,2163.4,418.3z"/>
	<path class="st0" d="M1289.6,322.7c-166.2-2.6-301.2,127.7-303.3,292.5C984.1,777.6,1115.1,912,1277.7,914
		c165.2,2.1,298.2-127.6,300.4-293.1C1580.4,460.5,1449.5,325.2,1289.6,322.7z M1281.9,787.7c-93.1-0.2-168.6-76.3-168.3-169.9
		c0.3-93.5,76.4-168.7,169.9-167.9c92.8,0.8,167.6,76.2,167.6,168.8C1451.2,711.7,1375,787.9,1281.9,787.7z"/>
	<path class="st0" d="M2743.1,513.9c-1.5-3.9-2.9-7.7-4.6-11.3c-46.5-109.9-153.7-180.9-272.9-180.9
		c-163.3,0-296.3,132.9-296.3,296.3s132.9,296.3,296.3,296.3c107.6,0,206.9-58.5,259.2-152.7c17-30.5,5.9-69.1-24.6-86
		c-30.6-17-69.1-5.9-86,24.6c-29.9,54-86.9,87.6-148.5,87.6c-56.1,0-105.9-27.4-136.8-69.5l373.9-121.8c0.3-0.1,0.5-0.2,0.8-0.2
		l2.6-0.9l0,0l0,0C2738.7,583.1,2755.4,546.7,2743.1,513.9z M2465.6,448.2c47.3,0,91.3,19.5,122.8,52.4l-290.9,94.7
		C2308.5,512.4,2379.8,448.2,2465.6,448.2z"/>
	<path class="st0" d="M161.8,317l4.6,2.4c35.1,18.2,77.5,7.2,100.9-24.6c52.2-71.2,136.4-117.4,231.5-117.4
		c68,0,130.5,23.7,179.6,63.3c29.1,23.3,70.3,23.3,99.2-0.3l4.1-3.4c38.4-31.3,39.1-90.4,0.8-121.7
		c-77.2-63.1-176-100.9-283.6-100.9c-150.6,0-283.8,74-365.4,187.6C105.6,240.6,119.5,295.1,161.8,317z"/>
	<path class="st0" d="M867.8,384.2c-110.7,0-332.2,0-443.1,0c-44.1,0-79.8,35.8-79.8,79.8s35.8,79.8,79.8,79.8h349.7
		c-29.9,104-118,183.8-225,202.9l0,0c-7.4,1.4-14.7,2.2-22.3,3c-105.9,10.2-201.5-37.2-259-114.6c-24.2-32.6-67.8-43.7-103.8-25
		c-44.8,23.3-57.5,80.9-27.4,121.4C218.8,842.3,350.4,914,498.6,914c248.4,0,449.8-201.4,449.8-449.8c0-0.3,0-0.6,0-0.8
		C948.5,419.4,911.7,384.2,867.8,384.2z"/>
	<circle class="st0" cx="113.4" cy="465.3" r="98.3"/>
	<path class="st0" d="M3332.3,675.4c-30.6-17-69.1-5.9-86,24.6c-29.9,54-86.9,87.6-148.5,87.6c-56.1,0-105.9-27.4-136.8-69.5
		l373.9-121.7c0.3-0.1,0.5-0.2,0.8-0.2l2.6-0.9l0,0l0,0c32.7-12.2,49.4-48.6,37.1-81.4c-1.5-3.9-2.9-7.7-4.6-11.3
		c-46.5-109.9-153.7-180.9-272.9-180.9c-163.3,0-296.3,132.9-296.3,296.3s132.9,296.3,296.3,296.3c107.6,0,206.9-58.5,259.2-152.7
		C3373.9,730.8,3362.9,692.4,3332.3,675.4z M3097.7,448.2c47.3,0,91.3,19.5,122.8,52.4l-290.9,94.7
		C2940.6,512.4,3011.8,448.2,3097.7,448.2z"/>
</g>
</svg>
