<svg xmlns="http://www.w3.org/2000/svg" width="600" height="600" viewBox="0 0 600 600"><defs><linearGradient id="a" x1="0" x2="-307.58" y1="0" y2="307.58" gradientTransform="translate(987.58 11.95)" gradientUnits="userSpaceOnUse"><stop offset="0" stop-color="#5dc5ff"/><stop offset="1" stop-color="#375ee6"/></linearGradient></defs><path fill="#fff" d="M0 0h600v600H0z"/><path fill="url(#a)" fill-rule="evenodd" d="M693.83 42.86c-79.84 65.88-91.17 184.15-25.3 264 65.9 79.83 184.16 91.16 264 25.28 72.42-59.76 88.47-162.61 41.66-240.8l16-71.51a8.1 8.1 0 0 0-9.72-9.66l-71.02 16.36C843.28-13 756.65-8.98 693.83 42.86" transform="matrix(.8127 0 0 -.8127 -359.78 373.47)"/><path fill="#fff" d="M242.03 277.02V183c0-1.95.87-3.8 2.36-5.05l53.85-44.9a6.6 6.6 0 0 1 8.42 0l53.84 44.9a6.6 6.6 0 0 1 2.37 5.05v94.02a6.6 6.6 0 0 1-6.58 6.57H248.61a6.6 6.6 0 0 1-6.58-6.57"/><path fill="#2e343b" d="M145.24 447.44c9.51-7.18 16.2-6.73 24.9 1.53 5.8-6.5 14.84-8.4 21.82-4.53a13.7 13.7 0 0 1 7.42 12.28c.2 7.87 0 15.77.09 23.63 0 1.03-.37 1.3-1.32 1.27a70 70 0 0 0-5.57 0c-1.22.06-1.62-.27-1.6-1.57.06-6.5 0-12.99 0-19.44a16 16 0 0 0-.1-2.28c-.82-5.35-4.13-8.12-9.42-7.88s-8.93 3.79-9.1 9.14c-.2 6.66-.16 13.34-.05 20 0 1.77-.52 2.18-2.13 2.04a29 29 0 0 0-4.58 0c-1.31.09-1.74-.31-1.72-1.68.07-6.28 0-12.57 0-18.86a18 18 0 0 0-.18-3.23c-.92-5.2-4.4-7.78-9.81-7.36-5.12.39-8.63 4.23-8.7 9.78a909 909 0 0 0 0 19.48c0 1.44-.3 2.08-1.86 1.91-2.13-.22-4.94.93-6.25-.43s-.32-4-.33-6.07v-29.93c0-1.47.42-1.85 1.86-1.77a44 44 0 0 0 5.16 0c1.18-.07 1.61.32 1.48 1.5a25 25 0 0 0 0 2.47m-67.15 6.31v26.11c0 1.55-.45 1.98-1.94 1.86a34 34 0 0 0-5.34 0c-1.64.15-1.86-.58-1.86-1.95.07-6.68 0-13.35.07-20.02 0-1.58-.38-2.02-1.99-2q-13.17.13-26.36 0c-1.47 0-1.8.41-1.78 1.85.07 6.74 0 13.48.06 20.22 0 1.39-.3 1.85-1.77 1.8a57 57 0 0 0-5.92 0c-1.03 0-1.27-.36-1.27-1.32v-53.01c0-1.1.34-1.42 1.41-1.37q3.06.12 6.11 0c1.27-.08 1.45.46 1.44 1.55v20.02c0 1.37.18 1.96 1.81 1.94q13.28-.14 26.56 0c1.48 0 1.76-.42 1.75-1.85-.07-6.62 0-13.22-.07-19.84 0-1.46.4-1.85 1.86-1.75a45 45 0 0 0 5.72 0c1.3-.07 1.57.4 1.57 1.61-.08 8.73-.06 17.44-.06 26.15m211.57 28.85c-14.69 0-25.98-8.98-28.5-23.04-2.9-16 6-31.11 22.95-34 9.28-1.56 17.87 0 25.15 6.41 4.43 3.9 4.4 4.19-.34 7.29-1.06.7-2.09 1.85-3.2 1.95s-1.7-1.64-2.6-2.45c-6.24-5.57-13.4-6.58-20.98-3.72s-11.37 9.1-11.94 17.1c-.74 10.32 4.87 18.55 14.24 20.91 7.85 1.95 14.76.17 20.05-6.27.65-.78 1.05-.86 1.86-.25a90 90 0 0 0 5.36 3.95c.98.66.84 1.13.2 1.92-5.3 6.66-12.32 9.75-20.7 10.15-.53.08-1.04.05-1.55.05m-59.49-16.9c-4.07 0-8.14.08-12.21 0-1.76-.06-1.86.5-1.36 1.94 1.98 6.1 7.77 8.93 14.78 7.13a17 17 0 0 0 6.01-2.78c.84-.64 1.27-.54 1.78.32s1.16 1.67 1.75 2.5c1.85 2.61 1.85 2.61-.93 4.4-8.04 5.13-19.9 4.63-26.37-1.34-5.64-5.2-6.9-11.9-5.82-19.19 2.1-14.27 15.52-18.46 24.95-15.04 6.8 2.44 10.11 7.7 11.39 14.5a33 33 0 0 1 .4 5.7c0 1.44-.4 1.97-1.94 1.92-4.15-.14-8.29-.06-12.43-.06m-4.19-6.5c2.78 0 5.57-.05 8.35 0 1.34 0 1.41-.39 1.1-1.53-1.35-4.97-4.8-7.85-9.49-7.8s-8.14 2.85-9.5 7.8c-.32 1.16-.22 1.57 1.1 1.53 2.85-.04 5.65.01 8.44.01Zm253.74 6.5h-12.62c-1.1 0-1.4.2-1.08 1.38 1.63 6.34 7.61 9.5 14.77 7.7a16 16 0 0 0 6.04-2.77c.98-.77 1.45-.53 2.04.43a36 36 0 0 0 2.62 3.71c.63.8.55 1.19-.25 1.8a23 23 0 0 1-10.62 4.4c-8.73 1.4-16.5-1.75-20.64-8.35-5.57-8.92-3.27-22.33 4.78-28.05 11.4-8.12 26.62-1.86 28.9 11.9a31 31 0 0 1 .38 6.28c0 1.2-.45 1.61-1.71 1.59-4.2-.08-8.38-.02-12.6-.02m-4.09-6.5H484c1.07 0 1.48-.2 1.25-1.37a9.72 9.72 0 0 0-19.12 0c-.22 1.06-.1 1.44 1.1 1.4 2.83-.07 5.6-.02 8.4-.02Zm-367.67 23.4c-11.94 0-20.57-8.4-20.57-20.04s8.84-20.13 20.63-20.07 20.58 8.69 20.53 20.22-8.77 19.89-20.59 19.89m0-32.15c-6.87 0-11.9 5.15-11.86 12.19s5.13 12.2 11.94 12.19 11.87-5.26 11.87-12.27-5.05-12.11-11.98-12.11ZM338.6 482.6c-11.81 0-20.41-8.35-20.5-19.94s8.8-20.1 20.62-20.17c11.65-.06 20.4 8.54 20.46 20.03s-8.7 20.08-20.58 20.08m.21-32.15c-6.86 0-11.95 5.09-12.06 12.06a11.9 11.9 0 0 0 11.9 12.28c6.81 0 11.9-5.13 11.96-12.18s-4.88-12.14-11.8-12.16m83.24-2.7c6.64-7.67 18.56-5.96 23.35-.43a15.8 15.8 0 0 1 3.78 10.69v21.9c0 1.33-.35 1.8-1.7 1.7a34 34 0 0 0-4.97 0c-1.4.1-1.85-.33-1.85-1.78.08-6.22 0-12.44 0-18.67 0-.76 0-1.53-.1-2.28-.54-5.5-3.66-8.48-8.86-8.44-5.36 0-9.35 3.37-9.56 8.59-.28 6.84-.2 13.7-.15 20.56 0 1.53-.32 2.17-1.98 2.03a43 43 0 0 0-5.15 0c-.92 0-1.21-.26-1.21-1.2v-35.81c0-.93.35-1.2 1.23-1.17a51 51 0 0 0 5.34 0c1.52-.11 1.92.5 1.74 1.86a24 24 0 0 0 .1 2.45m-46.12-.13c5.33-5.64 11.54-6.31 18.06-3.83 5.87 2.24 8.79 7 8.9 13.2.16 7.7 0 15.39.08 23.07 0 1.32-.46 1.62-1.66 1.56a37 37 0 0 0-4.78 0c-1.45.1-1.95-.3-1.93-1.86.1-6.16.06-12.33 0-18.49a16 16 0 0 0-.72-5.26c-1.42-4.13-5.1-6.16-9.92-5.5a9.06 9.06 0 0 0-8.03 8.98q-.18 9.9 0 19.83c0 1.85-.38 2.53-2.28 2.3s-4.7.83-5.85-.44c-1-1.1-.32-3.71-.32-5.7v-30.13c0-1.6.43-2.1 2.02-1.96a25 25 0 0 0 4.57 0c1.53-.13 2.08.42 1.86 1.86a21 21 0 0 0 0 2.37m168.9 13.87c0-2.79-.1-5.57.04-8.35.09-1.66-.5-2.07-2.04-1.93s-2.92 0-4.38 0c-1.03.05-1.32-.36-1.28-1.32.1-2.02-.64-4.64.36-5.9s3.7-.36 5.63-.34c1.32 0 1.76-.3 1.7-1.67-.1-2.78 0-5.56-.06-8.35 0-1.22.36-1.5 1.5-1.45q2.79.14 5.57 0c1 0 1.32.28 1.3 1.28-.06 2.78.08 5.56-.06 8.35-.08 1.58.5 1.85 1.92 1.85 3.82-.09 7.64 0 11.45-.05 1.06 0 1.46.24 1.4 1.35a41 41 0 0 0 0 4.76c.07 1.15-.27 1.53-1.47 1.5-3.82-.08-7.64 0-11.46-.05-1.35 0-1.86.21-1.86 1.73.14 5.33 0 10.67.2 15.99.2 4.27 3 6.32 7.23 5.75a14 14 0 0 0 5.17-1.86c.81-.46 1.27-.53 1.71.47.7 1.62 1.52 3.2 2.37 4.76.38.7.3 1.07-.4 1.51-5.33 3.24-10.98 4.35-16.95 2.22-5.16-1.86-7.1-6.1-7.48-11.14-.23-3.02 0-6.08 0-9.13Zm-25.63 21.11c-9.44 0-16.93-5.88-18.96-15.34-2.1-9.82 2.3-19.38 10.97-22.95 7.6-3.12 14.9-2.52 21.48 2.86 1.24 1.01 1.28 1.77.12 2.84a26 26 0 0 0-2.97 3.22c-.8 1.03-1.34 1.05-2.37.2-4.24-3.49-9.42-3.97-13.64-1.43s-6.44 8.35-5.13 13.92c1.25 5.24 4.93 8.45 10.33 8.83a12.7 12.7 0 0 0 8.95-3.14c.82-.66 1.28-.68 1.96.15a43 43 0 0 0 3.42 3.84c.87.87.6 1.38-.17 2.1-3.78 3.43-8.27 5-13.99 4.9"/><path fill="#e53935" d="M385 0h215v215z"/><path fill="#fff" d="M563.31 52.32a21.72 21.72 0 0 0-40.6-5.8 17.38 17.38 0 0 0 1.89 34.68h37.7c8 0 14.5-6.5 14.5-14.5 0-7.66-5.94-13.86-13.48-14.38"/><path stroke="#e53935" stroke-linecap="round" stroke-width="17.4" d="m510.1 89.9 63.8-63.8"/><path stroke="#fff" stroke-linecap="round" stroke-width="8.7" d="m510.1 89.9 63.8-63.8"/></svg>