<?xml version="1.0" encoding="utf-8"?>
<!-- Generator: Adobe Illustrator 23.0.1, SVG Export Plug-In . SVG Version: 6.00 Build 0)  -->
<svg version="1.1" id="Livello_1" xmlns="http://www.w3.org/2000/svg" xmlns:xlink="http://www.w3.org/1999/xlink" x="0px" y="0px"
	 width="1024px" height="1024px" viewBox="0 0 1024 1024" enable-background="new 0 0 1024 1024" xml:space="preserve">
<g>
	<path fill="#FFFFFF" enable-background="new    " d="M227.6,0h568.9C922.1,0,1024,101.9,1024,227.6v568.9
		c0,125.7-101.9,227.6-227.6,227.6H227.6C101.9,1024,0,922.1,0,796.4V227.6C0,101.9,101.9,0,227.6,0z"/>
	<g>
		<path fill="#FA9012" d="M883.2,413.1l-70.4-55.6l0,0V231.1c0-8.6-3.4-11-9.5-11h-64.4c-7,0-11.3,1.4-11.3,11v59.1l0,0
			C634.5,216.7,533.6,137,529.8,134c-7.6-6-12.3-7.6-17.8-7.6c-5.4,0-10.1,1.6-17.8,7.6c-7.6,6-343.2,271.1-353.4,279.1
			c-12.4,9.8-8.9,23.9,4.9,23.9h65.5v355.6c0,23,9.2,32.2,31.1,32.2h539.4c21.9,0,31.1-9.2,31.1-32.2V436.9h65.5
			C892.1,436.9,895.6,422.9,883.2,413.1z M757.6,742.6c0,15.9-8.2,26.9-24.8,26.9H291.1c-16.6,0-24.8-11-24.8-26.9V410.3
			c0-19.3,8.4-31.6,18.1-39.2l212.4-167.7c5.6-4.4,10.4-6.3,15.1-6.3s9.5,1.9,15.1,6.4l212.4,167.7c9.6,7.6,18.1,19.9,18.1,39.2
			V742.6z"/>
		<path fill="#FFAB1F" d="M739.6,371.1L527.1,203.3c-5.6-4.4-10.6-6.3-15.1-6.3c-4.6,0-9.5,1.9-15.1,6.4L284.4,371.1
			c-9.6,7.6-18.1,19.9-18.1,39.2v332.3c0,15.9,8.2,26.9,24.8,26.9h441.7c16.6,0,24.8-11,24.8-26.9V410.3
			C757.6,391,749.2,378.7,739.6,371.1z M702.6,692.7c0,14.8-8.4,21.7-20.7,21.7H342.2c-12.3,0-20.7-6.9-20.7-21.7V433.2
			c0-14.4,3.4-22.6,13.6-30.7c5.8-4.6,160.3-126.6,164.4-129.8c4.1-3.3,8.5-4.9,12.5-4.9c4,0,8.4,1.7,12.5,4.9
			c4.1,3.3,158.6,125.3,164.4,129.8c10.2,8.1,13.6,16.4,13.6,30.7L702.6,692.7z"/>
		<path fill="#FFBE41" d="M688.9,402.5c-5.8-4.5-160.3-126.6-164.4-129.8c-4.1-3.3-8.5-4.9-12.5-4.9c-4,0-8.4,1.7-12.5,4.9
			c-4.1,3.3-158.6,125.3-164.4,129.8c-10.2,8.1-13.6,16.4-13.6,30.7v259.5c0,14.8,8.4,21.7,20.7,21.7h339.7
			c12.3,0,20.7-6.9,20.7-21.7V433.2C702.5,418.9,699.1,410.6,688.9,402.5z M647.4,642.8c0,11.9-6.6,16.5-15.6,16.5H392.2
			c-9,0-15.6-4.6-15.6-16.5V456.2c0-8.3,0-14.9,9.1-22.2c6-4.8,113.2-89.4,116.4-91.9s6.4-3.8,9.9-3.8c3.6,0.1,7.1,1.5,9.9,3.8
			c3.2,2.5,110.4,87.1,116.4,91.9c9.1,7.3,9.1,13.9,9.1,22.2L647.4,642.8z"/>
		<path fill="#FFD260" d="M638.3,434c-6-4.8-113.2-89.4-116.4-91.9c-2.8-2.4-6.3-3.7-9.9-3.8c-3.5,0-6.7,1.3-9.9,3.8
			S391.6,429.2,385.7,434c-9.1,7.3-9.1,13.9-9.1,22.2v186.6c0,11.9,6.6,16.5,15.6,16.5h239.5c9,0,15.6-4.6,15.6-16.5V456.2
			C647.4,447.8,647.4,441.2,638.3,434z M592.3,593c0,9.2-4.6,11.2-11,11.2H442.8c-6.4,0-11-2.1-11-11.2V479.1
			c0-6.4,2.9-12.6,7.8-16.6c2.8-2.3,63-49.4,65.1-51.1c4.2-3.5,10.4-3.5,14.6,0c2.2,1.7,62.3,48.8,65.1,51.1
			c5,4.1,7.9,10.2,7.8,16.6L592.3,593z"/>
		<path fill="#FFE780" d="M512,604.1h69.2c6.4,0,11-2.1,11-11.2V479.1c0-6.4-2.9-12.6-7.8-16.6c-2.8-2.3-63-49.4-65.1-51.1
			c-4.2-3.5-10.4-3.5-14.6,0c-2.1,1.7-62.3,48.8-65.1,51.1c-5,4.1-7.9,10.2-7.8,16.6v113.8c0,9.2,4.6,11.2,11,11.2L512,604.1z"/>
	</g>
</g>
</svg>
