<svg width="342" height="379" xmlns="http://www.w3.org/2000/svg">
  <g fill="none" fill-rule="evenodd">
    <path d="M341.35164102 118.40471863l-3.8e-7 142.36703294c3.1e-7 16.81249855-8.96936072 32.34788753-23.52941195 40.75413703l-123.29346724 71.1835165c-14.56005037 8.406249-32.49877327 8.40624952-47.05882395-3e-8L24.1764708 301.52588853C9.61641927 293.11963948.64705827 277.58425052.6470588 260.77175147l-3e-7-142.36703254c-3.7e-7-16.81249863 8.96936148-32.3478882 23.52941185-40.7541372l123.29346724-71.1835165c14.56005123-8.4062495 32.49877331-8.40624943 47.05882405 2e-7l123.29346738 71.18351614c14.56005086 8.40624945 23.52941186 23.94163841 23.529412 40.75413706z" fill="#E74C3C"/>
    <path d="M137.069938 292.788235c3.952941 0 6.588236-1.427451 7.905883-4.282353 1.317647-2.854902 2.415686-5.819607 3.294117-8.894117.658824-3.733334 1.921569-8.509804 3.788236-14.329412 1.866666-5.819608 4.117647-11.694118 6.752941-17.623529 2.635294-5.929412 5.545098-11.309804 8.729411-16.141177 3.184314-4.831372 6.533334-8.015686 10.047059-9.552941 1.976471 3.952941 3.294118 8.67451 3.952941 14.164706.658824 5.490196 1.701961 10.705882 3.129412 15.647059 1.427451 4.941176 3.733334 9.113725 6.917647 12.517647 3.184314 3.403921 8.290196 5.105882 15.317647 5.105882 3.952942 0 8.290196-1.262745 13.011765-3.788235 4.721569-2.52549 9.058824-5.764706 13.011765-9.717647 3.952941-3.952942 7.301961-8.235294 10.047059-12.847059 2.745098-4.611765 4.117647-8.894118 4.117647-12.847059 0-1.976471-.603922-3.843137-1.811765-5.6-1.207843-1.756863-3.019608-2.635294-5.435294-2.635294-2.635294 0-4.831373 1.592157-6.588235 4.77647-1.756863 3.184314-3.62353 6.643138-5.6 10.376471-1.976471 3.733333-4.447059 7.192157-7.411765 10.376471-2.964706 3.184313-6.862745 4.77647-11.694118 4.77647-2.854902 0-4.886274-1.207843-6.094117-3.623529-1.207844-2.415686-2.141177-5.380392-2.8-8.894118-.658824-3.513725-1.262746-7.411765-1.811765-11.694117-.54902-4.282353-1.427451-8.180393-2.635294-11.694118-1.207843-3.513726-3.07451-6.478431-5.6-8.894118-2.52549-2.415686-5.984314-3.623529-10.376471-3.623529-2.854902 0-5.764706 1.098039-8.729412 3.294117-2.964706 2.196079-5.764706 4.776471-8.4 7.741177-2.635294 2.964706-5.05098 6.039216-7.247058 9.223529-2.196079 3.184314-3.952942 5.87451-5.270589 8.070589l1.317647-17.788236c6.368628-6.588235 12.407844-13.835294 18.117647-21.741176 5.709804-7.905883 10.705883-16.250981 14.988236-25.035294 4.282353-8.784314 7.686274-17.843138 10.211764-27.176471 2.525491-9.333333 3.788236-18.721569 3.788236-28.164706 0-2.635294-.164706-5.490196-.494118-8.564706-.329412-3.074509-1.098039-5.929411-2.305882-8.564706-1.207843-2.635294-2.854902-4.77647-4.941177-6.423529-2.086274-1.647059-4.886274-2.470588-8.4-2.470588-6.807843 0-12.737255 3.07451-17.788235 9.223529-5.05098 6.14902-9.388235 14.054902-13.011765 23.717647-3.623529 9.662745-6.588235 20.42353-8.894117 32.282353-2.305883 11.858824-4.172549 23.443137-5.6 34.752941-1.427451 11.309804-2.415687 21.741177-2.964706 31.294118-.54902 9.552941-.82353 16.854902-.82353 21.905882 0 7.247059-.164706 14.384314-.494117 21.411765-.329412 7.027451-1.262745 14.054902-2.8 21.082353-.219608.439216-.329412 1.207843-.329412 2.305882 0 2.415687.713725 4.447059 2.141176 6.094118 1.427451 1.647059 3.34902 2.470588 5.764706 2.470588zm14.494118-100.141176c.658823-5.270588 1.811765-12.188235 3.458823-20.752941 1.647059-8.564706 3.678432-17.294118 6.094118-26.188236 2.415686-8.894117 5.160784-17.239215 8.235294-25.035294 3.07451-7.796078 6.478432-13.341176 10.211765-16.635294.878431 1.976471 1.427451 4.062745 1.647059 6.258824.219608 2.196078.329411 4.392157.329411 6.588235 0 6.588235-.878431 13.286274-2.635294 20.094118-1.756862 6.807843-4.007843 13.505882-6.752941 20.094117-2.745098 6.588236-5.929412 12.901961-9.552941 18.941177-3.623529 6.039215-7.301961 11.584313-11.035294 16.635294zM219.635585 104.566118c1.904941 0 3.478589-.766118 4.720941-2.298353 1.242353-1.532236 1.86353-3.209412 1.86353-5.03153 0-1.242353-.352-2.422588-1.056-3.540706-.704-1.118117-1.76-1.677176-3.168-1.677176-1.076706 0-2.029177.289882-2.857412.869647-.828235.579765-1.511529 1.304471-2.049882 2.174118-.538353.869647-.931765 1.822117-1.180236 2.857411-.24847 1.035295-.372705 2.008471-.372705 2.91953 0 1.159529.393411 2.070588 1.180235 2.733176.786823.662589 1.76.993883 2.919529.993883zm.496941 36.15247c2.733177 0 5.300706-.869647 7.702589-2.608941.911059-.745412 2.029176-1.76 3.354353-3.043765 1.325176-1.283764 2.588235-2.691764 3.789176-4.224 1.200941-1.532235 2.21553-3.06447 3.043765-4.596706.828235-1.532235 1.242353-2.919529 1.242353-4.161882 0-.745412-.248471-1.366588-.745412-1.863529-.496941-.496941-1.118118-.745412-1.863529-.745412-.579765 0-1.097412.186353-1.552942.559059-.455529.372706-.848941.766117-1.180235 1.180235-.496941.911059-1.200941 2.112-2.112 3.602824-.911059 1.490823-1.925647 2.940235-3.043765 4.348235-1.118117 1.408-2.298353 2.629647-3.540705 3.664941-1.242353 1.035294-2.484706 1.552941-3.727059 1.552941-.745412 0-1.345883-.186353-1.801412-.559059-.455529-.372705-.766118-.828235-.931765-1.366588-.165647-.538353-.269176-1.138823-.310588-1.801412-.041412-.662588-.062118-1.283764-.062118-1.863529 0-1.325176.124236-2.712471.372706-4.161882.248471-1.449412.517647-2.857412.80753-4.224.289882-1.366589.559058-2.650353.807529-3.851294.248471-1.200942.372706-2.256942.372706-3.168 0-.911059-.269177-1.677177-.807529-2.298353-.538353-.621177-1.263059-.931765-2.174118-.931765-1.408 0-2.505412.807529-3.292235 2.422588-.786824 1.615059-1.387295 3.478588-1.801412 5.590588-.414118 2.112-.662588 4.224-.745412 6.336-.082823 2.112-.124235 3.664942-.124235 4.658824 0 1.408.124235 2.795294.372706 4.161882.24847 1.366588.683294 2.608941 1.30447 3.727059.621177 1.118118 1.470118 2.008471 2.546824 2.671059s2.443294.993882 4.099764.993882zm27.8827-2.608941c2.070588 0 4.12047-.434823 6.149647-1.304471 2.029176-.869647 3.954823-1.987764 5.776941-3.354352 1.822118-1.366589 3.457882-2.940236 4.907294-4.720942 1.449412-1.780706 2.629647-3.540706 3.540706-5.28.248471-.331294.372706-.786823.372706-1.366588 0-.745412-.248471-1.387294-.745412-1.925647-.496941-.538353-1.118118-.807529-1.863529-.807529-.662589 0-1.097412.103529-1.304471.310588-.207059.207059-.517647.559059-.931765 1.056-.911058 1.242353-1.884235 2.505412-2.919529 3.789176-1.035294 1.283765-2.174118 2.443294-3.416471 3.478589-1.242353 1.035294-2.588235 1.884235-4.037647 2.546823-1.449411.662588-3.043764.993882-4.783058.993882-1.904942 0-3.499295-.538352-4.783059-1.615058-1.283765-1.076706-2.132706-2.56753-2.546824-4.472471 1.822118-.082823 3.62353-.559059 5.404235-1.428706 1.780706-.869647 3.354353-2.00847 4.720942-3.41647 1.366588-1.408 2.484706-2.981647 3.354353-4.720942.869647-1.739294 1.30447-3.561411 1.30447-5.466353 0-2.153411-.60047-3.934117-1.801412-5.342117-1.200941-1.408-2.878117-2.112-5.031529-2.112-2.319059 0-4.410353.641882-6.273882 1.925647-1.86353 1.283765-3.437177 2.898823-4.720942 4.845176-1.283764 1.946353-2.256941 4.079059-2.919529 6.398118s-.993882 4.513882-.993882 6.584471c0 1.987764.310588 3.913411.931764 5.776941.621177 1.863529 1.51153 3.499294 2.671059 4.907294 1.15953 1.408 2.56753 2.546823 4.224 3.41647 1.656471.869648 3.561412 1.304471 5.714824 1.304471zm-5.342118-19.132235c-.331294 0-.828235-.082824-1.490823-.248471.082823-.828235.310588-1.822117.683294-2.981647.372706-1.159529.848941-2.256941 1.428706-3.292235.579764-1.035294 1.30447-1.904941 2.174117-2.608941.869647-.704 1.842824-1.056 2.91953-1.056.579764 0 1.014588.414117 1.30447 1.242353.289883.828235.434824 1.449411.434824 1.863529 0 .828235-.227765 1.656471-.683294 2.484706-.45553.828235-1.056 1.594353-1.801412 2.298353-.745412.704-1.552941 1.263059-2.422588 1.677176-.869647.414118-1.718589.621177-2.546824.621177z" fill="#FFF" fill-rule="nonzero"/>
  </g>
</svg>
