<?xml version="1.0" encoding="UTF-8" standalone="no"?><!DOCTYPE svg PUBLIC "-//W3C//DTD SVG 1.1//EN" "http://www.w3.org/Graphics/SVG/1.1/DTD/svg11.dtd"><svg width="672px" height="250px" version="1.1" xmlns="http://www.w3.org/2000/svg" xmlns:xlink="http://www.w3.org/1999/xlink" xml:space="preserve" xmlns:serif="http://www.serif.com/" style="fill-rule:evenodd;clip-rule:evenodd;stroke-linejoin:round;stroke-miterlimit:2;"><g id="influxdb_logo"><path id="symbol_2_" d="M158.223,140.695l-14.458,-63.16c-0.761,-3.424 -3.995,-6.849 -7.419,-7.8l-66.394,-20.356c-0.951,-0.19 -1.903,-0.38 -2.854,-0.38c-2.853,-0 -5.897,1.141 -7.609,2.853l-47.561,44.136c-2.473,2.283 -3.995,6.849 -3.234,10.273l15.41,67.536c0.761,3.424 3.995,6.848 7.419,7.8l62.019,19.024c0.951,0.19 1.902,0.38 2.853,0.38c2.854,0 5.898,-1.141 7.61,-2.853l50.794,-47.18c2.854,-2.283 4.185,-6.849 3.424,-10.273Zm-81.423,-76.477l45.468,13.888c1.712,0.57 1.712,1.331 -0,1.712l-23.97,5.517c-1.903,0.38 -4.376,-0.381 -5.517,-1.712l-16.741,-18.073c-1.332,-1.142 -0.952,-1.712 0.76,-1.332Zm28.346,81.613c0.381,1.903 -0.761,2.854 -2.473,2.283l-49.082,-15.029c-1.712,-0.57 -2.093,-2.092 -0.761,-3.234l37.668,-35.004c1.331,-1.332 2.853,-0.761 3.234,0.951l11.414,50.033Zm-80.852,-44.516l39.951,-37.097c1.331,-1.332 3.424,-1.141 4.756,0.19l19.975,21.498c1.332,1.331 1.141,3.424 -0.19,4.756l-39.951,37.096c-1.332,1.332 -3.424,1.142 -4.756,-0.19l-19.975,-21.497c-1.142,-1.332 -1.142,-3.424 0.19,-4.756Zm9.702,58.975l-10.653,-46.229c-0.381,-1.902 0.19,-2.092 1.522,-0.761l16.741,18.073c1.332,1.332 1.902,3.995 1.332,5.707l-7.229,23.4c-0.381,1.522 -1.332,1.522 -1.713,-0.19Zm58.404,26.824l-51.935,-15.981c-1.713,-0.57 -2.854,-2.473 -2.283,-4.185l8.56,-28.156c0.571,-1.712 2.474,-2.853 4.186,-2.282l51.935,15.98c1.713,0.57 2.854,2.473 2.283,4.185l-8.56,28.156c-0.571,1.902 -2.474,2.853 -4.186,2.283Zm46.229,-37.858l-34.814,32.341c-1.332,1.331 -2.093,0.761 -1.522,-0.952l7.229,-23.399c0.571,-1.712 2.473,-3.615 4.375,-3.995l23.971,-5.517c1.712,-0.381 2.092,0.38 0.761,1.522Zm3.804,-6.849l-28.726,6.468c-1.902,0.381 -3.614,-0.761 -3.995,-2.473l-12.175,-53.077c-0.381,-1.902 0.761,-3.615 2.473,-3.995l28.726,-6.468c1.903,-0.381 3.615,0.761 3.995,2.473l12.176,53.077c0.38,1.712 -0.761,3.615 -2.474,3.995Z" style="fill:url(#_Linear1);fill-rule:nonzero;"/><g id="type_2_"><g><path d="M217.198,99.032l16.931,-2.283l-11.985,68.106l-16.551,0l11.605,-65.823Zm4.946,-28.726l16.932,-2.283l-3.234,18.644l-16.932,2.473l3.234,-18.834Z" style="fill:url(#_Linear2);fill-rule:nonzero;"/><path d="M287.016,117.105c0.191,-0.761 0.191,-1.522 0.191,-1.712c-0,-1.712 -0.761,-2.854 -3.425,-2.854c-4.375,0 -13.697,4.186 -19.975,7.8l-7.8,44.516l-16.551,0l11.605,-65.633l14.268,-2.473l-0.19,8.181c8.751,-4.756 19.214,-8.371 27.204,-8.371c9.132,0 12.176,6.088 12.176,13.317c-0,2.663 -0.191,4.375 -0.761,6.658l-8.561,48.512l-16.551,-0l8.37,-47.941Z" style="fill:url(#_Linear3);fill-rule:nonzero;"/><path d="M357.786,111.208l-15.41,-0l-10.082,56.691c-1.903,10.844 -5.898,17.693 -14.649,25.302l-10.653,-9.892c5.326,-5.137 7.8,-9.703 8.941,-16.932l9.702,-55.169l-10.273,-0l2.283,-13.508l10.273,0l1.712,-9.702c2.473,-14.268 8.181,-20.546 25.112,-20.546c5.517,0 12.746,0.761 21.117,2.664l16.931,-2.283l-17.121,96.832l-16.551,0l14.458,-81.994c-6.659,-1.331 -13.317,-2.092 -18.644,-2.092c-5.707,-0 -7.99,1.902 -8.751,6.658l-1.712,10.273l16.741,0l-3.424,13.698Z" style="fill:url(#_Linear4);fill-rule:nonzero;"/><path d="M412.385,145.451c-0.19,0.951 -0.19,1.522 -0.19,1.712c-0,1.712 0.761,2.854 3.424,2.854c4.376,-0 13.697,-4.186 19.975,-7.8l7.61,-43.375l16.931,-2.283l-11.795,68.296l-14.077,0l0.19,-7.038c-8.751,4.756 -19.214,8.37 -27.205,8.37c-9.131,0 -12.175,-6.088 -12.175,-13.317c0,-2.663 0.19,-4.375 0.761,-6.658l8.18,-47.18l16.932,-2.283l-8.561,48.702Z" style="fill:url(#_Linear5);fill-rule:nonzero;"/><path d="M486.198,130.993l-14.458,-31.58l15.41,-2.854l10.082,23.78l16.551,-22.639l17.693,0l-27.395,35.385l14.648,31.77l-16.741,0l-9.131,-19.404l-16.171,19.404l-17.692,0l27.204,-33.862Z" style="fill:url(#_Linear6);fill-rule:nonzero;"/><path d="M582.08,164.855l-14.078,0l-0,-7.419c-5.707,5.137 -12.937,8.751 -22.829,8.751c-11.605,0 -15.6,-6.278 -15.6,-15.219c0,-2.283 0.19,-4.566 0.761,-7.039l3.424,-19.595c3.044,-17.121 6.278,-27.965 32.532,-27.965c2.473,-0 7.229,0.38 11.034,1.331l4.756,-27.204l16.931,-2.283l-16.931,96.642Zm-7.039,-53.647c-3.044,-0.761 -7.42,-0.761 -9.703,-0.761c-10.653,-0 -13.316,4.185 -14.838,13.126l-4.186,23.59c-0.19,0.761 -0.19,1.332 -0.19,1.712c0,2.473 1.712,3.615 4.756,3.615c7.039,-0 15.219,-5.707 18.644,-10.083l5.517,-31.199Z" style="fill:url(#_Linear7);fill-rule:nonzero;"/><path d="M615.942,70.306l16.932,-2.283l-6.088,34.243c7.42,-4.185 14.458,-5.897 21.117,-5.897c11.605,-0 15.6,6.278 15.6,15.219c-0,2.283 -0.191,4.566 -0.761,7.039l-3.234,19.595c-3.615,20.165 -10.464,27.965 -34.624,27.965c-6.278,0 -18.454,-2.093 -25.112,-4.375l16.17,-91.506Zm2.093,81.042c3.044,0.571 6.278,0.952 9.702,0.952c10.654,-0 13.317,-4.376 14.839,-13.127l4.185,-23.59c0.191,-0.761 0.191,-1.332 0.191,-1.712c-0,-2.473 -1.713,-3.615 -4.756,-3.615c-5.137,0 -12.176,2.283 -18.073,6.278l-6.088,34.814Z" style="fill:url(#_Linear8);fill-rule:nonzero;"/></g></g></g><defs><linearGradient id="_Linear1" x1="0" y1="0" x2="1" y2="0" gradientUnits="userSpaceOnUse" gradientTransform="matrix(528.421,0,0,528.421,87.4992,124.905)"><stop offset="0" style="stop-color:#4591ed;stop-opacity:1"/><stop offset="1" style="stop-color:#00c9ff;stop-opacity:1"/></linearGradient><linearGradient id="_Linear2" x1="0" y1="0" x2="1" y2="0" gradientUnits="userSpaceOnUse" gradientTransform="matrix(528.421,0,0,528.421,87.4992,116.417)"><stop offset="0" style="stop-color:#4591ed;stop-opacity:1"/><stop offset="1" style="stop-color:#00c9ff;stop-opacity:1"/></linearGradient><linearGradient id="_Linear3" x1="0" y1="0" x2="1" y2="0" gradientUnits="userSpaceOnUse" gradientTransform="matrix(528.421,0,0,528.421,87.4992,130.595)"><stop offset="0" style="stop-color:#4591ed;stop-opacity:1"/><stop offset="1" style="stop-color:#00c9ff;stop-opacity:1"/></linearGradient><linearGradient id="_Linear4" x1="0" y1="0" x2="1" y2="0" gradientUnits="userSpaceOnUse" gradientTransform="matrix(528.421,0,0,528.421,87.4992,130.457)"><stop offset="0" style="stop-color:#4591ed;stop-opacity:1"/><stop offset="1" style="stop-color:#00c9ff;stop-opacity:1"/></linearGradient><linearGradient id="_Linear5" x1="0" y1="0" x2="1" y2="0" gradientUnits="userSpaceOnUse" gradientTransform="matrix(528.421,0,0,528.421,87.4992,131.42)"><stop offset="0" style="stop-color:#4591ed;stop-opacity:1"/><stop offset="1" style="stop-color:#00c9ff;stop-opacity:1"/></linearGradient><linearGradient id="_Linear6" x1="0" y1="0" x2="1" y2="0" gradientUnits="userSpaceOnUse" gradientTransform="matrix(528.421,0,0,528.421,87.4992,130.732)"><stop offset="0" style="stop-color:#4591ed;stop-opacity:1"/><stop offset="1" style="stop-color:#00c9ff;stop-opacity:1"/></linearGradient><linearGradient id="_Linear7" x1="0" y1="0" x2="1" y2="0" gradientUnits="userSpaceOnUse" gradientTransform="matrix(528.421,0,0,528.421,87.4992,117.105)"><stop offset="0" style="stop-color:#4591ed;stop-opacity:1"/><stop offset="1" style="stop-color:#00c9ff;stop-opacity:1"/></linearGradient><linearGradient id="_Linear8" x1="0" y1="0" x2="1" y2="0" gradientUnits="userSpaceOnUse" gradientTransform="matrix(528.421,0,0,528.421,87.4992,117.105)"><stop offset="0" style="stop-color:#4591ed;stop-opacity:1"/><stop offset="1" style="stop-color:#00c9ff;stop-opacity:1"/></linearGradient></defs></svg>