<?xml version="1.0" encoding="UTF-8" standalone="no"?><!DOCTYPE svg PUBLIC "-//W3C//DTD SVG 1.1//EN" "http://www.w3.org/Graphics/SVG/1.1/DTD/svg11.dtd"><svg width="240px" height="166px" version="1.1" xmlns="http://www.w3.org/2000/svg" xmlns:xlink="http://www.w3.org/1999/xlink" xml:space="preserve" xmlns:serif="http://www.serif.com/" style="fill-rule:evenodd;clip-rule:evenodd;stroke-linejoin:round;stroke-miterlimit:2;"><g><rect x="-31.534" y="-22.03" width="303.069" height="210.06" style="fill:#fff;fill-rule:nonzero;"/><path d="M155.466,30.709c-1.005,0 -1.713,0.12 -2.428,0.298l-0,0.119l0.115,-0c0.478,0.945 1.308,1.6 1.895,2.429c0.477,0.948 0.893,1.892 1.366,2.84c0.058,-0.057 0.115,-0.119 0.115,-0.119c0.835,-0.59 1.249,-1.537 1.249,-2.961c-0.358,-0.416 -0.414,-0.828 -0.712,-1.244c-0.355,-0.591 -1.125,-0.887 -1.6,-1.362Z" style="fill:#5e89a3;"/><path d="M61.235,147.62l-8.204,0c-0.29,-13.848 -1.09,-26.87 -2.397,-39.068l-0.071,0l-12.493,39.068l-6.246,0l-12.417,-39.068l-0.072,0c-0.922,11.715 -1.501,24.737 -1.742,39.068l-7.48,0c0.483,-17.429 1.693,-33.768 3.629,-49.018l10.169,-0l11.837,36.017l0.072,-0l11.91,-36.017l9.73,-0c2.13,17.861 3.389,34.205 3.775,49.018Z" style="fill:#0c7691;fill-rule:nonzero;"/><path d="M96.819,111.454c-3.341,18.128 -7.748,31.302 -13.218,39.52c-4.262,6.332 -8.932,9.499 -14.015,9.499c-1.355,-0 -3.027,-0.409 -5.01,-1.22l-0,-4.37c0.968,0.142 2.106,0.218 3.413,0.218c2.371,-0 4.284,-0.656 5.738,-1.964c1.741,-1.595 2.613,-3.387 2.613,-5.372c-0,-1.357 -0.68,-4.14 -2.034,-8.35l-9.004,-27.961l8.06,-0l6.463,20.912c1.452,4.748 2.058,8.064 1.815,9.952c3.534,-9.441 6.003,-19.729 7.409,-30.864l7.77,-0Z" style="fill:#0c7691;fill-rule:nonzero;"/><path d="M206.036,147.62l-23.309,0l0,-49.018l7.844,-0l-0,42.99l15.465,-0l0,6.028Z" style="fill:#f3921f;fill-rule:nonzero;"/><path d="M147.435,137.814c-1.985,-3.195 -2.98,-8.323 -2.98,-15.393c-0,-12.344 3.753,-18.52 11.257,-18.52c3.923,0 6.802,1.477 8.643,4.428c1.983,3.197 2.978,8.281 2.978,15.252c-0,12.442 -3.754,18.666 -11.257,18.666c-3.922,0 -6.802,-1.475 -8.641,-4.433Zm29.193,10.988l-9.011,-4.443c0.803,-0.657 1.564,-1.368 2.254,-2.189c3.826,-4.498 5.74,-11.154 5.74,-19.967c0,-16.217 -6.366,-24.33 -19.098,-24.33c-6.246,-0 -11.113,2.056 -14.598,6.175c-3.827,4.503 -5.738,11.134 -5.738,19.898c0,8.616 1.694,14.937 5.083,18.953c3.099,3.629 7.771,5.447 14.017,5.447c2.333,-0 4.473,-0.288 6.418,-0.862l11.733,6.828l3.2,-5.51Z" style="fill:#f3921f;"/><path d="M132.759,134.033c0,4.157 -1.527,7.57 -4.572,10.24c-3.047,2.659 -7.141,3.992 -12.268,3.992c-4.795,-0 -9.441,-1.534 -13.943,-4.576l2.106,-4.212c3.874,1.937 7.379,2.903 10.526,2.903c2.953,0 5.264,-0.657 6.935,-1.955c1.668,-1.307 2.668,-3.131 2.668,-5.444c-0,-2.911 -2.03,-5.399 -5.754,-7.486c-3.439,-1.887 -10.31,-5.826 -10.31,-5.826c-3.723,-2.716 -5.59,-5.63 -5.59,-10.431c0,-3.972 1.392,-7.181 4.172,-9.622c2.787,-2.447 6.382,-3.671 10.785,-3.671c4.551,-0 8.689,1.215 12.416,3.634l-1.893,4.207c-3.19,-1.352 -6.334,-2.03 -9.435,-2.03c-2.516,-0 -4.454,0.604 -5.806,1.818c-1.359,1.205 -2.199,2.755 -2.199,4.645c-0,2.903 2.074,5.421 5.903,7.548c3.482,1.889 10.522,5.904 10.522,5.904c3.828,2.711 5.737,5.601 5.737,10.362Z" style="fill:#f3921f;fill-rule:nonzero;"/><path d="M215.879,82.181c-4.74,-0.119 -8.411,0.354 -11.49,1.659c-0.889,0.354 -2.309,0.354 -2.43,1.48c0.477,0.474 0.534,1.242 0.952,1.897c0.708,1.183 1.95,2.781 3.077,3.612c1.244,0.948 2.488,1.892 3.793,2.721c2.308,1.427 4.915,2.254 7.163,3.676c1.307,0.828 2.605,1.893 3.912,2.784c0.65,0.473 1.061,1.244 1.894,1.538l-0,-0.18c-0.418,-0.532 -0.534,-1.301 -0.947,-1.897c-0.591,-0.588 -1.184,-1.124 -1.778,-1.713c-1.718,-2.31 -3.853,-4.322 -6.158,-5.981c-1.897,-1.306 -6.045,-3.083 -6.812,-5.268c0,-0 -0.062,-0.064 -0.12,-0.122c1.303,-0.119 2.846,-0.593 4.089,-0.954c2.01,-0.532 3.847,-0.411 5.92,-0.943c0.949,-0.238 1.897,-0.536 2.848,-0.828l0,-0.536c-1.072,-1.064 -1.839,-2.488 -2.964,-3.494c-3.018,-2.604 -6.338,-5.149 -9.773,-7.284c-1.839,-1.186 -4.208,-1.952 -6.163,-2.962c-0.707,-0.355 -1.891,-0.531 -2.307,-1.127c-1.067,-1.302 -1.661,-3.018 -2.43,-4.56c-1.716,-3.254 -3.377,-6.865 -4.855,-10.306c-1.066,-2.309 -1.718,-4.616 -3.021,-6.75c-6.104,-10.071 -12.735,-16.168 -22.922,-22.151c-2.192,-1.247 -4.797,-1.779 -7.579,-2.43c-1.483,-0.063 -2.962,-0.177 -4.443,-0.235c-0.949,-0.417 -1.898,-1.544 -2.726,-2.076c-3.378,-2.131 -12.08,-6.75 -14.57,-0.651c-1.599,3.852 2.369,7.642 3.732,9.596c1.006,1.362 2.311,2.903 3.019,4.442c0.415,1.007 0.534,2.074 0.95,3.139c0.947,2.606 1.834,5.509 3.08,7.939c0.649,1.244 1.359,2.549 2.188,3.669c0.479,0.655 1.305,0.947 1.483,2.017c-0.826,1.182 -0.891,2.96 -1.364,4.442c-2.131,6.693 -1.303,14.984 1.719,19.899c0.945,1.481 3.199,4.74 6.22,3.492c2.665,-1.063 2.072,-4.439 2.842,-7.399c0.177,-0.717 0.058,-1.186 0.412,-1.659l0,0.12c0.829,1.656 1.661,3.251 2.43,4.915c1.839,2.899 5.034,5.92 7.702,7.932c1.417,1.071 2.544,2.903 4.32,3.557l0,-0.179l-0.116,-0c-0.357,-0.532 -0.888,-0.77 -1.363,-1.182c-1.066,-1.067 -2.248,-2.371 -3.08,-3.555c-2.487,-3.316 -4.681,-6.989 -6.631,-10.78c-0.951,-1.841 -1.778,-3.852 -2.549,-5.688c-0.354,-0.706 -0.354,-1.775 -0.948,-2.13c-0.891,1.301 -2.19,2.429 -2.841,4.022c-1.126,2.55 -1.244,5.69 -1.662,8.948c-0.235,0.062 -0.116,0 -0.235,0.118c-1.893,-0.473 -2.545,-2.427 -3.257,-4.081c-1.777,-4.211 -2.076,-10.963 -0.533,-15.82c0.412,-1.24 2.194,-5.149 1.481,-6.334c-0.359,-1.13 -1.542,-1.775 -2.192,-2.668c-0.768,-1.125 -1.602,-2.545 -2.13,-3.79c-1.423,-3.317 -2.138,-6.989 -3.673,-10.305c-0.711,-1.542 -1.957,-3.142 -2.961,-4.56c-1.127,-1.601 -2.37,-2.725 -3.26,-4.618c-0.293,-0.655 -0.708,-1.72 -0.236,-2.429c0.116,-0.474 0.357,-0.653 0.831,-0.773c0.766,-0.65 2.96,0.176 3.728,0.533c2.193,0.884 4.03,1.72 5.863,2.961c0.83,0.594 1.719,1.717 2.783,2.017l1.247,0c1.894,0.41 4.028,0.115 5.806,0.649c3.137,1.007 5.979,2.488 8.528,4.087c7.756,4.917 14.153,11.908 18.475,20.258c0.712,1.359 1.011,2.604 1.661,4.023c1.244,2.909 2.786,5.87 4.027,8.71c1.243,2.784 2.43,5.624 4.209,7.937c0.886,1.243 4.441,1.893 6.04,2.546c1.182,0.532 3.021,1.006 4.088,1.657c2.013,1.241 4.023,2.665 5.921,4.029c0.945,0.711 3.908,2.191 4.086,3.377Z" style="fill:#0c7691;"/><path d="M211.635,147.615l1.3,0l-0,-4.987l1.7,0l0,-1.017l-4.767,-0l0,1.017l1.767,0l-0,4.987Zm9.89,0l1.225,0l-0,-6.004l-1.843,-0l-1.499,4.092l-1.633,-4.092l-1.775,-0l-0,6.004l1.159,0l-0,-4.571l0.066,0l1.709,4.571l0.884,0l1.707,-4.571l-0,4.571Z" style="fill:#f3921f;fill-rule:nonzero;"/></g></svg>