<?xml version="1.0" encoding="UTF-8" standalone="no"?><!DOCTYPE svg PUBLIC "-//W3C//DTD SVG 1.1//EN" "http://www.w3.org/Graphics/SVG/1.1/DTD/svg11.dtd"><svg width="314px" height="465px" version="1.1" xmlns="http://www.w3.org/2000/svg" xmlns:xlink="http://www.w3.org/1999/xlink" xml:space="preserve" xmlns:serif="http://www.serif.com/" style="fill-rule:evenodd;clip-rule:evenodd;stroke-linejoin:round;stroke-miterlimit:2;"><g id="Ebene-1" serif:id="Ebene 1"><g id="Ebene_x0020_1"><g id="_198302696"><g><path id="_227268128" d="M116.417,246.243c-0,0 -11.939,7.268 8.305,9.344c24.397,3.114 37.374,2.596 64.366,-2.595c0,-0 7.268,4.671 17.13,8.305c-60.733,25.954 -137.557,-1.558 -89.801,-15.054l-0,0Zm-7.787,-33.74c0,0 -12.977,9.863 7.268,11.939c26.473,2.596 47.236,3.114 83.053,-4.153c-0,0 4.672,5.191 12.458,7.787c-73.191,21.801 -155.206,2.076 -102.778,-15.573l-0.001,0Zm143.267,59.176c0,-0 8.825,7.267 -9.862,12.977c-34.779,10.381 -145.863,13.496 -177.008,-0c-10.901,-4.672 9.863,-11.42 16.61,-12.458c6.749,-1.557 10.382,-1.557 10.382,-1.557c-11.938,-8.306 -79.42,17.129 -34.26,24.396c124.061,20.245 226.321,-8.824 194.137,-23.358l0.001,-0Zm-129.771,-94.474c0,0 -56.58,13.497 -20.244,18.168c15.573,2.076 46.199,1.558 74.749,-0.519c23.358,-2.076 46.717,-6.229 46.717,-6.229c0,0 -8.305,3.634 -14.015,7.268c-57.618,15.053 -168.183,8.305 -136.519,-7.268c26.992,-12.977 49.312,-11.42 49.312,-11.42l0,0Zm101.222,56.58c58.138,-30.107 31.145,-59.175 12.458,-55.541c-4.672,1.038 -6.748,2.076 -6.748,2.076c0,0 1.557,-3.115 5.191,-4.153c36.855,-12.977 65.924,38.931 -11.939,59.176c0,-0 0.519,-0.519 1.038,-1.558l0,0Zm-95.511,82.016c56.061,3.633 141.71,-2.077 143.786,-28.55c-0,0 -4.153,10.382 -46.198,18.168c-47.756,8.825 -106.931,7.786 -141.71,2.076c-0,0 7.267,6.229 44.122,8.306l-0,-0Z" style="fill:#4e7896;fill-rule:nonzero;"/><path id="_230367536" d="M188.051,5.908c-0,-0 32.183,32.702 -30.626,82.015c-50.352,39.969 -11.42,62.809 -0,88.763c-29.588,-26.473 -50.871,-49.832 -36.336,-71.633c21.282,-32.184 79.939,-47.756 66.962,-99.145l-0,-0Zm-16.611,148.977c15.053,17.13 -4.153,32.702 -4.153,32.702c0,0 38.412,-19.725 20.764,-44.122c-16.092,-23.358 -28.55,-34.778 38.931,-73.71c-0,0 -106.412,26.474 -55.542,85.13l0,-0Z" style="fill:#f58219;fill-rule:nonzero;"/></g><g><path id="_2303675361" serif:id="_230367536" d="M30.349,445.596c4.153,-6.229 5.711,-12.458 5.711,-28.549l-0,-79.939l-15.573,-0l0,80.977c0,11.938 -0.519,17.13 -2.596,20.763c-2.076,4.153 -7.267,8.824 -12.458,11.939l6.749,8.305c7.786,-2.595 14.015,-7.267 18.167,-13.496Z" style="fill:#f58219;"/><g transform="matrix(128.888,0,0,128.888,313.664,431.118)"></g><text x="41.54px" y="431.118px" style="font-family:'ArialMT', 'Arial', sans-serif;font-size:128.888px;fill:#f58219;stroke:#f58219;stroke-width:4.82px;">DBC</text></g></g></g></g></svg>