<?xml version="1.0" encoding="UTF-8" standalone="no"?><!DOCTYPE svg PUBLIC "-//W3C//DTD SVG 1.1//EN" "http://www.w3.org/Graphics/SVG/1.1/DTD/svg11.dtd"><svg width="382px" height="181px" version="1.1" xmlns="http://www.w3.org/2000/svg" xmlns:xlink="http://www.w3.org/1999/xlink" xml:space="preserve" xmlns:serif="http://www.serif.com/" style="fill-rule:evenodd;clip-rule:evenodd;stroke-linejoin:round;stroke-miterlimit:2;"><path id="SQLite" d="M147.531,89.219c-4.822,-0 -8.744,1.427 -11.75,4.281c-3.006,2.856 -4.531,6.6 -4.531,11.188c0,2.377 0.379,4.545 1.125,6.531c0.746,1.99 1.907,3.834 3.469,5.5c1.561,1.667 4.686,3.932 9.344,6.812c5.715,3.489 9.455,6.321 11.25,8.531c1.796,2.209 2.687,4.524 2.687,6.938c0,3.232 -1.064,5.811 -3.25,7.75c-2.19,1.94 -5.119,2.906 -8.75,2.906c-3.83,0 -7.166,-1.35 -10.031,-4.031c-2.865,-2.685 -4.311,-6.236 -4.344,-10.688l-1.781,0l-0,16.157l1.781,-0c0.544,-1.53 1.296,-2.313 2.281,-2.313c0.474,0 1.584,0.327 3.313,0.938c4.206,1.496 7.66,2.218 10.375,2.218c4.679,0 8.672,-1.638 12,-4.968c3.322,-3.329 5,-7.344 5,-12.032c-0,-3.634 -1.108,-6.868 -3.281,-9.687c-2.174,-2.822 -6.402,-6.105 -12.719,-9.875c-5.436,-3.266 -8.965,-5.926 -10.594,-8c-1.631,-2.071 -2.469,-4.361 -2.469,-6.875c0,-2.719 0.999,-4.902 2.969,-6.531c1.97,-1.63 4.551,-2.438 7.781,-2.438c3.635,0 6.665,1.079 9.063,3.25c2.395,2.175 3.78,5.189 4.187,9.063l1.781,-0l0,-14l-1.656,-0c-0.202,0.714 -0.39,1.17 -0.562,1.375c-0.168,0.204 -0.49,0.312 -0.969,0.312c-0.576,0 -1.604,-0.242 -3.063,-0.718c-3.125,-1.053 -6.006,-1.594 -8.656,-1.594Zm58.219,-0c-5.876,-0 -11.211,1.385 -16.031,4.156c-4.828,2.766 -8.649,6.608 -11.469,11.5c-2.819,4.892 -4.219,10.088 -4.219,15.625c0,7.439 2.435,14.066 7.344,19.875c4.911,5.805 10.796,9.422 17.625,10.813c1.561,0.813 3.795,2.913 6.719,6.312c3.295,3.836 6.082,6.602 8.375,8.25c2.29,1.648 4.762,2.857 7.375,3.656c2.615,0.797 5.442,1.188 8.5,1.188c3.702,-0 7.017,-0.644 9.937,-1.969l-0.656,-1.625c-1.695,0.611 -3.502,0.906 -5.406,0.906c-2.584,0 -5.195,-0.852 -7.813,-2.562c-2.614,-1.715 -5.882,-4.987 -9.781,-9.813c-1.833,-2.312 -3.097,-3.771 -3.813,-4.344c7.472,-1.459 13.615,-5.08 18.407,-10.875c4.79,-5.792 7.187,-12.403 7.187,-19.812c0,-8.797 -3.13,-16.191 -9.344,-22.219c-6.218,-6.028 -13.866,-9.062 -22.937,-9.062Zm36.344,-0l0.093,1.906c3.913,0 6.104,1.153 6.594,3.469c0.183,0.829 0.266,2.359 0.281,4.562l-0.031,42.156c-0.032,3.149 -0.481,5.159 -1.344,6.032c-0.863,0.866 -2.323,1.408 -4.437,1.625l-0.094,1.906l39,-0l1,-9.563l-1.781,0c-0.509,2.605 -1.675,4.472 -3.531,5.532c-1.861,1.068 -5.153,1.593 -9.906,1.593l-3.688,0c-4.277,0 -6.752,-1.546 -7.406,-4.656c-0.135,-0.615 -0.181,-1.275 -0.188,-2l0.157,-42.625c-0.001,-3.143 0.396,-5.25 1.218,-6.281c0.832,-1.027 2.33,-1.602 4.5,-1.75l-0.093,-1.906l-20.344,-0Zm-35.719,2.312c6.627,0 12.039,2.611 16.219,7.875c4.179,5.267 6.25,12.485 6.25,21.625c-0,8.661 -2.101,15.596 -6.313,20.813c-4.211,5.214 -9.816,7.812 -16.781,7.812c-6.691,0 -12.118,-2.679 -16.281,-8.062c-4.16,-5.384 -6.219,-12.374 -6.219,-20.969c0,-8.832 2.084,-15.903 6.281,-21.187c4.195,-5.279 9.813,-7.907 16.844,-7.907Zm89.688,9.063c-0.952,-0 -1.677,0.321 -2.219,0.969c-0.555,0.644 -0.725,1.426 -0.531,2.375c0.187,0.92 0.706,1.727 1.531,2.406c0.82,0.678 1.705,1.031 2.656,1.031c0.92,0 1.621,-0.353 2.125,-1.031c0.504,-0.679 0.658,-1.486 0.469,-2.406c-0.194,-0.949 -0.695,-1.731 -1.469,-2.375c-0.783,-0.648 -1.642,-0.969 -2.563,-0.969Zm25.719,6.469c-1.616,6.217 -5.12,9.582 -10.5,10.125l0.063,1.781l6.281,-0l-0.125,21.062c0.01,3.601 0.12,5.999 0.375,7.219c0.619,2.921 2.526,4.406 5.719,4.406c4.618,0 9.464,-2.813 14.531,-8.437l-1.531,-1.313c-3.659,3.704 -6.894,5.563 -9.719,5.563c-1.736,-0 -2.813,-0.999 -3.219,-2.969c-0.111,-0.479 -0.156,-1.038 -0.156,-1.688l0.063,-23.843l9.593,-0l-0.093,-2.844l-9.469,0l-0,-9.062l-1.813,-0Zm37.094,7.937c-5.366,0 -9.731,2.605 -13.125,7.781c-3.376,5.185 -4.421,10.93 -3.094,17.25c0.781,3.702 2.338,6.572 4.719,8.594c2.377,2.021 5.394,3.031 9,3.031c3.358,0 8.033,-0.85 10,-2.562c1.973,-1.712 3.79,-4.484 5.469,-8.282l-1.344,-1.406c-2.678,4.926 -8.081,7.406 -12.156,7.406c-5.603,0 -9.034,-3.073 -10.313,-9.187c-0.166,-0.78 -0.29,-1.619 -0.375,-2.5c6.665,-1.055 11.716,-2.924 15.125,-5.625c3.406,-2.703 6.827,-5.567 6.188,-8.594c-0.38,-1.798 -1.314,-3.212 -2.75,-4.281c-1.455,-1.068 -5.233,-1.625 -7.344,-1.625Zm-58.656,0.219l-11.563,2.656l0,2.063l4,-0.5c1.938,-0 3.078,0.877 3.438,2.625c0.121,0.584 0.197,1.406 0.219,2.437l-0.125,18.906c-0.033,2.616 -0.323,4.137 -0.907,4.594c-0.589,0.457 -2.141,0.687 -4.656,0.687l-0.063,1.782l18.344,-0l-0.031,-1.782c-2.549,0 -4.201,-0.201 -4.937,-0.593c-0.724,-0.39 -1.223,-1.1 -1.438,-2.188c-0.166,-0.783 -0.239,-2.134 -0.25,-4l0.063,-26.687l-2.094,-0Zm55.719,3.5c1.116,-0 2.195,0.431 3.281,1.281c1.071,0.847 1.724,1.789 1.937,2.813c1.046,5.026 -3.41,8.501 -13.437,10.437c-0.286,-3.665 0.349,-6.992 1.969,-10c1.607,-3.005 3.701,-4.531 6.25,-4.531Z" style="fill:#003b57;fill-rule:nonzero;"/><path id="solid-background" d="M121.632,17.036l-99.507,0c-6.669,0 -12.125,5.458 -12.125,12.126l0,109.737c0,6.668 5.457,12.125 12.126,12.125l65.537,-0c-0.744,-32.609 10.391,-95.894 33.968,-133.988Z" style="fill:#0f80cc;fill-rule:nonzero;"/><path id="gradient-background" d="M118.016,20.574l-95.891,-0c-4.735,-0 -8.588,3.852 -8.588,8.588l-0,101.731c21.717,-8.335 54.312,-15.527 76.849,-15.201c4.529,-23.681 17.84,-70.09 27.63,-95.118Z" style="fill:url(#_Linear1);fill-rule:nonzero;"/><path id="feather" d="M144.842,13.445c-6.816,-6.078 -15.067,-3.636 -23.211,3.591c-1.208,1.074 -2.415,2.265 -3.615,3.538c-13.931,14.778 -26.862,42.153 -30.88,63.06c1.565,3.173 2.788,7.223 3.593,10.317c0.206,0.794 0.392,1.539 0.541,2.173c0.354,1.5 0.544,2.472 0.544,2.472c-0,0 -0.125,-0.472 -0.638,-1.959c-0.097,-0.285 -0.206,-0.596 -0.335,-0.962c-0.055,-0.151 -0.131,-0.335 -0.215,-0.531c-0.908,-2.113 -3.422,-6.572 -4.528,-8.513c-0.947,2.791 -1.783,5.403 -2.483,7.765c3.194,5.844 5.14,15.858 5.14,15.858c0,-0 -0.169,-0.649 -0.971,-2.914c-0.713,-2.004 -4.261,-8.221 -5.102,-9.675c-1.438,5.309 -2.009,8.893 -1.494,9.765c1,1.691 1.953,4.609 2.79,7.835c1.89,7.269 3.204,16.117 3.204,16.117c-0,0 0.042,0.587 0.113,1.489c-0.262,6.104 -0.105,12.433 0.368,18.153c0.626,7.572 1.805,14.077 3.307,17.558l1.02,-0.556c-2.206,-6.859 -3.102,-15.847 -2.71,-26.214c0.594,-15.845 4.24,-34.953 10.978,-54.87c11.382,-30.065 27.175,-54.187 41.629,-65.707c-13.174,11.897 -31.004,50.409 -36.342,64.67c-5.976,15.97 -10.211,30.956 -12.763,45.315c4.403,-13.461 18.642,-19.247 18.642,-19.247c0,-0 6.984,-8.613 15.145,-20.918c-4.889,1.115 -12.916,3.024 -15.605,4.154c-3.966,1.663 -5.035,2.231 -5.035,2.231c0,-0 12.848,-7.824 23.87,-11.366c15.159,-23.875 31.674,-57.793 15.043,-72.629" style="fill:#003b57;fill-rule:nonzero;"/><defs><linearGradient id="_Linear1" x1="0" y1="0" x2="1" y2="0" gradientUnits="userSpaceOnUse" gradientTransform="matrix(-4.45903e-06,101.926,-101.926,-4.45903e-06,73.7814,22.8313)"><stop offset="0" style="stop-color:#97d9f6;stop-opacity:1"/><stop offset="0.92" style="stop-color:#0f80cc;stop-opacity:1"/><stop offset="1" style="stop-color:#0f80cc;stop-opacity:1"/></linearGradient></defs></svg>