<?xml version="1.0" encoding="UTF-8" standalone="no"?><!DOCTYPE svg PUBLIC "-//W3C//DTD SVG 1.1//EN" "http://www.w3.org/Graphics/SVG/1.1/DTD/svg11.dtd"><svg width="427px" height="298px" version="1.1" xmlns="http://www.w3.org/2000/svg" xmlns:xlink="http://www.w3.org/1999/xlink" xml:space="preserve" xmlns:serif="http://www.serif.com/" style="fill-rule:evenodd;clip-rule:evenodd;stroke-linejoin:round;stroke-miterlimit:2;"><g><g><g id="Layer_1"><path d="M232.208,133.221c0,0 -139.207,44.337 -166.755,44.812c0,0 -0.66,12.581 7.248,39.395c8.954,3.187 110.951,-22.828 122.296,-28.786c45.497,-23.889 30.558,-35.972 140.918,-74.353c0,0 -2.095,-9.582 -10.47,-23.141c0,-0 -40.656,27.657 -93.237,42.073Z" style="fill:#fff;fill-rule:nonzero;"/><path d="M74.042,217.032c-3.593,-4.77 -8.742,-34.582 -8.742,-34.582c0,0 -72.979,31.724 -64.654,84.644c3.909,24.865 25.083,28.246 34.136,29.277c19.604,2.232 48.078,-12.758 64.306,-24.064c32.637,-22.742 50.212,-44.686 101.884,-86.885c0,0.001 -73.139,27.889 -126.93,31.61Z" style="fill:url(#_Linear1);fill-rule:nonzero;"/><path d="M65.453,178.033c0,-0 -28.298,-104.591 41.203,-144.397c23.207,-13.293 68.307,-27.798 90.743,-30.773c22.439,-2.977 75.291,-12.384 102.469,32.439c9.931,16.377 22.853,45.355 25.578,55.846c-28.391,30.96 -228.522,84.89 -259.993,86.885Z" style="fill:url(#_Linear2);fill-rule:nonzero;"/><path d="M244.438,160.7c-0,-0 47.327,-9.36 109.211,-11.81c49.457,-1.958 77.889,-22.487 70.89,-33.051c-7.007,-10.565 -60.72,-42.811 -180.101,44.861Z" style="fill:url(#_Linear3);fill-rule:nonzero;"/><path d="M426.127,114.642c0,0 -74.226,-84.487 -308.95,139.941c-52.54,41.729 -102.11,49.061 -114.754,18.546c10.042,29.097 38.719,28.597 74.16,16.744c46.385,-15.515 110.741,-76.854 118.844,-82.899c63.5,-47.389 172.095,-123.865 229.86,-85.286c-0,-0 2.051,-3.761 0.84,-7.046Z" style="fill-rule:nonzero;"/></g></g></g><defs><linearGradient id="_Linear1" x1="0" y1="0" x2="1" y2="0" gradientUnits="userSpaceOnUse" gradientTransform="matrix(200.972,0,0,200.972,0,239.411)"><stop offset="0" style="stop-color:#575757;stop-opacity:1"/><stop offset="1" style="stop-color:#000;stop-opacity:1"/></linearGradient><linearGradient id="_Linear2" x1="0" y1="0" x2="1" y2="0" gradientUnits="userSpaceOnUse" gradientTransform="matrix(265.454,0,0,265.454,59.9912,89.0166)"><stop offset="0" style="stop-color:#666;stop-opacity:1"/><stop offset="1" style="stop-color:#000;stop-opacity:1"/></linearGradient><linearGradient id="_Linear3" x1="0" y1="0" x2="1" y2="0" gradientUnits="userSpaceOnUse" gradientTransform="matrix(181.093,0,0,181.093,244.438,131.065)"><stop offset="0" style="stop-color:#616161;stop-opacity:1"/><stop offset="1" style="stop-color:#000;stop-opacity:1"/></linearGradient></defs></svg>