<?xml version="1.0" encoding="UTF-8" standalone="no"?><!DOCTYPE svg PUBLIC "-//W3C//DTD SVG 1.1//EN" "http://www.w3.org/Graphics/SVG/1.1/DTD/svg11.dtd"><svg width="243px" height="461px" version="1.1" xmlns="http://www.w3.org/2000/svg" xmlns:xlink="http://www.w3.org/1999/xlink" xml:space="preserve" xmlns:serif="http://www.serif.com/" style="fill-rule:evenodd;clip-rule:evenodd;stroke-linejoin:round;stroke-miterlimit:2;"><g id="Ebene-1" serif:id="Ebene 1"><g id="Ebene_x0020_1"><g id="_198302696"><path id="_227268128" d="M80.458,240.336c0,-0 -11.939,7.267 8.305,9.343c24.397,3.114 37.375,2.596 64.367,-2.595c-0,-0 7.267,4.671 17.129,8.305c-60.732,25.954 -137.557,-1.557 -89.801,-15.053l0,-0Zm-7.786,-33.741c-0,0 -12.977,9.863 7.267,11.939c26.473,2.596 47.237,3.114 83.053,-4.153c0,0 4.672,5.191 12.458,7.787c-73.19,21.801 -155.206,2.076 -102.778,-15.573l-0,0Zm143.267,59.176c-0,-0 8.824,7.267 -9.863,12.977c-34.778,10.382 -145.863,13.496 -177.008,-0c-10.9,-4.672 9.863,-11.42 16.611,-12.458c6.748,-1.557 10.381,-1.557 10.381,-1.557c-11.938,-8.306 -79.419,17.129 -34.259,24.396c124.061,20.245 226.321,-8.824 194.137,-23.358l0.001,-0Zm-129.771,-94.473c-0,-0 -56.58,13.496 -20.244,18.167c15.572,2.077 46.198,1.558 74.748,-0.519c23.358,-2.076 46.718,-6.229 46.718,-6.229c-0,0 -8.306,3.634 -14.016,7.268c-57.618,15.053 -168.183,8.305 -136.519,-7.268c26.992,-12.977 49.312,-11.419 49.312,-11.419l0.001,-0Zm101.222,56.58c58.137,-30.107 31.145,-59.176 12.458,-55.542c-4.672,1.038 -6.749,2.076 -6.749,2.076c0,0 1.558,-3.114 5.191,-4.152c36.855,-12.978 65.924,38.93 -11.938,59.175c-0,-0 0.518,-0.519 1.038,-1.558l-0,0.001Zm-95.512,82.015c56.061,3.634 141.71,-2.077 143.786,-28.55c0,0 -4.152,10.382 -46.198,18.168c-47.756,8.825 -106.931,7.786 -141.71,2.076c-0,0 7.267,6.229 44.122,8.306l0,-0Z" style="fill:#4e7896;fill-rule:nonzero;"/><path id="_230367536" d="M152.092,-0c-0,-0 32.183,32.702 -30.626,82.015c-50.351,39.969 -11.42,62.809 -0,88.763c-29.588,-26.473 -50.87,-49.832 -36.336,-71.633c21.283,-32.184 79.939,-47.756 66.962,-99.145l-0,-0Zm-16.611,148.977c15.053,17.13 -4.152,32.703 -4.152,32.703c-0,-0 38.412,-19.726 20.763,-44.123c-16.092,-23.358 -28.55,-34.778 38.931,-73.71c0,0 -106.412,26.474 -55.542,85.13l0,-0Z" style="fill:#f58219;fill-rule:nonzero;"/><g><path id="_2303675361" serif:id="_230367536" d="M46.96,439.664c4.153,-6.229 5.71,-12.458 5.71,-28.55l0,-79.939l-15.572,0l-0,80.977c-0,11.939 -0.52,17.13 -2.596,20.764c-2.076,4.153 -7.267,8.824 -12.458,11.938l6.749,8.306c7.785,-2.595 14.015,-7.267 18.167,-13.496Z" style="fill:#f58219;"/><g transform="matrix(128.888,0,0,128.888,220.519,425.186)"></g><text x="58.151px" y="425.186px" style="font-family:'ArialMT', 'Arial', sans-serif;font-size:128.888px;fill:#f58219;stroke:#f58219;stroke-width:3.5px;">P<tspan x="134.552px " y="425.186px ">A</tspan></text></g></g></g></g></svg>