<svg width="205" height="77" xmlns="http://www.w3.org/2000/svg" xml:space="preserve" version="1.1">

 <g>
  <title>Layer 1</title>
  <g id="svg_1">
   <path id="svg_2" fill="#868686" d="m99.00003,34.26667l0,11.7c0,0 17.3,2.4 17.10001,-5.8c-0.20001,-8.3 -17.10001,-5.9 -17.10001,-5.9l0,0zm-14.8,-12.1c23.10001,0 47.00002,-4 47.00002,19c0,5.5 -4.20001,11.7 -10.60001,15.7l11.8,19.8l-15.10002,0l-11.9,-19l-6.5,0l0,19l-14.89999,0l0.2,-54.50001l0,0z" class="st0"/>
   <path id="svg_3" fill="#868686" d="m0.10004,29.06668c48.7,-28.3 126.29999,-45.4 203.70001,-3c0,0 -121.90002,-36.8 -180.60002,19.1l20.5,31.30001l-16.69999,0l-11.8,-15.70001l0,15.90001l-15,0l-0.1,-47.6l0,0z" class="st0"/>
   <polygon id="svg_4" fill="#868686" points="44.800040543079376,31.866674423217773 79.60003215074539,31.866674423217773 79.60003215074539,41.66667556762695 60.10003596544266,41.66667556762695 60.10003596544266,49.76667022705078 79.60003215074539,49.76667022705078 79.60003215074539,59.36667251586914 60.10003596544266,59.36667251586914 60.10003596544266,67.46668243408203 79.60003215074539,67.46668243408203 79.60003215074539,76.66667938232422 44.800040543079376,76.66667938232422 " class="st0"/>
   <polygon id="svg_5" fill="#868686" points="135.70003825426102,31.766672134399414 150.30004435777664,31.766672134399414 160.60004740953445,48.16667556762695 170.80004435777664,31.766672134399414 185.4000352025032,31.766672134399414 185.4000352025032,76.66667938232422 170.80004435777664,76.66667938232422 170.80004435777664,56.36667251586914 160.60004740953445,70.3666763305664 150.30004435777664,56.9666748046875 150.30004435777664,76.66667938232422 135.70003825426102,76.66667938232422 " class="st0"/>
   <polygon id="svg_6" fill="#868686" points="204.9000352025032,31.766672134399414 204.9000352025032,76.66667938232422 190.60004740953445,76.66667938232422 190.60004740953445,31.766672134399414 " class="st0"/>
  </g>
 </g>
</svg>
