<?xml version="1.0" encoding="utf-8"?>
<!-- Generator: Adobe Illustrator 22.0.0, SVG Export Plug-In . SVG Version: 6.00 Build 0)  -->
<svg version="1.1" id="Ebene_7" xmlns="http://www.w3.org/2000/svg" xmlns:xlink="http://www.w3.org/1999/xlink" x="0px" y="0px"
	 viewBox="0 0 251 87" style="enable-background:new 0 0 251 87;" xml:space="preserve">
<style type="text/css">
	.st0{fill:#868686;}
</style>
<g>
	<path class="st0" d="M120,38.6v11.7c0,0,17.3,2.4,17.1-5.8C136.9,36.2,120,38.6,120,38.6L120,38.6z M105.2,26.5c23.1,0,47-4,47,19
		c0,5.5-4.2,11.7-10.6,15.7L153.4,81h-15.1l-11.9-19h-6.5v19H105L105.2,26.5L105.2,26.5z"/>
	<path class="st0" d="M21.1,33.4c48.7-28.3,126.3-45.4,203.7-3c0,0-121.9-36.8-180.6,19.1l20.5,31.3H48L36.2,65.1V81h-15L21.1,33.4
		L21.1,33.4z"/>
	<polygon class="st0" points="65.8,36.2 100.6,36.2 100.6,46 81.1,46 81.1,54.1 100.6,54.1 100.6,63.7 81.1,63.7 81.1,71.8 
		100.6,71.8 100.6,81 65.8,81 	"/>
	<polygon class="st0" points="156.7,36.1 171.3,36.1 181.6,52.5 191.8,36.1 206.4,36.1 206.4,81 191.8,81 191.8,60.7 181.6,74.7 
		171.3,61.3 171.3,81 156.7,81 	"/>
	<polygon class="st0" points="225.9,36.1 225.9,81 211.6,81 211.6,36.1 	"/>
</g>
</svg>
