<?xml version="1.0" encoding="UTF-8" standalone="no"?><!DOCTYPE svg PUBLIC "-//W3C//DTD SVG 1.1//EN" "http://www.w3.org/Graphics/SVG/1.1/DTD/svg11.dtd"><svg width="1070px" height="510px" version="1.1" xmlns="http://www.w3.org/2000/svg" xmlns:xlink="http://www.w3.org/1999/xlink" xml:space="preserve" xmlns:serif="http://www.serif.com/" style="fill-rule:evenodd;clip-rule:evenodd;stroke-linejoin:round;stroke-miterlimit:2;"><g id="Ebene-1" serif:id="Ebene 1"><g id="g116"><path id="path118" d="M532.946,62.103c-0,-0 131.135,-1.24 250.604,36.898c119.493,38.113 196.618,106.804 196.618,106.804l80.456,0.025c0,-0 -84.564,-93.217 -247.201,-150.411c-162.638,-57.17 -280.477,-50.146 -280.477,-50.146l-0,56.83" style="fill:#006bb6;fill-rule:nonzero;"/></g><g id="g120"><path id="path122" d="M259.955,52.72c-152.818,48.104 -254.712,153.134 -254.712,153.134l80.504,-0.024c0,-0 66.674,-65.07 195.525,-105.906c128.827,-40.835 251.455,-37.797 251.455,-37.797l-0,-56.829c-0,-0 -119.055,-6.126 -272.772,47.422" style="fill:#0cb14b;fill-rule:nonzero;"/></g><g id="g128"><path id="path130" d="M466.952,221.727l124.889,176.128l-0.656,-175.569l79.97,-0.194l0.048,280.599l-92.39,-0.024l-128.973,-174.232l-1.385,174.232l-78.973,-0l-0,-280.964" style="fill:#8e979d;fill-rule:nonzero;"/></g><g id="g132"><path id="path134" d="M1064.27,505l-96.693,-0.486l-84.904,-101.238l-99.099,101.724l-80.699,0l142.828,-145.744l-113.611,-135.39l94.238,0.073l71.073,82.838l82.376,-82.838l80.699,0l-126.128,126.882" style="fill:#006bb6;fill-rule:nonzero;"/></g><g id="g136"><g id="g138"><g id="g144"><path id="path146" d="M180.933,354.102l-11.448,-14.414l114.364,-116.017l-81.72,-0l-116.455,118.399l0,-118.107l-80.48,-0l-0.194,281.012l80.674,0.024l0,-80.261l31.891,-32.329l94.335,112.274l96.523,-0.024" style="fill:#0cb14b;fill-rule:nonzero;"/></g></g></g></g></svg>