<?xml version="1.0" encoding="UTF-8" standalone="no"?><!DOCTYPE svg PUBLIC "-//W3C//DTD SVG 1.1//EN" "http://www.w3.org/Graphics/SVG/1.1/DTD/svg11.dtd"><svg width="561px" height="601px" version="1.1" xmlns="http://www.w3.org/2000/svg" xmlns:xlink="http://www.w3.org/1999/xlink" xml:space="preserve" xmlns:serif="http://www.serif.com/" style="fill-rule:evenodd;clip-rule:evenodd;stroke-linejoin:round;stroke-miterlimit:2;"><g id="g10"><path id="path2" d="M244.648,438.014c1.408,0.089 2.816,0.177 4.225,0.275c10.801,0.745 21.127,3.279 30.774,8.291c6.894,3.582 13.005,8.219 18.457,13.749c5.92,6.003 10.815,12.734 14.503,20.327c2.705,5.572 4.584,11.422 5.884,17.47c1.595,7.413 2.12,14.919 1.803,22.473c-0.508,12.116 -3.189,23.701 -8.903,34.484c-3.987,7.522 -9.183,14.121 -15.363,19.958c-9.912,9.361 -21.529,15.467 -34.874,18.293c-4.942,1.046 -9.924,1.702 -14.971,1.86c-0.23,0.008 -0.456,0.074 -0.684,0.111l-5.94,-0c-1.289,-0.089 -2.58,-0.181 -3.869,-0.275c-15.458,-1.117 -29.564,-5.896 -41.789,-15.623c-9.647,-7.675 -17.204,-17.044 -22.359,-28.285c-2.62,-5.716 -4.369,-11.704 -5.539,-17.874c-1.326,-6.977 -1.743,-14.021 -1.39,-21.1c0.744,-14.902 4.67,-28.815 13.315,-41.145c10.119,-14.425 23.35,-24.685 40.431,-29.644c5.205,-1.511 10.512,-2.517 15.922,-2.935c1.713,-0.133 3.433,-0.198 5.149,-0.304c0.28,-0.017 0.558,-0.072 0.836,-0.109l4.382,0l-0,0.003Zm-2.348,137.073c5.494,-0.048 10.812,-0.494 16.027,-1.783c11.36,-2.806 20.805,-8.698 28.315,-17.683c7.665,-9.168 11.65,-19.823 12.734,-31.639c0.37,-4.042 0.413,-8.092 0.173,-12.148c-0.26,-4.402 -0.842,-8.759 -2.009,-13.014c-3.647,-13.295 -11.114,-23.901 -22.587,-31.573c-8.577,-5.736 -18.176,-8.363 -28.415,-8.87c-5.597,-0.275 -11.159,-0.025 -16.677,0.981c-9.639,1.749 -18.216,5.73 -25.607,12.205c-7.17,6.281 -12.348,13.908 -15.555,22.878c-2.428,6.788 -3.398,13.815 -3.501,20.991c-0.08,5.578 0.307,11.113 1.523,16.561c2.197,9.829 6.615,18.508 13.518,25.902c6.089,6.52 13.332,11.215 21.771,14.09c6.624,2.259 13.47,3.027 20.29,3.102"/><path id="path4" d="M524.157,591.771c-0.583,1.406 -1.027,1.694 -2.616,1.694c-5.187,0 -10.372,0.003 -15.561,0c-1.827,0 -2.501,-0.676 -2.501,-2.515l0,-148.521c0,-1.904 0.672,-2.567 2.604,-2.57c5.187,0 10.373,-0.019 15.558,0.027c0.638,0.006 1.338,0.259 1.886,0.597c0.331,0.205 0.427,0.792 0.63,1.21l0,150.078Z"/><path id="path6" d="M101.143,502.164c2.619,3.476 5.209,6.919 7.8,10.361c5.493,7.303 10.989,14.606 16.483,21.908c7.067,9.392 14.131,18.783 21.197,28.175c6.925,9.202 13.847,18.407 20.781,27.601c0.513,0.679 0.736,1.369 0.368,2.154c-0.373,0.795 -1.099,1.051 -1.916,1.099c-0.374,0.022 -0.753,0.003 -1.13,0.003c-6.389,0 -12.777,-0.005 -19.166,0.008c-1.093,0.003 -1.894,-0.365 -2.576,-1.275c-12.051,-16.103 -24.126,-32.191 -36.198,-48.281c-6.855,-9.136 -13.716,-18.27 -20.573,-27.404c-0.057,-0.077 -0.122,-0.142 -0.221,-0.258c-0.832,0.776 -1.658,1.543 -2.479,2.312c-5.561,5.2 -11.118,10.401 -16.678,15.598c-3.066,2.864 -6.131,5.728 -9.212,8.574c-0.398,0.366 -0.562,0.729 -0.56,1.27c0.013,15.559 0.01,31.12 0.01,46.678c0,0.188 0.006,0.377 0,0.565c-0.039,1.427 -0.764,2.201 -2.19,2.206c-5.447,0.022 -10.892,0.019 -16.337,0.003c-1.382,-0.005 -2.11,-0.782 -2.137,-2.17c-0.003,-0.163 0,-0.33 0,-0.494l0,-148.374c0,-1.877 0.678,-2.561 2.539,-2.561c4.974,-0.003 9.948,-0.003 14.924,-0.003c0.328,0 0.66,-0.011 0.988,0.003c1.441,0.066 2.149,0.774 2.212,2.209c0.01,0.214 0.001,0.425 0.001,0.637l0,72.849c1.235,-1.153 2.349,-2.187 3.458,-3.226c6.565,-6.159 13.127,-12.325 19.696,-18.481c8.614,-8.075 17.235,-16.141 25.849,-24.217c7.221,-6.769 14.437,-13.546 21.655,-20.318c3.042,-2.856 6.091,-5.702 9.124,-8.566c0.636,-0.599 1.358,-0.89 2.224,-0.89c7.615,0.003 15.229,0 22.844,0.003c1.297,-0 2.03,0.471 2.303,1.439c0.226,0.801 -0.082,1.427 -0.644,1.963c-2.202,2.095 -4.405,4.188 -6.617,6.275c-3.91,3.687 -7.827,7.366 -11.736,11.052c-5.421,5.107 -10.84,10.215 -16.256,15.327c-5.552,5.239 -11.098,10.486 -16.651,15.725c-3.704,3.493 -7.413,6.978 -11.179,10.521"/><path id="path8" d="M343.923,516.678l-0,-73.978c-0,-0.214 -0.003,-0.425 0.001,-0.637c0.028,-1.398 0.73,-2.127 2.117,-2.204c0.095,-0.007 0.191,-0.003 0.284,-0.003c21.147,0.003 42.295,-0.05 63.441,0.029c9.726,0.036 19.034,2.222 27.912,6.193c7.724,3.456 14.512,8.269 20.407,14.328c9.602,9.865 15.982,21.502 19.117,34.922c1.806,7.728 2.553,15.554 2.388,23.473c-0.222,10.634 -2.066,20.959 -6.098,30.841c-3.366,8.249 -8.186,15.573 -14.258,22.076c-9.323,9.985 -20.644,16.544 -33.913,19.76c-5.725,1.386 -11.527,2.005 -17.418,1.998c-20.487,-0.031 -40.973,-0.011 -61.462,-0.014c-0.35,0 -0.704,-0.024 -1.049,-0.077c-0.758,-0.121 -1.226,-0.576 -1.361,-1.328c-0.071,-0.391 -0.104,-0.793 -0.104,-1.189c-0.004,-24.73 -0.004,-49.459 -0.004,-74.19m20.69,57.014l0.911,0c13.767,0 27.534,0.014 41.302,-0.013c2.47,-0.006 4.947,-0.109 7.41,-0.302c5.115,-0.402 9.992,-1.757 14.655,-3.892c6.098,-2.792 11.218,-6.858 15.629,-11.881c4.111,-4.683 7.356,-9.89 9.752,-15.634c2.549,-6.114 3.918,-12.493 4.426,-19.088c0.465,-6.018 0.276,-12.01 -0.63,-17.968c-1.074,-7.047 -3.364,-13.691 -6.907,-19.882c-3.937,-6.882 -9.018,-12.773 -15.538,-17.329c-7.808,-5.451 -16.575,-7.987 -26.043,-8.033c-14.734,-0.072 -29.468,-0.024 -44.202,-0.027l-0.764,-0l-0,114.049l-0.001,0Z"/></g><g id="g20"><path id="path12" d="M470.397,197.838c-1.225,3.979 -3.914,6.892 -6.792,9.76c-19.288,19.222 -38.514,38.506 -57.76,57.769c-6.935,6.938 -14.346,6.918 -21.307,-0.05c-19.864,-19.879 -39.729,-39.756 -59.585,-59.639c-6.765,-6.774 -6.762,-14.167 0.02,-20.957c19.969,-19.997 39.941,-39.989 59.918,-59.975c6.5,-6.504 14.137,-6.508 20.635,-0.006c19.366,19.369 38.703,38.766 58.102,58.097c2.88,2.869 5.556,5.796 6.769,9.777l0,5.224Z" style="fill:#31afe1;"/><path id="path14" d="M278.938,384.071c-3.96,-1.258 -6.829,-4.001 -9.685,-6.873c-19.205,-19.303 -38.469,-38.545 -57.711,-57.812c-6.886,-6.895 -6.894,-14.252 -0.024,-21.131c19.918,-19.934 39.834,-39.865 59.757,-59.795c6.622,-6.623 14.21,-6.648 20.796,-0.058c19.92,19.932 39.837,39.865 59.751,59.803c6.84,6.85 6.86,14.354 0.048,21.171c-19.41,19.432 -38.852,38.838 -58.217,58.31c-2.772,2.786 -5.623,5.291 -9.487,6.383l-5.228,0l0,0.002Z" style="fill:#31afe1;"/><path id="path16" d="M209.041,147.464c-0,-22.162 0.2,-44.326 -0.126,-66.485c-0.094,-6.414 1.438,-11.425 6.336,-15.655c3.94,-3.405 7.433,-7.333 11.123,-11.029c14.6,-14.615 29.199,-29.233 43.804,-43.842c6.869,-6.867 14.275,-6.862 21.139,0.003c19.865,19.871 39.728,39.747 59.589,59.625c6.822,6.828 6.817,14.338 -0.005,21.17c-23.489,23.518 -46.988,47.034 -70.483,70.549c-20.748,20.77 -41.493,41.539 -62.245,62.306c-3.844,3.845 -7.25,2.951 -8.647,-2.38c-0.431,-1.652 -0.465,-3.438 -0.466,-5.163c-0.028,-23.034 -0.019,-46.067 -0.019,-69.099" style="fill:#31afe1;"/><path id="path18" d="M161.537,195.486c0,20.34 0.03,40.682 -0.04,61.021c-0.008,1.932 -0.315,3.978 -1.007,5.77c-1.357,3.531 -3.905,3.968 -6.571,1.308c-9.354,-9.338 -18.682,-18.703 -28.018,-28.055c-10.792,-10.811 -21.587,-21.62 -32.374,-32.436c-4.465,-4.476 -4.486,-10.688 -0.037,-15.186c19.863,-20.091 39.732,-40.181 59.609,-60.265c1.314,-1.327 2.554,-3.129 4.786,-2.285c2.135,0.806 2.978,2.732 3.282,4.867c0.189,1.323 0.338,2.668 0.341,4.002c0.02,20.42 0.014,40.841 0.014,61.259l0.015,0Z" style="fill:#31afe1;"/></g></svg>