<?xml version="1.0" encoding="UTF-8"?>
<svg version="1.1" xmlns="http://www.w3.org/2000/svg" width="480" height="480">
<path d="M0 0 C158.4 0 316.8 0 480 0 C480 158.4 480 316.8 480 480 C321.6 480 163.2 480 0 480 C0 321.6 0 163.2 0 0 Z " fill="#FF0017" transform="translate(0,0)"/>
<path d="M0 0 C2.0155305 1.1570262 3.9151964 2.40450317 5.82128906 3.73388672 C6.85926636 4.42115845 6.85926636 4.42115845 7.91821289 5.12231445 C9.30301485 6.03977992 10.68282454 6.96483247 12.05712891 7.89794922 C14.5434922 9.57394701 17.0864589 11.15252802 19.63378906 12.73388672 C23.69042562 15.31427358 27.63748034 18.03404934 31.57128906 20.79638672 C35.74164187 23.7224624 39.94814229 26.3481525 44.44628906 28.73779297 C48.5266885 31.07764702 52.38817034 33.74275044 56.28637695 36.37158203 C60.07569306 38.92664744 63.88850973 41.42692396 67.75878906 43.85888672 C71.27560128 46.0731759 74.68962066 48.38090929 78.07128906 50.79638672 C81.80728039 53.44811558 85.60272702 55.69730607 89.64941406 57.83544922 C93.18227051 59.89027389 96.36914916 62.40035261 99.58691406 64.91357422 C101.86816839 66.39883201 101.86816839 66.39883201 104.43066406 65.99169922 C106.93774725 65.22912006 106.93774725 65.22912006 109.18847656 64.13232422 C118.2705719 60.96774142 131.02222199 62.14263469 139.66503906 65.98388672 C140.41785156 66.37576172 141.17066406 66.76763672 141.94628906 67.17138672 C142.65785156 67.52201172 143.36941406 67.87263672 144.10253906 68.23388672 C153.49460851 73.43564826 159.47561359 81.95806015 162.52441406 92.09326172 C164.61663048 102.39936479 162.43980829 112.90207622 157.36816406 122.00341797 C153.71218481 127.49562104 149.12289937 134.26568639 142.33544922 135.73754883 C141.54702637 135.88071533 140.75860352 136.02388184 139.94628906 136.17138672 C139.94997623 136.90191789 139.95366341 137.63244905 139.95746231 138.38511753 C140.04584939 156.17115395 140.11201619 173.95714647 140.15353775 191.74335575 C140.17415166 200.34469051 140.20224978 208.94587856 140.24804688 217.54711914 C140.28795061 225.04509866 140.3137304 232.54297191 140.32264304 240.04105467 C140.32785184 244.01025674 140.34006969 247.97915483 140.36920929 251.94825935 C140.39643451 255.68702789 140.40471987 259.42536828 140.39871979 263.16422653 C140.4003385 265.18469972 140.42182403 267.20512666 140.44396973 269.22547913 C140.41319323 276.01389577 140.38342189 280.84407482 135.94628906 286.17138672 C131.40602585 288.97867246 127.58570858 289.60331474 122.35571289 289.55233765 C121.61161321 289.55701762 120.86751352 289.56169759 120.10086536 289.56651938 C117.61816673 289.57844455 115.13602263 289.5690221 112.65332031 289.55957031 C110.8690865 289.56363712 109.0848552 289.56897962 107.30062866 289.57550049 C102.46182953 289.58916687 97.62322247 289.58387821 92.78442001 289.57436323 C87.71833532 289.56676316 82.65226698 289.57381322 77.58618164 289.57852173 C69.07890879 289.58397826 60.5717141 289.57679034 52.06445312 289.5625 C42.23165912 289.5461737 32.39905173 289.55146228 22.56626225 289.56797922 C14.12109054 289.58159698 5.67597499 289.58351231 -2.76920414 289.57566321 C-7.81185528 289.5709883 -12.85441872 289.57035686 -17.89706421 289.58027267 C-22.6380524 289.58894426 -27.37880018 289.58291686 -32.11976242 289.5655899 C-33.85880509 289.5616261 -35.59786803 289.5627573 -37.33690262 289.5693779 C-39.71258566 289.57758779 -42.08750053 289.56727906 -44.46313477 289.55233765 C-45.14971759 289.55902981 -45.83630041 289.56572198 -46.54368877 289.57261693 C-51.09415195 289.51718554 -54.17599508 288.52854887 -58.05371094 286.17138672 C-64.61007028 279.43290628 -64.35851936 271.99909455 -64.37597656 263.12670898 C-64.39087128 261.31346634 -64.39087128 261.31346634 -64.40606689 259.46359253 C-64.43020807 256.15979957 -64.44517892 252.85625843 -64.45408821 249.5524075 C-64.45996725 247.48557477 -64.46817988 245.41876378 -64.47709656 243.35194206 C-64.50440768 236.8769077 -64.52376238 230.40192353 -64.53150034 223.9268356 C-64.54046611 216.4669506 -64.57559715 209.00779775 -64.63350153 201.54813534 C-64.67678544 195.77044297 -64.69691135 189.99295629 -64.69958258 184.21510357 C-64.7016743 180.7689805 -64.71339348 177.32354746 -64.7492218 173.8775959 C-64.78841953 170.03331147 -64.77958632 166.18993821 -64.76660156 162.34545898 C-64.79424591 160.64408531 -64.79424591 160.64408531 -64.82244873 158.90834045 C-64.76861441 153.82026736 -64.60503898 150.1240592 -61.38415527 146.0355072 C-55.87067047 140.71056716 -49.71693035 140.8734423 -42.47167969 140.88085938 C-41.52459137 140.87414215 -40.57750305 140.86742493 -39.60171509 140.86050415 C-36.48149321 140.84155793 -33.3614867 140.83760206 -30.24121094 140.83544922 C-28.06697502 140.82902043 -25.89273997 140.82229201 -23.71850586 140.8152771 C-19.16583245 140.80331385 -14.61323489 140.79959545 -10.06054688 140.80078125 C-4.22965295 140.80098472 1.60075514 140.77364879 7.43153381 140.73923683 C11.91998527 140.71699441 16.40831914 140.71294285 20.89682007 140.7140007 C23.04659708 140.71164205 25.1963772 140.70280367 27.34609985 140.68733597 C30.35249898 140.66772427 33.35784141 140.67349474 36.36425781 140.68554688 C37.24963226 140.67430786 38.13500671 140.66306885 39.04721069 140.65148926 C44.62514048 140.70826572 47.66067624 141.52764963 51.94628906 145.17138672 C54.75810426 150.79501711 54.10045603 158.47357542 54.12329102 164.65698242 C54.12986221 165.45166428 54.13643341 166.24634613 54.14320374 167.06510925 C54.16270035 169.65913009 54.17453673 172.25309415 54.18457031 174.84716797 C54.18864584 175.73859182 54.19272137 176.63001568 54.19692039 177.54845238 C54.21766549 182.25389744 54.23202484 186.95931423 54.24145508 191.66479492 C54.25258365 196.52165124 54.28708957 201.37805751 54.32662678 206.23475361 C54.3527233 209.97764453 54.36113996 213.72042598 54.36473656 217.46339989 C54.36960909 219.2547941 54.38124204 221.0461832 54.39977455 222.83748817 C54.42405093 225.33628545 54.42322427 227.83388528 54.41625977 230.33276367 C54.42906982 231.07100372 54.44187988 231.80924377 54.45507812 232.56985474 C54.42003844 236.01362841 54.18950163 237.85081719 52.08100891 240.62994385 C49.35448765 242.59871589 47.72007069 242.67385704 44.37597656 242.66748047 C43.31507813 242.668125 42.25417969 242.66876953 41.16113281 242.66943359 C40.05898438 242.64945313 38.95683594 242.62947266 37.82128906 242.60888672 C36.71140625 242.61597656 35.60152344 242.62306641 34.45800781 242.63037109 C28.35156433 242.58202532 28.35156433 242.58202532 25.94628906 242.17138672 C23.53009276 238.54709226 23.70329972 236.9000031 23.71923828 232.58862305 C23.71894623 231.92494217 23.71865417 231.26126129 23.71835327 230.57746887 C23.71974549 228.38598511 23.73530127 226.19484226 23.75097656 224.00341797 C23.75470708 222.48313076 23.75755387 220.96284114 23.759552 219.44255066 C23.7671854 215.44269158 23.78683132 211.44297792 23.80895996 207.44317627 C23.83302331 202.64325211 23.84220078 197.8432793 23.85386658 193.04331207 C23.87325596 185.75256917 23.91158035 178.46214531 23.94628906 171.17138672 C5.13628906 171.17138672 -13.67371094 171.17138672 -33.05371094 171.17138672 C-33.05371094 200.21138672 -33.05371094 229.25138672 -33.05371094 259.17138672 C14.13628906 259.17138672 61.32628906 259.17138672 109.94628906 259.17138672 C109.94628906 219.24138672 109.94628906 179.31138672 109.94628906 138.17138672 C107.30628906 137.51138672 104.66628906 136.85138672 101.94628906 136.17138672 C92.82631932 129.90858232 87.06120551 122.05136172 83.59082031 111.67919922 C83.03959355 108.67918934 82.96838687 106.96497738 83.33300781 104.03857422 C84.18939996 97.5271151 84.18939996 97.5271151 82.94628906 91.17138672 C78.19312222 85.68302833 71.27284609 82.50692298 64.94628906 79.17138672 C63.23035222 78.14229345 61.51999315 77.10368357 59.82128906 76.04638672 C59.07492187 75.60939453 58.32855469 75.17240234 57.55957031 74.72216797 C46.67755369 68.26452881 36.0522126 61.35223693 25.39160156 54.53857422 C19.15413939 50.55918441 12.8886459 46.62686153 6.60375977 42.72290039 C5.95753662 42.32047119 5.31131348 41.91804199 4.64550781 41.50341797 C4.01821777 41.11621582 3.39092773 40.72901367 2.74462891 40.33007812 C1.03861725 39.23087485 -0.59498492 38.02160773 -2.22167969 36.80810547 C-4.8631303 34.97080665 -4.8631303 34.97080665 -7.51074219 35.15185547 C-10.89476942 36.50858528 -13.77005878 38.40725367 -16.74121094 40.48388672 C-18.07048481 41.39036143 -19.39991915 42.29660087 -20.72949219 43.20263672 C-21.42896973 43.68345703 -22.12844727 44.16427734 -22.84912109 44.65966797 C-26.69122133 47.29425099 -30.5590939 49.88996761 -34.42871094 52.48388672 C-35.15276123 52.97477783 -35.87681152 53.46566895 -36.62280273 53.97143555 C-40.19065118 56.36721752 -43.77488636 58.61110156 -47.54980469 60.66748047 C-52.13127695 63.16435319 -56.42886895 65.9895666 -60.74121094 68.92138672 C-62.31745464 69.98214375 -63.89428426 71.04203061 -65.47167969 72.10107422 C-66.24431152 72.62024414 -67.01694336 73.13941406 -67.81298828 73.67431641 C-71.03963867 75.83010418 -74.29019263 77.94693467 -77.55371094 80.04638672 C-79.08511719 81.03251953 -79.08511719 81.03251953 -80.64746094 82.03857422 C-83.3265151 83.73774563 -86.04726553 85.35866947 -88.77636719 86.97607422 C-94.30350045 90.27944469 -99.64990173 93.82751937 -104.99121094 97.42138672 C-105.92255859 98.04529297 -106.85390625 98.66919922 -107.81347656 99.31201172 C-109.5244042 100.458395 -111.23469263 101.60573335 -112.9440918 102.75439453 C-114.64498052 103.89685005 -116.34887521 105.03482956 -118.05371094 106.17138672 C-118.49960354 108.22087981 -118.49960354 108.22087981 -118.41447449 110.62588501 C-118.42066048 112.03096565 -118.42066048 112.03096565 -118.42697144 113.46443176 C-118.41618561 114.49517319 -118.40539978 115.52591461 -118.39428711 116.58789062 C-118.39472519 117.67082901 -118.39516327 118.7537674 -118.39561462 119.86952209 C-118.3935183 123.46251216 -118.37014706 127.05504029 -118.34667969 130.64794922 C-118.34108675 133.13373561 -118.33681523 135.61952529 -118.33381653 138.10531616 C-118.32351775 143.98792239 -118.29985417 149.87035705 -118.26976806 155.75289285 C-118.23297582 163.10590284 -118.21683981 170.45893329 -118.20019531 177.81201172 C-118.16798878 190.93188821 -118.11733737 204.05162693 -118.05371094 217.17138672 C-116.3956543 217.86590942 -116.3956543 217.86590942 -114.70410156 218.57446289 C-103.9911432 223.26102393 -99.33800405 231.81767836 -95.05371094 242.17138672 C-91.9858123 251.50140788 -93.77717806 261.47672996 -97.56152344 270.25341797 C-101.95234897 278.8396658 -107.47894644 284.11802407 -116.17871094 288.35888672 C-117.21253906 288.86806641 -118.24636719 289.37724609 -119.31152344 289.90185547 C-128.03184205 293.93904001 -138.96180134 293.3402804 -147.92871094 290.23388672 C-156.5161073 286.46823341 -164.5593701 280.09382984 -168.05371094 271.17138672 C-172.89986659 258.73405018 -174.05970845 247.73766212 -168.74121094 235.25732422 C-164.8919136 228.21809992 -159.21225241 221.92109892 -152.05371094 218.17138672 C-151.06371094 218.17138672 -150.07371094 218.17138672 -149.05371094 218.17138672 C-149.05739811 217.5439302 -149.06108528 216.91647367 -149.06488419 216.27000332 C-149.15330387 200.9875214 -149.2194538 185.70511821 -149.26095963 170.42244625 C-149.28156617 163.0317814 -149.30964999 155.64128752 -149.35546875 148.25073242 C-149.3953953 141.80750698 -149.42115762 135.36440539 -149.43006492 128.92105967 C-149.43526992 125.51074898 -149.44746296 122.10079254 -149.47663116 118.69059563 C-149.505667 114.87921009 -149.50966666 111.06855842 -149.5078125 107.25708008 C-149.5221936 106.13210617 -149.53657471 105.00713226 -149.5513916 103.84806824 C-149.51088212 96.15260136 -148.3203599 91.79380933 -143.08105469 85.98388672 C-138.18700015 81.73932353 -133.14076722 78.14502119 -127.61621094 74.76123047 C-125.47360768 73.43190192 -123.45048012 72.04867354 -121.42871094 70.54638672 C-118.97922481 68.75280565 -116.48401854 67.28427999 -113.80371094 65.85888672 C-110.31336279 63.96999243 -107.17105196 61.85804088 -103.99121094 59.48388672 C-98.7987133 55.61868482 -93.40408799 52.21107884 -87.8984375 48.81982422 C-83.2787736 45.96475297 -78.80976039 42.96142204 -74.38964844 39.80419922 C-71.03430695 37.45882674 -67.56850263 35.30092322 -64.10449219 33.12060547 C-60.55433926 30.85232594 -57.05294992 28.51712232 -53.55371094 26.17138672 C-46.53739771 21.4726872 -39.43649244 16.92221573 -32.28417969 12.43310547 C-26.78219484 8.96262272 -21.41716105 5.36959898 -16.14746094 1.55419922 C-11.41794097 -1.56940166 -5.27317647 -2.12757501 0 0 Z " fill="#FFFCFC" transform="translate(247.0537109375,84.82861328125)"/>
<path d="M0 0 C2.49485148 2.87919346 3.38317292 5.12942568 3.8203125 8.91796875 C3.29901307 14.13096302 1.87802273 18.4692914 -2.09765625 22.0625 C-6.58283613 24.96709017 -10.30083675 25.25172994 -15.5546875 24.66796875 C-20.72953548 22.87667522 -23.07670373 20.53215911 -25.5546875 15.66796875 C-27.04571603 10.31332615 -26.70461381 5.84733667 -24.5546875 0.66796875 C-22.11601747 -2.44810962 -20.53249845 -4.0278234 -16.7421875 -5.20703125 C-9.35657054 -5.49666329 -5.48194225 -4.95924543 0 0 Z " fill="#FF0418" transform="translate(125.5546875,328.33203125)"/>
<path d="M0 0 C3.39787774 3.00277568 6.21152863 5.70100352 7.03515625 10.328125 C7.24132483 15.02518307 6.31265511 18.39200604 3.6875 22.375 C0.03351356 25.75493745 -2.55024296 27.23944177 -7.5625 27.625 C-12.45996511 27.29850233 -16.27460074 25.93738943 -20.1875 22.9375 C-23.30098513 18.61321509 -22.77330982 12.44390799 -22.3125 7.375 C-20.71125543 3.61207527 -18.76694189 1.53402618 -15.3125 -0.625 C-9.94299295 -2.41483568 -5.11514667 -2.50931724 0 0 Z " fill="#FF0115" transform="translate(377.3125,173.625)"/>
<path d="M0 0 C0.66 0.33 1.32 0.66 2 1 C-2.62 5.62 -7.24 10.24 -12 15 C-12 11.11566834 -10.82920314 10.32394504 -8.25 7.5 C-7.55390625 6.7265625 -6.8578125 5.953125 -6.140625 5.15625 C-4.19891408 3.20036601 -2.25069252 1.58156772 0 0 Z " fill="#FFD1D2" transform="translate(93,304)"/>
</svg>
