<?xml version="1.0" encoding="utf-8"?>
<svg version="1.1" viewBox="0 0 216 56" xmlns="http://www.w3.org/2000/svg">
	<path d="m0.32 26.68c0-3.627-0.10667-7.12-0.32-10.48h6.08l0.32 6.16h0.16c2.8267-4.64 6.827-6.96 12-6.96 2.507 0 4.72 0.693 6.64 2.08s3.28 3.227 4.08 5.52h0.16c1.333-2.347 3.08-4.2 5.24-5.56s4.627-2.04 7.4-2.04c3.733 0 6.76 1.373 9.08 4.12s3.48 6.893 3.48 12.44v23.04h-6.8v-22.08c0-7.893-2.747-11.84-8.24-11.84-2.027 0-3.76 0.64-5.2 1.92s-2.48 2.96-3.12 5.04c-0.267 0.96-0.4 1.973-0.4 3.04v23.92h-6.8v-23.44c0-3.2-0.68-5.747-2.04-7.64s-3.293-2.84-5.8-2.84c-2.027 0-3.827 0.693-5.4 2.08-1.5733 1.387-2.68 3.12-3.32 5.2-0.2667 0.853-0.4 1.893-0.4 3.12v23.52h-6.8v-28.32zm64 26.08c-2.187-2.027-3.28-4.693-3.28-8 0-4.693 1.973-8.28 5.92-10.76s9.573-3.693 16.88-3.64v-0.8c0-6.027-2.88-9.04-8.64-9.04-3.733 0-7.013 0.933-9.84 2.8l-1.6-4.64c3.467-2.187 7.653-3.28 12.56-3.28 9.6 0 14.4 5.253 14.4 15.76v14.64c0 3.68 0.213 6.747 0.64 9.2h-6.32l-0.64-4.8h-0.16c-2.613 3.733-6.48 5.6-11.6 5.6-3.36 0-6.133-1.013-8.32-3.04zm13.72-2.68c1.04-0.4 2.067-1.053 3.08-1.96 1.867-1.707 2.8-3.733 2.8-6.08v-6.8c-10.613-0.213-15.92 2.693-15.92 8.72 0 2.133 0.6 3.787 1.8 4.96s2.76 1.76 4.68 1.76c1.333 0 2.52-0.2 3.56-0.6zm28.2 3.2c-2.88-1.627-5.09-3.92-6.64-6.88-1.547-2.96-2.32-6.413-2.32-10.36 0-4 0.84-7.56 2.52-10.68s4.07-5.56 7.16-7.32 6.67-2.64 10.72-2.64c3.84 0 6.99 0.667 9.44 2l-1.52 5.36c-2.29-1.227-4.93-1.84-7.92-1.84-4.16 0-7.43 1.387-9.8 4.16s-3.56 6.32-3.56 10.64 1.23 7.813 3.68 10.48 5.63 4 9.52 4c2.67 0 5.44-0.613 8.32-1.84l1.12 5.28c-3.04 1.387-6.61 2.08-10.72 2.08-3.79 0-7.12-0.813-10-2.44zm36.4-0.88c-3.57-2.32-6.33-5.56-8.28-9.72s-2.92-8.88-2.92-14.16c0-5.493 1.03-10.387 3.08-14.68 2.05-4.2934 4.92-7.64 8.6-10.04s7.92-3.6 12.72-3.6c4.64 0 8.75 1.1467 12.32 3.44s6.35 5.52 8.32 9.68 2.96 8.907 2.96 14.24c0 5.6-1 10.533-3 14.8s-4.84 7.587-8.52 9.96-7.97 3.56-12.88 3.56c-4.69 0-8.83-1.16-12.4-3.48zm21.52-5c2.56-1.92 4.53-4.587 5.92-8s2.08-7.253 2.08-11.52c0-4.213-0.71-8-2.12-11.36s-3.39-5.987-5.92-7.88c-2.53-1.8933-5.43-2.84-8.68-2.84-3.31 0-6.23 0.9733-8.76 2.92-2.53 1.947-4.49 4.627-5.88 8.04s-2.08 7.28-2.08 11.6c0 4.16 0.69 7.907 2.08 11.24s3.35 5.947 5.88 7.84 5.43 2.84 8.68 2.84c3.31 0 6.24-0.96 8.8-2.88zm19.52 5.04l1.76-5.76c3.57 2.293 7.63 3.44 12.16 3.44 3.36 0 6.08-0.84 8.16-2.52s3.12-3.907 3.12-6.68c0-2.507-0.8-4.6-2.4-6.28s-4.19-3.187-7.76-4.52c-9.33-3.52-14-8.64-14-15.36 0-2.773 0.73-5.2667 2.2-7.48s3.52-3.9467 6.16-5.2 5.61-1.88 8.92-1.88c4.75 0 8.61 0.8533 11.6 2.56l-1.92 5.68c-2.83-1.7067-6.13-2.56-9.92-2.56-2.93 0-5.36 0.7467-7.28 2.24s-2.88 3.44-2.88 5.84c0 2.347 0.76 4.267 2.28 5.76s4.31 3.067 8.36 4.72c4.69 1.92 8.12 4.12 10.28 6.6s3.24 5.587 3.24 9.32c0 3.093-0.76 5.8-2.28 8.12s-3.68 4.12-6.48 5.4-6.09 1.92-9.88 1.92c-5.6 0-10.08-1.12-13.44-3.36z"/>
</svg>
