<?xml version="1.0" encoding="UTF-8" standalone="no"?><!DOCTYPE svg PUBLIC "-//W3C//DTD SVG 1.1//EN" "http://www.w3.org/Graphics/SVG/1.1/DTD/svg11.dtd"><svg width="100%" height="100%" viewBox="0 0 512 512" version="1.1" xmlns="http://www.w3.org/2000/svg" xmlns:xlink="http://www.w3.org/1999/xlink" xml:space="preserve" xmlns:serif="http://www.serif.com/" style="fill-rule:evenodd;clip-rule:evenodd;stroke-linejoin:round;stroke-miterlimit:2;"><rect x="0" y="0" width="512" height="512" style="fill:#fff;"/><g transform="matrix(1,0,0,1,9,35)"><g transform="matrix(72,0,0,72,68.9911,277.622)"><path d="M0.394,-0l-0.138,-0l0,-0.517c-0.05,0.047 -0.109,0.081 -0.177,0.104l0,-0.125c0.036,-0.011 0.075,-0.034 0.117,-0.066c0.042,-0.033 0.071,-0.071 0.086,-0.115l0.112,0l-0,0.719Z" style="fill:#f00;fill-rule:nonzero;"/></g><g transform="matrix(72,0,0,72,109.034,277.622)"><path d="M0.042,-0.398l-0,-0.126l0.5,-0l-0,0.126l-0.5,-0Zm-0,0.216l-0,-0.126l0.5,-0l-0,0.126l-0.5,0Z" style="fill-opacity:0.37;fill-rule:nonzero;"/></g><g transform="matrix(72,0,0,72,151.081,277.622)"><path d="M0.043,-0.354c0,-0.072 0.011,-0.134 0.033,-0.183c0.016,-0.037 0.039,-0.069 0.067,-0.098c0.028,-0.029 0.059,-0.051 0.092,-0.065c0.045,-0.019 0.096,-0.028 0.155,-0.028c0.105,-0 0.19,0.033 0.253,0.098c0.063,0.066 0.095,0.157 0.095,0.273c-0,0.116 -0.032,0.206 -0.094,0.271c-0.063,0.066 -0.147,0.098 -0.252,0.098c-0.107,0 -0.191,-0.032 -0.254,-0.097c-0.063,-0.065 -0.095,-0.155 -0.095,-0.269Zm0.149,-0.004c0,0.081 0.019,0.142 0.057,0.184c0.037,0.042 0.084,0.063 0.142,0.063c0.058,-0 0.105,-0.021 0.142,-0.063c0.037,-0.041 0.055,-0.103 0.055,-0.186c0,-0.082 -0.018,-0.144 -0.054,-0.184c-0.036,-0.04 -0.083,-0.06 -0.143,-0.06c-0.059,-0 -0.107,0.02 -0.144,0.061c-0.036,0.041 -0.055,0.102 -0.055,0.185Z" style="fill-rule:nonzero;"/></g><g transform="matrix(72,0,0,72,207.085,277.622)"><path d="M0.074,-0l0,-0.716l0.141,0l0.293,0.478l-0,-0.478l0.134,0l0,0.716l-0.145,-0l-0.289,-0.467l0,0.467l-0.134,-0Z" style="fill-rule:nonzero;"/></g><g transform="matrix(72,0,0,72,68.9911,351.978)"><path d="M0.274,-0.719c0.07,0 0.124,0.025 0.163,0.074c0.047,0.059 0.07,0.156 0.07,0.292c-0,0.135 -0.024,0.233 -0.07,0.292c-0.039,0.049 -0.093,0.073 -0.163,0.073c-0.069,0 -0.125,-0.027 -0.168,-0.08c-0.043,-0.054 -0.064,-0.149 -0.064,-0.286c-0,-0.135 0.023,-0.232 0.07,-0.292c0.039,-0.048 0.093,-0.073 0.162,-0.073Zm0,0.114c-0.016,0 -0.031,0.005 -0.044,0.016c-0.013,0.01 -0.023,0.029 -0.03,0.057c-0.01,0.035 -0.014,0.095 -0.014,0.179c-0,0.084 0.004,0.142 0.012,0.173c0.009,0.031 0.019,0.052 0.032,0.063c0.013,0.01 0.028,0.015 0.044,0.015c0.017,0 0.032,-0.005 0.045,-0.015c0.013,-0.011 0.023,-0.03 0.03,-0.057c0.01,-0.035 0.014,-0.095 0.014,-0.179c0,-0.084 -0.004,-0.142 -0.012,-0.173c-0.009,-0.032 -0.02,-0.053 -0.032,-0.063c-0.013,-0.011 -0.028,-0.016 -0.045,-0.016Z" style="fill:#f00;fill-rule:nonzero;"/></g><g transform="matrix(72,0,0,72,109.034,351.978)"><path d="M0.042,-0.398l-0,-0.126l0.5,-0l-0,0.126l-0.5,-0Zm-0,0.216l-0,-0.126l0.5,-0l-0,0.126l-0.5,0Z" style="fill-opacity:0.37;fill-rule:nonzero;"/></g><g transform="matrix(72,0,0,72,151.081,351.978)"><path d="M0.043,-0.354c0,-0.072 0.011,-0.134 0.033,-0.183c0.016,-0.037 0.039,-0.069 0.067,-0.098c0.028,-0.029 0.059,-0.051 0.092,-0.065c0.045,-0.019 0.096,-0.028 0.155,-0.028c0.105,-0 0.19,0.033 0.253,0.098c0.063,0.066 0.095,0.157 0.095,0.273c-0,0.116 -0.032,0.206 -0.094,0.271c-0.063,0.066 -0.147,0.098 -0.252,0.098c-0.107,0 -0.191,-0.032 -0.254,-0.097c-0.063,-0.065 -0.095,-0.155 -0.095,-0.269Zm0.149,-0.004c0,0.081 0.019,0.142 0.057,0.184c0.037,0.042 0.084,0.063 0.142,0.063c0.058,-0 0.105,-0.021 0.142,-0.063c0.037,-0.041 0.055,-0.103 0.055,-0.186c0,-0.082 -0.018,-0.144 -0.054,-0.184c-0.036,-0.04 -0.083,-0.06 -0.143,-0.06c-0.059,-0 -0.107,0.02 -0.144,0.061c-0.036,0.041 -0.055,0.102 -0.055,0.185Z" style="fill-rule:nonzero;"/></g><g transform="matrix(72,0,0,72,207.085,351.978)"><path d="M0.074,-0l-0,-0.716l0.49,0l0,0.121l-0.346,0l0,0.17l0.299,-0l0,0.121l-0.299,-0l0,0.304l-0.144,-0Z" style="fill-rule:nonzero;"/></g><g transform="matrix(72,0,0,72,251.065,351.978)"><path d="M0.074,-0l-0,-0.716l0.49,0l0,0.121l-0.346,0l0,0.17l0.299,-0l0,0.121l-0.299,-0l0,0.304l-0.144,-0Z" style="fill-rule:nonzero;"/></g></g><path d="M196.216,220.203c-0.318,2.334 -1.166,4.323 -2.545,5.967c-1.38,1.644 -2.971,2.785 -4.774,3.421c-1.803,0.636 -3.66,0.663 -5.569,0.08c-1.909,-0.584 -3.501,-1.989 -4.774,-4.217c-1.06,-1.803 -1.67,-3.686 -1.829,-5.649c-0.159,-1.962 -0.345,-4.004 -0.557,-6.126c-0.212,-2.333 -0.451,-4.375 -0.716,-6.126c-0.265,-1.75 -0.557,-3.792 -0.875,-6.126c-0.955,-6.364 -2.016,-12.649 -3.183,-18.855c-1.167,-6.205 -2.493,-12.437 -3.978,-18.696c-2.121,5.304 -4.137,10.555 -6.046,15.753c-1.909,5.197 -3.819,10.448 -5.728,15.752c-1.485,3.925 -2.944,7.876 -4.376,11.854c-1.432,3.978 -3.103,7.823 -5.012,11.536c-0.637,1.273 -1.697,2.307 -3.182,3.103c-1.485,0.795 -3.077,1.246 -4.774,1.352c-1.697,0.106 -3.288,-0.132 -4.773,-0.716c-1.485,-0.583 -2.599,-1.564 -3.342,-2.943c-4.561,-8.805 -9.069,-17.556 -13.525,-26.254c-4.455,-8.699 -8.91,-17.45 -13.365,-26.255c-0.531,5.41 -1.008,10.847 -1.432,16.31c-0.425,5.463 -0.902,10.899 -1.432,16.309c-0.107,1.697 -0.213,3.766 -0.319,6.206c-0.106,2.439 -0.291,4.906 -0.557,7.399c-0.265,2.492 -0.583,4.879 -0.954,7.16c-0.372,2.28 -0.982,4.057 -1.83,5.33c-1.273,2.122 -2.944,3.501 -5.012,4.137c-2.069,0.637 -4.084,0.69 -6.047,0.159c-1.962,-0.53 -3.606,-1.617 -4.932,-3.262c-1.326,-1.644 -1.936,-3.739 -1.83,-6.285c0.212,-4.349 0.583,-8.645 1.114,-12.888c0.53,-4.243 1.007,-8.539 1.432,-12.888c0.848,-9.441 1.723,-18.829 2.625,-28.164c0.902,-9.335 1.777,-18.776 2.626,-28.323c0.212,-2.758 0.769,-5.303 1.67,-7.637c0.902,-2.334 2.838,-3.978 5.808,-4.933c1.167,-0.424 2.387,-0.583 3.66,-0.477c1.273,0.106 2.439,0.477 3.5,1.114c2.334,1.485 4.164,3.527 5.49,6.126c1.326,2.599 2.572,5.065 3.739,7.399c2.015,3.818 3.978,7.664 5.887,11.535c1.91,3.872 3.819,7.718 5.728,11.536c2.334,4.88 4.694,9.68 7.081,14.4c2.387,4.721 4.853,9.468 7.399,14.241c0.636,-1.591 1.246,-3.182 1.83,-4.773c0.583,-1.591 1.193,-3.183 1.83,-4.774c1.166,-2.758 2.254,-5.542 3.262,-8.353c1.007,-2.811 2.042,-5.596 3.102,-8.354c1.485,-3.607 2.891,-7.16 4.217,-10.661c1.326,-3.5 2.625,-7.054 3.898,-10.66c1.061,-2.652 2.069,-5.516 3.023,-8.593c0.955,-3.076 2.493,-5.675 4.615,-7.796c1.485,-1.592 3.103,-2.546 4.853,-2.864c1.75,-0.319 3.394,-0.186 4.932,0.397c1.539,0.584 2.918,1.565 4.137,2.944c1.22,1.379 2.095,2.97 2.626,4.773c0.636,2.44 1.379,5.198 2.227,8.274c0.849,3.077 1.592,5.835 2.228,8.274c1.167,4.456 2.228,8.831 3.182,13.128c0.955,4.296 1.857,8.671 2.705,13.127c1.485,7.319 2.785,14.559 3.899,21.719c1.114,7.16 2.095,14.4 2.943,21.719l0,1.114Z" style="fill-rule:nonzero;"/><path d="M290.095,219.726c-0.318,2.333 -1.114,4.322 -2.387,5.967c-1.273,1.644 -2.731,2.784 -4.376,3.421c-1.644,0.636 -3.394,0.716 -5.25,0.238c-1.857,-0.477 -3.581,-1.723 -5.172,-3.739c-1.379,-1.697 -2.148,-3.58 -2.307,-5.649c-0.159,-2.068 -0.451,-4.11 -0.875,-6.126c-1.061,-5.834 -2.599,-11.827 -4.614,-17.98c-6.577,0.106 -13.101,0.159 -19.572,0.159c-6.47,0 -12.941,0.054 -19.412,0.16c-0.955,2.758 -1.777,5.569 -2.466,8.433c-0.69,2.864 -1.353,5.675 -1.989,8.433c-0.53,2.121 -1.008,4.323 -1.432,6.603c-0.424,2.281 -1.379,4.27 -2.864,5.967c-1.804,2.122 -3.739,3.315 -5.808,3.58c-2.068,0.265 -3.925,-0.079 -5.569,-1.034c-1.644,-0.955 -2.97,-2.413 -3.978,-4.376c-1.008,-1.962 -1.352,-4.216 -1.034,-6.762c0.318,-3.289 0.955,-6.524 1.909,-9.706c0.955,-3.183 1.857,-6.365 2.705,-9.547c4.774,-18.246 10.926,-35.907 18.458,-52.986c0.636,-1.485 1.299,-2.917 1.989,-4.296c0.689,-1.379 1.352,-2.758 1.989,-4.137c0.742,-1.485 1.485,-3.076 2.227,-4.773c0.743,-1.698 1.618,-3.262 2.626,-4.694c1.007,-1.432 2.201,-2.652 3.58,-3.66c1.379,-1.008 3.076,-1.512 5.091,-1.512c2.652,0 4.88,0.849 6.683,2.546c7.214,7.213 13.154,15.355 17.821,24.424c4.668,9.07 8.858,18.325 12.57,27.766c2.228,-0.106 4.403,-0.106 6.524,0c2.122,0.106 4.031,1.061 5.728,2.864c1.485,1.485 2.361,3.077 2.626,4.774c0.265,1.697 0.106,3.341 -0.478,4.932c-0.583,1.592 -1.538,2.971 -2.864,4.137c-1.326,1.167 -2.943,1.963 -4.853,2.387c1.061,3.713 1.989,7.505 2.785,11.377c0.795,3.872 1.458,7.77 1.989,11.695l-0,1.114Zm-32.46,-43.28c-2.015,-4.773 -4.163,-9.52 -6.444,-14.241c-2.281,-4.72 -4.853,-9.202 -7.717,-13.445c-2.122,4.667 -4.111,9.308 -5.967,13.923c-1.856,4.614 -3.58,9.308 -5.171,14.081c4.985,-0.106 9.361,-0.159 13.127,-0.159c3.766,0 7.823,-0.053 12.172,-0.159Z" style="fill-rule:nonzero;"/><path d="M306.643,134.758c0.318,-1.167 0.848,-2.307 1.591,-3.421c0.743,-1.114 1.618,-2.095 2.625,-2.944c1.008,-0.848 2.122,-1.458 3.342,-1.83c1.22,-0.371 2.466,-0.344 3.739,0.08c3.925,-1.591 7.929,-2.917 12.013,-3.978c4.084,-1.061 8.168,-1.671 12.252,-1.83c4.084,-0.159 8.115,0.212 12.093,1.114c3.978,0.902 7.823,2.572 11.536,5.012c2.97,1.91 5.596,4.296 7.876,7.16c2.281,2.864 4.164,5.888 5.649,9.07c2.546,5.728 3.713,11.43 3.5,17.105c-0.212,5.675 -1.538,10.952 -3.977,15.832c-2.44,4.88 -5.861,9.176 -10.263,12.888c-4.403,3.713 -9.574,6.418 -15.514,8.115c-4.455,1.273 -8.99,1.883 -13.605,1.83c-4.614,-0.053 -9.149,-0.345 -13.604,-0.875l-0,15.434c-0,1.167 0.053,2.387 0.159,3.66c0.106,1.273 0.133,2.546 0.08,3.819c-0.053,1.273 -0.213,2.519 -0.478,3.739c-0.265,1.22 -0.769,2.36 -1.511,3.421c-1.273,2.121 -2.917,3.421 -4.933,3.898c-2.015,0.478 -3.951,0.372 -5.808,-0.318c-1.856,-0.689 -3.447,-1.856 -4.773,-3.501c-1.326,-1.644 -1.989,-3.633 -1.989,-5.966l-0,-28.641c-2.016,-1.061 -3.501,-2.387 -4.455,-3.978c-0.955,-1.591 -1.379,-3.209 -1.273,-4.853c0.106,-1.644 0.636,-3.209 1.591,-4.694c0.955,-1.485 2.281,-2.705 3.978,-3.66l-0,-40.733l0.159,-0.955Zm46.303,7.001c-4.456,-1.803 -8.99,-2.334 -13.605,-1.591c-4.614,0.742 -9.096,2.121 -13.445,4.137l-0,34.687c4.986,0.849 10.077,1.061 15.275,0.637c5.198,-0.425 9.971,-2.016 14.32,-4.774c3.077,-2.015 5.198,-4.561 6.365,-7.638c1.167,-3.076 1.591,-6.205 1.273,-9.387c-0.318,-3.183 -1.379,-6.232 -3.182,-9.15c-1.804,-2.917 -4.137,-5.224 -7.001,-6.921Z" style="fill-rule:nonzero;"/><path d="M420.57,166.74c-0,4.137 -1.22,7.293 -3.66,9.468c-2.439,2.174 -5.171,3.341 -8.194,3.5c-3.023,0.159 -5.834,-0.742 -8.433,-2.705c-2.599,-1.962 -4.058,-5.012 -4.376,-9.149c-0.212,-2.758 0.239,-5.065 1.352,-6.922c1.114,-1.856 2.599,-3.288 4.456,-4.296c1.856,-1.007 3.872,-1.564 6.046,-1.67c2.175,-0.107 4.217,0.265 6.126,1.113c1.909,0.849 3.501,2.148 4.774,3.899c1.272,1.75 1.909,4.004 1.909,6.762Zm0.318,48.371c0,4.137 -1.246,7.293 -3.739,9.468c-2.493,2.174 -5.277,3.315 -8.354,3.421c-3.076,0.106 -5.913,-0.796 -8.512,-2.705c-2.599,-1.91 -4.058,-4.933 -4.376,-9.07c-0.318,-4.243 0.796,-7.452 3.341,-9.626c2.546,-2.175 5.437,-3.342 8.672,-3.501c3.236,-0.159 6.206,0.769 8.911,2.785c2.705,2.015 4.057,5.091 4.057,9.228Z" style="fill-rule:nonzero;"/></svg>