<?xml version="1.0" encoding="UTF-8" standalone="no"?><!DOCTYPE svg PUBLIC "-//W3C//DTD SVG 1.1//EN" "http://www.w3.org/Graphics/SVG/1.1/DTD/svg11.dtd"><svg width="500px" height="500px" version="1.1" xmlns="http://www.w3.org/2000/svg" xmlns:xlink="http://www.w3.org/1999/xlink" xml:space="preserve" xmlns:serif="http://www.serif.com/" style="fill-rule:evenodd;clip-rule:evenodd;stroke-linejoin:round;"><path d="M225.571,360.759c0,-0 -12.771,37.858 -27.244,69.693c-14.473,31.836 -40.016,47.324 -43.422,47.324c-3.406,-0 -6.811,-18.069 -5.96,-28.394c0.852,-10.325 24.691,-30.976 -16.177,1.72c-40.868,32.696 -69.814,46.463 -67.259,35.278c-4.258,-27.534 43.421,-85.182 12.77,-74.857c-30.65,10.325 -82.585,34.417 -50.232,-3.442c32.353,-37.859 65.557,-55.067 37.461,-54.206c-28.097,0.86 -55.34,13.767 -41.719,-11.186c13.622,-24.952 79.16,-63.758 107.256,-80.106c22.137,11.185 65.578,40.527 94.526,98.176Z" style="fill:#ff4000;"/><path d="M212.853,339.743c-0,0 -9.327,44.94 -19.502,58.506c-10.175,13.566 -12.719,11.871 -15.263,-6.783c-2.544,-18.654 15.263,-37.309 -15.262,-16.958c-30.525,20.351 -56.811,45.787 -41.549,14.414c15.262,-31.373 19.503,-39.004 -1.695,-27.981c-21.198,11.023 -41.549,19.502 -16.11,-11.023c19.501,-22.046 -19.502,-27.982 -26.286,-30.525c-16.111,2.544 68.681,-44.941 77.16,-44.941c9.328,1.696 55.116,58.507 58.507,65.291Z" style="fill:#ff3;fill-opacity:0.69;"/><path d="M479.1,31.099c-78.857,1.696 -278.118,33.917 -354.431,229.787c26.286,5.088 90.727,67.834 100.902,102.598c194.174,-99.206 249.29,-256.072 253.529,-332.385Z" style="fill:#d9d9d9;stroke:#000;stroke-width:10px;"/><path d="M333.257,292.259c0,-0 -3.391,86.488 -3.391,87.336c0,0.848 -104.295,48.332 -110.23,50.876l5.087,-67.834c9.327,0.848 92.424,-52.571 108.534,-70.378Z" style="fill:#bfbfbf;stroke:#000;stroke-width:10px;"/><path d="M192.173,151.353c-0,0 -85.531,3.82 -86.379,3.841c-0.848,0.021 -45.755,105.452 -48.152,111.447l67.689,-6.752c9.098,-33.046 46.892,-88.601 66.842,-108.536Z" style="fill:#bfbfbf;stroke:#000;stroke-width:10px;"/><path d="M261.59,210.169c-0,0 -14.26,34.123 -16.667,39.686c-2.954,3.748 -77.589,64.656 -83.068,68.074l3.179,-21.681c7.994,-7.698 76.803,-68.016 96.556,-86.079Z" style="fill:#bfbfbf;stroke:#000;stroke-width:10px;"/><path d="M264.27,209.399l16.769,24.281l-20.645,35.734l-85.754,67.744l-12.388,-18.545l81.992,-69.24l20.026,-39.974Z" style="fill:#bfbfbf;stroke:#000;stroke-width:10px;"/><path d="M372.262,131.154c28.83,39.004 -30.524,87.336 -58.506,52.571c-33.917,-42.396 24.589,-83.096 58.506,-52.571Z" style="fill:#bfbfbf;stroke:#000;stroke-width:12.5px;"/><path d="M364.631,135.393c-21.198,-20.35 -70.377,4.24 -48.332,40.701c24.59,31.372 74.617,-8.479 48.332,-40.701Z" style="fill:#aeffff;stroke:#000;stroke-width:10px;"/><path d="M348.521,134.502c6.861,4.738 24.9,19.624 10.175,37.352c-12.719,3.392 -30.525,-35.656 -10.175,-37.352Z" style="fill:#fff;fill-opacity:0.75;"/></svg>