<?xml version="1.0" encoding="UTF-8" standalone="no"?><!DOCTYPE svg PUBLIC "-//W3C//DTD SVG 1.1//EN" "http://www.w3.org/Graphics/SVG/1.1/DTD/svg11.dtd"><svg width="3000px" height="1042px" version="1.1" xmlns="http://www.w3.org/2000/svg" xmlns:xlink="http://www.w3.org/1999/xlink" xml:space="preserve" xmlns:serif="http://www.serif.com/" style="fill-rule:evenodd;clip-rule:evenodd;stroke-linejoin:round;stroke-miterlimit:2;"><path d="M232.1,424.6c-57.9,-46.4 -116.8,-91.4 -176.7,-135.1c76.9,-147.7 197,-240.7 360.3,-278.8c151.8,-29 290.4,1 415.7,90.1c14.9,11.4 28.8,24.1 41.6,38.1l-149,149c-104.7,-85.7 -219,-99.5 -342.9,-41.6c-71.3,41.4 -121,100.9 -149,178.3Z" style="fill:#ea4334;fill-opacity:0.98;"/><path d="M1538,261.8c26.6,-0.6 53.1,0 79.7,1.7c85.6,136 171.6,271.6 258.1,407c-1.6,-136.1 -2.2,-272.4 -1.7,-408.7l65.8,0l0,519.6c-23.1,0.6 -46.2,0 -69.3,-1.7c-89.9,-141.2 -179.4,-282.6 -268.5,-424.3c-1.7,142 -2.3,284 -1.7,426.1l-62.4,0l0,-519.7Z" style="fill:#7f868a;fill-opacity:0.96;"/><path d="M55.4,289.5c59.9,43.7 118.8,88.7 176.7,135.1c-18.4,65.8 -18.4,131.6 -0,197.4c-58.9,44 -117.8,87.8 -176.7,131.6c-73.9,-154.6 -73.9,-309.3 0,-464.1Z" style="fill:#fabb04;fill-opacity:0.98;"/><path d="M2840.4,303.4l65.8,-0l0,107.4l90.1,-0l0,58.9l-90.1,-0c-1.6,78.7 0.1,157.3 5.2,235.5c12.7,25.1 32.9,33.7 60.6,26c9,-3.9 18.2,-6.8 27.7,-8.7c0.6,20.8 0,41.6 -1.7,62.4c-52.3,20 -98.4,10.8 -138.6,-27.7c-8.5,-14 -14.3,-29 -17.3,-45c-1.7,-80.8 -2.3,-161.6 -1.7,-242.5l-65.8,-0l0,-58.9l65.8,-0l0,-107.4Z" style="fill:#7f868a;fill-opacity:0.94;"/><path d="M2189.2,396.9c135.8,4.2 201.6,74.6 197.4,211.3l-294.4,0c6.2,76.1 47.2,118.8 123,128.2c49.5,-3.3 86.4,-26.4 110.8,-69.3c18.2,9.4 36.1,19.2 53.7,29.4c-48,80.7 -118.5,111.9 -211.3,93.5c-82.8,-23.9 -129.6,-78.8 -140.3,-164.5c-9.3,-78.5 15.6,-143.7 74.5,-195.7c26.5,-18.2 55.4,-29.2 86.6,-32.9Zm10.4,58.9c67,1.2 106.3,34.7 117.8,100.5c-73.9,1.2 -147.8,-0 -221.7,-3.5c13.8,-55.4 48.5,-87.8 103.9,-97Z" style="fill:#7f868a;fill-opacity:0.95;"/><path d="M2573.7,396.9c60.2,-5.2 110.5,14.5 150.7,58.9c3.6,7.8 7.6,15.3 12.1,22.5c-16.7,11 -34.6,19.6 -53.7,26c-38.9,-48.9 -86.8,-59.9 -143.8,-32.9c-27.7,23.1 -27.7,46.2 -0,69.3c37,15 75.1,26.6 114.3,34.6c87.3,29.6 111,85.6 71,168c-27.8,29.2 -61.9,45.9 -102.2,50.2c-85.3,10.5 -146.5,-22.4 -183.6,-98.7c17.5,-11.1 36,-20.3 55.4,-27.7c40.6,69.9 97.1,86.6 169.7,50.2c19.5,-24.3 18.3,-47.4 -3.5,-69.3c-9.2,-4.6 -18.5,-9.2 -27.7,-13.9c-42.3,-10.6 -83.9,-23.3 -124.7,-38.1c-52.7,-31.1 -68.3,-75.6 -46.8,-133.4c27.5,-39.2 65,-61.1 112.8,-65.7Z" style="fill:#7f868a;fill-opacity:0.94;"/><path d="M866,916.5c-54.6,-46.4 -111.1,-90.2 -169.7,-131.6c54,-38 88.6,-89.3 103.9,-154.1c-93.5,-1.7 -187,-2.3 -280.6,-1.7l0,-204.4c164.8,-1.1 329.3,0 493.6,3.5c24.8,141.4 1.7,274.2 -69.3,398.4c-21.9,33.3 -47.9,63.4 -77.9,89.9Z" style="fill:#4285f3;fill-opacity:0.98;"/><path d="M232.1,622.1c76.2,172 206.6,237.3 391.4,195.7c25.3,-9.2 49.5,-20.1 72.7,-32.9c58.6,41.4 115.2,85.3 169.7,131.6c-77.9,71.8 -170.3,112.8 -277.1,123c-221,17.9 -392.5,-64.6 -514.4,-247.7c-6.4,-12.9 -12.8,-25.6 -19.1,-38.1c58.9,-43.8 117.8,-87.7 176.8,-131.6Z" style="fill:#34a753;fill-opacity:0.99;"/></svg>