<?xml version="1.0" encoding="UTF-8" standalone="no"?><!DOCTYPE svg PUBLIC "-//W3C//DTD SVG 1.1//EN" "http://www.w3.org/Graphics/SVG/1.1/DTD/svg11.dtd"><svg width="150px" height="150px" version="1.1" xmlns="http://www.w3.org/2000/svg" xmlns:xlink="http://www.w3.org/1999/xlink" xml:space="preserve" xmlns:serif="http://www.serif.com/" style="fill-rule:evenodd;clip-rule:evenodd;stroke-linejoin:round;stroke-miterlimit:2;"><g id="Calque-1" serif:id="Calque 1"><g id="g6403"><rect id="rect6314" x="0" y="0" width="150" height="150" style="fill:none;"/><path id="path6316" d="M87.631,4.25c8.024,-1.457 19.05,-2.171 27.113,-3.384l6.931,15.022c16.101,20.35 21.651,48.277 18.917,64.823l-4.66,23.616l-123.291,-55.797c4.117,-9.563 10.024,-15.481 15.69,-21.89c17.368,-16.129 38.206,-20.681 59.3,-22.39Z" style="fill:#1f1a17;"/><path id="path6318" d="M34.36,132.421c-23.485,-19.672 -28.313,-48.729 -21.208,-77.579l6.857,-13.772c13.885,-20.125 32.972,-27.169 55.834,-32.726c13.045,-1.003 26.202,-2.725 37.341,-3.433c18.194,31.066 28.896,49.89 22.872,86.934l-5.102,14.757l-6.638,10.196c-23.109,28.553 -58.989,35.194 -89.956,15.623Z" style="fill:url(#_Radial1);"/><path id="rect6320" d="M143.598,66.743l-59.344,77.938l-78.545,-59.806l59.344,-77.938l78.545,59.806Z" style="fill:url(#_Radial2);"/><path id="path6324" d="M104.82,12.454c0,-0 -63.447,53.293 -61.51,57.743c1.272,2.924 24.44,6.107 24.44,6.107l-18.887,41.367c-3.342,10.737 2.729,4.719 5.797,5.802c-0,-0 63.188,-54.333 61.628,-57.999c-1.56,-3.667 -16.747,-4.657 -23.323,-6.557c4.279,-8.74 17.79,-43.012 17.79,-43.012c3.985,-7.758 2.588,-11.767 -5.935,-3.451Z" style="fill-rule:nonzero;"/><path id="path6326" d="M108.029,14.35l-56.149,51.633l24.198,4.727l-22.593,47.754l56.149,-51.633l-24.198,-4.726l22.593,-47.755Z" style="fill:url(#_Radial3);fill-rule:nonzero;"/><path id="path6328" d="M78.985,13.127c30.783,-0.04 55.705,21.428 55.654,47.94l-0.012,0.675l-111.473,0.144l-0.008,-0.675c0.052,-26.512 25.055,-48.045 55.839,-48.084l0,-0l-0,-0Z" style="fill:url(#_Linear4);"/><path id="path6332" d="M141.983,95.682l2.308,4.3l-18.258,20.186c-12.161,14.912 -17.283,18.471 -27.916,24.407c-23.639,8.771 -36.759,3.297 -55.211,-3.121l-10.71,6.979l-5.232,-2.483l-2.673,-4.238l8.95,-5.21c-32.374,-34.504 -28.804,-65.005 -21.809,-95.418l4.882,-1.146l4.228,28.975l17.624,-13.203l4.246,3.778l-4.652,26.259l18.339,-5.929l5.912,1.646l-0.581,24.98l42.922,-22.581l4.464,2.668l-9.45,23.102l24.342,-23.637l4.527,2.638l-9.105,20.352l22.853,-13.304Z" style="fill:#1f1a17;"/><path id="path6334" d="M48.245,140.189c-4.747,-1.401 -10.074,-2.462 -13.74,-5.577c-25.519,-30.619 -27.597,-54.908 -21.231,-87.916l4.253,29.088l20.003,-14.456l-6.333,33.829l24.62,-9.796l-0.071,31.909l46.299,-27.354l-10.462,33.205l32.108,-32.009l-9.138,24.219l24.69,-14.229c-13.274,16.709 -26.816,34.192 -42.721,40.22c-14.081,6.478 -25.531,4.892 -48.277,-1.133l-0,0Z" style="fill:url(#_Radial5);"/><path id="polygon6336" d="M33.898,139.243l3.383,2.888l-5.15,2.89l-2.449,-0.899l-0.677,-1.666l4.893,-3.213Z" style="fill:#99ae6a;"/></g></g><defs><radialGradient id="_Radial1" cx="0" cy="0" r="1" gradientUnits="userSpaceOnUse" gradientTransform="matrix(94.0818,71.6359,-71.6359,94.0818,78.6029,78.7363)"><stop offset="0" style="stop-color:#ef9a48;stop-opacity:1"/><stop offset="1" style="stop-color:#8f5444;stop-opacity:1"/></radialGradient><radialGradient id="_Radial2" cx="0" cy="0" r="1" gradientUnits="userSpaceOnUse" gradientTransform="matrix(39.2725,29.9029,-29.672,38.9692,74.6535,75.8091)"><stop offset="0" style="stop-color:#fff;stop-opacity:1"/><stop offset="1" style="stop-color:#fff;stop-opacity:0"/></radialGradient><radialGradient id="_Radial3" cx="0" cy="0" r="1" gradientUnits="userSpaceOnUse" gradientTransform="matrix(68.4961,-5.70694,8.11895,64.5706,65.3119,101.451)"><stop offset="0" style="stop-color:#d69600;stop-opacity:1"/><stop offset="1" style="stop-color:#ffff90;stop-opacity:1"/></radialGradient><linearGradient id="_Linear4" x1="0" y1="0" x2="1" y2="0" gradientUnits="userSpaceOnUse" gradientTransform="matrix(2.43248,61.4975,-61.4975,2.43248,76.5744,-2.40789)"><stop offset="0" style="stop-color:#fff;stop-opacity:1"/><stop offset="1" style="stop-color:#fff;stop-opacity:0"/></linearGradient><radialGradient id="_Radial5" cx="0" cy="0" r="1" gradientUnits="userSpaceOnUse" gradientTransform="matrix(88.0027,67.0072,-65.3003,85.7608,38.2794,89.7244)"><stop offset="0" style="stop-color:#fff974;stop-opacity:1"/><stop offset="1" style="stop-color:#97946b;stop-opacity:1"/></radialGradient></defs></svg>