<?xml version="1.0" encoding="UTF-8" standalone="no"?><!DOCTYPE svg PUBLIC "-//W3C//DTD SVG 1.1//EN" "http://www.w3.org/Graphics/SVG/1.1/DTD/svg11.dtd"><svg width="200px" height="160px" version="1.1" xmlns="http://www.w3.org/2000/svg" xmlns:xlink="http://www.w3.org/1999/xlink" xml:space="preserve" xmlns:serif="http://www.serif.com/" style="fill-rule:evenodd;clip-rule:evenodd;stroke-linejoin:round;stroke-miterlimit:2;"><g><path d="M68.3,2.1c-7.2,3.5 -8.3,7.2 -8.3,27.9c0,15.5 0.2,17.8 2.1,21.6c3,6.2 8,8.4 19.2,8.4l8.7,-0l0,10l-83.2,0l-3.4,3.4c-2.4,2.5 -3.4,4.3 -3.4,6.6c0,2.3 1,4.1 3.4,6.6l3.4,3.4l33.2,0l0,10l-8.7,0c-11.2,0 -16.2,2.2 -19.2,8.4c-1.9,3.8 -2.1,6.1 -2.1,21.6c0,15.5 0.2,17.8 2.1,21.6c1.5,3.1 3.2,4.8 6.3,6.3c4,2 6,2.1 31.6,2.1c25.6,0 27.6,-0.1 31.6,-2.1c3.1,-1.5 4.8,-3.2 6.3,-6.3c1.9,-3.8 2.1,-6.1 2.1,-21.6c0,-15.5 -0.2,-17.8 -2.1,-21.6c-3,-6.2 -8,-8.4 -19.2,-8.4l-8.7,0l0,-10l80,0l0,10l-8.7,0c-11.2,0 -16.2,2.2 -19.2,8.4c-1.9,3.8 -2.1,6.1 -2.1,21.6c-0,15.5 0.2,17.8 2.1,21.6c1.5,3.1 3.2,4.8 6.3,6.3c4,2 6,2.1 31.6,2.1c25.6,0 27.6,-0.1 31.6,-2.1c3.1,-1.5 4.8,-3.2 6.3,-6.3c1.9,-3.8 2.1,-6.1 2.1,-21.6c0,-15.5 -0.2,-17.8 -2.1,-21.6c-3,-6.2 -8,-8.4 -19.2,-8.4l-8.7,0l-0,-10l33.2,0l3.4,-3.4c2.4,-2.5 3.4,-4.3 3.4,-6.6c-0,-2.3 -0.9,-4.2 -3.4,-6.6l-3.4,-3.4l-83.2,0l-0,-10l8.7,0c11.2,0 16.2,-2.2 19.2,-8.4c1.9,-3.8 2.1,-6.1 2.1,-21.6c-0,-15.5 -0.2,-17.8 -2.1,-21.6c-1.5,-3.1 -3.2,-4.8 -6.3,-6.3c-4,-2 -6,-2.1 -31.7,-2.1c-25.7,0 -27.7,0.1 -31.6,2.1Zm51.7,17.9l-0,20l-40,0l-0,-20l40,0Zm-50,100l-0,20l-40,0l-0,-20l40,0Zm100,0l0,20l-40,0l0,-20l40,0Z" style="fill-rule:nonzero;"/></g></svg>