<svg xmlns="http://www.w3.org/2000/svg" xml:space="preserve" id="Layer_1" x="0" y="0" version="1.1" viewBox="0 0 512 512"><style>.st1{fill:#fff}</style><linearGradient id="SVGID_1_" x1="115.045" x2="142.93" y1="512.747" y2="491.741" gradientTransform="matrix(15.8584 0 0 -15.8584 -1816.246 8200.18)" gradientUnits="userSpaceOnUse"><stop offset="0" style="stop-color:#348878"/><stop offset="1" style="stop-color:#56bda8"/></linearGradient><path d="M441.8 64.8H84.7c-24.5 0-44.6 19-44.6 42.1l.3 285.3-6.7 38.4 95.6-28.8h312.4c24.5 0 44.6-19 44.6-42.1V106.9c.1-23.2-20-42.1-44.5-42.1" style="fill:url(#SVGID_1_)"/><path d="M78.1 32.7C40.9 32.7 9 62 9 99.2l.4 311.2-9.4 69 127.1-33.8H443c37.2 0 69.1-29.3 69.1-66.5V99.2c0-37.2-31.9-66.5-69-66.5zm0 46.9H443c13.1 0 22.1 9.5 22.1 19.6V379c0 10-9 19.8-22.1 19.6H120.2l-64.6 19.5.7-3.8-.4-315.1c0-10.1 9.1-19.6 22.2-19.6" class="st1"/><path d="M116.4 310.9v-34.8l73.1-38.7c2.4-1.2 4.6-2.1 6.8-2.7 2.3-.8 4.5-1.4 6.3-1.8l6-.6V230q-3-.3-6-1.2-2.85-.6-6.3-1.5c-2.2-.8-4.5-1.8-6.8-3l-73.1-38.7v-35.1l113 61.5v37.4z" class="st1"/><path d="M110.5 139.7v50.4l76.6 40.6.5.2-.5.2-76.6 40.6v50.1l8.2-4.5L235.1 254v-46.4zm11.8 21.7 101.2 55.1V245l-101.2 55.1v-19.4l69.6-36.8.1-.1c1.9-1 3.8-1.7 5.8-2.3h.1l.2-.1c2.1-.7 3.9-1.2 5.5-1.6l11.1-1.1v-15.2l-5.4-.5c-1.7-.2-3.5-.5-5.1-1.1h-.2l-.2-.1c-2-.4-3.9-.9-5.9-1.4-2-.7-4-1.6-5.9-2.6l-.1-.1-69.6-36.7zm152.3 137.4h120.7v32.6H274.6z" class="st1"/><path d="M268.7 292.1v46h132.4v-46zm11.7 13.4h109v19.2h-109z" class="st1"/></svg>