<?xml version="1.0" encoding="UTF-8" standalone="no"?><!DOCTYPE svg PUBLIC "-//W3C//DTD SVG 1.1//EN" "http://www.w3.org/Graphics/SVG/1.1/DTD/svg11.dtd"><svg width="225px" height="225px" version="1.1" xmlns="http://www.w3.org/2000/svg" xmlns:xlink="http://www.w3.org/1999/xlink" xml:space="preserve" xmlns:serif="http://www.serif.com/" style="fill-rule:evenodd;clip-rule:evenodd;stroke-linejoin:round;stroke-miterlimit:2;"><g><path d="M97.55,5.081c-18.051,3.876 -35.769,17.275 -44.296,33.665c-14.286,27.574 -8.527,60.132 14.175,80.951c7.308,6.755 21.705,13.843 31.561,15.615c7.087,1.329 7.419,1.55 7.419,4.54c0,2.104 -0.996,3.987 -2.879,5.426c-1.55,1.329 -3.322,3.433 -3.765,4.873l-0.997,2.658l-29.014,0.221c-26.245,0.332 -29.125,0.554 -30.232,2.215c-0.886,1.44 -0.886,2.547 -0,3.876c1.107,1.772 4.097,1.993 30.897,2.325c29.567,0.222 29.678,0.222 32.336,2.88c4.762,4.762 13.621,4.319 17.94,-0.775c1.329,-1.662 4.872,-1.883 31.339,-1.883c30.454,-0 34.109,-0.443 34.109,-4.208c-0,-4.43 -1.551,-4.651 -32.78,-4.651l-30.121,-0l-0.665,-2.88c-0.443,-1.55 -2.214,-3.654 -3.986,-4.651c-2.658,-1.439 -3.322,-2.657 -3.322,-5.537c-0,-3.211 0.332,-3.543 3.432,-3.543c5.759,-0 16.612,-3.323 24.253,-7.309c32.557,-17.165 44.628,-56.589 27.574,-90.254c-5.205,-10.299 -18.272,-23.145 -28.792,-28.128c-14.507,-6.866 -29.236,-8.638 -44.186,-5.426Zm29.346,7.641c20.044,5.315 37.209,22.369 42.635,42.524c1.883,7.309 1.662,23.145 -0.553,30.675c-8.527,29.568 -38.206,48.062 -68.217,42.525c-9.523,-1.772 -22.812,-8.86 -30.121,-16.168c-7.42,-7.309 -11.185,-13.179 -14.729,-23.145c-11.517,-31.561 7.752,-67.441 40.864,-76.411c7.752,-1.994 22.037,-2.104 30.121,-0Z" style="fill-rule:nonzero;"/><path d="M106.409,17.705c-2.104,2.104 -2.215,3.654 -2.215,24.252c0,12.735 -0.443,23.367 -1.218,25.36c-2.104,6.201 3.101,12.403 10.41,12.403c1.329,-0 8.527,3.433 15.947,7.752c14.728,8.416 18.936,9.413 21.816,5.315c3.654,-5.205 1.771,-8.748 -7.642,-14.175c-19.601,-11.406 -23.366,-13.621 -24.03,-14.728c-0.443,-0.775 -0.886,-11.185 -0.886,-23.145c-0,-21.262 -0.111,-21.816 -2.437,-23.477c-3.433,-2.436 -7.087,-2.215 -9.745,0.443Z" style="fill-rule:nonzero;"/><g><path d="M46.375,177.836c-0.443,0.443 -0.775,10.41 -0.775,22.259l0,21.373l13.4,-0l-0.332,-11.628c-0.222,-6.423 -0.111,-11.628 0.221,-11.628c0.332,0.111 4.097,5.316 8.306,11.628l7.751,11.517l6.423,0.111l6.313,-0l-0,-44.296l-12.071,-0l-0.332,12.403l-0.333,12.513l-16.611,-24.363l-5.537,-0.332c-3.1,-0.221 -5.98,0 -6.423,0.443Z" style="fill-rule:nonzero;"/><path d="M94.326,177.172l0,10.963l6.977,0.332l6.866,0.332l0.332,16.279l0.332,16.39l13.178,-0l0,-33.222l13.289,-0l0,-11.074l-40.974,-0Z" style="fill-rule:nonzero;"/><path d="M142.72,177.947c-0.443,0.332 -0.775,10.299 -0.775,22.148l-0,21.373l13.178,-0l0.332,-8.084l0.332,-7.973l7.863,-0.554c9.413,-0.665 13.178,-2.879 14.95,-8.749c2.658,-9.08 -1.44,-16.168 -10.299,-17.94c-5.759,-1.107 -24.585,-1.329 -25.581,-0.221Zm20.044,8.748c2.879,0.886 4.319,5.316 2.436,7.641c-0.775,0.997 -3.211,1.662 -5.648,1.662l-4.319,-0l0,-4.984c0,-4.429 0.222,-4.983 2.547,-4.983c1.329,-0 3.544,0.332 4.984,0.664Z" style="fill-rule:nonzero;"/></g></g></svg>