<?xml version="1.0" encoding="UTF-8" standalone="no"?>
<svg
   xmlns:svg="http://www.w3.org/2000/svg"
   xmlns="http://www.w3.org/2000/svg"
   version="1.1"
   width="631.99963"
   height="167.69019"
   id="svg3412">
  <defs
     id="defs3414" />
  <g
     transform="translate(-48.42876,-422.94566)"
     id="layer1">
    <path
       d="m 73.622193,466.50712 0,40.36527 20.171836,-20.18047 0,40.36959 L 113.9745,506.87239 73.622193,466.50712 z M 53.42876,527.0576 73.613554,506.87713 53.42876,486.68801 l 0,40.36959 z m 20.184794,-20.18047 0.01037,0.003 0,-0.0138 -0.01037,0.007 z m 0.01037,40.35663 20.171836,-20.17616 -20.171836,-20.17615 0,40.35231 z"
       id="path312"
       style="fill:#64a70b;fill-opacity:1;fill-rule:evenodd;stroke:none" />
    <path
       d="m 627.97057,486.47163 0,20.81543 20.97094,0 c 5.61528,0 10.24573,-4.82915 10.24573,-10.45739 0,-2.49232 -0.90276,-5.5073 -2.58303,-7.20916 -2.60463,-2.81629 -5.86581,-3.14888 -8.7944,-3.14888 l -19.83924,0 z m -16.10723,54.26958 0,-67.90609 35.38926,0 c 10.47899,0 17.34692,3.04953 22.0724,7.99962 3.84431,4.06029 6.10338,10.1248 6.10338,15.99493 0,9.46824 -5.86581,17.56721 -14.88483,21.51086 l 14.12029,22.40068 -18.4829,0 -11.75758,-19.80469 -16.45279,0 0,19.80469 -16.10723,0 z m -34.08779,-67.90481 16.12019,0 0,67.90609 -16.12019,0 0,-67.90609 z m -60.81528,45.31062 11.15282,-26.03765 0.67816,0 11.16578,26.03765 -22.99676,0 z m 18.82417,-45.31104 -13.86976,0 -31.56655,67.90177 17.01864,0 4.17259,-9.84403 33.94224,-0.0173 3.60675,9.8613 17.70974,0 -31.01365,-67.90177 z m -107.86101,0 72.79138,0 -6.48781,13.96911 -23.46758,0 0,53.93698 -16.12019,0 0,-53.93698 -26.7158,0 0,-13.96911 z m -27.44883,0 0,40.05859 -37.63535,-40.05859 -13.86975,0 0,67.90609 16.22817,0 0,-39.85125 0.11231,0 37.41505,39.85125 13.9907,0 0,-67.90609 -16.24113,0 z m -80.19058,40.77431 -27.16502,0 0,13.27367 41.3285,0 0,13.8568 -57.43574,0 0,-67.90609 57.43574,0 0,13.9691 -41.3285,0 0,12.94972 27.16502,0 0,13.8568 z m -102.71395,-27.13866 0,20.81543 19.8306,0 c 2.80332,0 5.96516,-0.44058 8.46181,-2.81628 1.80121,-1.79257 2.91563,-5.04512 2.91563,-7.53312 0,-2.60031 -1.01508,-5.61529 -2.69534,-7.4165 -2.49233,-2.59167 -5.75351,-3.04953 -8.6821,-3.04953 l -19.8306,0 z m -16.11587,54.26958 0,-67.90609 35.38062,0 c 10.371,0 17.3642,2.92859 22.19334,8.11625 3.84431,4.28489 5.96948,10.24142 5.96948,15.8783 0,6.4187 -2.6867,12.82445 -6.97159,17.00136 -4.61749,4.3972 -11.15282,7.10549 -21.19123,7.10549 l -19.26475,0 0,19.80469 -16.11587,0 z M 93.79275,427.94566 l 0,58.74453 20.18479,-20.18479 0,40.36526 20.18048,-20.18047 0,40.36527 -20.18048,-20.1848 0,40.36527 -20.18479,-20.18047 0,58.58039 78.76951,-78.76519 -78.76951,-78.925 z"
       id="path350"
       style="fill:#0c3471;fill-opacity:1;fill-rule:nonzero;stroke:none" />
  </g>
</svg>
