<?xml version="1.0" encoding="UTF-8"?><svg id="a" xmlns="http://www.w3.org/2000/svg" width="120.0001" height="31.1667" viewBox="0 0 120.0001 31.1667"><defs><style>.b{fill:#489fdf;stroke-width:0px;}</style></defs><path class="b" d="M8.3024,7.3213h-.0088c-2.2784,0-4.2506.817-5.862,2.4285-1.6136,1.6135-2.4317,3.5885-2.4317,5.8704v15.5465h2.6615l-.0009-9.4495c1.5699,1.4662,3.4667,2.2093,5.6415,2.2093,2.2826,0,4.258-.8181,5.8714-2.4317,1.6135-1.6134,2.4316-3.5888,2.4316-5.8713.0007-2.282-.8174-4.2572-2.4316-5.8707-1.6143-1.6135-3.5896-2.4315-5.8711-2.4315h0ZM13.9282,15.6228c.0084,1.565-.5288,2.8674-1.6423,3.9815h0c-1.114,1.1147-2.4188,1.6566-3.9907,1.6566-1.4859.0237-2.936-.5795-3.9771-1.6567-1.1147-1.114-1.6566-2.4171-1.6566-3.9837.0007-1.5661.5426-2.8693,1.6567-3.9842,1.114-1.1147,2.4165-1.6565,3.9812-1.6565,1.5769.009,2.8809.5509,3.9865,1.6566,1.105,1.105,1.6421,2.4088,1.6421,3.9864h0Z"/><rect class="b" x="19.0475" width="2.6738" height="23.9233"/><path class="b" d="M37.1397,7.3213v8.8817c.0231,1.3383-.5187,2.6396-1.4879,3.5719-1.0013,1.0011-2.1673,1.4879-3.5674,1.4879-1.3802,0-2.5517-.4882-3.5814-1.4926-.958-.931-1.4938-2.2335-1.47-3.5752V7.3213h-2.6625v8.8727c0,2.1332.7578,3.9773,2.2532,5.4821,1.5223,1.4905,3.3609,2.2462,5.4649,2.2462,1.774,0,3.4727-.6476,5.0525-1.9254v1.9264h2.6738l-.0011-16.602h-2.6738Z"/><polygon class="b" points="75.4931 18.3686 71.8329 7.3898 71.8094 7.3193 69.8826 7.3193 66.1978 18.3719 62.39 6.962 59.8617 7.8063 65.2137 23.8529 65.2372 23.9233 67.1619 23.9233 70.8455 12.8716 74.5067 23.8528 74.5301 23.9233 76.4497 23.9233 81.7946 7.9153 81.8272 7.8178 79.2811 6.9607 75.4931 18.3686"/><rect class="b" x="84.3716" y="7.3213" width="2.6738" height="16.602"/><path class="b" d="M99.9931,15.5046l-.0003-.0002c-.4828-.3329-1.0064-.603-1.5556-.8024-.5281-.1959-1.0807-.3777-1.6427-.5403-.5255-.1518-1.0572-.3092-1.5809-.4681-.4297-.1271-.8504-.2967-1.2512-.5046-.2868-.1455-.5384-.3427-.7446-.582-.1446-.1877-.2179-.4213-.2063-.6603l.0004-.0189c.0005-.2488.0641-.4954.1841-.7132.1408-.2556.3295-.4741.56-.6489.2905-.2163.6143-.38.963-.4869.4183-.1308.853-.1953,1.298-.1906h.013c.464-.0095.9268.0429,1.3711.1558.3287.0885.6494.2087.9519.3567.2215.1107.4364.2334.6372.3637.176.1185.5715.4512.6963.5585l.3924.3369,1.4688-2.1507-.4976-.4287c-.6707-.5848-1.4383-1.0329-2.2838-1.3325-.8997-.2985-1.8322-.4414-2.7748-.4266-.8122-.0114-1.6139.1094-2.3881.3589-.6777.2209-1.3041.559-1.8622,1.0052-.5133.4139-.9243.9221-1.2215,1.5105-.286.5643-.4377,1.1972-.4387,1.8307,0,.7474.1616,1.3893.4804,1.9082.3099.5009.7127.925,1.1972,1.2604.4842.334,1.0097.6024,1.5613.7976.5363.194,1.0896.3726,1.6443.5307.545.1575,1.079.3153,1.5876.4691.4273.1266.843.2988,1.236.5122.2901.1555.5415.3644.7437.6159.1567.2199.237.4893.2259.7609l-.0003.0183c.0012.334-.0651.6585-.197.9641-.1283.2947-.3226.5612-.5608.7697-.2928.2484-.6261.434-.9904.5516-.4801.154-.9794.2273-1.4904.2184l-.0131.0002c-.5132.0135-1.0203-.0532-1.5083-.1976-.3626-.1144-.7147-.2649-1.0465-.447-.2353-.13-.4621-.2783-.6727-.4398-.2174-.1723-.6862-.5629-.8315-.6843l-.3818-.3193-1.5894,2.2072.5238.4409c.6997.589,1.4835,1.0636,2.3296,1.4107.8855.364,1.9374.5486,3.1252.5488.0375.0005.0749.0008.1123.0008.8357,0,1.6625-.1327,2.4576-.3944.7225-.2395,1.3852-.6105,1.9707-1.1038.5307-.4609.9619-1.0444,1.2471-1.6877.2897-.6576.4343-1.355.43-2.0694.0189-.6594-.1463-1.3133-.4792-1.8935-.3085-.5052-.712-.9327-1.1993-1.2707h0ZM95.5082,21.5069h0Z"/><path class="b" d="M117.5932,9.7688c-1.5681-1.5554-3.6493-2.4475-5.71-2.4475h-.0611c-2.3429,0-4.0943.7061-5.8562,2.3609-1.6721,1.5703-2.52,3.5682-2.52,5.9381,0,2.3161.834,4.2251,2.5496,5.8362,1.792,1.683,3.707,2.4669,6.0264,2.4669,2.773,0,5.0372-1.4304,6.2316-2.769l.0801-.0899-2.2848-1.4765-.0588.0561c-1.1265,1.0748-2.5148,1.6197-4.1263,1.6197-1.5196,0-2.7695-.5267-3.9346-1.6588-.6865-.6446-1.1497-1.466-1.4927-2.651h13.4562l.013-.088c.0745-.5044.0891-.8952.0938-1.2423.0336-2.5236-1.221-4.6791-2.4063-5.8549h0ZM106.4219,14.3018c.3368-1.1681.793-1.9936,1.4693-2.6638,1.1796-1.1691,2.3433-1.6459,4.0166-1.6459,1.4379,0,2.7807.814,3.5579,1.5757.6856.6719,1.1955,1.5913,1.5168,2.734h-10.5606Z"/><path class="b" d="M86.981,2.036c-.7063-.6993-1.8494-.6943-2.5479.0107l-.0103.0104c-.3389.342-.5243.7956-.5221,1.2773.0023.4817.1921.9335.5342,1.2721.3394.3364.7895.5224,1.273.5237.4808,0,.9335-.1867,1.2746-.5257.3419-.3398.5315-.7924.5336-1.2734.0069-.4803-.1846-.9486-.5244-1.2841l-.0108-.0109h0Z"/><path class="b" d="M58.9888,15.3528c-.0792-2.1212-.9596-4.105-2.4858-5.5962-1.5532-1.5175-3.6016-2.3533-5.7677-2.3533-4.5557,0-8.2621,3.7063-8.2621,8.262s3.7064,8.2621,8.2621,8.2621c2.0821,0,4.0571-.7737,5.5883-2.184v1.7467c0,3.4395-2.9106,4.979-5.7953,4.979-2.2296,0-4.2249-1.2444-5.2072-3.2478l-.0453-.0925-2.4008,1.1772.0454.0925c1.435,2.9265,4.3502,4.7445,7.6079,4.7445,2.2792,0,4.3761-.7085,5.9042-1.9952,1.654-1.3924,2.5649-3.4018,2.5649-5.6578v-8.0341l-.0053-.1031h-.0032ZM56.3235,15.6652c0,3.0814-2.5069,5.5883-5.5883,5.5883s-5.5883-2.5069-5.5883-5.5883,2.5069-5.5881,5.5883-5.5881,5.5883,2.5069,5.5883,5.5881Z"/></svg>