<?xml version="1.0" encoding="utf-8"?>
<!-- Generator: Adobe Illustrator 24.2.0, SVG Export Plug-In . SVG Version: 6.00 Build 0)  -->
<svg version="1.0" id="Ebene_1" xmlns="http://www.w3.org/2000/svg" xmlns:xlink="http://www.w3.org/1999/xlink" x="0px" y="0px"
	 viewBox="0 0 24 24" enable-background="new 0 0 24 24" xml:space="preserve">
<g id="SVG_x5F_24x24pt">
	<path id="backgroundBlue" fill="#2D327D" d="M0,22.5v-21C0,0.675,0.675,0,1.5,0h21C23.325,0,24,0.675,24,1.5v21
		c0,0.825-0.675,1.5-1.5,1.5h-21C0.675,24,0,23.325,0,22.5z"/>
	<g id="content">
		<path fill="#FFFFFF" d="M20.711,18.862c0.207,0,0.375-0.168,0.375-0.375c0-0.018-0.001-0.036-0.004-0.053l0,0l-0.319-2.236
			l-3.889,0v2.664H20.711L20.711,18.862z"/>
		<path fill="#FFFFFF" d="M11.634,8.193l-8.634,0V7.5h7.05L7.837,6l4.163-2.363L16.137,6h0.025l-2.213,1.5h4.596l0,0
			c0.56,0,1.035,0.412,1.114,0.966l1.003,7.022H2.999v-3.712h8.634l0,0c0.202,0,0.366-0.164,0.366-0.366
			c0-0.202-0.164-0.366-0.366-0.366H2.999V10.35h8.634l0,0c0.202,0,0.366-0.164,0.366-0.366c0-0.202-0.164-0.366-0.366-0.366H2.999
			V8.925h8.634c0.202,0,0.366-0.164,0.366-0.366C11.999,8.357,11.835,8.193,11.634,8.193L11.634,8.193z M16.649,11.4
			c0,0.207,0.168,0.375,0.375,0.375h1.955c0.207,0,0.375-0.168,0.375-0.375c0-0.018-0.001-0.036-0.004-0.053l0,0l-0.405-2.831
			c-0.026-0.185-0.185-0.322-0.371-0.322h-1.551c-0.207,0-0.375,0.168-0.375,0.375V11.4L16.649,11.4z M12.679,7.5l2.125-1.44
			l-2.806-1.602L9.185,6.054L11.319,7.5H12.679L12.679,7.5z"/>
		<path fill="#FFFFFF" d="M7.791,18.021c0-1.056,0.857-1.912,1.913-1.912c1.055,0,1.912,0.857,1.912,1.912
			c0,1.056-0.857,1.913-1.912,1.913C8.647,19.933,7.791,19.077,7.791,18.021L7.791,18.021z"/>
		<path fill="#FFFFFF" d="M12.299,18.021c0-1.056,0.857-1.912,1.913-1.912c1.056,0,1.912,0.857,1.912,1.912
			c0,1.056-0.857,1.913-1.912,1.913C13.156,19.933,12.299,19.077,12.299,18.021L12.299,18.021z"/>
		<polygon fill="#FFFFFF" points="21,3 21,3.375 3,3.375 3,3 21,3 		"/>
		<polygon fill="#FFFFFF" points="3,21 3,20.288 21,20.288 21,21 3,21 		"/>
		<polygon fill="#FFFFFF" points="3,16.313 3,16.2 7.125,16.2 7.125,18.862 3,18.862 3,16.313 		"/>
	</g>
</g>
</svg>
