<?xml version="1.0" encoding="UTF-8" standalone="no"?><!DOCTYPE svg PUBLIC "-//W3C//DTD SVG 1.1//EN" "http://www.w3.org/Graphics/SVG/1.1/DTD/svg11.dtd"><svg width="100%" height="100%" viewBox="0 0 500 500" version="1.1" xmlns="http://www.w3.org/2000/svg" xmlns:xlink="http://www.w3.org/1999/xlink" xml:space="preserve" xmlns:serif="http://www.serif.com/" style="fill-rule:evenodd;clip-rule:evenodd;stroke-linecap:round;stroke-linejoin:round;stroke-miterlimit:1.5;"><rect x="0" y="0" width="500" height="500" style="fill:#fff;"/><path d="M40,220l40,0l0,-160l80,0l0,160l40,0l0,-160l80,0l0,160l40,0l0,-160l80,0l0,160l40,0" style="fill:none;stroke:#922222;stroke-width:12px;"/><path d="M40,440l40,0l0,-160l20,0l0,160l80,0l0,-160l20,0l0,160l80,0l0,-160l20,0l0,160l80,0l0,-160l20,0l0,160l60,0" style="fill:none;stroke:#007e00;stroke-width:12px;"/></svg>