<svg width="500" height="650" version="1.1" viewBox="0 0 132.29 171.98" xmlns="http://www.w3.org/2000/svg" xmlns:xlink="http://www.w3.org/1999/xlink"><defs><linearGradient id="linearGradient8697" x1="172.94" x2="26.67" y1="77.476" y2="76.313" gradientTransform="translate(638.58 497.42)" gradientUnits="userSpaceOnUse"><stop stop-color="#366a96" offset="0"/><stop stop-color="#3679b0" offset="1"/></linearGradient><linearGradient id="linearGradient8699" x1="224.24" x2="-65.309" y1="144.76" y2="144.76" gradientTransform="translate(638.58 497.42)" gradientUnits="userSpaceOnUse"><stop stop-color="#ffc836" offset="0"/><stop stop-color="#ffe873" offset="1"/></linearGradient></defs><g transform="translate(0 -1.4174)"><rect x="6.5606e-6" y="1.4174" width="132.29" height="171.98" fill="#fff" opacity=".8"/><g transform="matrix(.22695 0 0 .22695 -.50622 60.71)" fill="#646464"><path d="m115.58-140.86c0-23.005-6.5597-34.816-19.679-35.463-5.2201-0.24637-10.317 0.58515-15.275 2.51-3.9574 1.4166-6.6213 2.8179-8.0226 4.2346v54.911c8.3921 5.2662 15.845 7.7146 22.343 7.3296 13.751-0.90849 20.634-12.072 20.634-33.522zm16.184 0.9547c0 11.687-2.7409 21.388-8.2536 29.103-6.144 8.7309-14.659 13.227-25.546 13.474-8.2074 0.26178-16.661-2.3098-25.361-7.6992v49.906l-14.074-5.0199v-110.78c2.3098-2.8333 5.2817-5.2663 8.8849-7.3297 8.3767-4.8813 18.555-7.3912 30.535-7.5144l0.20017 0.20019c10.948-0.13859 19.387 4.3578 25.315 13.474 5.528 8.3614 8.2997 19.079 8.2997 32.183z"/><path d="m217.78-107.16c0 15.676-1.5706 26.531-4.7119 32.568-3.1567 6.0362-9.1621 10.856-18.032 14.444-7.191 2.8333-14.967 4.3731-23.313 4.6349l-2.3252-8.8695c8.4845-1.1549 14.459-2.3098 17.924-3.4647 6.8215-2.3098 11.503-5.8514 14.074-10.594 2.0634-3.865 3.0797-11.241 3.0797-22.158v-3.6648c-9.624 4.3732-19.71 6.5443-30.258 6.5443-6.9293 0-13.042-2.1712-18.309-6.5443-5.913-4.7581-8.8695-10.794-8.8695-18.109v-58.576l14.074-4.8197v58.961c0 6.298 2.0326 11.148 6.0978 14.552 4.0652 3.403 9.3314 5.0353 15.783 4.9121 6.4519-0.13858 13.366-2.6331 20.711-7.5144v-68.785h14.074z"/><path d="m272.73-98.103c-1.6784 0.13858-3.2183 0.20018-4.6349 0.20018-7.961 0-14.167-1.894-18.601-5.6974-4.4193-3.8034-6.6367-9.0543-6.6367-15.753v-55.434h-9.6394v-8.8541h9.6394v-23.513l14.059-5.0045v28.518h15.814v8.8541h-15.814v55.049c0 5.2817 1.4167 9.0235 4.25 11.21 2.4329 1.8016 6.298 2.8333 11.564 3.0951z"/><path d="m357.94-99.257h-14.074v-54.326c0-5.528-1.2935-10.286-3.865-14.259-2.9719-4.4964-7.0987-6.7445-12.396-6.7445-6.4519 0-14.521 3.4031-24.206 10.209v65.12h-14.074v-129.85l14.074-4.4348v59.145c8.9927-6.5443 18.817-9.8242 29.488-9.8242 7.4528 0 13.489 2.51 18.109 7.5144 4.6349 5.0045 6.9447 11.241 6.9447 18.694z"/><path d="m432.75-143.08c0-8.8387-1.6784-16.138-5.0199-21.912-3.9728-7.0371-10.148-10.748-18.494-11.133-15.429 0.89311-23.128 11.949-23.128 33.137 0 9.7164 1.6014 17.831 4.8351 24.345 4.1268 8.2998 10.317 12.396 18.57 12.257 15.491-0.12318 23.236-12.35 23.236-36.694zm15.414 0.0924c0 12.58-3.2183 23.051-9.6394 31.413-7.0679 9.3622-16.83 14.059-29.288 14.059-12.35 0-21.974-4.6965-28.918-14.059-6.298-8.3614-9.4392-18.832-9.4392-31.413 0-11.826 3.4031-21.773 10.209-29.873 7.1911-8.5923 16.646-12.904 28.333-12.904s21.204 4.3116 28.533 12.904c6.8061 8.0996 10.209 18.047 10.209 29.873z"/><path d="m528.85-99.257h-14.074v-57.405c0-6.298-1.894-11.21-5.682-14.752-3.788-3.5262-8.8387-5.2355-15.137-5.0969-6.6829 0.12319-13.042 2.3098-19.079 6.5443v70.71h-14.074v-72.45c8.0996-5.8976 15.552-9.7472 22.359-11.549 6.4211-1.6784 12.088-2.51 16.969-2.51 3.3415 0 6.4827 0.32337 9.4392 0.97011 5.528 1.2781 10.024 3.6494 13.489 7.1295 3.865 3.8496 5.7898 8.4691 5.7898 13.874z"/></g><path d="m26.158 150.58c-1e-5 2.0935-0.49462 3.8304-1.4838 5.2107-1.1043 1.5644-2.6341 2.3695-4.5895 2.4156-1.4723 0.046-2.9907-0.4141-4.555-1.3803v8.9375l-2.4846-0.89721 0.0345-19.842c0.41409-0.5061 0.94321-0.9432 1.5874-1.3113 1.4953-0.87419 3.3127-1.3228 5.4522-1.3458l0.0345 0.0345c1.9554-0.023 3.4623 0.78219 4.5205 2.4155 0.98921 1.4954 1.4838 3.4163 1.4838 5.7628m-2.8987-0.17254c-1e-5 -4.1179-1.1848-6.2344-3.5543-6.3494-0.94322-0.046-1.8634 0.10353-2.7606 0.4486-0.71317 0.25307-1.1963 0.50612-1.4493 0.75917v9.8347c1.5183 0.94321 2.8641 1.3803 4.0374 1.3113 2.4845-0.16103 3.7268-2.1625 3.7268-6.0044m18.831-0.37958c-2e-5 2.2545-0.57515 4.1294-1.7254 5.6248-1.2653 1.6794-3.0137 2.5191-5.2452 2.5191-2.2085 0-3.9339-0.83969-5.1762-2.5191-1.1273-1.4953-1.6909-3.3702-1.6909-5.6248 0-2.1165 0.60963-3.8994 1.8289-5.3487 1.2883-1.5413 2.9792-2.312 5.0726-2.312 2.0935 1e-5 3.7958 0.77068 5.1072 2.312 1.2192 1.4493 1.8289 3.2322 1.8289 5.3487m-2.7606 0c-2e-5 -1.5874-0.29908-2.8986-0.89721-3.9339-0.71317-1.2653-1.8174-1.9324-3.3127-2.0014-2.7606 0.16105-4.1409 2.1395-4.1409 5.9354h0.0345c-1e-5 1.7484 0.28756 3.2092 0.86269 4.3825 0.73616 1.4953 1.8404 2.2315 3.3128 2.2085 2.7606-0.023 4.1409-2.22 4.1409-6.591m24.636-7.1086-4.1064 14.493-2.0705 0.72466-3.9684-12.043-3.2437 11.319-2.0705 0.72466-4.8656-14.942 2.312-0.82818 3.8649 11.767 3.0712-10.939 2.312-0.82818 3.8994 11.767 3.3127-11.767 1.5528 0.55212m13.601 13.562c-0.96622 0.62114-1.8289 1.0467-2.5881 1.2768-0.92021 0.27606-1.8519 0.41409-2.7951 0.41409-1.6794 0-3.0137-0.4256-4.0029-1.2768-1.7944-1.5183-2.6801-3.6348-2.6571-6.3494 0.023-2.2315 0.4831-4.0719 1.3803-5.5212 1.0812-1.7024 2.6456-2.5536 4.693-2.5536 3.8188 1e-5 5.7628 2.5191 5.8318 7.5572h-9.2481c-0.13803 1.9554 0.23005 3.5428 1.1042 4.7621 0.87419 1.1963 2.0244 1.7714 3.4508 1.7254 1.1963-0.046 2.6111-0.46011 4.2444-1.2423l0.58663 1.2078m-2.6571-7.9023c-1e-5 -1.2193-0.25307-2.2545-0.75918-3.1057-0.59814-0.9662-1.4148-1.4493-2.45-1.4493-2.0705 1e-5 -3.2207 1.5068-3.4508 4.5205l6.66 0.0345m14.869-6.1424c-0.23007 0.46012-0.56364 1.1388-1.0007 2.036-0.64415-0.13802-1.1158-0.20703-1.4148-0.20705h-0.0345c-1.3803 2e-5 -2.6111 0.46012-3.6923 1.3803v12.216h-2.5191v-12.561c0.94322-1.0582 2.1395-1.8404 3.5888-2.3465 1.2653-0.46009 2.3925-0.69014 3.3818-0.69016 0.55212 2e-5 1.1157 0.0575 1.6909 0.17254m13.737 14.045c-0.96623 0.62114-1.8289 1.0467-2.5881 1.2768-0.92021 0.27606-1.8519 0.41409-2.7951 0.41409-1.6794 0-3.0137-0.4256-4.0029-1.2768-1.7944-1.5183-2.6801-3.6348-2.6571-6.3494 0.023-2.2315 0.48311-4.0719 1.3803-5.5212 1.0812-1.7024 2.6456-2.5536 4.6931-2.5536 3.8189 1e-5 5.7628 2.5191 5.8318 7.5572h-9.2481c-0.13803 1.9554 0.23005 3.5428 1.1043 4.7621 0.87419 1.1963 2.0244 1.7714 3.4508 1.7254 1.1963-0.046 2.6111-0.46011 4.2445-1.2423l0.58664 1.2078m-2.6571-7.9023c-1e-5 -1.2193-0.25307-2.2545-0.75918-3.1057-0.59814-0.9662-1.4148-1.4493-2.4501-1.4493-2.0705 1e-5 -3.2207 1.5068-3.4508 4.5205l6.66 0.0345m18.388 6.9016c-2.2545 1.7484-4.6701 2.6341-7.2466 2.6571-1.9094 0-3.4163-0.86269-4.5205-2.5881-0.96622-1.4953-1.4493-3.2552-1.4493-5.2797 0-2.0244 0.51761-3.8074 1.5528-5.3487 1.1732-1.7254 2.7376-2.5766 4.693-2.5536 1.4953 1e-5 3.0022 0.36809 4.5205 1.1042v-8.8685l2.4155-0.82819 0.0345 21.705m-2.45-0.27606v-9.8002c-1.4723-0.9202-2.7721-1.3803-3.8994-1.3803-1.4263 1e-5 -2.5076 0.74768-3.2437 2.243-0.59814 1.1963-0.89721 2.5881-0.8972 4.1754-1e-5 1.5184 0.28756 2.8411 0.86269 3.9684 0.71316 1.4723 1.7599 2.2085 3.1402 2.2085 1.2883 0 2.6341-0.4716 4.0374-1.4148" fill="#2e597d"/><g transform="matrix(.40237 0 0 .40237 -241.28 -155.72)"><path d="m716.25 544.49c0-13.623 3.6528-21.034 23.822-24.563 13.693-2.3999 31.251-2.6999 47.627 0 12.935 2.1352 23.822 11.77 23.822 24.563v44.945c0 13.182-10.57 23.981-23.822 23.981h-47.627c-16.164 0-29.787 13.782-29.787 29.363v21.564h-16.376c-13.852 0-21.917-9.9877-25.305-23.964-4.5704-18.776-4.3762-29.963 0-47.945 3.7939-15.687 15.917-23.964 29.769-23.964h65.52v-5.9997h-47.645z" fill="url(#linearGradient8697)"/><path d="m811.53 688.32c0 13.623-11.823 20.523-23.822 23.964-18.052 5.188-32.54 4.3939-47.627 0-12.599-3.6704-23.822-11.17-23.822-23.964v-44.945c0-12.935 10.782-23.981 23.822-23.981h47.627c15.864 0 29.787-13.711 29.787-29.963v-20.964h17.858c13.87 0 20.399 10.305 23.822 23.964 4.7645 18.97 4.9762 33.157 0 47.945-4.8174 14.364-9.9701 23.964-23.822 23.964h-71.449v5.9997h47.627z" fill="url(#linearGradient8699)"/><path d="m728.17 541.5c0-4.9762 3.988-8.9996 8.929-8.9996 4.9233 0 8.929 4.0233 8.929 8.9996 0 4.9586-4.0057 8.9819-8.929 8.9819-4.9409 0-8.929-4.0233-8.929-8.9819z" fill="#fff"/><path d="m781.76 691.3c0-4.9586 4.0057-8.9819 8.929-8.9819 4.9409 0 8.929 4.0233 8.929 8.9819 0 4.9762-3.988 8.9996-8.929 8.9996-4.9233 0-8.929-4.0233-8.929-8.9996z" fill="#fff"/></g></g></svg>
