<svg xmlns:xlink="http://www.w3.org/1999/xlink" width="500" height="100" viewBox="0 0 140 28" fill="none" xmlns="http://www.w3.org/2000/svg">
<path d="M126.292 10.3262V8.48438H120.261C117.229 8.48438 114.77 10.7754 114.77 13.5942V14.1782C114.77 16.9971 117.229 19.2881 120.261 19.2881H126.292V17.4575H120.508C118.352 17.4575 116.611 15.9414 116.611 14.0772V13.6841C116.611 11.8086 118.352 10.3037 120.508 10.3037H126.292V10.3262Z" fill="#727479"></path>
<path d="M40.4917 8.50781C37.4595 8.50781 35 10.7988 35 13.6177V19.3228H36.8418V13.7188C36.8418 11.8545 38.5825 10.3384 40.7388 10.3384H44.9165C44.9165 10.3384 45.9385 10.3384 45.961 10.3384V8.50781H40.4917Z" fill="#727479"></path>
<path d="M94.4097 8.50781C91.3774 8.50781 88.918 10.7988 88.918 13.6177V19.3228H90.7598V13.7188C90.7598 11.8545 92.5005 10.3384 94.6567 10.3384H99.7442C99.7442 10.3384 99.8565 10.3384 99.8789 10.3384V8.50781H94.4097Z" fill="#727479"></path>
<path d="M129.842 5.57031H128V19.3277H129.842V17.6543L132.784 14.8579L137.018 19.2603H139.534L134.109 13.5552L139.04 8.61377H136.434L129.842 15.0983V5.57031Z" fill="#727479"></path>
<path d="M55.0591 8.54004C54.6997 8.4502 53.9473 8.38281 53.0601 8.38281C52.1729 8.38281 51.4316 8.4502 51.061 8.54004C48.5342 9.00049 46.625 11.0669 46.625 13.5601V14.1441C46.625 16.6372 48.5342 18.7036 51.061 19.1641C51.4204 19.2539 52.1729 19.3213 53.0601 19.3213C53.9473 19.3213 54.6885 19.2539 55.0591 19.1641C57.586 18.7036 59.4951 16.6372 59.4951 14.1441V13.5601C59.4951 11.0669 57.586 9.00049 55.0591 8.54004ZM57.6646 14.0542V14.1553C57.6084 15.7725 56.2495 17.0977 54.4639 17.3784C54.1494 17.4346 53.6328 17.4795 53.0601 17.4795C52.4873 17.4795 51.9819 17.4346 51.6563 17.3784C49.8706 17.0977 48.523 15.7725 48.4668 14.1553V14.0542V13.6611C48.4668 11.999 49.8481 10.6177 51.6675 10.3369C51.9819 10.2808 52.4873 10.2358 53.0713 10.2358C53.6553 10.2358 54.1494 10.2808 54.4751 10.3369C56.2944 10.6289 57.6758 11.999 57.6758 13.6611V14.0542H57.6646Z" fill="#727479"></path>
<path d="M83.1021 8.54004C82.7427 8.4502 81.9902 8.38281 81.103 8.38281C80.2158 8.38281 79.4746 8.4502 79.104 8.54004C76.5771 9.00049 74.668 11.0669 74.668 13.5601V14.1441C74.668 16.6372 76.5771 18.7036 79.104 19.1641C79.4634 19.2539 80.2158 19.3213 81.103 19.3213C81.9902 19.3213 82.7315 19.2539 83.1021 19.1641C85.6289 18.7036 87.5381 16.6372 87.5381 14.1441V13.5601C87.5381 11.0669 85.6289 9.00049 83.1021 8.54004ZM85.7075 14.0542V14.1553C85.6514 15.7725 84.2925 17.0977 82.5068 17.3784C82.1924 17.4346 81.6758 17.4795 81.103 17.4795C80.5303 17.4795 80.0249 17.4346 79.6992 17.3784C77.9136 17.0977 76.5659 15.7725 76.5098 14.1553V14.0542V13.6611C76.5098 11.999 77.8911 10.6177 79.7105 10.3369C80.0249 10.2808 80.5415 10.2358 81.1143 10.2358C81.687 10.2358 82.1924 10.2808 82.5181 10.3369C84.3374 10.6289 85.7188 11.999 85.7188 13.6611V14.0542H85.7075Z" fill="#727479"></path>
<path d="M108.997 8.54004C108.637 8.4502 107.885 8.38281 106.998 8.38281C106.11 8.38281 105.358 8.4502 104.999 8.54004C102.472 9.00049 100.562 11.0669 100.562 13.5601V14.1441C100.562 16.6372 102.472 18.7036 104.999 19.1641C105.358 19.2539 106.11 19.3213 106.998 19.3213C107.885 19.3213 108.626 19.2539 108.997 19.1641C111.523 18.7036 113.433 16.6372 113.433 14.1441V13.5601C113.433 11.0669 111.523 9.00049 108.997 8.54004ZM111.602 14.0542V14.1553C111.546 15.7725 110.187 17.0977 108.401 17.3784C108.076 17.4346 107.57 17.4795 106.998 17.4795C106.425 17.4795 105.919 17.4346 105.594 17.3784C103.808 17.0977 102.46 15.7725 102.404 14.1553V14.0542V13.6611C102.404 11.999 103.786 10.6177 105.605 10.3369C105.919 10.2808 106.436 10.2358 107.009 10.2358C107.582 10.2358 108.087 10.2808 108.413 10.3369C110.232 10.6289 111.613 11.999 111.613 13.6611V14.0542H111.602Z" fill="#727479"></path>
<path d="M68.9854 8.542C68.6372 8.45215 67.9072 8.38477 67.0537 8.38477C66.2002 8.38477 65.4815 8.45215 65.1221 8.542C64.2012 8.71045 63.3589 9.12598 62.6738 9.68751V5.55469H60.832V14.146C60.832 16.6392 62.6738 18.7056 65.1221 19.166C65.4702 19.2559 66.2002 19.312 67.0537 19.312C67.9072 19.312 68.6372 19.2446 68.9854 19.166C71.4336 18.7056 73.2754 16.6392 73.2754 14.146V13.562C73.2754 11.0689 71.4336 9.00245 68.9854 8.542ZM71.4898 14.0562V14.1572C71.4336 15.7744 70.1196 17.0996 68.4014 17.3804C68.0869 17.4365 67.604 17.4815 67.0537 17.4815C66.5034 17.4815 66.0093 17.4365 65.7061 17.3804C63.9878 17.0996 62.6738 15.7744 62.6289 14.1572V14.0562V13.6631C62.6289 12.001 63.9541 10.6196 65.7173 10.3389C66.0205 10.2827 66.5147 10.2378 67.0649 10.2378C67.6152 10.2378 68.1094 10.2827 68.4126 10.3389C70.1646 10.6309 71.501 12.001 71.501 13.6631V14.0562H71.4898Z" fill="#727479"></path>
<g clip-path="url(#clip0_5595_7883)" fill="none">
<path d="M14.214 0.00164666C6.48316 -0.115716 0.122856 6.0553 0.00170769 13.7861C-0.115655 21.5169 6.05536 27.881 13.7862 27.9984C21.517 28.1157 27.8811 21.9447 27.9984 14.2139C28.1158 6.4831 21.9448 0.122795 14.214 0.00164666Z" fill="#EA0029"></path>
<path d="M21.3929 21.0756H6.60726C5.83485 21.0756 5.44864 20.1366 5.99766 19.5951L6.2627 19.3339L17.103 8.6223H8.06879C8.00821 8.6223 7.97413 8.54658 8.01957 8.50493L9.60604 6.93359H19.1855C19.9579 6.93359 20.3441 7.87261 19.7951 8.41405L19.5831 8.6223L8.72761 19.3339H19.2839L15.1568 15.2105L16.3912 13.9762L21.7413 19.3339L22.0063 19.5989C22.5515 20.1441 22.1653 21.0756 21.3929 21.0756Z" fill="#FFFFFF"></path>
</g>
<defs>
<clipPath id="clip0_5595_7883">
<rect width="28" height="28" fill="white"></rect>
</clipPath>
</defs>
</svg>