<svg id="Layer_1" data-name="Layer 1" xmlns="http://www.w3.org/2000/svg" xmlns:xlink="http://www.w3.org/1999/xlink" viewBox="0 0 60.09 58"><g class="cls-2"><path fill="#FF0000" d="M989.53,531c0-.46-.09-.92-.14-1.38l-.12-1A1.52,1.52,0,0,0,989,528c-.21-.28-.43-.55-.66-.82s-.61-.72-.92-1.07q-3-3.45-6.28-6.62t-6.86-6.07l-1.12-.88c-.27-.22-.55-.44-.84-.65a1.74,1.74,0,0,0-.63-.25l-1.07-.12-1.43-.13c-3.09-.26-6.19-.4-9.29-.4s-6.21.14-9.29.4l-1.44.13-1.07.12a1.74,1.74,0,0,0-.63.25c-.29.21-.57.43-.85.65l-1.11.88q-3.57,2.9-6.86,6.07t-6.28,6.62c-.31.35-.61.72-.91,1.07s-.46.54-.67.82a1.51,1.51,0,0,0-.26.61c0,.34-.09.68-.13,1s-.09.92-.14,1.38c-.27,3-.4,6-.41,9s.14,6,.41,9c0,.46.09.93.14,1.39s.08.69.13,1a1.51,1.51,0,0,0,.26.61c.21.27.44.54.67.81s.6.72.91,1.08q3,3.43,6.28,6.62c2.2,2.12,4.48,4.13,6.86,6.06l1.11.89.85.64a1.57,1.57,0,0,0,.63.25l1.07.12,1.44.14c3.08.25,6.19.39,9.29.39s6.2-.14,9.29-.39l1.43-.14c.36,0,.72-.07,1.07-.12a1.57,1.57,0,0,0,.63-.25c.29-.21.57-.42.84-.64l1.12-.89c2.38-1.93,4.66-3.94,6.86-6.06s4.29-4.33,6.28-6.62l.92-1.08q.35-.4.66-.81a1.52,1.52,0,0,0,.27-.61l.12-1c.05-.46.1-.93.14-1.39q.4-4.47.41-9t-.41-9M985,547.57c0,.39-.07.79-.11,1.18s-.08.58-.11.87a1.34,1.34,0,0,1-.22.52l-.57.69-.77.91c-1.7,2-3.47,3.82-5.33,5.61s-3.8,3.51-5.81,5.14l-1,.75c-.23.19-.47.37-.71.54a1.5,1.5,0,0,1-.54.22l-.9.1-1.22.11c-2.62.22-5.25.34-7.87.34s-5.26-.12-7.88-.34l-1.22-.11-.9-.1a1.5,1.5,0,0,1-.54-.22c-.24-.17-.47-.35-.71-.54l-.94-.75q-3-2.44-5.82-5.14c-1.85-1.79-3.63-3.66-5.32-5.61l-.78-.91-.56-.69a1.21,1.21,0,0,1-.22-.52c0-.29-.08-.58-.11-.87l-.12-1.18c-.23-2.52-.34-5.06-.35-7.6s.12-5.07.35-7.6l.12-1.17c0-.3.06-.59.11-.88a1.22,1.22,0,0,1,.22-.51c.18-.24.37-.47.56-.69l.78-.91c1.69-2,3.47-3.82,5.32-5.62s3.8-3.5,5.82-5.14l.94-.75.71-.54a1.5,1.5,0,0,1,.54-.22l.9-.1,1.22-.11q3.93-.33,7.88-.34c2.62,0,5.25.12,7.87.34l1.22.11.9.1a1.5,1.5,0,0,1,.54.22l.71.54,1,.75q3,2.46,5.81,5.14c1.86,1.8,3.63,3.67,5.33,5.62l.77.91.57.69a1.36,1.36,0,0,1,.22.51c0,.29.07.58.11.88s.08.78.11,1.17c.23,2.53.35,5.07.35,7.6s-.12,5.08-.35,7.6" transform="translate(-929.85 -510.97)"/><path fill="#FF0000" d="M981.94,540c-.24,0-2.46,0-3.64,0h-3.46c0,.12,0,.18,0,.32s0,.48,0,1c0,.82-.07,2,0,2.8,0,.16,0,.21,0,.29h2.79a2.45,2.45,0,0,0,0,.25c0,.12-.14,1.86-.23,2.36a8.18,8.18,0,0,1-.91,1.14c-.55.61-.64.76-2.34,2.47s-5.1,4.69-6.29,5.68c-.25.2-.76.65-.76.65s0-.61,0-.91c0-11.46,0-19.59,0-32.23,0-.28,0-.52,0-.87l.65.52c1.75,1.49,3.6,3,5.07,4.5,2,2,2.89,2.94,4.35,4.67a2.79,2.79,0,0,1,.27.38c0,.16,0,.19.06.39.06.49.15,1.48.17,1.75s0,.23,0,.38c.16,0,.26,0,.41,0,.88,0,1.92,0,2.92,0h1.3v-.43a31.87,31.87,0,0,0-.25-3.24,6.16,6.16,0,0,0-.08-.67,4.46,4.46,0,0,0-.32-.39,71.16,71.16,0,0,0-5.38-5.84,62,62,0,0,0-6.89-6l-.33-.24a2,2,0,0,0-.33,0c-1.89-.22-4.22-.36-6.53-.42-.31,0-.39,0-.73,0a4.7,4.7,0,0,1,0,.67c0,15.61-.05,26.72,0,42.21v.47a4.53,4.53,0,0,0,.51,0c1.84,0,5.43-.2,6.34-.35a7.56,7.56,0,0,0,.8-.14,2.49,2.49,0,0,0,.44-.32c2.44-1.93,4.24-3.5,6.55-5.69,2.47-2.36,4.7-4.92,5.24-5.52.22-.25.37-.44.64-.79A5.57,5.57,0,0,0,982,548a74.47,74.47,0,0,0,.42-7.47c0-.17,0-.24,0-.43l-.44,0" transform="translate(-929.85 -510.97)"/><path fill="#FF0000" d="M958.06,518.27c-.38,0-1.08,0-2.36.07s-2.13.16-2.45.19-.29,0-.42,0a1.69,1.69,0,0,0-.11.26c-2,4.89-4.48,11.68-6.58,16.73-.1.21-.32.75-.32.75s-.09-.16-.34-.67c-1.09-2.21-3.54-6.86-3.94-7.52-.12-.19-.32-.62-.32-.62s-.31.34-.51.52c-.43.39-2,2.2-2.33,2.62-.16.21-.21.27-.39.53s-.09.47-.15.79a66.06,66.06,0,0,0-.45,7.16c0,3,.19,5.76.47,8.78,0,.17.08.81.08.81s.34.47.41.55c1.52,1.78,2.62,3.06,3.66,4.12l.9.92s0-.64-.06-1,0-.66-.06-1c-.21-3.25-.61-8.74-.73-11.59,0-.37.05-2.07.05-2.07l4.36,8.8.47-1.12c1.75-4.4,3.42-8.35,5.13-12.75.12-.28.74-1.94.74-1.94s0,1.79,0,2.18c-.09,12.36,0,19.43,0,26.21v.63c0,.35,0,.39,0,.62l.66.1a15.11,15.11,0,0,0,1.71.19c1,.06,2,.09,2.86.11l.44,0c0-.2,0-.29,0-.48-.07-15.82.11-42.46.11-42.46s0-.15,0-.41h-.5" transform="translate(-929.85 -510.97)"/></g></svg>