<?xml version="1.0" encoding="UTF-8" standalone="no"?><!DOCTYPE svg PUBLIC "-//W3C//DTD SVG 1.1//EN" "http://www.w3.org/Graphics/SVG/1.1/DTD/svg11.dtd"><svg width="100%" height="100%" viewBox="0 0 567 567" version="1.1" xmlns="http://www.w3.org/2000/svg" xmlns:xlink="http://www.w3.org/1999/xlink" xml:space="preserve" xmlns:serif="http://www.serif.com/" style="fill-rule:evenodd;clip-rule:evenodd;stroke-linecap:round;stroke-linejoin:round;"><path d="M140.347,422.415c-10.449,11.444 -25.594,14.645 -33.809,7.145l-74.391,-67.92c-8.215,-7.5 -6.4,-22.874 4.048,-34.318l267.103,-292.548c9.23,-10.11 22.703,-13.063 29.845,-6.542l76.252,69.62c8.215,7.5 6.4,22.874 -4.048,34.318l-265,290.245Z" style="fill:#269aeb;fill-opacity:0.43;fill-rule:nonzero;stroke:#269aeb;stroke-width:29.73px;"/><g><path d="M323.323,222.007l-26.038,-23.773" style="fill:none;fill-rule:nonzero;stroke:#269aeb;stroke-width:10.7px;"/><path d="M373.799,166.723l-39.057,-35.66" style="fill:none;fill-rule:nonzero;stroke:#269aeb;stroke-width:10.7px;"/><path d="M272.847,277.292l-39.057,-35.66" style="fill:none;fill-rule:nonzero;stroke:#269aeb;stroke-width:10.7px;"/><path d="M171.894,387.862l-39.056,-35.66" style="fill:none;fill-rule:nonzero;stroke:#269aeb;stroke-width:10.7px;"/><path d="M222.371,332.577l-26.038,-23.773" style="fill:none;fill-rule:nonzero;stroke:#269aeb;stroke-width:10.7px;"/></g><g><path d="M541.446,218.417l-52.076,-47.546" style="fill:none;fill-rule:nonzero;stroke:#c89a23;stroke-width:23.78px;"/><path d="M515.408,194.644l-302.857,331.708" style="fill:none;fill-rule:nonzero;stroke:#c89a23;stroke-width:23.78px;"/><path d="M238.589,550.126l-52.076,-47.547" style="fill:none;fill-rule:nonzero;stroke:#c89a23;stroke-width:23.78px;"/></g></svg>