<svg width="553" height="216" viewBox="0 0 553 216" fill="none" xmlns="http://www.w3.org/2000/svg">
<path d="M265.672 113.984C265.672 112.328 264.844 111.031 263.188 110.094C261.562 109.125 258.938 108.266 255.312 107.516C243.25 104.984 237.219 99.8594 237.219 92.1406C237.219 87.6406 239.078 83.8906 242.797 80.8906C246.547 77.8594 251.438 76.3438 257.469 76.3438C263.906 76.3438 269.047 77.8594 272.891 80.8906C276.766 83.9219 278.703 87.8594 278.703 92.7031H265.156C265.156 90.7656 264.531 89.1719 263.281 87.9219C262.031 86.6406 260.078 86 257.422 86C255.141 86 253.375 86.5156 252.125 87.5469C250.875 88.5781 250.25 89.8906 250.25 91.4844C250.25 92.9844 250.953 94.2031 252.359 95.1406C253.797 96.0469 256.203 96.8438 259.578 97.5312C262.953 98.1875 265.797 98.9375 268.109 99.7812C275.266 102.406 278.844 106.953 278.844 113.422C278.844 118.047 276.859 121.797 272.891 124.672C268.922 127.516 263.797 128.938 257.516 128.938C253.266 128.938 249.484 128.188 246.172 126.688C242.891 125.156 240.312 123.078 238.438 120.453C236.562 117.797 235.625 114.938 235.625 111.875H248.469C248.594 114.281 249.484 116.125 251.141 117.406C252.797 118.688 255.016 119.328 257.797 119.328C260.391 119.328 262.344 118.844 263.656 117.875C265 116.875 265.672 115.578 265.672 113.984ZM310.953 128.938C303.516 128.938 297.453 126.656 292.766 122.094C288.109 117.531 285.781 111.453 285.781 103.859V102.547C285.781 97.4531 286.766 92.9062 288.734 88.9062C290.703 84.875 293.484 81.7812 297.078 79.625C300.703 77.4375 304.828 76.3438 309.453 76.3438C316.391 76.3438 321.844 78.5312 325.812 82.9062C329.812 87.2812 331.812 93.4844 331.812 101.516V107.047H299.516C299.953 110.359 301.266 113.016 303.453 115.016C305.672 117.016 308.469 118.016 311.844 118.016C317.062 118.016 321.141 116.125 324.078 112.344L330.734 119.797C328.703 122.672 325.953 124.922 322.484 126.547C319.016 128.141 315.172 128.938 310.953 128.938ZM309.406 87.3125C306.719 87.3125 304.531 88.2188 302.844 90.0312C301.188 91.8438 300.125 94.4375 299.656 97.8125H318.5V96.7344C318.438 93.7344 317.625 91.4219 316.062 89.7969C314.5 88.1406 312.281 87.3125 309.406 87.3125ZM352.016 77.2812L352.438 83.1406C356.062 78.6094 360.922 76.3438 367.016 76.3438C372.391 76.3438 376.391 77.9219 379.016 81.0781C381.641 84.2344 382.984 88.9531 383.047 95.2344V128H369.5V95.5625C369.5 92.6875 368.875 90.6094 367.625 89.3281C366.375 88.0156 364.297 87.3594 361.391 87.3594C357.578 87.3594 354.719 88.9844 352.812 92.2344V128H339.266V77.2812H352.016ZM420.828 113.984C420.828 112.328 420 111.031 418.344 110.094C416.719 109.125 414.094 108.266 410.469 107.516C398.406 104.984 392.375 99.8594 392.375 92.1406C392.375 87.6406 394.234 83.8906 397.953 80.8906C401.703 77.8594 406.594 76.3438 412.625 76.3438C419.062 76.3438 424.203 77.8594 428.047 80.8906C431.922 83.9219 433.859 87.8594 433.859 92.7031H420.312C420.312 90.7656 419.688 89.1719 418.438 87.9219C417.188 86.6406 415.234 86 412.578 86C410.297 86 408.531 86.5156 407.281 87.5469C406.031 88.5781 405.406 89.8906 405.406 91.4844C405.406 92.9844 406.109 94.2031 407.516 95.1406C408.953 96.0469 411.359 96.8438 414.734 97.5312C418.109 98.1875 420.953 98.9375 423.266 99.7812C430.422 102.406 434 106.953 434 113.422C434 118.047 432.016 121.797 428.047 124.672C424.078 127.516 418.953 128.938 412.672 128.938C408.422 128.938 404.641 128.188 401.328 126.688C398.047 125.156 395.469 123.078 393.594 120.453C391.719 117.797 390.781 114.938 390.781 111.875H403.625C403.75 114.281 404.641 116.125 406.297 117.406C407.953 118.688 410.172 119.328 412.953 119.328C415.547 119.328 417.5 118.844 418.812 117.875C420.156 116.875 420.828 115.578 420.828 113.984ZM440.656 102.172C440.656 97.1406 441.625 92.6562 443.562 88.7188C445.5 84.7812 448.281 81.7344 451.906 79.5781C455.562 77.4219 459.797 76.3438 464.609 76.3438C471.453 76.3438 477.031 78.4375 481.344 82.625C485.688 86.8125 488.109 92.5 488.609 99.6875L488.703 103.156C488.703 110.938 486.531 117.188 482.188 121.906C477.844 126.594 472.016 128.938 464.703 128.938C457.391 128.938 451.547 126.594 447.172 121.906C442.828 117.219 440.656 110.844 440.656 102.781V102.172ZM454.203 103.156C454.203 107.969 455.109 111.656 456.922 114.219C458.734 116.75 461.328 118.016 464.703 118.016C467.984 118.016 470.547 116.766 472.391 114.266C474.234 111.734 475.156 107.703 475.156 102.172C475.156 97.4531 474.234 93.7969 472.391 91.2031C470.547 88.6094 467.953 87.3125 464.609 87.3125C461.297 87.3125 458.734 88.6094 456.922 91.2031C455.109 93.7656 454.203 97.75 454.203 103.156ZM525.547 89.9844C523.703 89.7344 522.078 89.6094 520.672 89.6094C515.547 89.6094 512.188 91.3438 510.594 94.8125V128H497.047V77.2812H509.844L510.219 83.3281C512.938 78.6719 516.703 76.3438 521.516 76.3438C523.016 76.3438 524.422 76.5469 525.734 76.9531L525.547 89.9844Z" fill="#F8F8F8"/>
<path d="M248.203 177.785C250.482 177.785 252.387 177.147 253.918 175.871C255.467 174.577 256.306 172.909 256.434 170.867H259.578C259.487 172.672 258.922 174.322 257.883 175.816C256.844 177.293 255.458 178.451 253.727 179.289C252.013 180.128 250.172 180.547 248.203 180.547C244.32 180.547 241.24 179.198 238.961 176.5C236.701 173.802 235.57 170.174 235.57 165.617V164.633C235.57 161.716 236.081 159.137 237.102 156.895C238.122 154.652 239.581 152.921 241.477 151.699C243.391 150.478 245.624 149.867 248.176 149.867C251.421 149.867 254.091 150.833 256.188 152.766C258.302 154.698 259.432 157.241 259.578 160.395H256.434C256.288 158.079 255.449 156.211 253.918 154.789C252.405 153.367 250.491 152.656 248.176 152.656C245.223 152.656 242.926 153.723 241.285 155.855C239.663 157.988 238.852 160.978 238.852 164.824V165.781C238.852 169.555 239.663 172.499 241.285 174.613C242.926 176.728 245.232 177.785 248.203 177.785ZM267.136 164.77C267.136 161.926 267.683 159.365 268.777 157.086C269.889 154.807 271.447 153.039 273.452 151.781C275.476 150.505 277.764 149.867 280.316 149.867C284.253 149.867 287.443 151.253 289.886 154.023C292.329 156.776 293.55 160.431 293.55 164.988V165.672C293.55 168.534 292.994 171.113 291.882 173.41C290.788 175.689 289.239 177.448 287.234 178.688C285.228 179.927 282.941 180.547 280.37 180.547C276.451 180.547 273.261 179.171 270.8 176.418C268.357 173.647 267.136 169.983 267.136 165.426V164.77ZM270.417 165.672C270.417 169.208 271.329 172.116 273.152 174.395C274.993 176.655 277.399 177.785 280.37 177.785C283.323 177.785 285.711 176.655 287.534 174.395C289.376 172.116 290.296 169.117 290.296 165.398V164.77C290.296 162.509 289.877 160.44 289.038 158.562C288.2 156.685 287.024 155.236 285.511 154.215C283.998 153.176 282.266 152.656 280.316 152.656C277.399 152.656 275.02 153.805 273.179 156.102C271.338 158.38 270.417 161.37 270.417 165.07V165.672ZM306.112 150.414L306.221 155.227C307.315 153.44 308.682 152.1 310.323 151.207C311.963 150.314 313.786 149.867 315.791 149.867C320.458 149.867 323.42 151.781 324.678 155.609C325.735 153.768 327.148 152.355 328.916 151.371C330.685 150.368 332.635 149.867 334.768 149.867C341.112 149.867 344.347 153.331 344.475 160.258V180H341.194V160.504C341.176 157.861 340.601 155.901 339.471 154.625C338.359 153.349 336.536 152.711 334.002 152.711C331.651 152.747 329.664 153.513 328.041 155.008C326.419 156.484 325.517 158.289 325.334 160.422V180H322.053V160.258C322.035 157.724 321.433 155.837 320.248 154.598C319.082 153.34 317.277 152.711 314.834 152.711C312.774 152.711 311.006 153.303 309.53 154.488C308.053 155.655 306.959 157.396 306.248 159.711V180H302.967V150.414H306.112ZM358.568 150.414L358.677 155.227C359.771 153.44 361.138 152.1 362.779 151.207C364.42 150.314 366.242 149.867 368.248 149.867C372.914 149.867 375.877 151.781 377.134 155.609C378.192 153.768 379.604 152.355 381.373 151.371C383.141 150.368 385.091 149.867 387.224 149.867C393.568 149.867 396.804 153.331 396.931 160.258V180H393.65V160.504C393.632 157.861 393.058 155.901 391.927 154.625C390.815 153.349 388.992 152.711 386.459 152.711C384.107 152.747 382.12 153.513 380.498 155.008C378.875 156.484 377.973 158.289 377.791 160.422V180H374.509V160.258C374.491 157.724 373.89 155.837 372.705 154.598C371.538 153.34 369.733 152.711 367.291 152.711C365.231 152.711 363.463 153.303 361.986 154.488C360.509 155.655 359.416 157.396 358.705 159.711V180H355.423V150.414H358.568ZM427.075 176.254C425.106 179.116 421.962 180.547 417.641 180.547C414.488 180.547 412.091 179.635 410.45 177.812C408.809 175.971 407.971 173.255 407.934 169.664V150.414H411.188V169.254C411.188 174.887 413.467 177.703 418.024 177.703C422.764 177.703 425.762 175.743 427.02 171.824V150.414H430.302V180H427.13L427.075 176.254ZM444.75 150.414L444.859 155.473C445.971 153.65 447.357 152.264 449.016 151.316C450.674 150.35 452.507 149.867 454.512 149.867C457.684 149.867 460.044 150.76 461.594 152.547C463.143 154.333 463.927 157.013 463.945 160.586V180H460.691V160.559C460.673 157.915 460.108 155.947 458.996 154.652C457.902 153.358 456.143 152.711 453.719 152.711C451.695 152.711 449.9 153.349 448.332 154.625C446.783 155.883 445.634 157.587 444.887 159.738V180H441.633V150.414H444.75ZM478.886 180H475.605V150.414H478.886V180ZM475.03 141.855C475.03 141.236 475.231 140.716 475.632 140.297C476.033 139.859 476.58 139.641 477.273 139.641C477.965 139.641 478.512 139.859 478.913 140.297C479.333 140.716 479.542 141.236 479.542 141.855C479.542 142.475 479.333 142.995 478.913 143.414C478.512 143.833 477.965 144.043 477.273 144.043C476.58 144.043 476.033 143.833 475.632 143.414C475.231 142.995 475.03 142.475 475.03 141.855ZM495.686 142.84V150.414H501.811V153.094H495.686V172.809C495.686 174.449 495.978 175.671 496.561 176.473C497.163 177.275 498.156 177.676 499.541 177.676C500.088 177.676 500.972 177.585 502.194 177.402L502.33 180.082C501.474 180.392 500.307 180.547 498.83 180.547C496.588 180.547 494.957 179.9 493.936 178.605C492.915 177.293 492.405 175.37 492.405 172.836V153.094H486.963V150.414H492.405V142.84H495.686ZM520.771 175.297L529.412 150.414H532.939L520.306 185.031L519.65 186.562C518.028 190.154 515.521 191.949 512.13 191.949C511.347 191.949 510.508 191.822 509.615 191.566L509.587 188.859L511.283 189.023C512.887 189.023 514.181 188.622 515.166 187.82C516.168 187.036 517.016 185.678 517.709 183.746L519.158 179.754L508.002 150.414H511.584L520.771 175.297Z" fill="white"/>
<path d="M36.5983 48.7753C40.1806 42.3943 46.9618 38.4792 54.279 38.5674L88.8336 38.9838L123.388 38.5674C130.705 38.4792 137.487 42.3943 141.069 48.7753L157.986 78.9087L175.623 108.626C179.358 114.918 179.358 122.749 175.623 129.042L157.986 158.759L141.069 188.892C137.487 195.273 130.705 199.188 123.388 199.1L88.8336 198.683L54.279 199.1C46.9617 199.188 40.1805 195.273 36.5983 188.892L19.6816 158.759L2.04371 129.042C-1.69129 122.749 -1.69129 114.918 2.04371 108.626L19.6816 78.9087L36.5983 48.7753Z" fill="#27AE60"/>
<path d="M44.2602 65.8106C46.0689 58.7198 51.6057 53.183 58.6965 51.3743L92.1814 42.8332L125.451 33.4875C132.496 31.5085 140.059 33.5352 145.171 38.7716L169.31 63.4998L194.039 87.6391C199.275 92.7509 201.302 100.314 199.323 107.359L189.977 140.629L181.436 174.114C179.627 181.205 174.09 186.741 167 188.55L133.515 197.091L100.245 206.437C93.2002 208.416 85.6368 206.389 80.525 201.153L56.3857 176.425L31.6575 152.285C26.4211 147.173 24.3944 139.61 26.3735 132.565L35.7191 99.2955L44.2602 65.8106Z" fill="#19D266"/>
<path d="M36.7506 89.7362C34.7715 82.6911 36.7982 75.1276 42.0346 70.0159L66.7628 45.8765L90.9021 21.1483C96.0139 15.9119 103.577 13.8853 110.622 15.8643L143.892 25.2099L177.377 33.7511C184.468 35.5597 190.004 41.0966 191.813 48.1873L200.354 81.6722L209.7 114.942C211.679 121.987 209.652 129.55 204.416 134.662L179.688 158.801L155.548 183.529C150.436 188.766 142.873 190.793 135.828 188.814L102.559 179.468L69.0736 170.927C61.9828 169.118 56.446 163.581 54.6373 156.49L46.0962 123.006L36.7506 89.7362Z" fill="#6FCF97"/>
<path d="M89.0498 6.46804C95.3427 2.73305 103.173 2.73305 109.466 6.46805L139.183 24.106L169.316 41.0226C175.697 44.6049 179.612 51.3861 179.524 58.7034L179.108 93.2579L179.524 127.813C179.612 135.13 175.697 141.911 169.316 145.493L139.183 162.41L109.466 180.048C103.173 183.783 95.3427 183.783 89.0498 180.048L59.3329 162.41L29.1996 145.493C22.8185 141.911 18.9034 135.13 18.9916 127.813L19.408 93.2579L18.9916 58.7034C18.9034 51.3861 22.8185 44.6049 29.1996 41.0226L59.3329 24.106L89.0498 6.46804Z" fill="#F8F8F8"/>
<path d="M77.4844 108.094C77.4844 105.438 76.5469 103.406 74.6719 102C72.7969 100.562 69.4219 99.0625 64.5469 97.5C59.6719 95.9062 55.8125 94.3438 52.9688 92.8125C45.2188 88.625 41.3438 82.9844 41.3438 75.8906C41.3438 72.2031 42.375 68.9219 44.4375 66.0469C46.5312 63.1406 49.5156 60.875 53.3906 59.25C57.2969 57.625 61.6719 56.8125 66.5156 56.8125C71.3906 56.8125 75.7344 57.7031 79.5469 59.4844C83.3594 61.2344 86.3125 63.7188 88.4062 66.9375C90.5312 70.1562 91.5938 73.8125 91.5938 77.9062H77.5312C77.5312 74.7812 76.5469 72.3594 74.5781 70.6406C72.6094 68.8906 69.8438 68.0156 66.2812 68.0156C62.8438 68.0156 60.1719 68.75 58.2656 70.2188C56.3594 71.6562 55.4062 73.5625 55.4062 75.9375C55.4062 78.1562 56.5156 80.0156 58.7344 81.5156C60.9844 83.0156 64.2812 84.4219 68.625 85.7344C76.625 88.1406 82.4531 91.125 86.1094 94.6875C89.7656 98.25 91.5938 102.688 91.5938 108C91.5938 113.906 89.3594 118.547 84.8906 121.922C80.4219 125.266 74.4062 126.938 66.8438 126.938C61.5938 126.938 56.8125 125.984 52.5 124.078C48.1875 122.141 44.8906 119.5 42.6094 116.156C40.3594 112.812 39.2344 108.938 39.2344 104.531H53.3438C53.3438 112.062 57.8438 115.828 66.8438 115.828C70.1875 115.828 72.7969 115.156 74.6719 113.812C76.5469 112.438 77.4844 110.531 77.4844 108.094ZM153.294 103.266C152.763 110.609 150.044 116.391 145.138 120.609C140.263 124.828 133.826 126.938 125.826 126.938C117.076 126.938 110.185 124 105.154 118.125C100.154 112.219 97.6538 104.125 97.6538 93.8438V89.6719C97.6538 83.1094 98.81 77.3281 101.123 72.3281C103.435 67.3281 106.732 63.5 111.013 60.8438C115.326 58.1562 120.326 56.8125 126.013 56.8125C133.888 56.8125 140.232 58.9219 145.044 63.1406C149.857 67.3594 152.638 73.2812 153.388 80.9062H139.326C138.982 76.5 137.748 73.3125 135.623 71.3438C133.529 69.3438 130.326 68.3438 126.013 68.3438C121.326 68.3438 117.81 70.0312 115.466 73.4062C113.154 76.75 111.966 81.9531 111.904 89.0156V94.1719C111.904 101.547 113.013 106.938 115.232 110.344C117.482 113.75 121.013 115.453 125.826 115.453C130.169 115.453 133.404 114.469 135.529 112.5C137.685 110.5 138.919 107.422 139.232 103.266H153.294Z" fill="black"/>
</svg>
