<?xml version="1.0" encoding="UTF-8" standalone="no"?><!DOCTYPE svg PUBLIC "-//W3C//DTD SVG 1.1//EN" "http://www.w3.org/Graphics/SVG/1.1/DTD/svg11.dtd"><svg width="1024px" height="212px" version="1.1" xmlns="http://www.w3.org/2000/svg" xmlns:xlink="http://www.w3.org/1999/xlink" xml:space="preserve" xmlns:serif="http://www.serif.com/" style="fill-rule:evenodd;clip-rule:evenodd;stroke-linejoin:round;stroke-miterlimit:2;"><path id="logo-sonos" d="M554.189,13.204l35.484,-0l-0,189.906l-119.862,-111.576l0,105.82l-35.484,-0l0,-189.425l119.862,111.739l-0,-106.464Zm-175.965,92.397c-0,54.827 -44.593,99.431 -99.406,99.431c-54.826,0 -99.419,-44.604 -99.419,-99.431c0,-54.826 44.593,-99.431 99.419,-99.431c54.813,0 99.406,44.605 99.406,99.431Zm-36.433,0c-0,-35.167 -28.299,-63.782 -63.138,-63.782c-34.838,-0 -62.973,28.615 -62.973,63.782c0,35.168 28.286,63.783 62.973,63.783c34.839,-0 63.125,-28.615 63.125,-63.783l0.013,0Zm-222.961,1.594c-9.437,-7.198 -21.898,-12.941 -40.278,-18.861c-35.965,-11.512 -35.965,-20.456 -35.965,-24.934c-0,-10.234 11.347,-20.784 30.525,-20.784c16.142,-0 28.615,7.995 33.245,11.511l2.555,1.923l28.615,-19.355l-3.2,-3.668c-0.949,-1.126 -23.011,-26.857 -61.367,-26.857c-18.393,0 -35.319,5.921 -47.628,16.623c-12.309,10.715 -19.342,25.427 -19.342,40.759c-0,16.319 7.198,30.057 21.252,40.772c9.437,7.185 21.898,12.941 40.279,18.849c35.964,11.359 35.964,20.468 35.964,24.946c0,10.234 -11.347,20.784 -30.525,20.784c-16.142,0 -28.615,-7.995 -33.245,-11.511l-2.555,-1.923l-28.615,19.355l3.201,3.668c0.961,1.113 23.023,26.692 61.214,26.692c18.381,0 35.32,-5.908 47.628,-16.622c12.309,-10.715 19.33,-25.579 19.33,-40.759c0,-16.155 -7.021,-29.728 -21.088,-40.608Zm527.263,-0.796c-0,-54.827 44.592,-99.431 99.418,-99.431c54.814,-0 99.406,44.604 99.406,99.431c-0,54.826 -44.592,99.431 -99.406,99.431c-54.826,-0 -99.418,-44.605 -99.418,-99.431Zm36.281,-0c-0,35.167 28.286,63.782 62.973,63.782c34.838,0 62.973,-28.615 62.973,-63.782c-0,-35.168 -28.286,-63.796 -62.973,-63.796c-34.687,0 -62.973,28.615 -62.973,63.783l-0,0.013Zm222.96,-1.771c9.425,7.21 21.885,12.953 40.279,18.874c35.952,11.511 35.952,20.455 35.952,24.933c-0,10.235 -11.347,20.785 -30.525,20.785c-16.142,-0 -28.602,-7.995 -33.245,-11.512l-2.555,-1.91l-28.603,19.342l3.188,3.669c0.962,1.126 23.024,26.692 61.227,26.692c18.369,-0 35.307,-5.908 47.616,-16.623c12.309,-10.702 19.342,-25.414 19.342,-40.759c0,-16.306 -7.198,-30.057 -21.252,-40.759c-9.437,-7.198 -21.898,-12.954 -40.279,-18.861c-35.964,-11.512 -35.964,-20.469 -35.964,-24.947c-0,-10.221 11.347,-20.771 30.525,-20.771c16.141,-0 28.615,7.995 33.245,11.511l2.555,1.91l28.615,-19.342l-3.201,-3.668c-0.961,-1.126 -23.023,-26.692 -61.214,-26.692c-18.381,-0 -35.32,5.907 -47.628,16.609c-12.309,10.715 -19.33,25.579 -19.33,40.772c0.152,16.306 7.185,30.045 21.252,40.759l0,-0.012Z" style="fill-rule:nonzero;"/></svg>