<svg 
    xmlns="http://www.w3.org/2000/svg" 
    width="512" 
    height="512" 
    xmlns:v="https://vecta.io/nano">
    <path 
    d="M -3.5 4 h 512 v 512 H -3.5 V 4 z" 
    fill="#fcb426"/>
    <path transform="matrix(1.1,0,0,1,-24.7,0)" 
    d="M 403.6 355.8 l -144 82.9 l -132.2 -75.8 v -104.4 c 0 -25.6 20.1 -45.8 46.1 -45.8 H 259.6 v 45.8 l 118.2 -68.6 l -118.2 -67.1 v 44.2 H 173.5 c -50.5 0 -90.6 41.5 -90.6 91.5 v 122.9 l 177 101.7 l 166.7 -94.6 c 10.3 -7.1 20.4 -13.9 29 -24.3 v -72.8 c -8.7 28.9 -27.5 51.8 -52 64.4" 
    fill="#fefefd"/> 
    <path transform="matrix(1.1,0,0,1,-22.9,0)"
    d="M 114 160.9 l 142 -83 l 133.8 77.1 v 104.4 c 0 24.3 -21.8 44.3 -46.2 44.3 h -87.5 v -44.3 l -117.8 67.4 l 117.8 67.1 v -44.1 h 87.5 c 50.3 0 90.8 -41.6 90.8 -90.3 v -124.3 l -178.2 -101.5 l -165 95.7 c -10.1 5.8 -20 12.7 -30.3 23.2 v 72.7 c 10.1 -28.8 28.8 -50.3 53.1 -64.5"
    fill="#fefefd"/>
</svg>