<svg xmlns="http://www.w3.org/2000/svg" width="512" height="512" xmlns:v="https://vecta.io/nano"><path d="M0 0h512v512H0V0z" fill="#fcb426"/><path d="M258 61l5.43 2.984 3.121 1.813 3.324 1.953 3.488 2.031 8.926 5.217 7.843 4.58 8.828 5.152L334 105l40.608 23.567c5.135 3.076 10.223 5.872 15.715 8.26 15.686 7.192 15.686 7.192 19.014 13.847 2.061 7.653 1.496 15.448 1.112 23.287l-.081 7.56-.393 15.79-.485 20.118c-.983 71.81-.983 71.81-25.244 96.52-15.246 14.775-35.729 22.266-56.773 22.164h-2.457l-7.953-.016-5.548-.004-14.539-.025-17.479-.022L253 336v39a81.55 81.55 0 0 1-10.77-5.203l-3.405-1.949-3.638-2.097-3.787-2.174-26.448-15.348-22.266-12.916-3.271-1.89-15.279-8.743-2.708-1.54-4.997-2.816c-1.844-1.052-3.644-2.179-5.432-3.323v-2l1.73-.971 36.077-20.656 28.533-16.532 12.134-7.016 7.224-4.189 5.116-2.976 3.12-1.807 2.752-1.599C250 258 250 258 253 257v39l28.967-.16 17.742-.111 14.317-.097 5.44-.024c13.799-.013 25.555-1.323 36.534-10.608 6.367-6.722 11.132-15.852 11.12-25.239l.004-2.541-.011-2.762v-2.928l-.016-9.577-.004-6.642-.025-17.479-.02-17.837L367 165l-2.378-1.357-8.919-5.091-3.826-2.183-25.003-14.431-3.101-1.814-2.782-1.628L302 127.5l-26-15.062-2.91-1.695-2.777-1.621-2.676-1.551c-1.81-1.078-3.599-2.193-5.367-3.339l-2.645-1.696-2.336-1.547c-2.964-1.28-4.243-.997-7.289.011a95.71 95.71 0 0 0-5.699 3.07l-3.374 1.944-3.614 2.111-3.767 2.177-7.752 4.495-10.579 6.109-34.172 19.823-18.858 10.929-13.03 7.52-6.246 3.603C116.261 178.143 93.677 195.49 84 226h-1l-.518-24.567-.236-11.41-.194-11.029-.109-4.189c-.407-10.903-.407-10.903 3.245-15.644 2.503-2.276 5.024-4.249 7.812-6.16l2.977-2.355c9.927-6.867 20.396-12.805 30.855-18.818l15.043-8.764 24.938-14.437 27-15.812 26.375-15.345c4.801-2.711 9.536-5.505 14.235-8.389l3.286-1.992 6.3-3.896 2.894-1.746 2.547-1.578c3.531-1.201 5.187-.359 8.551 1.132zm-5 77c13.651 6.826 13.651 6.826 19.625 10.438l4.379 2.605 2.395 1.423 15.164 8.784 31.547 18.309 12.281 7.102 6.109 3.527 2.899 1.639 2.632 1.529 2.33 1.333L354 196v3l-2.158 1.231-64.155 36.957-23.562 13.688-2.704 1.571-2.475 1.421-2.171 1.253C255 256 255 256 253 256v-39l-28.305.209-17.334.137-13.986.117-5.317.034c-14.334.056-27.023 1.158-38.101 11.389-7.925 8.601-11.166 18.114-11.565 29.66l-.118 2.861-.682 26.084-.513 17.485c-2.515 24.192-2.515 24.192 4.151 46.43 5.508 5.121 11.738 7.618 18.882 9.703 3.823 1.179 6.708 2.901 10.075 5.047L176 369.5l27.937 16.217 15.887 9.212 3.45 1.985 6.742 3.865c4.504 2.586 8.986 5.172 13.335 8.014l1.829 1.19 4.401 2.99c2.376 1.321 2.376 1.321 4.74.276 2.739-1.277 5.328-2.677 7.939-4.198l3.1-1.797 3.326-1.941 3.486-2.023 7.238-4.205L296 389.5l6.492-3.746 13.078-7.539 34.51-20.009 15.264-8.807C391.419 334.565 413.121 316.867 422 287h1l.363 24.671.165 11.457.136 11.068.076 4.211c.285 10.968.285 10.968-2.238 14.967A38.27 38.27 0 0 1 416 358l-3.051 2.563c-10.863 8.285-22.735 14.836-34.608 21.541l-15.466 8.959-5.945 3.473-2.962 1.731-17.973 10.486-14.925 8.712-24.586 14.293-3.306 1.905-6.563 3.767-15.935 9.442-3.031 1.851-5.622 3.506c-6.127 3.741-6.127 3.741-10.175 3.877-3.648-1.414-6.914-3.238-10.227-5.293l-4.559-2.75-2.472-1.5-14.032-8.25-3.066-1.788-32.214-18.633-19.527-11.264-16.325-9.413-32.555-18.84-2.961-1.721-2.796-1.631-2.418-1.409L106 370l-1.98-.869c-2.369-1.171-4.133-2.273-6.02-4.131-1.183-3.61-1.044-7.1-.956-10.87l-.018-3.323.087-10.888.013-7.599.106-15.951.105-18.32.067-17.724.034-7.488c.129-28.015 3.864-52.103 24.562-72.836l2.082-2.117c12.73-12.139 30.447-20.266 48.088-20.11l2.664-.001 8.635.033 6.019.009 15.782.049 18.968.045L253 178v-40z" fill="#fefefd"/></svg>