<svg id="Layer_1" data-name="Layer 1" xmlns="http://www.w3.org/2000/svg" viewBox="0 0 369.43 311.14"><defs><style>.cls-1{fill:#ff6969;}</style></defs><g id="Layer_2" data-name="Layer 2"><g id="Layer_1-2" data-name="Layer 1-2"><path class="cls-1" d="M341.42,174.5A158.64,158.64,0,0,1,50.08,237,337.81,337.81,0,0,0,5.15,179.71L0,174.5a168.79,168.79,0,0,1,62.9,12.13,163.39,163.39,0,0,1,53.56,35,96.86,96.86,0,0,0,40.38,23.77v-98l37.85,23.34a40.91,40.91,0,0,1,19.41,34.78v39a97.26,97.26,0,0,0,64.52-70.05Z"/><path class="cls-1" d="M369.43,136.53h-1c-44,0-85.63-17.86-117.43-48.15a88.15,88.15,0,0,0-7.94-6.75h0a95.16,95.16,0,0,0-28.84-15.52v89l-38-23.32A40.88,40.88,0,0,1,156.86,97V65a95.94,95.94,0,0,0-60.94,53.85l-.62,1.45a95.57,95.57,0,0,0-5.37,16.23H27.13A158.64,158.64,0,0,1,317.62,72.81c10.92,16.91,30.9,42.75,45.14,57.07Z"/></g></g></svg>