<svg version="1.2" xmlns="http://www.w3.org/2000/svg" viewBox="0 0 1560 780" width="1560" height="780">
	<title>tuya-svg</title>
	<style>
		.s0 { fill: #ff4800 } 
	</style>
	<path id="Layer" fill-rule="evenodd" class="s0" d="m1560 205.4v551.2c0 13-10.4 23.4-23.4 23.4h-1331.2c-124.8 0-205.4-80.6-205.4-205.4v-551.2c0-13 10.4-23.4 23.4-23.4h1331.2c124.8 0 205.4 80.6 205.4 205.4zm-1294.8 210.6v-78h101.4c20.8 0 39-15.6 39-36.4 0-20.8-15.6-36.4-36.4-36.4h-101.4l2.6-46.8c0-20.8-15.6-36.4-36.4-36.4-18.2 0-36.4 18.2-36.4 39l-2.6 46.8h-36.4c-20.8 0-39 15.6-39 36.4 0 20.8 15.6 36.4 36.4 36.4h39l-2.6 75.4c-2.6 80.6 57.2 145.6 137.8 145.6h39c20.8 0 39-15.6 39-36.4 0-20.8-15.6-36.4-36.4-36.4h-39c-41.6 0-70.2-33.8-67.6-72.8zm449.8-111.8c0-20.8-15.6-36.4-36.4-36.4-20.8 0-39 15.6-39 36.4l-2.6 109.2c-2.6 41.6-20.8 72.8-62.4 72.8-41.6 0-57.2-33.8-57.2-72.8l2.6-109.2c0-20.8-15.6-36.4-36.4-36.4-20.8 0-39 15.6-39 36.4l-2.6 109.2c-2.6 80.6 39 145.6 130 145.6 91 0 132.6-65 135.2-145.6zm304.2 2.6c2.6-20.8-13-36.4-33.8-36.4-20.8 0-39 15.6-39 36.4l-5.2 109.2c-2.6 41.6-23.4 72.8-62.4 72.8-39 0-57.2-33.8-54.6-72.8l5.2-109.2c2.6-20.8-13-36.4-33.8-36.4-20.8 0-39 15.6-39 36.4l-5.2 109.2c-5.2 80.6 44.2 145.6 124.8 145.6 26 0 44.2-5.2 59.8-20.8-2.6 39-39 57.2-78 57.2-20.8 0-39 15.6-39 36.4-2.6 20.8 13 36.4 33.8 36.4 78 0 148.2-49.4 153.4-130zm322.4 101.4c2.6-80.6-59.8-145.6-140.4-145.6-80.6 0-148.2 67.6-150.8 148.2-2.6 80.6 59.8 143 140.4 143 20.8 0 39-15.6 39-36.4 0-20.8-15.6-36.4-36.4-36.4-41.6 0-72.8-33.8-70.2-72.8 2.6-41.6 36.4-72.8 75.4-72.8 41.6 0 72.8 33.8 70.2 72.8l-2.6 101.4c0 20.8 15.6 36.4 36.4 36.4 20.8 0 39-15.6 39-36.4zm31.2-213.2c-20.8-15.6-52-20.8-78-7.8h-2.6c-10.4 7.8-15.6 20.8-10.4 31.2 5.2 13 18.2 18.2 31.2 13 10.4-5.2 20.8-2.6 28.6 2.6 7.8 5.2 10.4 15.6 10.4 26-2.6 13 7.8 23.4 20.8 26h2.6c10.4 0 20.8-7.8 23.4-20.8 5.2-28.6-7.8-57.2-26-70.2zm52-80.6c-46.8-33.8-106.6-39-158.6-15.6-10.4 5.2-15.6 18.2-10.4 31.2 2.6 5.2 7.8 10.4 13 13 5.2 2.6 13 2.6 18.2 0 36.4-18.2 78-13 109.2 10.4 33.8 23.4 49.4 62.4 44.2 101.4 0 7.8 2.6 13 5.2 18.2 2.6 5.2 7.8 10.4 15.6 10.4h2.6c10.4 0 20.8-7.8 23.4-20.8 5.2-57.2-18.2-114.4-62.4-148.2z"/>
</svg>