<?xml version="1.0" encoding="UTF-8"?>
<svg version="1.1" xmlns="http://www.w3.org/2000/svg" width="512" height="512">
<path d="M0 0 C1.27091568 -0.00226556 2.54183137 -0.00453111 3.85125965 -0.00686532 C7.34476346 -0.01292804 10.83824314 -0.01285632 14.33175099 -0.01167095 C18.1131286 -0.01146552 21.89449874 -0.01699916 25.6758728 -0.02172852 C33.07210029 -0.03000555 40.46831981 -0.03278203 47.86455155 -0.03334089 C53.88288677 -0.03381752 59.90121937 -0.03587956 65.91955376 -0.03904152 C83.01771857 -0.04784057 100.11587713 -0.05246215 117.21404422 -0.05171105 C118.59429327 -0.05165111 118.59429327 -0.05165111 120.00242615 -0.05158997 C121.38437899 -0.05152864 121.38437899 -0.05152864 122.79425006 -0.05146609 C137.71187188 -0.05105998 152.6294684 -0.0606226 167.54708291 -0.07472833 C182.89877481 -0.08912886 198.25045442 -0.09599648 213.60215324 -0.09513456 C222.20706529 -0.09480382 230.81195084 -0.09749634 239.41685677 -0.10831261 C246.74547615 -0.11746621 254.07405703 -0.11955335 261.40267969 -0.11280318 C265.13365979 -0.10956212 268.86456623 -0.10939261 272.59553909 -0.11815643 C309.54080544 -0.19929666 343.40948187 2.22050447 371.12913513 29.29386902 C393.77009446 53.01141575 399.01606619 81.45718414 398.9737854 113.29364014 C398.97718374 115.20001366 398.97718374 115.20001366 398.98065072 117.14489979 C398.98671344 120.63840359 398.98664172 124.13188327 398.98545635 127.62539113 C398.98525092 131.40676873 398.99078456 135.18813888 398.99551392 138.96951294 C399.00379095 146.36574043 399.00656743 153.76195995 399.00712629 161.15819169 C399.00760292 167.1765269 399.00966496 173.19485951 399.01282692 179.21319389 C399.02162597 196.31135871 399.02624755 213.40951726 399.02549645 230.50768436 C399.02543651 231.88793341 399.02543651 231.88793341 399.02537537 233.29606628 C399.02531405 234.67801912 399.02531405 234.67801912 399.02525149 236.0878902 C399.02484538 251.00551201 399.034408 265.92310854 399.04851373 280.84072305 C399.06291426 296.19241495 399.06978188 311.54409455 399.06891996 326.89579338 C399.06858922 335.50070543 399.07128174 344.10559098 399.08209801 352.7104969 C399.09125161 360.03911629 399.09333875 367.36769717 399.08658858 374.69631983 C399.08334752 378.42729993 399.08317801 382.15820636 399.09194183 385.88917923 C399.17308206 422.83444557 396.75328093 456.70312201 369.67991638 484.42277527 C345.96236965 507.0637346 317.51660126 512.30970633 285.68014526 512.26742554 C283.77377174 512.27082387 283.77377174 512.27082387 281.82888561 512.27429086 C278.33538181 512.28035357 274.84190213 512.28028186 271.34839427 512.27909648 C267.56701667 512.27889106 263.78564652 512.2844247 260.00427246 512.28915405 C252.60804497 512.29743109 245.21182545 512.30020757 237.81559371 512.30076643 C231.7972585 512.30124306 225.77892589 512.3033051 219.76059151 512.30646706 C202.66242669 512.31526611 185.56426814 512.31988768 168.46610104 512.31913658 C167.54593501 512.31909663 166.62576897 512.31905667 165.67771912 512.3190155 C164.75641722 512.31897462 163.83511533 512.31893374 162.8858952 512.31889162 C147.96827339 512.31848551 133.05067686 512.32804814 118.13306236 512.34215387 C102.78137045 512.3565544 87.42969085 512.36342201 72.07799202 512.36256009 C63.47307997 512.36222936 54.86819442 512.36492188 46.2632885 512.37573814 C38.93466911 512.38489174 31.60608823 512.38697888 24.27746557 512.38022872 C20.54648547 512.37698766 16.81557904 512.37681815 13.08460617 512.38558197 C-23.86066017 512.46672219 -57.72933661 510.04692106 -85.44898987 482.97355652 C-108.0899492 459.25600979 -113.33592092 430.81024139 -113.29364014 398.9737854 C-113.29590569 397.70286972 -113.29817125 396.43195403 -113.30050546 395.12252575 C-113.30656817 391.62902195 -113.30649646 388.13554226 -113.30531108 384.64203441 C-113.30510566 380.8606568 -113.3106393 377.07928666 -113.31536865 373.2979126 C-113.32364569 365.90168511 -113.32642217 358.50546559 -113.32698103 351.10923385 C-113.32745766 345.09089863 -113.3295197 339.07256603 -113.33268166 333.05423164 C-113.34148071 315.95606683 -113.34610228 298.85790827 -113.34535118 281.75974118 C-113.34531123 280.83957514 -113.34527127 279.91940911 -113.3452301 278.97135925 C-113.34518922 278.05005736 -113.34514834 277.12875547 -113.34510622 276.17953534 C-113.34470011 261.26191353 -113.35426274 246.344317 -113.36836847 231.42670249 C-113.38276899 216.07501059 -113.38963661 200.72333098 -113.38877469 185.37163216 C-113.38844396 176.76672011 -113.39113648 168.16183456 -113.40195274 159.55692863 C-113.41110634 152.22830925 -113.41319348 144.89972837 -113.40644332 137.57110571 C-113.40320226 133.84012561 -113.40303275 130.10921917 -113.41179657 126.37824631 C-113.49293679 89.43297996 -111.07313566 55.56430353 -83.99977112 27.84465027 C-60.28222439 5.20369094 -31.83645599 -0.04228079 0 0 Z " fill="#0050C5" transform="translate(113.15992736816406,-0.1337127685546875)"/>
<path d="M0 0 C21.12 0 42.24 0 64 0 C64.04898438 9.41273438 64.09796875 18.82546875 64.1484375 28.5234375 C64.18383101 34.49349867 64.21971551 40.46355023 64.2578125 46.43359375 C64.31816453 55.90541375 64.37653601 65.37721574 64.421875 74.84912109 C64.45490884 81.74839107 64.49480221 88.64758222 64.54279006 95.54676497 C64.56794231 99.1967854 64.58975625 102.8467543 64.60334396 106.49683762 C64.61867474 110.58052567 64.6493258 114.66396575 64.68115234 118.74755859 C64.68331253 119.94590332 64.68547272 121.14424805 64.68769836 122.37890625 C64.87873988 141.62110372 70.38428347 160.32199607 84.04296875 174.234375 C96.41235283 186.18617581 113.13309488 191.46547739 129.99365234 191.50634766 C146.46008424 191.13108713 161.62981619 183.838499 173.54296875 172.67578125 C187.69937896 157.25902292 191.19801217 138.56515288 191.4140625 118.13671875 C191.43342865 116.97872269 191.4527948 115.82072662 191.4727478 114.62763977 C191.53184279 110.98099806 191.57864514 107.33432357 191.625 103.6875 C191.66324444 101.1933467 191.70229977 98.69920569 191.7421875 96.20507812 C191.83898974 90.13678797 191.91911364 84.06860592 192 78 C202.56 78 213.12 78 224 78 C224 88.56 224 99.12 224 110 C234.56 110 245.12 110 256 110 C256.46628602 150.33374099 249.99851134 185.94314883 221 216 C219.34123834 217.67453436 217.67438855 219.34109116 216 221 C215.23042969 221.76699219 214.46085938 222.53398437 213.66796875 223.32421875 C199.12575944 237.17939455 180.48003919 247.16114165 161 252 C160.27135742 252.18191895 159.54271484 252.36383789 158.79199219 252.55126953 C125.5327954 260.5777138 91.54317854 255.67203142 62.08642578 238.2890625 C34.81062868 221.43717756 11.50670415 193.69497306 4 162 C0.88536857 146.99604654 -0.1605994 131.89477306 -0.11352539 116.59057617 C-0.11367142 115.32071365 -0.11381744 114.05085114 -0.1139679 112.74250793 C-0.11425142 109.30535619 -0.10842757 105.8682403 -0.10139394 102.43109679 C-0.09508542 98.82233732 -0.09455073 95.21357676 -0.09336853 91.60481262 C-0.09027711 84.79120564 -0.08209362 77.97761496 -0.07201904 71.16401511 C-0.05868414 61.94259134 -0.05334029 52.72116302 -0.04751682 43.49973202 C-0.03815194 28.99980917 -0.01821852 14.49992069 0 0 Z " fill="#EBECF1" transform="translate(128,136)"/>
<path d="M0 0 C10.56 0 21.12 0 32 0 C32 10.56 32 21.12 32 32 C21.44 32 10.88 32 0 32 C0 21.44 0 10.88 0 0 Z " fill="#FEFEFF" transform="translate(352,182)"/>
<path d="M0 0 C7.92 0 15.84 0 24 0 C24 7.92 24 15.84 24 24 C16.08 24 8.16 24 0 24 C0 16.08 0 8.16 0 0 Z " fill="#FEFEFF" transform="translate(328,158)"/>
<path d="M0 0 C5.28 0 10.56 0 16 0 C16 5.28 16 10.56 16 16 C10.72 16 5.44 16 0 16 C0 10.72 0 5.44 0 0 Z " fill="#FEFEFF" transform="translate(360,134)"/>
</svg>
