<?xml version="1.0" encoding="UTF-8"?>
<svg width="93px" height="88px" viewBox="0 0 93 88" version="1.1" xmlns="http://www.w3.org/2000/svg" xmlns:xlink="http://www.w3.org/1999/xlink">
    <title>logo-wiz-black-navigation</title>
    <g id="logo-wiz-black-navigation" stroke="none" stroke-width="1" fill="none" fill-rule="evenodd">
        <rect id="bound" x="0" y="0" width="93" height="88"></rect>
        <g id="wiz-logo" transform="translate(7.000000, 25.000000)" fill-rule="nonzero">
            <path d="M42.5000382,31 C41.1153411,30.9900367 39.9988408,29.9464749 40.0000773,28.6633561 L40.0000773,17.3225756 C39.9948345,16.7061712 40.2563278,16.1135161 40.7261122,15.6770714 C41.1958965,15.2406267 41.8348049,14.99678 42.5000382,15 C43.8772726,15.00773 44.9916914,16.0403669 45,17.3165326 L45,28.657313 C45.0012355,29.9404318 43.8847352,30.9839936 42.5000382,30.993957" id="Path" fill="#0B1F2B"></path>
            <path d="M40,11.478814 C40.0117099,10.1009207 41.1361289,8.99227203 42.5140658,9 C43.8920027,9.00780912 45.0038496,10.1290654 45,11.5070028 C44.9961304,12.8849402 43.8780197,14 42.5000609,14 C41.834026,13.9977585 41.1962243,13.7307371 40.7272552,13.2577992 C40.2582861,12.7848612 39.9966534,12.1448364 40,11.478814" id="Path" fill="#0089CB"></path>
            <path d="M64.933695,9.65581395 L49.3150632,9.65581395 C48.0475121,9.66694527 47.0110623,8.63372954 47,7.34806202 C46.9891134,6.06239449 48.00777,5.01113132 49.2753211,5 L68.6893202,5 C70.8408676,5.01457336 72.7291594,6.45657818 73.3377534,8.54980255 C73.9463475,10.6430269 73.1316361,12.8935407 71.3321676,14.0899225 L56.7408682,23.724031 C55.5883483,24.4899225 56.1049951,26.344186 57.4959674,26.344186 L77.6849368,26.344186 C78.9524879,26.3330547 79.9889377,27.3662705 80,28.651938 C80.0108866,29.9376055 78.99223,30.9888687 77.7246789,31 L53.7065614,31 C51.5550141,30.9854266 49.6667223,29.5434218 49.0581282,27.4501974 C48.4495342,25.3569731 49.2642456,23.1064593 51.0637141,21.9100775 L65.6689232,12.275969 C66.8413142,11.4899225 66.3047963,9.65581395 64.933695,9.65581395" id="Path" fill="#0B1F2B"></path>
            <path d="M22.3105554,12.0113826 C21.9052754,10.2280755 20.3867994,8.93420068 18.5897589,8.8409374 C16.7927183,8.74767412 15.1526694,9.877627 14.5710663,11.6097166 L10.8000397,22.5751991 C10.5952828,23.1612439 10.0362908,23.5407785 9.42568781,23.5083325 C8.81508482,23.4758865 8.29801147,23.0391724 8.15439806,22.434616 L4.46234587,6.72947436 C4.20912582,5.65007615 3.24257581,4.90218679 2.1523453,4.94206054 C1.47522192,4.98192942 0.850530746,5.32581453 0.447370247,5.88062916 C0.0442097471,6.43544379 -0.0957241847,7.14380759 0.0654473507,7.81397263 L4.6262177,27.234525 C5.11132677,29.3499909 6.9145978,30.8832462 9.04734997,30.9936519 C11.1801022,31.1040576 13.1270789,29.7649404 13.8208097,27.7104992 L17.3746567,17.3675991 C17.4877309,17.0199531 17.8152408,16.792026 18.1747537,16.8107798 C18.5342667,16.8295336 18.837137,17.0903441 18.9146571,17.4479323 L21.2049141,27.2084167 C21.684788,29.3294886 23.4894725,30.8695316 25.6263398,30.9814784 C27.7632072,31.0934252 29.7138785,29.7501189 30.4054292,27.6904159 L38.8754312,3.08837183 C39.0753144,2.49457833 39.0333508,1.84412138 38.7588945,1.28199151 C38.4844382,0.719861635 38.0003029,0.292785196 37.4144052,0.0959599358 C36.2292447,-0.260750853 34.9802822,0.406970998 34.5969943,1.60220753 L27.4103259,22.5490908 C27.2055689,23.1351356 26.6465769,23.5146702 26.0359739,23.4822242 C25.425371,23.4497782 24.9082976,23.0130641 24.7646842,22.4085077 L22.3105554,12.0113826 Z" id="Path" fill="#0B1F2B"></path>
        </g>
    </g>
</svg>