<svg version="1.1" id="prefix__layer" xmlns="http://www.w3.org/2000/svg" x="0" y="0" viewBox="0 0 652 652" xml:space="preserve">
	<style>
		.prefix__st0 {
			fill: #f67a22
		}
	</style>
	<path class="prefix__st0" d="M538.2 264.3l-35.6 56.4 37.1 59h80.8V264.3M20.5 264.3v115.4h47.9L43.5 264.3" />
	<path
		d="M364.6 312.3h-3.8v-21.8h4.2c9 0 15 1.7 15 10.2-.1 8.6-6.5 11.6-15.4 11.6m-104.4 40.3c-7.1 0-12.3-4-12.3-30.7 0-26 5-30.6 12.3-30.6 7.4 0 12.3 4.6 12.3 30.6 0 26.7-5.3 30.7-12.3 30.7m242.4-31.9l35.7-56.4h-45.7l-16 32.8-15-32.8h-48.3l35 56.4-24.6 38.8c-1.3-9.4-1.8-17.6-3.3-23.5-2.2-8.8-8.3-13.8-19.5-14.7v-.3c17.3-4.2 22.8-14.2 22.8-27.4 0-21.7-14.5-29.2-39.3-29.2H316V297c-7.6-21.9-26.1-35.6-55.8-35.6-24.2 0-41.1 9.2-50.6 24.4l4.6-21.4h-40.9l-9.8 72.5h-.3l-10.7-72.5h-47.3l-10.7 72.5h-.3l-9.7-72.5h-41l24.9 115.4H118l10.7-74.8h.4l10.7 74.8h49.6l11.3-52.3c1.9 33 21.7 55.3 59.6 55.3 29.7 0 48.3-13.7 55.8-35.6v32.6h44.8v-41.1h5.3c7.4 0 10.3 2.2 11.3 8 1.6 9.9 3 24.5 5.8 33.1h73.4l17.7-34.9 17.1 34.9h48.3l-37.2-59.1z" />
	<path
		d="M38.5 358.5h2.6c1.2.1 1.9-.4 1.9-1.7 0-1.3-1.6-1.4-2.6-1.4h-1.9m-3.2-2.5h5.2c3.8 0 5.9.9 5.9 4.2 0 2.6-1.6 3.6-3.5 3.7l3 5.5h-3.5l-2.7-5.4h-1.3v5.4h-3.2v-13.4zm5.3 15.8c5 0 8.9-4.1 8.9-9.1s-3.9-9.1-8.9-9.1-8.8 4.1-8.8 9.1c-.1 5 3.8 9.1 8.8 9.1m0-22.3c7.3 0 13.3 5.9 13.3 13.2 0 7.3-5.9 13.2-13.3 13.2-7.3 0-13.2-5.9-13.2-13.2-.1-7.3 5.9-13.2 13.2-13.2"
		fill="#fff" />
</svg>