<?xml version="1.0" encoding="UTF-8" standalone="no"?><!DOCTYPE svg PUBLIC "-//W3C//DTD SVG 1.1//EN" "http://www.w3.org/Graphics/SVG/1.1/DTD/svg11.dtd"><svg width="800px" height="175px" version="1.1" xmlns="http://www.w3.org/2000/svg" xmlns:xlink="http://www.w3.org/1999/xlink" xml:space="preserve" xmlns:serif="http://www.serif.com/" style="fill-rule:evenodd;clip-rule:evenodd;stroke-linejoin:round;stroke-miterlimit:2;"><g id="レイヤー-1" serif:id="レイヤー 1"><g id="switch29"><g id="g27"><g id="レイヤー_1"><g id="g24"><g id="g8"><path id="path4" d="M87.052,0c-48.076,0 -87.052,38.974 -87.052,87.058c0,48.075 38.976,87.057 87.052,87.057c48.078,0 87.058,-38.982 87.058,-87.057c-0,-48.084 -38.977,-87.058 -87.058,-87.058Zm-0,164.288c-42.653,-0 -77.236,-34.58 -77.236,-77.23c0,-42.659 34.58,-77.236 77.236,-77.236c42.656,0 77.236,34.577 77.236,77.236c-0,42.65 -34.58,77.23 -77.236,77.23Z" style="fill:#48217a;fill-rule:nonzero;"/><path id="path6" d="M150.327,122.117l-12.64,-14.76c-0.156,-0.179 -0.34,-0.332 -0.553,-0.457c-0.646,-0.368 -1.405,-0.377 -2.032,-0.074c-1.93,0.913 -4.263,0.896 -6.253,-0.252c-1.772,-1.015 -2.9,-2.727 -3.252,-4.586l0.003,-0c-0.89,-4.737 -3.758,-9.068 -8.257,-11.662l-5.661,-3.266l32.182,-18.578l-3.983,-6.902l-36.164,20.877l-4.346,-2.506l0,-5.02l36.162,-20.88l-3.983,-6.9l-32.179,18.582l0,-6.534c0,-5.196 -2.318,-9.848 -5.972,-12.983c-1.437,-1.23 -2.35,-3.061 -2.35,-5.105c-0,-2.299 1.151,-4.334 2.911,-5.548c0.575,-0.391 0.947,-1.054 0.947,-1.8c-0,-0.246 -0.04,-0.484 -0.114,-0.705l-6.46,-18.324c-0.178,-0.535 -0.683,-0.918 -1.275,-0.918c-0.59,0 -1.095,0.383 -1.273,0.918l-6.457,18.324c-0.077,0.221 -0.117,0.459 -0.117,0.705c0,0.746 0.375,1.409 0.944,1.8l0.003,0c1.758,1.214 2.911,3.249 2.911,5.548c0,2.044 -0.91,3.875 -2.352,5.105c-3.657,3.135 -5.97,7.79 -5.97,12.983l-0,6.534l-32.182,-18.582l-3.983,6.9l36.165,20.88l-0,5.023l-4.346,2.503l-36.164,-20.877l-3.98,6.902l32.182,18.578l-5.664,3.266c-4.498,2.594 -7.367,6.925 -8.254,11.662c-0.352,1.859 -1.477,3.571 -3.249,4.586c-1.993,1.148 -4.323,1.165 -6.256,0.252c-0.629,-0.3 -1.386,-0.294 -2.03,0.074c-0.215,0.125 -0.402,0.281 -0.552,0.457l-12.643,14.754c-0.371,0.422 -0.451,1.046 -0.156,1.567c0.295,0.508 0.879,0.754 1.429,0.65l19.1,-3.578c0.229,-0.045 0.459,-0.127 0.669,-0.249c0.649,-0.377 1.029,-1.026 1.085,-1.724c0.173,-2.126 1.358,-4.144 3.348,-5.292c1.766,-1.015 3.81,-1.145 5.599,-0.519c4.544,1.599 9.728,1.279 14.227,-1.323l5.66,-3.26l0,37.156l7.966,0l-0,-41.76l4.348,-2.508l4.346,2.508l-0,41.757l7.968,0l-0,-37.156l5.658,3.26c4.498,2.602 9.686,2.922 14.23,1.323c1.783,-0.629 3.829,-0.498 5.598,0.519c1.99,1.148 3.172,3.167 3.345,5.292c0.054,0.698 0.437,1.35 1.08,1.724c0.213,0.122 0.442,0.204 0.672,0.249l19.097,3.578c0.553,0.105 1.134,-0.142 1.431,-0.649c0.287,-0.519 0.204,-1.14 -0.164,-1.559Zm-75.583,-22.933l-10.621,6.129c-2.081,1.202 -4.737,0.487 -5.936,-1.59c-1.199,-2.084 -0.488,-4.74 1.593,-5.942l10.621,-6.131l4.346,2.511l-0,5.023l-0.003,0Zm7.965,-41.113c0,-2.404 1.945,-4.352 4.346,-4.352c2.401,0 4.348,1.948 4.348,4.352l0,12.259l-4.345,2.506l-4.349,-2.506l0,-12.259Zm9.346,31.872l-4.997,2.883l-5.004,-2.886l0,-5.774l5.004,-2.888l4.997,2.888l0,5.777Zm23.871,13.782c-1.202,2.075 -3.864,2.79 -5.942,1.591l-10.618,-6.135l-0,-5.017l4.345,-2.511l10.619,6.131c2.08,1.202 2.792,3.855 1.596,5.941Z" style="fill:#48217a;fill-rule:nonzero;"/></g><g id="g22"><path id="polygon10" d="M666.68,69.372l-29.055,0l0,-58.087l-26.541,-0l0,151.543l26.541,-0l0,-66.549l29.055,-0l0,66.549l27.119,-0l0,-151.543l-27.119,-0l0,58.087Z" style="fill:#48217a;fill-rule:nonzero;"/><path id="polygon12" d="M193.487,11.285l29.455,92.922l0,58.621l29.483,-0l0,-61.631l30.535,-89.912l-24.812,-0l-20.043,59.04l-18.145,-59.04l-26.473,-0Z" style="fill:#48217a;fill-rule:nonzero;"/><path id="polygon14" d="M449.461,11.285l-12.713,72.088l-14.743,-72.088l-41.434,-0l0,151.543l23.76,-0l0,-114.234l20.276,99.306l22.19,0l17.983,-100.919l-0,115.847l27.859,-0l-0,-151.543l-43.178,-0Z" style="fill:#48217a;fill-rule:nonzero;"/><path id="path16" d="M774.669,11.285l-41.043,-0l-27.694,151.543l24.559,-0l5.873,-35.263l30.549,-0l5.698,35.263l27.062,-0l-25.004,-151.543Zm-34.092,91.017l11.293,-67.776l10.961,67.776l-22.254,0Z" style="fill:#48217a;fill-rule:nonzero;"/><path id="path18" d="M532.468,11.285l-27.703,151.543l24.565,-0l5.879,-35.263l30.549,-0l5.698,35.263l27.057,-0l-25.007,-151.543l-41.038,-0Zm6.948,91.017l11.293,-67.776l10.962,67.776l-22.255,0Z" style="fill:#48217a;fill-rule:nonzero;"/><path id="path20" d="M301.949,11.285l-27.703,151.543l24.568,-0l5.879,-35.263l30.546,-0l5.701,35.263l27.051,-0l-25.005,-151.543l-41.037,-0Zm6.951,91.017l11.293,-67.776l10.959,67.776l-22.252,0Z" style="fill:#48217a;fill-rule:nonzero;"/></g></g></g></g></g></g></svg>