<?xml version="1.0" encoding="UTF-8" standalone="no"?><!DOCTYPE svg PUBLIC "-//W3C//DTD SVG 1.1//EN" "http://www.w3.org/Graphics/SVG/1.1/DTD/svg11.dtd"><svg width="256px" height="114px" version="1.1" xmlns="http://www.w3.org/2000/svg" xmlns:xlink="http://www.w3.org/1999/xlink" xml:space="preserve" xmlns:serif="http://www.serif.com/" style="fill-rule:evenodd;clip-rule:evenodd;stroke-linejoin:round;stroke-miterlimit:2;"><g><path d="M115.777,63.793l12.39,0l3.621,22.286l4.019,-22.286l8.628,0l4.329,22.286l3.942,-22.286l11.586,0l-9.425,33.711l-10.914,0l-3.476,-17.62l-4.115,17.62l-10.54,0l-10.045,-33.711Zm77.721,0.081l13.195,-0l5.31,20.436l5.954,-20.677l12.551,-0l-12.563,33.872l-11.84,-0l-12.607,-33.631Zm40.067,-0l-0,33.63l22.435,-0l-0,-8.608l-10.768,-0l-0,-4.023l9.735,-0l-0,-8.69l-9.735,-0l-0,-3.781l10.62,-0l-0,-8.528l-22.287,-0Zm-56.762,21.441l3.258,-11.827l2.475,11.827l-5.733,0Zm10.097,-21.522l-13.657,0l-12.274,33.711l12.953,0l1.151,-4.666l9.514,0l1,4.666l13.289,0l-11.976,-33.711Zm-90.03,23.172l-6.436,10.459l-27.999,-0l15.528,-24.056l-14.346,-0l5.978,-9.574l27.275,-0l-14.563,23.171l14.563,-0Zm-15.999,-37.975c-17.863,-0 -32.344,14.48 -32.344,32.343c-0,17.863 14.481,32.344 32.344,32.344c17.862,-0 32.343,-14.481 32.343,-32.344c-0,-17.863 -14.481,-32.343 -32.343,-32.343Zm-0.736,-38.348l0,-10.642c-44.29,0.196 -80.135,36.152 -80.135,80.488c0,0.202 0.014,0.401 0.016,0.603l10.611,0c0.129,-38.542 31.089,-69.803 69.508,-70.449Zm0,22.197l0,-10.635c-0.081,-0.001 -0.16,-0.007 -0.241,-0.007c-32.393,-0 -58.653,26.26 -58.653,58.653c0,0.081 0.006,0.161 0.006,0.241l10.635,-0c0.448,-26.453 21.799,-47.804 48.253,-48.252Z" style="fill:#00396f;fill-rule:nonzero;"/></g></svg>